<svg width="30" height="31" viewBox="0 0 30 31" fill="none" xmlns="http://www.w3.org/2000/svg">
<path d="M25.86 5.8727H25.26L20.19 0.803691C19.785 0.39877 19.125 0.39877 18.705 0.803691C18.3 1.20861 18.3 1.86848 18.705 2.2884L22.29 5.8727H7.71L11.295 2.2884C11.7 1.88348 11.7 1.22361 11.295 0.803691C10.89 0.39877 10.23 0.39877 9.81 0.803691L4.755 5.8727H4.155C2.805 5.8727 0 5.8727 0 9.71195C0 11.1667 0.3 12.1265 0.93 12.7564C1.29 13.1313 1.725 13.3263 2.19 13.4312C2.625 13.5362 3.09 13.5512 3.54 13.5512H26.46C26.925 13.5512 27.36 13.5212 27.78 13.4312C29.04 13.1313 30 12.2315 30 9.71195C30 5.8727 27.195 5.8727 25.86 5.8727Z" fill="white"/>
<path d="M25.5759 15.5029H4.30597C3.37597 15.5029 2.67097 16.3278 2.82097 17.2426L4.08097 24.9511C4.50097 27.5306 5.62596 30.5 10.621 30.5H19.0359C24.0909 30.5 24.9909 27.9655 25.5309 25.131L27.0459 17.2876C27.2259 16.3578 26.5209 15.5029 25.5759 15.5029ZM12.9159 25.176C12.9159 25.7609 12.4509 26.2258 11.881 26.2258C11.296 26.2258 10.831 25.7609 10.831 25.176V20.227C10.831 19.6571 11.296 19.1772 11.881 19.1772C12.4509 19.1772 12.9159 19.6571 12.9159 20.227V25.176ZM19.3359 25.176C19.3359 25.7609 18.8709 26.2258 18.2859 26.2258C17.7159 26.2258 17.2359 25.7609 17.2359 25.176V20.227C17.2359 19.6571 17.7159 19.1772 18.2859 19.1772C18.8709 19.1772 19.3359 19.6571 19.3359 20.227V25.176Z" fill="white"/>
</svg>
