<svg width="243" height="194" viewBox="0 0 243 194" fill="none" xmlns="http://www.w3.org/2000/svg">
<path d="M176.363 4.18478C183.472 6.25118 215.243 16.4008 228.791 43.7512C247.814 82.1224 215.613 123.311 206.781 134.613C186.53 160.516 132.381 208.809 78.4888 189.333C35.3224 173.733 17.6032 120.933 25.9096 83.536C39.5944 21.8944 119.961 -12.2144 176.363 4.18478Z" fill="#EFF5F9"/>
<path d="M221.79 73.8064H207.177C206.912 73.8064 206.697 74.0213 206.697 74.2864V80.2696C206.697 80.5347 206.912 80.7496 207.177 80.7496H221.79C222.055 80.7496 222.27 80.5347 222.27 80.2696V74.2864C222.27 74.0213 222.055 73.8064 221.79 73.8064Z" stroke="#C9EFFB" stroke-width="2" stroke-miterlimit="10"/>
<path d="M221.79 87.6664H207.177C206.912 87.6664 206.697 87.8813 206.697 88.1464V94.1296C206.697 94.3947 206.912 94.6096 207.177 94.6096H221.79C222.055 94.6096 222.27 94.3947 222.27 94.1296V88.1464C222.27 87.8813 222.055 87.6664 221.79 87.6664Z" stroke="#C9EFFB" stroke-width="2" stroke-miterlimit="10"/>
<path d="M229.576 80.7496H214.962C214.697 80.7496 214.482 80.9645 214.482 81.2296V87.2128C214.482 87.4779 214.697 87.6928 214.962 87.6928H229.576C229.841 87.6928 230.056 87.4779 230.056 87.2128V81.2296C230.056 80.9645 229.841 80.7496 229.576 80.7496Z" fill="#C9EFFB"/>
<path d="M214.005 80.7496H199.391C199.126 80.7496 198.911 80.9645 198.911 81.2296V87.2128C198.911 87.4779 199.126 87.6928 199.391 87.6928H214.005C214.27 87.6928 214.485 87.4779 214.485 87.2128V81.2296C214.485 80.9645 214.27 80.7496 214.005 80.7496Z" fill="#C9EFFB"/>
<path d="M50.9632 108.124H36.3496C36.0845 108.124 35.8696 108.339 35.8696 108.604V114.587C35.8696 114.852 36.0845 115.067 36.3496 115.067H50.9632C51.2283 115.067 51.4432 114.852 51.4432 114.587V108.604C51.4432 108.339 51.2283 108.124 50.9632 108.124Z" stroke="#C9EFFB" stroke-width="2" stroke-miterlimit="10"/>
<path d="M58.7489 121.986H44.1353C43.8702 121.986 43.6553 122.201 43.6553 122.466V128.45C43.6553 128.715 43.8702 128.93 44.1353 128.93H58.7489C59.014 128.93 59.2289 128.715 59.2289 128.45V122.466C59.2289 122.201 59.014 121.986 58.7489 121.986Z" stroke="#C9EFFB" stroke-width="2" stroke-miterlimit="10"/>
<path d="M61.9864 115.067H47.3728C47.1077 115.067 46.8928 115.282 46.8928 115.547V121.53C46.8928 121.795 47.1077 122.01 47.3728 122.01H61.9864C62.2515 122.01 62.4664 121.795 62.4664 121.53V115.547C62.4664 115.282 62.2515 115.067 61.9864 115.067Z" fill="#C9EFFB"/>
<path d="M46.4128 115.067H31.7992C31.5341 115.067 31.3192 115.282 31.3192 115.547V121.53C31.3192 121.795 31.5341 122.01 31.7992 122.01H46.4128C46.6779 122.01 46.8928 121.795 46.8928 121.53V115.547C46.8928 115.282 46.6779 115.067 46.4128 115.067Z" fill="#C9EFFB"/>
<path d="M141.537 15.6208H126.923C126.658 15.6208 126.443 15.8357 126.443 16.1008V22.084C126.443 22.3491 126.658 22.564 126.923 22.564H141.537C141.802 22.564 142.017 22.3491 142.017 22.084V16.1008C142.017 15.8357 141.802 15.6208 141.537 15.6208Z" fill="#C9EFFB"/>
<path d="M146.798 29.5072H132.184C131.919 29.5072 131.704 29.7221 131.704 29.9872V35.9704C131.704 36.2355 131.919 36.4504 132.184 36.4504H146.798C147.063 36.4504 147.278 36.2355 147.278 35.9704V29.9872C147.278 29.7221 147.063 29.5072 146.798 29.5072Z" fill="#C9EFFB"/>
<path d="M152.56 22.564H137.946C137.681 22.564 137.466 22.7789 137.466 23.044V29.0272C137.466 29.2923 137.681 29.5072 137.946 29.5072H152.56C152.825 29.5072 153.04 29.2923 153.04 29.0272V23.044C153.04 22.7789 152.825 22.564 152.56 22.564Z" stroke="#C9EFFB" stroke-width="2" stroke-miterlimit="10"/>
<path d="M136.986 22.564H122.373C122.108 22.564 121.893 22.7789 121.893 23.044V29.0272C121.893 29.2923 122.108 29.5072 122.373 29.5072H136.986C137.252 29.5072 137.466 29.2923 137.466 29.0272V23.044C137.466 22.7789 137.252 22.564 136.986 22.564Z" stroke="#C9EFFB" stroke-width="2" stroke-miterlimit="10"/>
<path d="M2.99927 192.902V190.773H10.0505L4.38167 193.739C4.23762 193.814 4.07667 193.851 3.91434 193.846C3.75201 193.84 3.59376 193.793 3.45485 193.709C3.31595 193.625 3.20106 193.507 3.12126 193.365C3.04147 193.224 2.99945 193.064 2.99927 192.902Z" fill="#454851"/>
<path d="M7.39124 192.902V190.773H14.4424L8.77364 193.739C8.62959 193.814 8.46864 193.851 8.30631 193.846C8.14398 193.84 7.98573 193.793 7.84682 193.709C7.70791 193.625 7.59303 193.507 7.51323 193.365C7.43343 193.224 7.39142 193.064 7.39124 192.902Z" fill="#9D9F9F"/>
<path d="M1.74878 149.433H47.6008C48.123 149.433 48.5464 149.009 48.5464 148.487V146.709C48.5464 146.187 48.123 145.763 47.6008 145.763H1.74878C1.22654 145.763 0.803188 146.187 0.803188 146.709V148.487C0.803188 149.009 1.22654 149.433 1.74878 149.433Z" fill="#9D9F9F"/>
<path d="M1.74882 145.766H8.04162C7.79147 145.766 7.55156 145.865 7.37468 146.042C7.1978 146.219 7.09842 146.459 7.09842 146.709V148.49C7.09842 148.74 7.19772 148.98 7.37453 149.157C7.55135 149.335 7.79125 149.435 8.04162 149.435H1.74882C1.49919 149.431 1.26083 149.331 1.08429 149.154C0.907758 148.978 0.80694 148.739 0.803223 148.49V146.709C0.803858 146.458 0.903765 146.218 1.08103 146.042C1.2583 145.865 1.49845 145.766 1.74882 145.766Z" fill="#454851"/>
<path d="M7.38886 190.835H46.3505L46.3505 149.433H7.38886L7.38886 190.835Z" fill="#9D9F9F"/>
<path d="M7.38887 149.435H2.99927V190.838H7.38887V149.435Z" fill="#454851"/>
<path d="M46.3504 192.966V190.84H39.2992L44.968 193.809C45.1124 193.884 45.2738 193.921 45.4365 193.915C45.5993 193.91 45.7578 193.862 45.8969 193.778C46.0359 193.693 46.1507 193.574 46.2302 193.432C46.3096 193.289 46.351 193.129 46.3504 192.966Z" fill="#9D9F9F"/>
<path d="M39.2993 190.84L41.9609 192.234V192.971C41.9609 193.134 41.9189 193.294 41.839 193.436C41.7591 193.578 41.6439 193.696 41.5047 193.78C41.3654 193.865 41.2068 193.912 41.0441 193.917C40.8814 193.922 40.7202 193.884 40.5761 193.809L34.9097 190.84H39.2993Z" fill="#454851"/>
<path d="M44.4472 151.367H9.29199V158.951H44.4472V151.367Z" fill="#ABBCCA"/>
<path d="M44.4472 161.351H9.29199V168.935H44.4472V161.351Z" fill="#ABBCCA"/>
<path d="M44.4472 171.335H9.29199V178.919H44.4472V171.335Z" fill="#ABBCCA"/>
<path d="M44.4472 181.322H9.29199V188.903H44.4472V181.322Z" fill="#ABBCCA"/>
<path d="M44.4497 151.367H14.2552V158.951H44.4497V151.367Z" fill="#E3EAF3"/>
<path d="M44.4497 161.351H14.2552V168.935H44.4497V161.351Z" fill="#E3EAF3"/>
<path d="M44.4497 171.335H14.2552V178.919H44.4497V171.335Z" fill="#E3EAF3"/>
<path d="M44.4497 181.322H14.2552V188.903H44.4497V181.322Z" fill="#E3EAF3"/>
<path d="M29.3513 156.69C30.1969 156.69 30.8825 156.005 30.8825 155.159C30.8825 154.314 30.1969 153.628 29.3513 153.628C28.5056 153.628 27.8201 154.314 27.8201 155.159C27.8201 156.005 28.5056 156.69 29.3513 156.69Z" fill="#9D9F9F"/>
<path d="M29.3513 166.674C30.1969 166.674 30.8825 165.989 30.8825 165.143C30.8825 164.298 30.1969 163.612 29.3513 163.612C28.5056 163.612 27.8201 164.298 27.8201 165.143C27.8201 165.989 28.5056 166.674 29.3513 166.674Z" fill="#9D9F9F"/>
<path d="M29.3513 176.658C30.1969 176.658 30.8825 175.973 30.8825 175.127C30.8825 174.282 30.1969 173.596 29.3513 173.596C28.5056 173.596 27.8201 174.282 27.8201 175.127C27.8201 175.973 28.5056 176.658 29.3513 176.658Z" fill="#9D9F9F"/>
<path d="M29.3513 186.642C30.1969 186.642 30.8825 185.957 30.8825 185.111C30.8825 184.266 30.1969 183.58 29.3513 183.58C28.5056 183.58 27.8201 184.266 27.8201 185.111C27.8201 185.957 28.5056 186.642 29.3513 186.642Z" fill="#9D9F9F"/>
<path d="M57.3088 50.68H37.4848C37.1665 50.68 36.8613 50.5535 36.6363 50.3285C36.4112 50.1034 36.2848 49.7982 36.2848 49.48V29.656C36.2848 29.3377 36.4112 29.0325 36.6363 28.8074C36.8613 28.5824 37.1665 28.456 37.4848 28.456H57.3088C57.627 28.456 57.9323 28.5824 58.1573 28.8074C58.3824 29.0325 58.5088 29.3377 58.5088 29.656V49.48C58.5088 49.7982 58.3824 50.1034 58.1573 50.3285C57.9323 50.5535 57.627 50.68 57.3088 50.68Z" fill="#FF0068"/>
<path d="M55.9167 49.48H38.9007C38.7174 49.4819 38.5355 49.4472 38.3658 49.3779C38.196 49.3087 38.0418 49.2062 37.9122 49.0766C37.7825 48.9469 37.6801 48.7927 37.6108 48.6229C37.5415 48.4532 37.5068 48.2713 37.5087 48.088V31.072C37.5068 30.8886 37.5415 30.7068 37.6108 30.537C37.6801 30.3673 37.7825 30.213 37.9122 30.0834C38.0418 29.9537 38.196 29.8513 38.3658 29.782C38.5355 29.7127 38.7174 29.6781 38.9007 29.68H55.9167C56.1001 29.6781 56.282 29.7127 56.4517 29.782C56.6215 29.8513 56.7757 29.9537 56.9053 30.0834C57.035 30.213 57.1374 30.3673 57.2067 30.537C57.276 30.7068 57.3107 30.8886 57.3087 31.072V48.088C57.3038 48.4556 57.1555 48.8068 56.8955 49.0668C56.6356 49.3268 56.2844 49.475 55.9167 49.48ZM38.9007 30.4C38.8122 30.399 38.7244 30.4157 38.6424 30.4492C38.5605 30.4826 38.486 30.5321 38.4234 30.5947C38.3608 30.6572 38.3114 30.7317 38.2779 30.8137C38.2445 30.8956 38.2278 30.9835 38.2287 31.072V48.088C38.2278 48.1765 38.2445 48.2643 38.2779 48.3463C38.3114 48.4282 38.3608 48.5027 38.4234 48.5653C38.486 48.6279 38.5605 48.6774 38.6424 48.7108C38.7244 48.7442 38.8122 48.7609 38.9007 48.76H55.9167C56.0927 48.7529 56.2595 48.6798 56.3841 48.5553C56.5086 48.4308 56.5816 48.2639 56.5887 48.088V31.072C56.5897 30.9835 56.573 30.8956 56.5396 30.8137C56.5061 30.7317 56.4567 30.6572 56.3941 30.5947C56.3315 30.5321 56.257 30.4826 56.175 30.4492C56.0931 30.4157 56.0053 30.399 55.9167 30.4H38.9007Z" fill="#E3EAF3"/>
<path d="M42.7648 44.2192C43.0079 43.7001 43.2804 43.1953 43.5808 42.7072C43.9888 42.3472 44.3488 41.9392 44.7568 41.5552L47.0848 39.2272L46.9408 39.5632V36.6832C46.9408 36.2032 46.9168 35.7232 46.9648 35.2432C47.1088 34.7632 47.2528 34.2832 47.4208 33.8032C47.6053 34.2722 47.7577 34.7534 47.8768 35.2432C47.9008 35.7232 47.8768 36.2032 47.9008 36.6832V39.7792L47.7568 39.9232L45.4288 42.2512C45.0448 42.6352 44.6368 43.0192 44.2768 43.4272C43.7968 43.6912 43.2928 43.9792 42.7648 44.2192Z" fill="#E3EAF3"/>
<path d="M235.626 44.3224H107.531V193.847H235.626V44.3224Z" fill="#A8E5F9"/>
<path d="M242.661 47.176H100.497V48.856H242.661V47.176Z" fill="#FF0068"/>
<path d="M242.661 52.6432H100.497V54.3232H242.661V52.6432Z" fill="#FF0068"/>
<path d="M242.661 58.1104H100.497V59.7904H242.661V58.1104Z" fill="#FF0068"/>
<path d="M242.661 63.58H100.497V65.26H242.661V63.58Z" fill="#FF0068"/>
<path d="M242.661 69.0472H100.497V70.7272H242.661V69.0472Z" fill="#FF0068"/>
<path d="M242.661 74.5168H100.497V76.1968H242.661V74.5168Z" fill="#FF0068"/>
<path d="M242.661 79.984H100.497V81.664H242.661V79.984Z" fill="#FF0068"/>
<path d="M242.661 85.4512H100.497V87.1312H242.661V85.4512Z" fill="#FF0068"/>
<path d="M242.661 90.9208H100.497V92.6008H242.661V90.9208Z" fill="#FF0068"/>
<path d="M242.661 96.388H100.497V98.068H242.661V96.388Z" fill="#FF0068"/>
<path d="M242.661 101.781H100.497V103.461H242.661V101.781Z" fill="#FF0068"/>
<path d="M242.661 107.248H100.497V108.928H242.661V107.248Z" fill="#FF0068"/>
<path d="M242.661 112.718H100.497V114.398H242.661V112.718Z" fill="#FF0068"/>
<path d="M242.661 118.185H100.497V119.865H242.661V118.185Z" fill="#FF0068"/>
<path d="M242.661 123.654H100.497V125.334H242.661V123.654Z" fill="#FF0068"/>
<path d="M242.661 129.122H100.497V130.802H242.661V129.122Z" fill="#FF0068"/>
<path d="M242.661 134.589H100.497V136.269H242.661V134.589Z" fill="#FF0068"/>
<path d="M242.661 140.058H100.497V141.738H242.661V140.058Z" fill="#FF0068"/>
<path d="M242.661 145.526H100.497V147.206H242.661V145.526Z" fill="#FF0068"/>
<path d="M242.661 150.995H100.497V152.675H242.661V150.995Z" fill="#FF0068"/>
<path d="M242.661 156.506H100.497V158.186H242.661V156.506Z" fill="#FF0068"/>
<path d="M242.661 161.975H100.497V163.655H242.661V161.975Z" fill="#FF0068"/>
<path d="M242.661 167.442H100.497V169.122H242.661V167.442Z" fill="#FF0068"/>
<path d="M242.661 172.91H100.497V174.59H242.661V172.91Z" fill="#FF0068"/>
<path d="M242.661 178.379H100.497V180.059H242.661V178.379Z" fill="#FF0068"/>
<path d="M242.661 183.846H100.497V185.526H242.661V183.846Z" fill="#FF0068"/>
<path d="M242.661 189.314H100.497V190.994H242.661V189.314Z" fill="#FF0068"/>
<path d="M71.8912 129.489H50.4088C49.7844 129.489 49.167 129.356 48.5987 129.097C48.0303 128.839 47.5241 128.461 47.1145 127.989C46.7048 127.518 46.4013 126.964 46.2243 126.365C46.0473 125.767 46.0011 125.137 46.0888 124.518L49.9912 97C50.1387 95.9594 50.657 95.0072 51.4508 94.3184C52.2445 93.6296 53.2603 93.2506 54.3112 93.2512H67.9912C69.0423 93.2501 70.0584 93.6289 70.8522 94.3178C71.6461 95.0067 72.1642 95.9592 72.3112 97L76.2112 124.509C76.3 125.128 76.2547 125.759 76.0782 126.358C75.9018 126.958 75.5985 127.513 75.1887 127.985C74.779 128.458 74.2725 128.837 73.7035 129.096C73.1346 129.355 72.5165 129.489 71.8912 129.489Z" fill="#C9EFFB"/>
<path d="M54.5896 119.507C53.6296 118.427 53.5144 115.83 53.296 110.627C53.1122 106.676 53.2978 102.716 53.8504 98.7999C54.1252 96.9316 54.5034 95.08 54.9832 93.2535H54.3088C53.2579 93.253 52.2421 93.6319 51.4483 94.3207C50.6546 95.0095 50.1363 95.9618 49.9888 97.0023L46.0936 124.518C46.0059 125.137 46.0521 125.767 46.2291 126.365C46.406 126.964 46.7096 127.518 47.1193 127.989C47.5289 128.461 48.0351 128.839 48.6034 129.097C49.1718 129.356 49.7891 129.489 50.4136 129.489H71.896C72.5203 129.489 73.1375 129.355 73.7056 129.096C74.2738 128.838 74.7798 128.46 75.1894 127.989C75.5989 127.517 75.9026 126.964 76.0797 126.365C76.2568 125.766 76.3033 125.137 76.216 124.518L75.976 122.903C75.2392 122.606 74.4952 122.339 73.816 122.094C64.1872 118.653 57.8752 123.189 54.5896 119.507Z" fill="#80CBE8"/>
<path d="M51.9784 146.308C51.8252 146.308 51.674 146.274 51.5357 146.208C51.3974 146.142 51.2755 146.046 51.179 145.928C51.0824 145.809 51.0136 145.67 50.9775 145.521C50.9414 145.372 50.939 145.217 50.9704 145.067C51.5944 142.149 54.5296 141.498 58.0576 141.498H93.76C97.288 141.498 100.226 142.149 100.847 145.067C100.879 145.217 100.876 145.372 100.84 145.52C100.804 145.669 100.736 145.808 100.639 145.927C100.543 146.045 100.421 146.141 100.283 146.207C100.145 146.273 99.9945 146.308 99.8416 146.308H51.9784Z" fill="#C9EFFB"/>
<path d="M67.7872 141.498H58.0576C54.5296 141.498 51.5944 142.149 50.9704 145.067C50.939 145.217 50.9414 145.372 50.9775 145.521C51.0136 145.67 51.0824 145.809 51.179 145.928C51.2755 146.046 51.3974 146.142 51.5357 146.208C51.674 146.274 51.8252 146.308 51.9784 146.308H60.5776C60.5776 142.326 63.8056 141.498 67.7872 141.498Z" fill="#80CBE8"/>
<path d="M64.7201 146.308H87.0857V148.269C87.0857 148.46 87.0098 148.643 86.8748 148.778C86.7398 148.913 86.5566 148.989 86.3657 148.989H65.4401C65.2491 148.989 65.066 148.913 64.931 148.778C64.796 148.643 64.7201 148.46 64.7201 148.269V146.308Z" fill="#80CBE8"/>
<path d="M73.972 148.989H77.8528V153.906C77.8528 154.097 77.777 154.28 77.642 154.415C77.5069 154.551 77.3238 154.626 77.1328 154.626H74.692C74.5011 154.626 74.318 154.551 74.1829 154.415C74.0479 154.28 73.972 154.097 73.972 153.906V148.989Z" fill="#59A4CE"/>
<path d="M74.692 178.182H77.1328C77.3238 178.182 77.5069 178.258 77.642 178.393C77.777 178.528 77.8528 178.711 77.8528 178.902V183.82H73.972V178.902C73.972 178.711 74.0479 178.528 74.1829 178.393C74.318 178.258 74.5011 178.182 74.692 178.182Z" fill="#59A4CE"/>
<path d="M75.9137 154.626V178.182" stroke="#59A4CE" stroke-width="4" stroke-miterlimit="10"/>
<path d="M55.6384 188.349C55.6384 187.149 56.1146 185.998 56.9623 185.149C57.8101 184.3 58.9602 183.822 60.16 183.82H91.6576C92.8587 183.82 94.0107 184.297 94.86 185.146C95.7093 185.996 96.1864 187.148 96.1864 188.349" stroke="#59A4CE" stroke-width="4" stroke-miterlimit="10"/>
<path d="M55.6384 193.847C57.3231 193.847 58.6888 192.481 58.6888 190.797C58.6888 189.112 57.3231 187.746 55.6384 187.746C53.9537 187.746 52.588 189.112 52.588 190.797C52.588 192.481 53.9537 193.847 55.6384 193.847Z" fill="#69BAEF"/>
<path d="M55.6385 192.414C56.5318 192.414 57.2561 191.69 57.2561 190.797C57.2561 189.903 56.5318 189.179 55.6385 189.179C54.7451 189.179 54.0209 189.903 54.0209 190.797C54.0209 191.69 54.7451 192.414 55.6385 192.414Z" fill="#59A4CE"/>
<path d="M96.1864 193.847C97.8711 193.847 99.2368 192.481 99.2368 190.797C99.2368 189.112 97.8711 187.746 96.1864 187.746C94.5017 187.746 93.136 189.112 93.136 190.797C93.136 192.481 94.5017 193.847 96.1864 193.847Z" fill="#69BAEF"/>
<path d="M96.1864 192.414C97.0798 192.414 97.8041 191.69 97.8041 190.797C97.8041 189.903 97.0798 189.179 96.1864 189.179C95.2931 189.179 94.5688 189.903 94.5688 190.797C94.5688 191.69 95.2931 192.414 96.1864 192.414Z" fill="#59A4CE"/>
<path d="M66.3617 94.996C69.6727 94.996 72.3569 92.3118 72.3569 89.0008C72.3569 85.6897 69.6727 83.0056 66.3617 83.0056C63.0506 83.0056 60.3665 85.6897 60.3665 89.0008C60.3665 92.3118 63.0506 94.996 66.3617 94.996Z" fill="black"/>
<path d="M73.6217 90.1144C66.4217 91.7944 64.7225 88.0864 64.5185 84.9688C64.3145 81.8512 65.5073 76.6288 70.0385 74.932C74.5697 73.2352 88.2713 86.7016 73.6217 90.1144Z" fill="black"/>
<path d="M74.08 74.6128C71.104 75.1936 69.28 78.9832 69.7 83.3824H69.676C68.8624 83.5408 68.3848 84.5824 68.6056 85.7272C68.8264 86.872 69.6664 87.6472 70.48 87.496C70.5885 87.4747 70.6929 87.4366 70.7896 87.3832C72.4408 90.7144 75.6496 92.5672 78.292 92.0536C81.568 91.4152 82.7272 87.3712 81.7624 82.4176C80.7976 77.464 77.356 73.9744 74.08 74.6128Z" fill="#EA9D7D"/>
<path d="M77.2433 94.6528C77.0945 94.1224 77.7233 92.8264 78.1097 92.08C75.5033 92.4808 72.4025 90.64 70.7873 87.3856C70.6906 87.439 70.5861 87.4771 70.4777 87.4984C70.4777 87.4984 70.2233 94.2688 68.7569 94.3528C67.0409 95.8264 61.4345 100.809 62.5769 103.12C63.5369 105.059 68.7113 104.058 76.4273 102.568C77.1781 102.452 77.8784 102.118 78.4409 101.608C80.0609 100.062 79.6169 97.288 79.3889 96.6592C79.0961 95.8432 77.4617 95.4208 77.2433 94.6528Z" fill="#EA9D7D"/>
<path d="M70.2593 90.196C70.4297 88.756 70.4777 87.4984 70.4777 87.4984C70.5861 87.4771 70.6906 87.439 70.7873 87.3856C72.4025 90.6424 75.5033 92.4808 78.1097 92.08C77.8128 92.6233 77.5607 93.19 77.3561 93.7744C77.2913 93.7912 77.2265 93.808 77.1593 93.82C74.8001 94.2784 72.0113 92.86 70.2593 90.196Z" fill="#D18165"/>
<path d="M77.3176 88.5568C78.229 88.6176 79.1352 88.7411 80.0296 88.9264C80.0296 88.9264 79.9384 87.64 78.8656 87.4864C77.7928 87.3328 77.3176 88.5568 77.3176 88.5568Z" fill="#BE3E5F"/>
<path d="M79.6193 82.1031C79.7273 82.5831 79.8209 83.0632 79.9529 83.524C80.0125 83.7421 80.0979 83.9524 80.2073 84.1503C80.2529 84.2295 80.3369 84.3423 80.4017 84.4431C80.4665 84.5439 80.5385 84.6592 80.6033 84.7744C80.7549 85.0225 80.8316 85.3092 80.8241 85.6C80.8103 85.7761 80.7306 85.9407 80.6009 86.0608C80.4854 86.1638 80.346 86.2364 80.1953 86.2719C79.6873 86.3677 79.1631 86.3305 78.6737 86.164C79.149 86.1419 79.6198 86.0613 80.0753 85.924C80.161 85.8889 80.2386 85.8366 80.3033 85.7703C80.3506 85.717 80.3748 85.6471 80.3705 85.5759C80.3511 85.3741 80.2854 85.1795 80.1785 85.0072C80.1257 84.9064 80.0657 84.8079 80.0033 84.7047C79.9409 84.6015 79.8761 84.5127 79.8089 84.3759C79.6951 84.1349 79.6206 83.8773 79.5881 83.6128C79.5172 83.1112 79.5277 82.6014 79.6193 82.1031Z" fill="#D18165"/>
<path d="M75.28 81.4552C75.7626 81.4428 76.2438 81.3971 76.72 81.3184C76.9507 81.2778 77.1778 81.2192 77.3992 81.1432C77.6272 81.0736 77.8384 80.9656 78.0808 80.8672C77.9386 81.0867 77.7471 81.2699 77.5216 81.4024C77.2955 81.538 77.0467 81.6315 76.7872 81.6784C76.5297 81.7243 76.2667 81.7307 76.0072 81.6976C75.7511 81.6659 75.5039 81.5835 75.28 81.4552Z" fill="black"/>
<path d="M81.3113 80.716C81.3497 80.8312 81.3881 80.956 81.4241 81.0664H81.3905C81.1331 81.1135 80.8699 81.1199 80.6105 81.0856C80.357 81.0538 80.1123 80.9723 79.8905 80.8456C80.3665 80.8341 80.8411 80.7908 81.3113 80.716Z" fill="black"/>
<path d="M81.136 83.9176C81.0403 83.9359 80.9412 83.9157 80.8602 83.8613C80.7793 83.8069 80.7232 83.7228 80.704 83.6272L80.4976 82.5712C80.4861 82.523 80.4844 82.4731 80.4927 82.4243C80.501 82.3755 80.519 82.3289 80.5458 82.2873C80.5725 82.2456 80.6074 82.2098 80.6483 82.182C80.6892 82.1542 80.7353 82.1349 80.7839 82.1254C80.8324 82.1159 80.8824 82.1162 80.9308 82.1265C80.9792 82.1367 81.0251 82.1566 81.0656 82.1851C81.1061 82.2135 81.1404 82.2498 81.1666 82.2918C81.1927 82.3338 81.2101 82.3807 81.2176 82.4296L81.424 83.4856C81.4425 83.581 81.4226 83.6798 81.3687 83.7606C81.3148 83.8415 81.2312 83.8979 81.136 83.9176Z" fill="black"/>
<path d="M77.44 84.1431C77.3446 84.1615 77.2458 84.1412 77.1652 84.0867C77.0847 84.0323 77.029 83.9482 77.0104 83.8527L76.8041 82.7967C76.792 82.7483 76.7898 82.698 76.7979 82.6487C76.8059 82.5995 76.8238 82.5524 76.8506 82.5103C76.8775 82.4683 76.9126 82.4321 76.9538 82.4041C76.9951 82.376 77.0416 82.3567 77.0906 82.3472C77.1396 82.3377 77.19 82.3383 77.2387 82.349C77.2874 82.3596 77.3335 82.3801 77.3741 82.4092C77.4146 82.4382 77.4488 82.4752 77.4746 82.5179C77.5004 82.5606 77.5172 82.6081 77.5241 82.6575L77.7281 83.7111C77.7378 83.7584 77.7381 83.8072 77.7289 83.8546C77.7197 83.902 77.7011 83.9471 77.6743 83.9873C77.6475 84.0275 77.613 84.062 77.5728 84.0887C77.5326 84.1155 77.4875 84.134 77.44 84.1431Z" fill="black"/>
<path d="M69.6473 84.3928C69.5677 84.7882 69.5612 85.1949 69.6281 85.5928C69.6672 85.7778 69.7284 85.9575 69.8105 86.128C69.8441 86.224 69.9017 86.3104 69.9449 86.4088C69.9881 86.5072 70.0529 86.5984 70.1009 86.7136C69.9871 86.6788 69.8776 86.6313 69.7745 86.572C69.6745 86.5061 69.582 86.4297 69.4985 86.344C69.3261 86.1615 69.208 85.9345 69.1575 85.6886C69.1071 85.4427 69.1263 85.1876 69.2129 84.952C69.295 84.7243 69.447 84.5286 69.6473 84.3928Z" fill="#D18165"/>
<path d="M80.6009 79C80.6009 79 79.0961 76.66 78.6593 77.1832C78.2225 77.7064 77.3849 79.1176 74.5217 78.9688C74.5217 78.9688 72.6161 81.4648 72.2081 84.3928C71.8001 87.3208 69.6737 83.3872 69.6737 83.3872C69.6737 83.3872 66.9401 76.5688 69.8945 74.9488C72.8489 73.3288 75.8081 73.288 78.7601 74.9488C81.7121 76.6096 80.6009 79 80.6009 79Z" fill="black"/>
<path d="M68.7569 94.36C69.6521 94.3096 70.0937 91.7728 70.3025 89.8L71.6177 90.3904L72.7409 92.7448C72.7409 92.7448 70.5929 93.2128 71.6177 95.4304C72.5345 97.4224 74.9777 101.937 78.5033 101.55C77.9921 101.834 77.2889 102.201 76.4273 102.575C70.7777 105.033 63.0665 105.81 61.9433 103.588C60.8201 101.366 66.4313 96.328 68.7569 94.36Z" fill="#D18165"/>
<path d="M72.9736 81.7192C72.9736 81.7192 76.8856 79.6312 80.9632 79.5952C80.9632 79.5952 82.2184 74.776 75.9976 73.8352C69.7768 72.8944 64.4032 77.4568 64.4968 83.2648C64.4968 83.2648 65.9368 85.804 68.6032 85.7392C71.2696 85.6744 70.6792 81.9808 72.9736 81.7192Z" fill="#37D6BA"/>
<path d="M81.0065 79.372C80.9127 79.2646 80.8016 79.1737 80.6777 79.1032C80.5346 79.0353 80.3814 78.9915 80.2241 78.9736C79.8473 78.9112 79.6313 78.8752 79.5041 78.9952C79.3769 79.1152 79.4729 79.1584 79.3745 79.276C79.3132 79.3503 79.231 79.4044 79.1386 79.4314C79.0461 79.4583 78.9477 79.4569 78.8561 79.4272C78.7121 79.36 78.7529 79.2232 78.5969 79.1248C78.5206 79.0834 78.4353 79.0617 78.3485 79.0617C78.2617 79.0617 78.1763 79.0834 78.1001 79.1248C77.9393 79.2184 77.9825 79.3336 77.8193 79.492C77.6461 79.6447 77.4238 79.7299 77.1929 79.732C76.8737 79.732 76.8185 79.5736 76.6097 79.624C76.4009 79.6744 76.4297 79.8376 76.1129 80.1208C75.5921 80.5864 75.4433 80.5648 75.3929 80.5528C75.2009 80.5096 75.1721 80.2912 74.9609 80.272C74.8511 80.2747 74.7452 80.3126 74.6585 80.38C74.3465 80.5696 74.3129 80.7544 74.1401 80.86C74.0105 80.9368 73.7777 80.98 73.3409 80.7736C73.3409 80.7736 72.8897 80.632 72.7577 80.7736C72.6257 80.9152 72.8729 81.1672 72.7361 81.3784C72.6912 81.4322 72.6351 81.4756 72.5717 81.5055C72.5082 81.5353 72.439 81.5509 72.3689 81.5512C72.0449 81.5728 71.8457 81.4024 71.6489 81.3832C71.5409 81.3832 71.7113 81.568 71.6033 81.8104C71.5601 81.9088 71.4593 82.1344 71.2793 82.1776C71.0393 82.2328 70.8689 81.9376 70.7177 82.0264C70.6025 82.0864 70.6649 82.2808 70.5449 82.3288C70.3817 82.396 70.2449 82.1632 70.0649 82.1776C69.7193 82.2112 69.7601 83.1376 69.3305 83.4088C68.8097 83.728 67.7897 82.9456 67.5593 82.7608C66.0209 81.5392 65.7041 79.9768 65.2697 79.4008C64.7203 80.6163 64.4466 81.9382 64.4681 83.272C64.4681 83.272 65.9081 85.8112 68.5745 85.7464C71.2409 85.6816 70.6505 81.9976 72.9449 81.736C72.9449 81.736 76.8569 79.648 80.9345 79.612C80.9633 79.5952 80.9825 79.5136 81.0065 79.372Z" fill="#0AA68B"/>
<path d="M71.9848 81.484C71.9848 81.484 72.0208 81.9136 71.8072 82.0384C71.5797 82.1922 71.3617 82.3597 71.1544 82.54C71.1544 82.54 70.276 82.3144 69.8512 80.9176C69.7238 80.4109 69.6649 79.8895 69.676 79.3672C69.6743 79.3299 69.6859 79.2932 69.7086 79.2636C69.7313 79.234 69.7637 79.2134 69.8001 79.2054C69.8366 79.1973 69.8747 79.2024 69.9077 79.2197C69.9408 79.237 69.9667 79.2655 69.9808 79.3C70.3336 80.0848 71.0104 81.2608 71.9848 81.484Z" fill="#0AA68B"/>
<path d="M74.2913 80.8791C74.2913 80.8791 74.1665 81.2296 73.9217 81.2584C73.6517 81.3104 73.3848 81.3777 73.1225 81.46C73.1225 81.46 72.4025 80.908 72.5681 79.456C72.6514 78.9431 72.8023 78.4435 73.0169 77.9704C73.0318 77.9373 73.0574 77.9103 73.0896 77.8937C73.1218 77.8771 73.1587 77.8718 73.1942 77.8788C73.2298 77.8857 73.2619 77.9045 73.2855 77.932C73.3091 77.9595 73.3227 77.9942 73.3241 78.0304C73.3313 78.9088 73.4825 80.2863 74.2913 80.8791Z" fill="#0AA68B"/>
<path d="M77.92 79.3936C77.92 79.3936 78.1312 79.6984 78.376 79.6648C78.6208 79.6312 79.3624 79.5952 79.3624 79.5952C79.3624 79.5952 79.7488 78.928 79.2112 77.5696C78.998 77.0956 78.7219 76.6524 78.3904 76.252C78.3674 76.2238 78.3355 76.2043 78.2999 76.1967C78.2643 76.189 78.2272 76.1937 78.1946 76.2098C78.162 76.226 78.1359 76.2527 78.1205 76.2856C78.105 76.3186 78.1012 76.3558 78.1096 76.3912C78.3232 77.2408 78.5368 78.6112 77.92 79.3936Z" fill="#0AA68B"/>
<path d="M215.874 96.8704C215.491 97.1535 215.132 97.4682 214.802 97.8112C212.855 99.7936 212.769 100.382 210.23 100.634C210.23 100.634 208.07 101.19 209.69 102.594C209.69 102.594 209.639 102.906 209.03 103.569C208.42 104.231 204.88 106.6 210.16 109.756C210.257 109.815 210.338 109.895 210.398 109.991C210.457 110.087 210.494 110.196 210.503 110.309C210.513 110.422 210.496 110.535 210.454 110.64C210.412 110.745 210.346 110.838 210.261 110.913L204.335 115.221L210.018 120.388L218.836 110.522C218.836 110.522 217.581 108.894 217.396 108.714C217.396 108.714 221.109 107.81 219.88 106.206C218.651 104.603 217.206 105.726 217.206 105.726L216.69 105.16L220.48 101.03L215.874 96.8704Z" fill="#EA9D7D"/>
<path d="M218.74 110.92L216.959 112.564C216.959 112.564 216.959 110.303 216.863 109.314C216.851 109.188 216.882 109.06 216.953 108.954C217.024 108.848 217.13 108.77 217.252 108.734C218.344 108.402 220.833 107.481 219.863 106.216C218.894 104.951 217.302 105.887 216.647 106.35C216.565 106.409 216.464 106.435 216.363 106.424C216.263 106.413 216.17 106.365 216.102 106.29C216.034 106.216 215.996 106.118 215.996 106.017C215.996 105.916 216.034 105.818 216.102 105.743L218.32 103.384C218.601 103.077 218.818 102.718 218.96 102.327C219.102 101.937 219.165 101.521 219.145 101.106C219.126 100.691 219.024 100.283 218.847 99.9074C218.669 99.5314 218.419 99.1942 218.111 98.9152L216.568 97.5184C216.367 97.3339 216.104 97.2315 215.831 97.2315C215.558 97.2315 215.295 97.3339 215.094 97.5184C215.574 96.2632 216.942 95.9368 217.406 95.8384C220.31 95.1784 222.77 97.5304 223.302 98.0416C224.776 99.448 226.331 101.97 225.597 103.35C225.414 103.691 224.922 104.57 224.922 104.57C224.922 104.57 225.573 105.58 225.515 106.25C225.41 107.49 223.42 108.594 220.955 109.948C219.791 110.579 219.131 110.824 218.74 110.92Z" fill="#000001"/>
<path d="M216.203 101.21C215.936 101.074 215.693 100.896 215.483 100.682C215.274 100.474 215.09 100.242 214.936 99.9904C214.776 99.7401 214.65 99.4697 214.562 99.1864C214.469 98.9009 214.431 98.6003 214.451 98.3008C214.624 98.5408 214.756 98.7952 214.907 99.0328L215.342 99.7384C215.639 100.211 215.939 100.672 216.203 101.21Z" fill="#000001"/>
<path d="M214.41 100.703L213.299 101.898" stroke="#000001" stroke-width="3" stroke-miterlimit="10" stroke-linecap="round"/>
<path d="M209.733 105.124C209.733 104.699 209.298 103.499 209.085 103.509L209.03 103.569C208.659 103.904 208.309 104.26 207.981 104.637C208.398 105.246 209.735 105.136 209.733 105.124Z" fill="#BE3E5F"/>
<path d="M218.298 106.156C218.465 106.133 218.634 106.146 218.795 106.194C218.956 106.242 219.104 106.325 219.23 106.437C219.296 106.507 219.343 106.592 219.368 106.685C219.393 106.778 219.394 106.876 219.371 106.97C219.315 107.14 219.213 107.292 219.076 107.409C218.827 107.63 218.532 107.794 218.212 107.889C218.057 107.939 217.895 107.965 217.732 107.968C217.565 107.98 217.4 107.929 217.269 107.826C217.412 107.886 217.571 107.894 217.72 107.85C217.87 107.82 218.015 107.774 218.154 107.711C218.434 107.595 218.692 107.433 218.918 107.231C219.025 107.147 219.108 107.035 219.158 106.907C219.175 106.848 219.178 106.785 219.166 106.724C219.154 106.663 219.128 106.606 219.09 106.557C218.878 106.339 218.599 106.199 218.298 106.156Z" fill="#D18165"/>
<path d="M205.715 116.054C206.75 116.723 211.886 114.134 213.561 112.912C215.236 111.69 214.698 110.992 214.698 110.992C213.258 111.179 210.321 109.9 210.321 109.9C210.446 110.043 210.509 110.23 210.496 110.42C210.483 110.61 210.396 110.787 210.254 110.913L204.974 114.678C205.091 115.24 205.317 115.794 205.715 116.054Z" fill="#D18165"/>
<path d="M216.938 108.974L207.729 118.314L210.009 120.388L218.74 110.91L216.938 108.974Z" fill="#000001"/>
<path d="M216.16 97.1344C216.08 99.4944 216.671 101.829 217.864 103.866C219.866 107.33 221.546 102.614 221.546 102.614C221.546 102.614 219.294 95.8336 216.16 97.1344Z" fill="#000001"/>
<path d="M198.054 127.24C198.054 133.084 193.6 137.822 188.106 137.819C182.613 137.817 175.074 135.542 175.626 128.87C176.09 123.35 178.626 117.554 188.106 116.654C193.583 116.145 198.057 121.406 198.054 127.24Z" fill="#25BEEF"/>
<path d="M188.45 122.56C194.817 116.008 194.906 113.466 199.01 112.137C201.763 111.244 206.531 111.386 208.37 112.024C207.302 113.022 206.723 113.486 206.421 113.944C205.965 114.618 210.105 115.012 215.162 115.85C215.027 116.09 214.646 118.209 214.713 118.775C214.924 120.587 213.17 122.116 212.224 123.678C211.548 124.796 210.811 125.876 210.019 126.914C207.989 129.495 205.735 131.892 203.282 134.075C200.951 136.113 199.286 137.181 197.135 139.924C195.904 141.494 195.851 141.909 195.292 142.19C193.557 143.058 189.722 141.28 180.638 130.298C180.532 130.171 180.459 130.02 180.425 129.859C180.39 129.697 180.396 129.53 180.442 129.371C180.487 129.213 180.571 129.068 180.685 128.949C180.8 128.83 180.942 128.741 181.099 128.69C183.791 127.326 186.355 124.718 188.45 122.56Z" fill="#25BEEF"/>
<path d="M186.278 136.84L190.792 141.287C191.636 142.031 192.546 142.695 193.511 143.272C195.376 142.194 201.815 136.727 202.151 136.257L209.526 126.251C210.399 125.137 210.819 123.735 210.702 122.325C210.522 120.297 209.536 117.789 205.797 117.575L204.167 117.77C201.852 118.048 199.736 119.219 198.27 121.034L192.05 128.39C191.505 128.939 191.01 128.781 191.027 129.554C191.053 129.768 191.021 129.985 190.934 130.182C189.393 132.357 187.511 134.268 185.361 135.842C185.679 136.187 185.985 136.52 186.278 136.84Z" fill="#1A87C4"/>
<path d="M172 133.593C175.703 133.101 184.562 141.83 190.761 138.935C192.736 138.014 202.47 130.535 202.47 130.535L199.533 121.833L187.408 131.229C186.87 131.645 186.27 131.975 185.63 132.206C185.63 132.206 172.017 127.886 171.515 127.574C170.102 126.717 167.33 125.238 166.85 125.327C166.209 125.447 165.143 126.047 168.203 127.859C168.203 127.859 167.87 128.267 166.61 128.502C165.35 128.738 160.48 129.494 160.446 129.904C160.413 130.314 159.354 131.361 165.966 130.278C165.966 130.278 166.362 130.83 165.794 130.936C165.225 131.042 159.808 132.011 160.473 132.616C161.138 133.221 161.896 132.94 166.216 132.21C166.216 132.21 166.622 132.614 166.422 132.724C166.223 132.834 161.123 133.924 161.202 134.358C161.282 134.793 160.456 135.491 167.721 133.773C167.721 133.773 167.874 134.013 167.166 134.354C166.458 134.694 163.326 136.134 164.265 136.367C165.203 136.6 165.266 136.401 168.88 134.661C168.88 134.68 171.566 133.65 172 133.593Z" fill="#EA9D7D"/>
<path d="M198.806 133.511C198.913 133.593 199.036 133.653 199.167 133.687C199.298 133.721 199.435 133.729 199.569 133.71C199.703 133.691 199.832 133.645 199.948 133.575C200.064 133.506 200.165 133.414 200.246 133.305L207.52 123.496L207.539 123.465C209.407 120.662 207.11 116.956 203.764 117.359L202.612 117.498C200.504 117.751 198.579 118.817 197.246 120.47L191.531 127.54C191.476 127.612 191.451 127.702 191.462 127.792C191.474 127.882 191.52 127.964 191.591 128.02L198.806 133.511Z" fill="#25BEEF"/>
<path d="M207.501 123.446C207.741 122.972 207.894 122.459 207.952 121.931C208.003 121.421 207.951 120.906 207.799 120.417C207.502 119.456 206.844 118.648 205.963 118.163C205.534 117.923 205.06 117.775 204.571 117.729L204.388 117.705C204.327 117.701 204.265 117.701 204.203 117.705H203.831L203.02 117.782L202.617 117.82L202.24 117.88C201.981 117.918 201.724 117.969 201.467 118.026C200.953 118.14 200.45 118.301 199.965 118.506C198.977 118.931 198.108 119.59 197.433 120.426C196.761 121.278 196.173 122.202 195.513 123.066C194.853 123.93 194.162 124.768 193.449 125.589C193.091 125.999 192.729 126.405 192.355 126.803C192.172 127.002 191.98 127.199 191.793 127.396C191.704 127.497 191.577 127.59 191.553 127.672C191.531 127.724 191.525 127.782 191.536 127.838C191.547 127.893 191.575 127.944 191.615 127.984L191.572 128.042C191.503 127.999 191.449 127.937 191.416 127.862C191.384 127.788 191.374 127.706 191.39 127.626C191.408 127.547 191.444 127.473 191.493 127.408L191.606 127.238C191.757 127.012 191.908 126.784 192.067 126.561C192.376 126.114 192.698 125.675 193.027 125.238C193.677 124.367 194.344 123.508 195.059 122.69C195.775 121.871 196.547 121.098 197.255 120.268C197.982 119.432 198.837 118.716 199.787 118.146C200.27 117.86 200.781 117.627 201.314 117.45C201.583 117.364 201.856 117.292 202.132 117.234C202.413 117.179 202.689 117.138 202.955 117.1C203.222 117.062 203.488 117.018 203.764 116.985L204.208 116.956C204.28 116.956 204.355 116.942 204.429 116.956L204.652 116.975C205.25 117.014 205.832 117.189 206.351 117.489C206.864 117.785 207.308 118.186 207.655 118.666C208.001 119.145 208.243 119.693 208.363 120.273C208.387 120.417 208.415 120.558 208.432 120.702V121.139C208.434 121.283 208.423 121.427 208.399 121.569C208.386 121.711 208.359 121.852 208.319 121.989C208.279 122.128 208.24 122.265 208.197 122.399C208.154 122.534 208.077 122.656 208.017 122.781L207.923 122.97L207.806 123.143L207.566 123.482L207.501 123.446Z" fill="#1A87C4"/>
<path d="M195.76 119.416C195.76 119.416 194.754 117.462 194.025 116.082C193.593 116.562 193.24 117.076 192.77 117.664C192.77 117.664 194.781 118.574 195.76 119.416Z" fill="#1A87C4"/>
<path d="M193.84 141.659C193.84 141.659 188.049 151.694 178.593 146.517C169.137 141.34 164.327 137.397 162.446 138.314C160.564 139.23 159.28 142.276 151.895 146.2C144.51 150.124 135.575 154.442 135.575 154.442C135.575 154.442 130.574 148.953 130.878 147.417C131.183 145.881 143.522 139.3 153.227 131.313C153.227 131.313 156.904 126.033 161.745 126.537L166.686 127.283C166.686 127.283 170.337 118.852 180.054 124.374L181.89 123.772L193.84 141.659Z" fill="#25BEEF"/>
<path d="M193.84 141.659C193.84 141.659 188.049 151.694 178.593 146.517C169.137 141.34 164.327 137.397 162.446 138.314C160.564 139.23 159.28 142.276 151.895 146.2C144.51 150.124 135.575 154.442 135.575 154.442C135.575 154.442 130.574 148.953 130.878 147.417C131.183 145.881 143.522 139.3 153.227 131.313C153.227 131.313 156.904 126.033 161.745 126.537L165.28 127.343L181.89 123.774L193.84 141.659Z" fill="#25BEEF"/>
<path d="M120.021 149.361C121.65 152.049 124.379 153.724 125.781 154.005C127.182 154.286 128.32 155.8 128.32 155.8C128.32 155.8 130.257 158.44 131.843 157.331C132.665 156.716 133.426 156.022 134.114 155.26C134.754 154.569 135.196 154.017 135.196 154.017C134.037 152.699 130.636 148.696 130.876 147.422C130.169 147.588 129.438 147.632 128.716 147.551C128.476 147.532 128.236 147.498 127.996 147.462C127.794 147.426 127.598 147.386 127.398 147.345C127.142 147.287 126.885 147.227 126.626 147.158C124.007 146.438 121.314 145.065 119.481 144.592C116.62 143.858 118.391 146.68 120.021 149.361Z" fill="#EA9D7D"/>
<path d="M135.578 154.444L135.196 154.019C135.002 153.798 134.81 153.578 134.622 153.354L134.051 152.68L133.876 152.466C133.636 152.159 133.382 151.852 133.139 151.542C133.036 151.41 132.933 151.278 132.832 151.144L132.777 151.07C132.681 150.942 132.587 150.813 132.491 150.683C132.388 150.542 132.287 150.4 132.191 150.261C132.093 150.119 131.999 149.982 131.908 149.843C131.578 149.36 131.293 148.848 131.058 148.312C135.453 149.399 138.712 149.001 140.826 148.463C147.863 146.68 155.073 140.181 156.818 138.609C158.714 136.9 159.849 135.647 161.963 135.268C164.726 134.774 166.713 136.13 170.726 138.477C174.376 140.613 177.642 142.523 180.666 143.517C181.68 143.864 182.781 143.86 183.793 143.506C184.804 143.152 185.667 142.469 186.244 141.566C186.988 140.366 187.216 138.786 186.11 136.833C184.243 133.451 183.253 129.656 183.23 125.793L193.84 141.659L193.828 141.681V141.698L193.802 141.738V141.753C193.802 141.772 193.773 141.796 193.758 141.822L193.742 141.846C193.728 141.87 193.714 141.892 193.698 141.914C193.692 141.926 193.685 141.937 193.677 141.947L193.622 142.031L193.605 142.055C193.581 142.094 193.552 142.134 193.523 142.178L193.499 142.214C193.475 142.245 193.451 142.281 193.427 142.317C193.403 142.353 193.406 142.348 193.394 142.365L193.312 142.478L193.283 142.518L193.161 142.684L193.134 142.718L193.029 142.857L192.983 142.917L192.878 143.051L192.834 143.106L192.678 143.298L192.654 143.325C192.609 143.382 192.558 143.44 192.508 143.5L192.453 143.565L192.323 143.714L192.266 143.778L192.074 143.99C192.009 144.062 191.942 144.134 191.872 144.203L191.807 144.27L191.651 144.429L191.582 144.498C191.519 144.563 191.454 144.626 191.387 144.688C191.377 144.7 191.365 144.711 191.354 144.722C191.277 144.796 191.198 144.868 191.114 144.942L191.044 145.005L190.862 145.166L190.778 145.238L190.574 145.41C190.555 145.428 190.535 145.444 190.514 145.458C190.427 145.53 190.336 145.602 190.245 145.672L190.173 145.727L189.962 145.888L189.866 145.955L189.647 146.109L189.568 146.164C189.47 146.231 189.369 146.296 189.266 146.361L189.198 146.404L188.958 146.555L188.855 146.615C188.778 146.661 188.699 146.706 188.615 146.75L188.522 146.8C188.411 146.86 188.298 146.918 188.186 146.973L188.138 146.997C188.039 147.045 187.941 147.09 187.84 147.134L187.73 147.184C187.643 147.22 187.559 147.256 187.47 147.29L187.36 147.335C187.242 147.381 187.12 147.426 187 147.467C186.302 147.712 185.576 147.873 184.84 147.947C184.706 147.962 184.571 147.971 184.434 147.978H184.288C184.127 147.978 183.964 147.978 183.808 147.978H183.683C183.343 147.966 183.003 147.936 182.666 147.89L182.538 147.873C182.363 147.844 182.188 147.815 182.01 147.779C180.992 147.559 180.007 147.207 179.08 146.733C178.934 146.658 178.787 146.582 178.641 146.493C177.753 146.013 176.906 145.54 176.102 145.074C175.564 144.767 175.043 144.465 174.539 144.172L173.8 143.735C173.32 143.45 172.84 143.169 172.391 142.898L171.04 142.134C168.52 140.615 166.578 139.427 165.124 138.774C164.798 138.624 164.464 138.491 164.123 138.378C163.936 138.318 163.745 138.27 163.552 138.234C163.185 138.146 162.799 138.177 162.45 138.323C162.206 138.448 161.974 138.596 161.759 138.767C161.157 139.275 160.581 139.814 160.034 140.38L159.76 140.639L159.506 140.879L159.234 141.119C157.747 142.488 156.129 143.707 154.403 144.76C154.211 144.88 154.017 145 153.815 145.118C153.225 145.471 152.585 145.831 151.895 146.198L151.062 146.642L150.986 146.682C150.424 146.978 149.858 147.275 149.289 147.57L149.222 147.606L148.365 148.05L147.299 148.6L146.27 149.126L146.217 149.152L144.849 149.848L144.194 150.179L144.134 150.21L143.534 150.51L143.457 150.549L142.24 151.17L142.166 151.206L140.98 151.797C139.401 152.582 138.054 153.237 137.099 153.717L136.924 153.801L136.761 153.882L135.695 154.398L135.578 154.444Z" fill="#1A87C4"/>
<path d="M197.434 142.673L202.701 146.737C203.387 147.267 204.373 147.14 204.902 146.454L228.387 116.024C228.917 115.338 228.79 114.352 228.104 113.822L222.837 109.758C222.151 109.228 221.165 109.355 220.635 110.041L197.15 140.471C196.621 141.157 196.748 142.143 197.434 142.673Z" fill="#E3EAF3"/>
<path d="M227.243 104.053L232.509 108.118C233.196 108.648 234.181 108.521 234.711 107.834L240.065 100.898C240.594 100.211 240.467 99.2258 239.781 98.6961L234.514 94.6314C233.828 94.1018 232.842 94.2288 232.313 94.915L226.959 101.852C226.43 102.538 226.557 103.524 227.243 104.053Z" fill="#E3EAF3"/>
<path d="M194.001 163.876L241.576 102.04C241.83 101.71 241.942 101.293 241.888 100.88C241.834 100.467 241.618 100.093 241.288 99.8392L239.548 98.5L194.001 157.701V163.876Z" fill="#54A4CC"/>
<path d="M166.425 190.336H183.671C184.566 190.336 185.291 189.611 185.291 188.716V155.171C185.291 154.276 184.566 153.551 183.671 153.551H166.425C165.53 153.551 164.805 154.276 164.805 155.171V188.716C164.805 189.611 165.53 190.336 166.425 190.336Z" fill="#54A4CC"/>
<path d="M188.255 170.207H158.81C157.036 170.207 155.336 169.503 154.082 168.249C152.828 166.995 152.123 165.294 152.123 163.521V150.966H194.934V163.518C194.935 165.291 194.232 166.991 192.979 168.245C191.727 169.5 190.028 170.205 188.255 170.207Z" fill="#E3EAF3"/>
<path d="M185.978 131.255H183.098V147.525H185.978V131.255Z" fill="#54A4CC"/>
<path d="M152.121 158.08H194.685C194.765 158.078 194.846 158.069 194.925 158.054V150.959H152.121V158.08Z" fill="#ABBCCA"/>
<path d="M152.814 136.47H193.965C194.832 136.47 195.534 135.768 195.534 134.901V132.825C195.534 131.958 194.832 131.255 193.965 131.255H152.814C151.948 131.255 151.245 131.958 151.245 132.825V134.901C151.245 135.768 151.948 136.47 152.814 136.47Z" fill="#E3EAF3"/>
<path d="M105.136 193.847H199.386C200.253 193.847 200.956 193.144 200.956 192.278V189.616C200.956 188.749 200.253 188.046 199.386 188.046H105.136C104.269 188.046 103.566 188.749 103.566 189.616V192.278C103.566 193.144 104.269 193.847 105.136 193.847Z" fill="#E3EAF3"/>
<path d="M151.701 154.907H193.36C193.776 154.907 194.176 154.742 194.47 154.447C194.764 154.153 194.93 153.754 194.93 153.338V147.287C194.929 146.871 194.763 146.473 194.469 146.179C194.175 145.885 193.776 145.72 193.36 145.72H152.414C151.742 145.72 151.077 145.854 150.458 146.114L119.805 158.92C119.605 159.003 119.425 159.126 119.275 159.282C119.125 159.437 119.009 159.623 118.933 159.825C118.858 160.028 118.826 160.244 118.839 160.46C118.851 160.676 118.908 160.887 119.006 161.08L121.223 165.515C121.4 165.868 121.702 166.141 122.071 166.28C122.44 166.42 122.847 166.416 123.213 166.269L151.12 155.02C151.305 154.946 151.502 154.908 151.701 154.907Z" fill="#E3EAF3"/>
<path d="M131.848 153.892L119.805 158.932C119.605 159.015 119.425 159.138 119.275 159.294C119.125 159.449 119.009 159.635 118.933 159.837C118.858 160.04 118.826 160.256 118.839 160.472C118.851 160.688 118.908 160.899 119.006 161.092L121.223 165.527C121.4 165.88 121.702 166.153 122.071 166.293C122.44 166.432 122.847 166.428 123.213 166.281L131.853 162.801L131.848 153.892Z" fill="#ABBCCA"/>
<path d="M112.922 189.954H126.45C127.332 189.954 128.046 189.24 128.046 188.358V135.458C128.046 134.576 127.332 133.862 126.45 133.862H112.922C112.04 133.862 111.326 134.576 111.326 135.458V188.358C111.326 189.24 112.04 189.954 112.922 189.954Z" fill="#E3EAF3"/>
<path d="M91.1008 163.878L92.08 162.256L97.9192 165.189C97.6667 165.788 97.5385 166.432 97.5424 167.082C97.5688 168.076 91.1008 163.878 91.1008 163.878Z" fill="#EA9D7D"/>
<path d="M57.3952 128.178C57.3952 128.178 52.2712 138.568 61.84 143.56C71.4088 148.552 77.356 150.347 77.632 152.426C77.908 154.504 76.108 157.274 76.9408 165.587C77.7736 173.901 79.156 183.734 79.156 183.734C79.156 183.734 86.5 184.842 87.6064 183.734C88.7128 182.625 87.3304 168.712 88.5664 156.206C88.5664 156.206 90.9232 150.206 87.8056 146.469L85.1656 143.975L100.751 143.836C100.751 143.836 96.4552 148.396 94.9912 152.495C93.5272 156.594 91.5976 162.335 91.5976 162.335L98.1784 165.522C98.1784 165.522 107.459 151.185 110.646 148.343C113.834 145.502 117.434 137.543 111.892 135.383C106.35 133.223 93.6808 130.456 79.4128 130.041L78.892 128.178H57.3952Z" fill="#37D6BA"/>
<path d="M77.9896 136.859L85.1704 143.97L100.756 143.831C100.756 143.831 96.46 148.391 94.996 152.49C93.532 156.59 91.6024 162.33 91.6024 162.33L98.1832 165.518C97.2448 163.233 96.28 159.856 96.9592 156.074C98.44 147.837 105.825 144.726 105.119 141.484C104.574 138.962 99.1072 136.559 77.9896 136.859Z" fill="#0AA68B"/>
<path d="M96.2656 191.62C94.048 189.635 88.7848 187.142 87.5824 183.724C86.6632 184.646 81.4408 184.036 79.7008 183.803C79.7008 183.803 78.856 186.496 78.8104 188.435C78.7648 190.374 78.8104 190.929 78.8104 190.929L82.0432 191.344V190.514C82.0432 190.514 83.9344 190.605 84.952 191.62C85.9696 192.635 88.876 193.977 92.0176 193.838C95.1592 193.698 98.4808 193.607 96.2656 191.62Z" fill="#D18165"/>
<path d="M92.0152 193.838C88.8736 193.977 85.9648 192.638 84.9496 191.62C83.9344 190.602 82.0408 190.514 82.0408 190.514V191.344L78.808 190.929C78.808 190.929 78.7624 190.374 78.808 188.435C78.8639 187.409 79.019 186.391 79.2712 185.394C79.4896 184.48 79.7008 183.806 79.7008 183.806C81.4408 184.046 86.6608 184.646 87.5824 183.724C87.8344 184.402 88.2014 185.031 88.6672 185.584C88.816 185.771 88.9792 185.956 89.1472 186.138C89.3152 186.321 89.4304 186.426 89.5768 186.568C89.7664 186.75 89.9584 186.93 90.1624 187.108C92.2096 188.889 94.852 190.36 96.2656 191.62C98.4784 193.607 95.1544 193.698 92.0152 193.838Z" fill="#FFAA39"/>
<path d="M103.624 176.776C102.232 174.136 98.1545 169.986 98.2097 166.365C97.0265 166.91 92.3369 164.534 90.7841 163.725C90.7841 163.725 89.0633 165.959 88.3481 167.762C87.6329 169.564 87.4865 170.102 87.4865 170.102L90.3665 171.609L90.6521 170.829C90.6521 170.829 92.3969 171.57 92.9993 172.876C93.6017 174.182 95.8769 176.44 98.8721 177.386C101.867 178.331 105.018 179.404 103.624 176.776Z" fill="#D18165"/>
<path d="M98.8697 177.386C95.8769 176.426 93.6088 174.167 93.0064 172.862C92.404 171.556 90.6616 170.817 90.6616 170.817L90.3737 171.597L87.4937 170.09C87.4937 170.09 87.6425 169.554 88.3553 167.75C88.7617 166.806 89.2593 165.904 89.8409 165.057C90.3641 164.274 90.8009 163.715 90.8009 163.715C92.3537 164.534 97.0409 166.91 98.2241 166.355C98.2274 167.078 98.3549 167.795 98.6009 168.474C98.6753 168.702 98.7641 168.93 98.8553 169.158C98.9393 169.346 99.0232 169.528 99.112 169.71C99.2248 169.95 99.352 170.19 99.4745 170.43C100.778 172.811 102.75 175.103 103.641 176.776C105.016 179.404 101.865 178.341 98.8697 177.386Z" fill="#FFAA39"/>
<path d="M79.1438 183.729L79.7102 183.808C80.003 183.846 80.2934 183.885 80.5814 183.918H80.5982L81.4598 184.012L81.7334 184.038C82.127 184.077 82.5182 184.108 82.9094 184.137L83.4134 184.17H83.5046L83.9846 184.192L84.503 184.206C84.6734 184.206 84.8414 184.206 85.0046 184.206C85.5902 184.212 86.1751 184.164 86.7518 184.062C83.4398 181.026 81.9518 178.096 81.2222 176.042C78.7958 169.199 80.1926 159.592 80.531 157.269C80.8982 154.744 81.3086 153.102 80.447 151.134C79.3238 148.562 77.087 147.666 72.911 145.634C69.107 143.786 65.711 142.13 63.1982 140.166C62.3455 139.516 61.7361 138.598 61.4679 137.559C61.1998 136.521 61.2885 135.422 61.7198 134.44C62.3126 133.151 63.4934 132.088 65.7326 131.922C69.5798 131.592 73.2828 130.303 76.5038 128.174H57.395V128.195V128.212L57.3734 128.255V128.272L57.3398 128.346C57.3373 128.356 57.3333 128.365 57.3278 128.373C57.3278 128.397 57.3086 128.421 57.2966 128.445L57.2822 128.481L57.2414 128.574V128.603C57.2222 128.646 57.203 128.692 57.1838 128.74L57.1694 128.778C57.155 128.817 57.1382 128.855 57.1238 128.896L57.1022 128.951C57.0854 128.992 57.0686 129.038 57.0518 129.083C57.035 129.129 57.0398 129.112 57.035 129.129C57.0134 129.191 56.9894 129.254 56.9654 129.321L56.951 129.362L56.8958 129.527C56.8958 129.551 56.879 129.573 56.8718 129.597C56.8646 129.621 56.8358 129.705 56.819 129.76L56.7974 129.827C56.771 129.904 56.747 129.983 56.723 130.067C56.723 130.067 56.723 130.089 56.723 130.101L56.6582 130.319L56.6366 130.401C56.6198 130.463 56.6006 130.528 56.5838 130.593L56.5622 130.677C56.5382 130.766 56.5166 130.859 56.4926 130.953C56.4686 131.046 56.447 131.145 56.4254 131.241C56.4254 131.27 56.4134 131.301 56.4062 131.332C56.3918 131.404 56.3774 131.476 56.3606 131.548C56.3606 131.582 56.3486 131.613 56.3414 131.646C56.3246 131.733 56.3078 131.824 56.2934 131.913C56.2934 131.93 56.2934 131.944 56.2934 131.961C56.2766 132.064 56.2598 132.172 56.243 132.28L56.2286 132.371C56.2166 132.453 56.207 132.532 56.1974 132.611L56.183 132.719L56.1542 132.986C56.1542 133.012 56.1542 133.036 56.1542 133.062C56.1542 133.175 56.135 133.302 56.1278 133.406V133.494C56.1278 133.583 56.1278 133.672 56.1158 133.761C56.1158 133.799 56.1158 133.838 56.1158 133.878C56.1158 133.967 56.1158 134.056 56.1158 134.145V134.241C56.1158 134.361 56.1158 134.481 56.1158 134.603C56.1158 134.627 56.1158 134.654 56.1158 134.68C56.1158 134.778 56.1158 134.874 56.1158 134.973V135.093L56.0798 135.4C56.0798 135.436 56.0798 135.472 56.0798 135.508C56.0926 135.633 56.107 135.758 56.123 135.882V135.935C56.1374 136.042 56.1542 136.15 56.1734 136.259L56.195 136.379C56.2118 136.47 56.2286 136.562 56.2478 136.653C56.2478 136.691 56.2646 136.73 56.2742 136.768C56.3006 136.893 56.3294 137.008 56.363 137.142C56.5502 137.859 56.8226 138.55 57.1742 139.202C57.2366 139.322 57.3038 139.442 57.3734 139.554C57.3998 139.598 57.4238 139.641 57.4502 139.682C57.5342 139.818 57.6254 139.955 57.719 140.09L57.791 140.193C57.9895 140.47 58.2026 140.736 58.4294 140.99L58.5158 141.086C58.6334 141.215 58.7558 141.345 58.8854 141.472C59.6361 142.195 60.4785 142.816 61.391 143.32C61.5326 143.402 61.679 143.481 61.8278 143.56C62.7254 144.027 63.5894 144.468 64.4198 144.882C64.975 145.158 65.5142 145.422 66.0374 145.677L66.8126 146.051C67.319 146.291 67.8134 146.531 68.2886 146.757L69.671 147.407C72.335 148.658 74.4014 149.613 75.7598 150.453C76.0662 150.64 76.3619 150.844 76.6454 151.065C76.7989 151.187 76.9447 151.318 77.0822 151.458C77.3597 151.712 77.5482 152.049 77.6198 152.418C77.6545 152.691 77.6602 152.966 77.6366 153.239C77.5886 153.882 77.4302 154.626 77.255 155.57C77.231 155.694 77.2094 155.81 77.1854 155.949C77.1614 156.088 77.1446 156.189 77.1254 156.297C77.1062 156.405 77.087 156.537 77.0678 156.662C76.7541 158.657 76.6375 160.679 76.7198 162.698C76.7198 162.923 76.739 163.151 76.751 163.386C76.7846 164.073 76.8398 164.802 76.919 165.582C76.9502 165.892 76.9814 166.206 77.015 166.521V166.607C77.0822 167.238 77.1502 167.872 77.219 168.51V168.587C77.2526 168.906 77.2886 169.226 77.3246 169.547L77.4614 170.747C77.5046 171.131 77.5502 171.515 77.5958 171.894V171.954C77.6582 172.468 77.719 172.976 77.7782 173.478C77.8094 173.718 77.8382 173.958 77.867 174.198V174.266C77.8934 174.491 77.9222 174.712 77.9486 174.933V175.017C78.0062 175.48 78.0638 175.934 78.119 176.373V176.457C78.1742 176.908 78.2318 177.347 78.2846 177.77C78.5102 179.519 78.7094 181.007 78.8534 182.061C78.8534 182.126 78.8702 182.19 78.8798 182.253C78.8894 182.315 78.8966 182.375 78.9038 182.433C78.983 183.014 79.0382 183.419 79.0646 183.606C79.139 183.688 79.1438 183.729 79.1438 183.729Z" fill="#0AA68B"/>
<path d="M79.5161 184.444C79.1975 185.563 78.9727 186.706 78.8441 187.862V187.883C78.8441 187.996 78.8273 188.106 78.8201 188.214C78.8201 188.238 78.8201 188.262 78.8201 188.286C78.8201 188.31 78.8201 188.385 78.8201 188.435C78.7745 190.374 78.8201 190.929 78.8201 190.929L82.0505 191.344V190.514C82.0505 190.514 83.9417 190.605 84.9593 191.62C85.9193 192.58 88.5281 193.809 91.4393 193.847C91.6337 193.847 91.8281 193.847 92.0249 193.847C94.4657 193.739 97.0169 193.66 96.9905 192.695C95.1607 192.877 93.313 192.686 91.5593 192.134C89.6393 191.524 86.9993 190.682 86.2025 188.361C85.5977 186.58 86.3897 184.828 86.7881 184.086C84.4265 184.28 82.0503 184.189 79.7105 183.815C79.7105 183.815 79.6241 184.05 79.5161 184.444Z" fill="#7C2F13"/>
<path d="M90.3833 164.258C89.8313 165.03 88.8449 166.494 88.3481 167.75C87.6281 169.554 87.4865 170.09 87.4865 170.09L90.3664 171.597L90.6545 170.817C90.6545 170.817 92.3993 171.558 93.0017 172.864C93.5657 174.086 95.5937 176.152 98.3129 177.184C98.4929 177.254 98.6777 177.318 98.8625 177.378C101.361 178.175 103.967 179.046 103.953 177.784C102.333 175.919 96.9353 174.952 95.4305 170.718C94.6769 168.597 95.5145 167.387 95.2937 165.808C94.7681 165.609 94.2209 165.376 93.6881 165.136C92.5025 164.601 91.3937 164.032 90.7769 163.708C90.7841 163.72 90.6257 163.922 90.3833 164.258Z" fill="#7C2F13"/>
<path d="M103.854 115.518C104.498 115.415 105.705 115.631 103.425 118.355L103.451 118.37C103.559 118.418 104.044 118.61 105.131 118.427C106.398 118.228 110.668 117.582 111.407 117.688C111.808 117.743 112.888 118.674 106.607 119.848C106.558 119.856 106.511 119.875 106.47 119.903C106.428 119.931 106.393 119.968 106.368 120.011C106.342 120.054 106.326 120.102 106.321 120.152C106.316 120.202 106.322 120.252 106.338 120.299C106.384 120.412 106.492 120.496 106.72 120.46C107.294 120.369 112.187 119.37 112.298 120.268C112.377 120.923 111.066 121.05 106.751 121.809C106.751 121.809 106.11 122.133 106.73 122.363C106.943 122.442 111.873 121.823 112.197 122.152C112.521 122.481 113.279 122.973 105.856 123.786C105.856 123.786 105.743 123.887 106.456 124.115C107.212 124.355 109.312 124.446 109.982 125.075C110.651 125.704 109.05 125.442 105.062 125.015H100.742H100.535C100.625 124.78 100.674 124.532 100.682 124.281C100.698 123.669 100.635 123.057 100.494 122.462C100.318 121.711 100.023 120.993 99.6209 120.335L99.5945 120.095C99.5945 120.095 100.029 119.56 100.622 118.859C101.742 117.513 103.432 115.583 103.854 115.518Z" fill="#EA9D7D"/>
<path d="M90.9953 120.206C90.6231 120.255 90.2458 120.165 89.9358 119.953C89.6258 119.742 89.4048 119.423 89.3153 119.058L85.0697 101.867C84.6574 100.033 83.7023 98.3653 82.3289 97.0816C81.9773 96.753 81.592 96.4626 81.1793 96.2152C81.1435 96.194 81.1029 96.1824 81.0613 96.1816C81.0197 96.1808 80.9787 96.1908 80.9421 96.2106C80.9056 96.2305 80.8748 96.2594 80.8529 96.2947C80.8309 96.33 80.8185 96.3704 80.8169 96.412L80.1569 110.517L80.4977 123.957C80.4977 124.065 80.4977 124.173 80.4977 124.281C80.5145 128.188 84.4073 130.912 88.1441 129.777L100.96 125.882L100.06 119.01L90.9953 120.206Z" fill="#37D6BA"/>
<path d="M100.72 124.202C100.72 124.202 89.7305 126.527 86.3201 123.057C84.4001 121.115 81.3593 102.544 81.3593 102.544C81.1767 102.044 80.9176 101.575 80.5913 101.154L80.1521 110.514L80.4929 123.954C80.4929 124.062 80.4929 124.17 80.4929 124.278C80.5097 128.186 84.4025 130.91 88.1393 129.774L100.96 125.882L100.72 124.202Z" fill="#0AA68B"/>
<path d="M82.1679 151.922C81.9718 152.088 81.7445 152.213 81.4993 152.291C81.2541 152.368 80.996 152.396 80.7399 152.373L52.6767 150.146C52.3862 150.123 52.104 150.037 51.8496 149.895C51.5952 149.752 51.3745 149.557 51.2026 149.322C51.0308 149.086 50.9118 148.816 50.8539 148.531C50.796 148.245 50.8005 147.95 50.8671 147.666L64.7871 94.3096L68.8983 93.1096C69.4959 92.8432 69.8175 91.9096 69.9567 91.3696C69.9844 91.2693 70.0499 91.1837 70.1395 91.1309C70.229 91.0781 70.3356 91.0621 70.4367 91.0864L77.4855 92.932C77.5859 92.9596 77.6717 93.025 77.7249 93.1145C77.7781 93.204 77.7947 93.3106 77.7711 93.412C77.6511 93.8608 77.5311 94.5568 77.9415 94.6504L80.8215 96.0184C81.4004 96.2089 81.8945 96.5958 82.2184 97.112C82.5422 97.6283 82.6755 98.2415 82.5951 98.8456L82.4751 99.9184C82.0407 103.78 80.2839 114.434 80.4831 123.945C80.7231 135.75 82.9695 146.709 82.4319 151.499C82.4415 151.557 82.4223 151.703 82.1679 151.922Z" fill="#37D6BA"/>
<path d="M77.9488 94.6648C77.2084 94.7296 76.4635 94.7247 75.724 94.6504C74.9836 94.5834 74.2485 94.468 73.5232 94.3048C73.1584 94.2232 72.8032 94.1224 72.4432 94.0264C72.0832 93.9304 71.7232 93.8104 71.3848 93.6664C70.6866 93.4119 70.0146 93.0904 69.3784 92.7064C70.0984 92.9056 70.792 93.1312 71.5 93.3136C72.208 93.496 72.9136 93.6856 73.6264 93.8392C74.3392 93.9928 75.0544 94.1464 75.7744 94.2832C76.4944 94.42 77.2168 94.54 77.9488 94.6648Z" fill="#0AA68B"/>
<path d="M50.8672 147.666L50.9608 147.306L60.904 109.223C62.7808 106.01 64.9696 107.483 64.9648 107.747C64.7248 119.85 81.0568 112.725 81.2296 112.485C80.9416 113.51 81.4336 116.721 79.9648 117.923C76.4512 120.803 66.376 123.878 64.804 123.309C64.78 123.309 66.0328 119.078 66.004 119.07C62.8216 117.894 61.7896 117.803 61.7752 121.197C61.732 131.548 61.5352 139.917 61.5352 139.917C65.8096 146.517 78.3112 149.313 82.4896 150.995C82.4846 151.167 82.4678 151.339 82.4392 151.509C82.2832 152.157 81.34 152.416 80.7592 152.397C78.1816 152.313 67.0072 151.278 67.0072 151.278L52.672 150.141C52.3824 150.117 52.1013 150.031 51.8478 149.889C51.5944 149.747 51.3746 149.551 51.2033 149.317C51.0321 149.082 50.9134 148.813 50.8554 148.528C50.7974 148.243 50.8014 147.949 50.8672 147.666Z" fill="#0AA68B"/>
<path d="M82.9601 114.155C83.6033 114.062 84.8081 114.292 82.4993 116.99L82.5257 117.004C82.6313 117.054 83.1161 117.244 84.2057 117.081C85.4729 116.896 89.7497 116.296 90.4889 116.411C90.8897 116.471 91.9577 117.414 85.6601 118.506C85.6105 118.514 85.5632 118.533 85.5215 118.561C85.4798 118.589 85.4447 118.626 85.4187 118.669C85.3926 118.711 85.3762 118.76 85.3707 118.81C85.3651 118.859 85.3705 118.91 85.3865 118.958C85.4321 119.07 85.5377 119.154 85.7657 119.121C86.3393 119.034 91.2449 118.094 91.3457 118.991C91.4177 119.649 90.1073 119.759 85.7825 120.47C85.7825 120.47 85.1369 120.789 85.7537 121.024C85.9673 121.106 90.9041 120.544 91.2233 120.875C91.5425 121.206 92.2961 121.706 84.8633 122.438C84.8633 122.438 84.7505 122.536 85.4609 122.774C86.2145 123.026 88.3145 123.136 88.9769 123.77C89.6393 124.403 88.0409 124.125 84.0569 123.652L79.7369 123.594H79.5305C79.6228 123.36 79.6748 123.112 79.6841 122.86C79.7082 122.249 79.6525 121.637 79.5185 121.041C79.3518 120.287 79.0649 119.565 78.6689 118.902L78.6449 118.662C78.6449 118.662 79.0865 118.132 79.6865 117.438C80.8193 116.128 82.5305 114.218 82.9601 114.155Z" fill="#EA9D7D"/>
<path d="M69.6089 93.5344L65.0369 102.174L63.8369 116.032L69.5201 120.921L77.9921 117.95C78.1258 117.905 78.2676 117.891 78.4074 117.908C78.5473 117.924 78.6817 117.971 78.8013 118.046C78.9208 118.12 79.0226 118.22 79.0992 118.338C79.1759 118.456 79.2256 118.59 79.2449 118.73L79.8401 123.81C79.8601 124.006 79.8197 124.202 79.7245 124.374C79.6292 124.546 79.4836 124.684 79.3073 124.77C77.3873 125.687 71.3513 128.558 67.6697 130.42C67.6697 130.42 52.0193 134.526 52.6937 130.523C53.3681 126.52 52.9769 102.347 56.8073 98.3632C61.4873 93.5056 69.6089 93.5344 69.6089 93.5344Z" fill="#37D6BA"/>
<path d="M82.4969 151C80.4593 150.179 75.4577 147.042 70.8713 144.04C69.8655 143.383 69.0397 142.485 68.4688 141.427C67.8978 140.37 67.5998 139.187 67.6017 137.986C67.6036 136.784 67.9054 135.602 68.4797 134.547C69.054 133.491 69.8826 132.596 70.8905 131.942L80.5457 125.675L80.4953 123.597H79.7345C76.6145 125.022 67.6793 130.432 67.6793 130.432C67.6793 130.432 61.7489 132.666 58.2881 130.367C57.3685 129.782 56.5793 129.014 55.9697 128.111C54.3113 125.618 53.7041 121.49 53.5577 112.888C53.0345 120.417 53.0633 128.394 52.7033 130.533C52.5185 131.63 50.8721 147.626 50.8673 147.669C50.797 147.951 50.789 148.244 50.8438 148.53C50.8986 148.815 51.0149 149.085 51.1846 149.321C51.3543 149.556 51.5734 149.752 51.8266 149.895C52.0797 150.037 52.3609 150.123 52.6505 150.146L67.0121 151.286C67.0121 151.286 78.1865 152.32 80.7641 152.404C81.3473 152.423 82.2905 152.164 82.4441 151.516C82.4735 151.345 82.4912 151.173 82.4969 151Z" fill="#0AA68B"/>
<path d="M58.4801 97.0912C58.4801 97.0912 66.5993 98.2768 64.6649 111.357C64.5163 112.264 64.5612 113.193 64.7965 114.082C65.0319 114.97 65.4524 115.799 66.0305 116.514C66.9039 117.596 68.1471 118.316 69.5201 118.535C69.5201 120.244 69.5201 120.921 69.5201 120.921C68.2612 121.134 66.9911 121.275 65.7161 121.343C64.6169 122.039 62.3777 123.52 61.4393 124.6C62.0068 122.987 62.9543 121.534 64.2017 120.364C64.1844 120.325 64.1692 120.285 64.1561 120.244C63.2908 116.872 63.1533 113.354 63.7529 109.924C63.7529 109.924 64.9601 99.1288 58.4801 97.0912Z" fill="#0AA68B"/>
</svg>
