<svg width="242" height="182" viewBox="0 0 242 182" fill="none" xmlns="http://www.w3.org/2000/svg">
<path d="M47.9921 157.24C42.1241 152.728 16.2329 131.714 13.5617 101.32C9.81045 58.6408 54.7913 31.996 67.132 24.6856C95.4209 7.92879 163.427 -17.3456 206.541 20.4088C241.072 50.6464 238.36 106.269 217 138.088C181.826 190.521 94.5569 193.041 47.9921 157.24Z" fill="#EFF5F9"/>
<path d="M214.19 92.4112H199.576C199.311 92.4112 199.096 92.6261 199.096 92.8912V98.8744C199.096 99.1395 199.311 99.3544 199.576 99.3544H214.19C214.455 99.3544 214.67 99.1395 214.67 98.8744V92.8912C214.67 92.6261 214.455 92.4112 214.19 92.4112Z" stroke="#C9EFFB" stroke-width="2" stroke-miterlimit="10"/>
<path d="M214.19 106.274H199.576C199.311 106.274 199.096 106.488 199.096 106.754V112.737C199.096 113.002 199.311 113.217 199.576 113.217H214.19C214.455 113.217 214.67 113.002 214.67 112.737V106.754C214.67 106.488 214.455 106.274 214.19 106.274Z" stroke="#C9EFFB" stroke-width="2" stroke-miterlimit="10"/>
<path d="M221.975 99.3544H207.362C207.097 99.3544 206.882 99.5693 206.882 99.8344V105.818C206.882 106.083 207.097 106.298 207.362 106.298H221.975C222.24 106.298 222.455 106.083 222.455 105.818V99.8344C222.455 99.5693 222.24 99.3544 221.975 99.3544Z" fill="#C9EFFB"/>
<path d="M206.402 99.3544H191.788C191.523 99.3544 191.308 99.5693 191.308 99.8344V105.818C191.308 106.083 191.523 106.298 191.788 106.298H206.402C206.667 106.298 206.882 106.083 206.882 105.818V99.8344C206.882 99.5693 206.667 99.3544 206.402 99.3544Z" fill="#C9EFFB"/>
<path d="M43.3625 126.731H28.7489C28.4838 126.731 28.2689 126.946 28.2689 127.211V133.194C28.2689 133.459 28.4838 133.674 28.7489 133.674H43.3625C43.6276 133.674 43.8425 133.459 43.8425 133.194V127.211C43.8425 126.946 43.6276 126.731 43.3625 126.731Z" stroke="#C9EFFB" stroke-width="2" stroke-miterlimit="10"/>
<path d="M51.148 140.591H36.5344C36.2693 140.591 36.0544 140.806 36.0544 141.071V147.054C36.0544 147.319 36.2693 147.534 36.5344 147.534H51.148C51.4131 147.534 51.628 147.319 51.628 147.054V141.071C51.628 140.806 51.4131 140.591 51.148 140.591Z" stroke="#C9EFFB" stroke-width="2" stroke-miterlimit="10"/>
<path d="M54.3833 133.674H39.7697C39.5046 133.674 39.2897 133.889 39.2897 134.154V140.138C39.2897 140.403 39.5046 140.618 39.7697 140.618H54.3833C54.6484 140.618 54.8633 140.403 54.8633 140.138V134.154C54.8633 133.889 54.6484 133.674 54.3833 133.674Z" fill="#C9EFFB"/>
<path d="M38.812 133.674H24.1984C23.9333 133.674 23.7184 133.889 23.7184 134.154V140.138C23.7184 140.403 23.9333 140.618 24.1984 140.618H38.812C39.0771 140.618 39.292 140.403 39.292 140.138V134.154C39.292 133.889 39.0771 133.674 38.812 133.674Z" fill="#C9EFFB"/>
<path d="M133.936 34.2256H119.322C119.057 34.2256 118.842 34.4405 118.842 34.7056V40.6888C118.842 40.9539 119.057 41.1688 119.322 41.1688H133.936C134.201 41.1688 134.416 40.9539 134.416 40.6888V34.7056C134.416 34.4405 134.201 34.2256 133.936 34.2256Z" fill="#C9EFFB"/>
<path d="M139.197 48.112H124.583C124.318 48.112 124.103 48.3269 124.103 48.592V54.5752C124.103 54.8403 124.318 55.0552 124.583 55.0552H139.197C139.462 55.0552 139.677 54.8403 139.677 54.5752V48.592C139.677 48.3269 139.462 48.112 139.197 48.112Z" fill="#C9EFFB"/>
<path d="M144.959 41.1688H130.346C130.081 41.1688 129.866 41.3837 129.866 41.6488V47.632C129.866 47.8971 130.081 48.112 130.346 48.112H144.959C145.224 48.112 145.439 47.8971 145.439 47.632V41.6488C145.439 41.3837 145.224 41.1688 144.959 41.1688Z" stroke="#C9EFFB" stroke-width="2" stroke-miterlimit="10"/>
<path d="M129.386 41.1688H114.772C114.507 41.1688 114.292 41.3837 114.292 41.6488V47.632C114.292 47.8971 114.507 48.112 114.772 48.112H129.386C129.651 48.112 129.866 47.8971 129.866 47.632V41.6488C129.866 41.3837 129.651 41.1688 129.386 41.1688Z" stroke="#C9EFFB" stroke-width="2" stroke-miterlimit="10"/>
<path d="M137.877 112.278H144.309V107.651H137.877V112.278Z" fill="#E3EAF3"/>
<path d="M124.106 112.787H130.094V109.269H124.106V112.787Z" fill="#E3EAF3"/>
<path d="M104.277 120.532H119.812V115.055H104.277V120.532Z" fill="#E3EAF3"/>
<path d="M87.3377 86.0776H102.873V80.6008H87.3377V86.0776Z" fill="#E3EAF3"/>
<path d="M104.174 181.254L104.44 26.7424C104.441 26.3424 104.6 25.9591 104.883 25.6765C105.166 25.3939 105.55 25.2352 105.95 25.2352H119.723C120.146 25.2352 120.564 25.3303 120.945 25.5136L141.928 35.6344L145.96 32.7088L121.83 21.016C121.531 20.8716 121.203 20.7961 120.87 20.7952H102.222C101.634 20.7952 101.07 21.0287 100.654 21.4445C100.237 21.8604 100.003 22.4244 100.002 23.0128L99.7336 181.24L104.174 181.254Z" fill="#54A4CC"/>
<path d="M101.889 25.9168C101.889 24.6904 102.167 22.7104 103.984 22.7104H120.899C121.233 22.7104 123.422 23.776 123.722 23.9104L144.311 33.8896L141.911 35.6248L120.928 25.504C120.547 25.3208 120.129 25.2256 119.706 25.2256H105.942C105.542 25.2256 105.159 25.3843 104.876 25.6669C104.593 25.9495 104.433 26.3328 104.433 26.7328L104.174 181.245H101.63L101.889 25.9168Z" fill="#396E8E"/>
<path d="M169.983 63.3764C186.67 56.2312 197.131 43.2756 193.347 34.4391C189.563 25.6027 172.969 24.2317 156.281 31.3769C139.594 38.5221 129.134 51.4778 132.918 60.3142C136.701 69.1506 153.296 70.5216 169.983 63.3764Z" fill="#E3EAF3"/>
<path d="M172.96 26.9752C169.3 26.8821 165.643 27.2368 162.069 28.0312C160.288 28.4056 158.528 28.8656 156.789 29.4112C155.056 29.9536 153.345 30.5608 151.67 31.2496C148.32 32.6155 145.088 34.253 142.005 36.1456C140.471 37.0936 138.983 38.1088 137.555 39.1984C136.129 40.2791 134.767 41.4418 133.475 42.6808C132.185 43.9041 130.991 45.2248 129.904 46.6312C129.621 46.9744 129.381 47.3512 129.117 47.6944C128.853 48.0376 128.637 48.4264 128.397 48.7936C127.939 49.5338 127.524 50.2999 127.154 51.088C126.787 51.862 126.485 52.6647 126.249 53.488C126.021 54.3032 125.871 55.1381 125.8 55.9816C125.755 56.8083 125.809 57.6374 125.961 58.4512L126.105 59.0536C126.148 59.2552 126.232 59.4424 126.292 59.6416L126.393 59.9344L126.515 60.2176C126.592 60.4096 126.693 60.592 126.784 60.7768C127.552 62.2504 128.795 63.4696 130.235 64.432C131.725 65.3916 133.354 66.1153 135.064 66.5776C136.806 67.0738 138.591 67.4064 140.394 67.5712C142.221 67.7439 144.056 67.8072 145.89 67.7608C142.215 68.4092 138.454 68.3962 134.783 67.7224C132.903 67.3555 131.09 66.698 129.412 65.7736C128.556 65.2893 127.761 64.7043 127.043 64.0312C126.306 63.348 125.67 62.5634 125.154 61.7008C125.03 61.48 124.898 61.264 124.792 61.0336L124.624 60.6928L124.48 60.34C124.391 60.1 124.281 59.872 124.211 59.62L123.998 58.888C123.768 57.9009 123.664 56.8891 123.686 55.876C123.725 54.88 123.867 53.8907 124.11 52.924C124.354 51.9737 124.675 51.045 125.07 50.1472C125.855 48.3843 126.843 46.7194 128.015 45.1864C129.17 43.675 130.44 42.2556 131.814 40.9408C134.554 38.3515 137.583 36.0862 140.841 34.1896C142.461 33.2464 144.122 32.3752 145.821 31.5928C146.248 31.4032 146.668 31.2016 147.1 31.0192L148.391 30.4744C149.262 30.1384 150.131 29.7952 151.017 29.4952C152.775 28.8673 154.564 28.3322 156.378 27.892C158.19 27.4577 160.023 27.1149 161.87 26.8648C165.561 26.4088 169.322 26.3344 172.96 26.9752Z" fill="#80CBE8"/>
<path d="M139.437 62.8216C135.664 54.0136 143.786 42.0856 157.574 36.1816C171.362 30.2776 185.598 32.632 189.371 41.44C190.331 43.6864 190.521 46.1344 190.038 48.64C193.746 43.684 195.129 38.6032 193.346 34.4368C189.561 25.6 172.967 24.2296 156.28 31.3768C139.593 38.524 129.134 51.472 132.916 60.3064C134.43 63.844 137.999 66.1816 142.802 67.2664C141.34 66.0763 140.185 64.5518 139.437 62.8216Z" fill="#80CBE8"/>
<path d="M151.132 64.2194C154.431 62.807 156.46 60.1567 155.665 58.2998C154.87 56.4428 151.551 56.0824 148.253 57.4947C144.954 58.9071 142.925 61.5574 143.72 63.4143C144.515 65.2713 147.834 65.6317 151.132 64.2194Z" fill="#80CBE8"/>
<path d="M161.462 47.3948C164.761 45.9825 166.79 43.3322 165.995 41.4752C165.2 39.6182 161.881 39.2578 158.583 40.6701C155.285 42.0825 153.255 44.7328 154.05 46.5898C154.845 48.4467 158.164 48.8072 161.462 47.3948Z" fill="#80CBE8"/>
<path d="M182.123 49.0833C185.422 47.671 187.451 45.0207 186.656 43.1637C185.861 41.3068 182.542 40.9463 179.244 42.3587C175.946 43.771 173.916 46.4213 174.711 48.2783C175.506 50.1352 178.825 50.4957 182.123 49.0833Z" fill="#80CBE8"/>
<path d="M169.269 60.7405C172.568 59.3282 174.597 56.6779 173.802 54.8209C173.007 52.9639 169.688 52.6035 166.39 54.0158C163.092 55.4282 161.062 58.0785 161.857 59.9354C162.652 61.7924 165.971 62.1528 169.269 60.7405Z" fill="#80CBE8"/>
<path d="M58.204 100.562H85.9504C86.7166 100.562 87.3376 99.9405 87.3376 99.1744V79.3936C87.3376 78.6275 86.7166 78.0064 85.9504 78.0064H58.204C57.4379 78.0064 56.8168 78.6275 56.8168 79.3936V99.1744C56.8168 99.9405 57.4379 100.562 58.204 100.562Z" fill="#E3EAF3"/>
<path d="M67.8568 96.292C68.4772 96.292 68.98 95.7891 68.98 95.1688C68.98 94.5485 68.4772 94.0456 67.8568 94.0456C67.2365 94.0456 66.7336 94.5485 66.7336 95.1688C66.7336 95.7891 67.2365 96.292 67.8568 96.292Z" fill="#80CBE8"/>
<path d="M59.536 96.292C60.1564 96.292 60.6592 95.7891 60.6592 95.1688C60.6592 94.5485 60.1564 94.0456 59.536 94.0456C58.9157 94.0456 58.4128 94.5485 58.4128 95.1688C58.4128 95.7891 58.9157 96.292 59.536 96.292Z" fill="#80CBE8"/>
<path d="M63.6952 96.292C64.3156 96.292 64.8184 95.7891 64.8184 95.1688C64.8184 94.5485 64.3156 94.0456 63.6952 94.0456C63.0749 94.0456 62.572 94.5485 62.572 95.1688C62.572 95.7891 63.0749 96.292 63.6952 96.292Z" fill="#80CBE8"/>
<path d="M59.7809 86.8576H67.4105C68.3741 86.8576 69.1553 86.0764 69.1553 85.1128V81.5632C69.1553 80.5995 68.3741 79.8184 67.4105 79.8184H59.7809C58.8172 79.8184 58.0361 80.5995 58.0361 81.5632V85.1128C58.0361 86.0764 58.8172 86.8576 59.7809 86.8576Z" fill="#80CBE8"/>
<path d="M76.2256 98.6872H83.8552C84.8189 98.6872 85.6 97.906 85.6 96.9424V93.3928C85.6 92.4292 84.8189 91.648 83.8552 91.648H76.2256C75.262 91.648 74.4808 92.4292 74.4808 93.3928V96.9424C74.4808 97.906 75.262 98.6872 76.2256 98.6872Z" fill="#80CBE8"/>
<path d="M76.2256 86.8576H83.8552C84.8189 86.8576 85.6 86.0764 85.6 85.1128V81.5632C85.6 80.5995 84.8189 79.8184 83.8552 79.8184H76.2256C75.262 79.8184 74.4808 80.5995 74.4808 81.5632V85.1128C74.4808 86.0764 75.262 86.8576 76.2256 86.8576Z" fill="#80CBE8"/>
<path d="M71.3272 100.562H72.8248V78.0064H71.3272V100.562Z" fill="#80CBE8"/>
<path d="M87.3376 90.0328V88.5352H56.8169V90.0328H87.3376Z" fill="#80CBE8"/>
<path d="M54.5681 77.1256V101.442C54.5681 101.878 54.7409 102.296 55.0487 102.604C55.3565 102.912 55.7741 103.086 56.2097 103.086H87.9401C88.1559 103.086 88.3697 103.044 88.5692 102.961C88.7686 102.879 88.9499 102.758 89.1025 102.605C89.2552 102.452 89.3763 102.271 89.4589 102.072C89.5415 101.872 89.5841 101.658 89.5841 101.442V77.1256C89.5841 76.9097 89.5415 76.6959 89.4589 76.4965C89.3763 76.297 89.2552 76.1158 89.1025 75.9631C88.9499 75.8105 88.7686 75.6894 88.5692 75.6067C88.3697 75.5241 88.1559 75.4816 87.9401 75.4816H56.2001C55.7661 75.4848 55.351 75.6594 55.0453 75.9673C54.7396 76.2753 54.568 76.6917 54.5681 77.1256ZM56.8145 79.3936C56.8145 79.0257 56.9606 78.6728 57.2208 78.4127C57.4809 78.1525 57.8337 78.0064 58.2017 78.0064H85.9601C86.1421 78.0064 86.3224 78.0423 86.4905 78.112C86.6587 78.1818 86.8115 78.284 86.9401 78.4128C87.0687 78.5417 87.1707 78.6946 87.2401 78.8629C87.3096 79.0312 87.3452 79.2115 87.3448 79.3936V99.1744C87.3452 99.3565 87.3096 99.5368 87.2401 99.7051C87.1707 99.8734 87.0687 100.026 86.9401 100.155C86.8115 100.284 86.6587 100.386 86.4905 100.456C86.3224 100.526 86.1421 100.562 85.9601 100.562H58.2017C57.8337 100.562 57.4809 100.415 57.2208 100.155C56.9606 99.8951 56.8145 99.5423 56.8145 99.1744V79.3936Z" fill="#80CBE8"/>
<path d="M118.718 123.926H147.906C148.426 123.926 148.847 123.504 148.847 122.985V112.602C148.847 112.083 148.426 111.662 147.906 111.662H118.718C118.198 111.662 117.777 112.083 117.777 112.602V122.985C117.777 123.504 118.198 123.926 118.718 123.926Z" fill="#80CBE8"/>
<path d="M92.02 8.00317H14.608C13.9069 8.00317 13.3384 8.57159 13.3384 9.27277V32.3176C13.3384 33.0188 13.9069 33.5872 14.608 33.5872H92.02C92.7212 33.5872 93.2896 33.0188 93.2896 32.3176V9.27277C93.2896 8.57159 92.7212 8.00317 92.02 8.00317Z" fill="#E3EAF3"/>
<path d="M93.2729 19.144H13.5929C13.5388 19.144 13.4869 19.1225 13.4486 19.0842C13.4103 19.046 13.3889 18.9941 13.3889 18.94C13.3889 18.8859 13.4103 18.834 13.4486 18.7957C13.4869 18.7575 13.5388 18.736 13.5929 18.736H93.2729C93.327 18.736 93.3789 18.7575 93.4171 18.7957C93.4554 18.834 93.4769 18.8859 93.4769 18.94C93.4769 18.9941 93.4554 19.046 93.4171 19.0842C93.3789 19.1225 93.327 19.144 93.2729 19.144Z" fill="#ABBCCA"/>
<path d="M89.8336 26.1112H16.792C16.5667 26.1112 16.384 26.2938 16.384 26.5192V30.2728C16.384 30.4981 16.5667 30.6808 16.792 30.6808H89.8336C90.059 30.6808 90.2416 30.4981 90.2416 30.2728V26.5192C90.2416 26.2938 90.059 26.1112 89.8336 26.1112Z" fill="#ABBCCA"/>
<path d="M89.6728 27.6904H16.9528C16.8987 27.6904 16.8468 27.6689 16.8086 27.6306C16.7703 27.5924 16.7488 27.5405 16.7488 27.4864C16.7488 27.4323 16.7703 27.3804 16.8086 27.3421C16.8468 27.3039 16.8987 27.2824 16.9528 27.2824H89.6728C89.7269 27.2824 89.7788 27.3039 89.8171 27.3421C89.8553 27.3804 89.8768 27.4323 89.8768 27.4864C89.8768 27.5405 89.8553 27.5924 89.8171 27.6306C89.7788 27.6689 89.7269 27.6904 89.6728 27.6904Z" fill="#E3EAF3"/>
<path d="M89.6728 29.4736H16.9528C16.8987 29.4736 16.8468 29.4521 16.8086 29.4138C16.7703 29.3756 16.7488 29.3237 16.7488 29.2696C16.7488 29.2155 16.7703 29.1636 16.8086 29.1253C16.8468 29.0871 16.8987 29.0656 16.9528 29.0656H89.6728C89.7269 29.0656 89.7788 29.0871 89.8171 29.1253C89.8553 29.1636 89.8768 29.2155 89.8768 29.2696C89.8768 29.3237 89.8553 29.3756 89.8171 29.4138C89.7788 29.4521 89.7269 29.4736 89.6728 29.4736Z" fill="#E3EAF3"/>
<path d="M86.5624 12.3448H80.068C79.8427 12.3448 79.66 12.5275 79.66 12.7528V15.2872C79.66 15.5125 79.8427 15.6952 80.068 15.6952H86.5624C86.7878 15.6952 86.9704 15.5125 86.9704 15.2872V12.7528C86.9704 12.5275 86.7878 12.3448 86.5624 12.3448Z" fill="#ABBCCA"/>
<path d="M81.5584 14.9632C82.0793 14.9632 82.5016 14.5409 82.5016 14.02C82.5016 13.4991 82.0793 13.0768 81.5584 13.0768C81.0375 13.0768 80.6152 13.4991 80.6152 14.02C80.6152 14.5409 81.0375 14.9632 81.5584 14.9632Z" fill="#E3EAF3"/>
<path d="M85.072 14.9632C85.593 14.9632 86.0152 14.5409 86.0152 14.02C86.0152 13.4991 85.593 13.0768 85.072 13.0768C84.5511 13.0768 84.1288 13.4991 84.1288 14.02C84.1288 14.5409 84.5511 14.9632 85.072 14.9632Z" fill="#E3EAF3"/>
<path d="M240.126 17.524H209.366V44.8264H240.126V17.524Z" fill="#E3EAF3"/>
<path d="M207.988 16.8856V45.0976C207.988 45.4158 208.114 45.7211 208.34 45.9461C208.565 46.1712 208.87 46.2976 209.188 46.2976H239.855C240.173 46.2976 240.479 46.1712 240.704 45.9461C240.929 45.7211 241.055 45.4158 241.055 45.0976V16.8856C241.055 16.5673 240.929 16.2621 240.704 16.037C240.479 15.812 240.173 15.6856 239.855 15.6856H209.188C208.87 15.6856 208.565 15.812 208.34 16.037C208.114 16.2621 207.988 16.5673 207.988 16.8856ZM237.16 43.8112H211.874C211.555 43.8112 211.25 43.6847 211.025 43.4597C210.8 43.2347 210.674 42.9294 210.674 42.6112V19.372C210.674 19.0537 210.8 18.7485 211.025 18.5234C211.25 18.2984 211.555 18.172 211.874 18.172H237.16C237.478 18.172 237.784 18.2984 238.009 18.5234C238.234 18.7485 238.36 19.0537 238.36 19.372V42.6112C238.36 42.9294 238.234 43.2347 238.009 43.4597C237.784 43.6847 237.478 43.8112 237.16 43.8112Z" fill="#A04833"/>
<path fill-rule="evenodd" clip-rule="evenodd" d="M224.2 24.2488H225.256C226.184 23.9432 227.141 23.7318 228.112 23.6176C229.379 23.512 230.752 24.4624 230.968 26.6848C231.184 28.9072 229.912 31.552 229.487 33.5656C229.062 35.5792 228.854 38.008 227.898 38.3248C226.943 38.6416 226.218 37.2688 225.782 35.572C225.345 33.8752 225.15 33.3472 224.62 33.3472C224.59 33.3493 224.561 33.3493 224.531 33.3472C224.502 33.3494 224.474 33.3494 224.445 33.3472C223.914 33.3472 223.708 33.8776 223.283 35.572C222.858 37.2664 222.122 38.6392 221.166 38.3248C220.211 38.0104 220.002 35.572 219.578 33.5656C219.153 31.5592 217.886 28.9096 218.097 26.6848C218.308 24.46 219.683 23.512 220.953 23.6176C221.923 23.7343 222.88 23.9457 223.809 24.2488H224.2Z" fill="#80CBE8"/>
<path d="M224.2 24.2008H225.256H225.239C225.765 24.028 226.29 23.86 226.828 23.7208C227.097 23.656 227.368 23.5864 227.642 23.536C227.922 23.4753 228.209 23.4455 228.496 23.4472C228.795 23.4544 229.09 23.5153 229.367 23.6272C229.647 23.7463 229.906 23.9082 230.135 24.1072C230.361 24.3078 230.558 24.5388 230.721 24.7936C230.879 25.0484 231.009 25.3196 231.11 25.6024C231.297 26.1633 231.394 26.7508 231.395 27.3424C231.39 27.9194 231.326 28.4944 231.203 29.0584C230.945 30.1413 230.62 31.2073 230.231 32.2504C230.054 32.7688 229.888 33.2776 229.751 33.7984C229.614 34.3192 229.511 34.864 229.377 35.404C229.242 35.944 229.137 36.484 228.954 37.0216C228.868 37.2947 228.758 37.5597 228.626 37.8136C228.488 38.0965 228.258 38.3236 227.973 38.4568C227.822 38.5127 227.659 38.5307 227.499 38.5094C227.339 38.488 227.187 38.428 227.056 38.3344C226.813 38.1651 226.608 37.9469 226.454 37.6936C226.3 37.4548 226.168 37.2026 226.06 36.94C225.946 36.6832 225.846 36.4204 225.76 36.1528C225.594 35.6152 225.455 35.0872 225.28 34.576C225.204 34.3259 225.102 34.0845 224.975 33.856C224.93 33.7713 224.864 33.6994 224.783 33.6472C224.754 33.6283 224.72 33.6175 224.685 33.616C224.665 33.6147 224.645 33.6147 224.625 33.616H224.49H224.567H224.43C224.411 33.6144 224.392 33.6144 224.373 33.616C224.342 33.6239 224.314 33.6378 224.289 33.6568C224.221 33.7169 224.167 33.7905 224.13 33.8728C224.028 34.1048 223.948 34.3458 223.89 34.5928C223.756 35.1136 223.65 35.6416 223.509 36.2008C223.433 36.4801 223.342 36.7549 223.235 37.024C223.128 37.3035 222.996 37.5727 222.839 37.828C222.669 38.1196 222.438 38.3716 222.162 38.5672L222.042 38.644L221.903 38.7064C221.807 38.7462 221.706 38.7744 221.603 38.7904C221.497 38.8 221.39 38.8 221.284 38.7904C221.18 38.775 221.078 38.7501 220.979 38.716C220.782 38.6385 220.607 38.516 220.466 38.3584C220.405 38.2912 220.349 38.2199 220.298 38.1448L220.163 37.9288C220.025 37.6562 219.911 37.3719 219.822 37.0792C219.661 36.5351 219.527 35.9832 219.422 35.4256L219.11 33.8152C219.004 33.2944 218.87 32.7904 218.702 32.2672C218.402 31.2208 218.034 30.1648 217.828 29.0416C217.713 28.4745 217.658 27.8969 217.665 27.3184C217.672 26.7276 217.776 26.1421 217.974 25.5856C218.168 25.017 218.503 24.5073 218.949 24.1048C219.175 23.9057 219.431 23.7437 219.707 23.6248C219.982 23.515 220.273 23.4532 220.569 23.4424C220.854 23.4396 221.14 23.4694 221.418 23.5312C221.692 23.5792 221.963 23.6392 222.232 23.7064C222.767 23.848 223.298 23.9896 223.823 24.1672H223.806L224.2 24.2008ZM224.2 24.2968H223.809H223.792C223.269 24.1327 222.737 23.9997 222.198 23.8984C221.93 23.848 221.661 23.8048 221.39 23.7736C221.126 23.7397 220.86 23.7357 220.595 23.7616C220.342 23.7964 220.098 23.8778 219.875 24.0016C219.655 24.125 219.455 24.2821 219.282 24.4672C218.949 24.849 218.718 25.3088 218.61 25.804C218.5 26.3039 218.462 26.8172 218.498 27.328C218.536 27.8496 218.616 28.3673 218.738 28.876C218.978 29.908 219.342 30.9352 219.681 31.996C219.853 32.5354 219.997 33.0833 220.113 33.6376C220.223 34.1896 220.317 34.732 220.408 35.2696C220.49 35.7966 220.6 36.3189 220.737 36.8344C220.797 37.0704 220.877 37.3008 220.977 37.5232C221.041 37.6757 221.15 37.8054 221.289 37.8952C221.351 37.9216 221.42 37.9311 221.487 37.9227C221.555 37.9143 221.619 37.8882 221.673 37.8472C221.847 37.7229 221.996 37.5655 222.11 37.384C222.381 36.9499 222.595 36.4829 222.748 35.9944C222.914 35.5 223.046 34.9504 223.228 34.4176C223.32 34.1328 223.44 33.8579 223.586 33.5968C223.678 33.4353 223.807 33.298 223.962 33.196C224.097 33.117 224.25 33.0756 224.406 33.076H224.553H224.625C224.673 33.076 224.718 33.076 224.769 33.0952C224.87 33.1159 224.967 33.1567 225.052 33.2152C225.198 33.3195 225.315 33.459 225.393 33.6208C225.521 33.8846 225.62 34.1614 225.688 34.4464C225.837 34.9864 225.928 35.536 226.077 36.052C226.209 36.5724 226.417 37.0705 226.694 37.5304C226.822 37.7505 226.994 37.9417 227.2 38.092C227.294 38.1586 227.403 38.2007 227.518 38.2145C227.632 38.2283 227.748 38.2134 227.855 38.1712C228.07 38.0625 228.24 37.8815 228.335 37.66C228.445 37.4202 228.533 37.1713 228.599 36.916C228.731 36.3879 228.832 35.8526 228.902 35.3128C228.978 34.7704 229.048 34.2232 229.142 33.6736C229.232 33.1194 229.353 32.5706 229.504 32.0296C229.79 30.9568 230.135 29.92 230.354 28.8784C230.572 27.8368 230.69 26.7976 230.438 25.804C230.326 25.3145 230.095 24.8602 229.766 24.4816C229.596 24.2989 229.398 24.1442 229.18 24.0232C228.956 23.9006 228.712 23.8193 228.46 23.7832C228.197 23.7533 227.931 23.7533 227.668 23.7832C227.399 23.812 227.128 23.8432 226.859 23.896C226.32 23.9952 225.787 24.1258 225.263 24.2872H225.246L224.2 24.2968Z" fill="#454851"/>
<path fill-rule="evenodd" clip-rule="evenodd" d="M233.385 21.184V21.2032H233.397C233.397 21.2032 233.397 21.2032 233.416 21.2032H233.43H233.454H233.481H233.498H233.517H233.536H233.55H233.577H233.594H233.651H233.682H233.714H233.742H233.798H233.824H233.86H233.879H234.021C234.223 21.2381 234.41 21.3348 234.556 21.48C234.702 21.6252 234.799 21.8118 234.834 22.0144V22.1536V22.1728V22.264V22.2832V22.3144V22.3312V22.3456V22.3768V22.408V22.4248V22.4824V22.5232V22.5448V22.5568L234.849 22.6048V22.6168V22.6336V22.6576V22.6816H234.873H234.897V22.84V22.816V22.7992V22.7872L234.911 22.7392V22.7272V22.7152V22.6744V22.6168V22.6V22.5688V22.5376V22.5232V22.5064V22.4752V22.36V22.3408V22.3048V22.2856V22.1464C234.945 21.943 235.041 21.7552 235.187 21.6097C235.333 21.4641 235.521 21.3681 235.725 21.3352H235.866H235.886H235.922H235.948H236.003H236.032H236.061H236.078H236.094H236.152H236.166H236.183H236.207H236.224H236.243H236.262H236.279H236.306H236.33H236.344H236.363L236.378 21.3184V21.2992V21.16C236.378 21.16 236.378 21.16 236.358 21.16H236.344H236.32H236.294H236.272H236.255H236.231H236.214H236.2H236.44H236.423H236.409H236.392H236.361H236.346H236.31H236.291H236.262H236.236H236.039C235.837 21.1247 235.65 21.0279 235.504 20.8827C235.359 20.7376 235.261 20.5512 235.226 20.3488V20.2072V20.188V20.152V20.1328V19.96V19.9288V19.9144V19.8976V19.8664V19.8352V19.8208V19.7608V19.7224V19.7104V19.6744V19.6624V19.648V19.624V19.612H235.17V19.624V19.6408V19.6648V19.6792V19.6912V19.7272V19.7512V19.7896V19.8496V19.864V19.8952V19.9264V19.9432V19.9576V19.9888V20.008V20.0992V20.1184V20.26C235.137 20.4632 235.04 20.6508 234.894 20.7962C234.748 20.9417 234.56 21.0379 234.357 21.0712H234.16H234.134H234.105H234.086H233.8H233.786H233.769H233.738H233.723H233.706H233.668H233.651H233.637H233.62H233.606H233.56H233.534H233.51H233.495H233.476L233.462 21.088V21.112L233.385 21.184Z" fill="#80CBE8"/>
<path fill-rule="evenodd" clip-rule="evenodd" d="M229.696 22.0312V22.0504L229.71 22.0648H229.756H229.773H229.811H229.934H229.948H230.116C230.246 22.0862 230.367 22.1479 230.46 22.2413C230.554 22.3348 230.615 22.4552 230.637 22.5856V22.8256V22.8448V22.8616V22.876V23.0416H230.666L230.68 23.0272V22.8976V22.8712V22.8304V22.8112V22.5712C230.703 22.4414 230.765 22.3217 230.858 22.2285C230.951 22.1353 231.071 22.0731 231.201 22.0504H231.369H231.386H231.506H231.546H231.561H231.609L231.628 22.0312V21.9928L231.609 21.9712H231.566H231.551H231.52H231.508H231.491H231.186C231.057 21.9485 230.937 21.8863 230.844 21.7931C230.751 21.6999 230.688 21.5802 230.666 21.4504V21.2104V21.1912V21.16V21.1312V21.004L230.651 20.9872H230.627V21.16V21.1768V21.1912V21.2104V21.4504C230.605 21.5804 230.543 21.7002 230.45 21.7935C230.356 21.8867 230.236 21.9488 230.106 21.9712H229.802H229.787H229.775H229.744H229.727H229.72L229.706 21.988L229.696 22.0312Z" fill="#80CBE8"/>
<path fill-rule="evenodd" clip-rule="evenodd" d="M232.151 25.396V25.4152L232.168 25.4296H232.182H232.199H232.218H232.247H232.422H232.442H232.638C232.789 25.4551 232.929 25.527 233.037 25.6355C233.145 25.7439 233.216 25.8834 233.241 26.0344V26.2936V26.3152V26.3392V26.3584V26.4064V26.4304V26.4448V26.4568V26.4688H233.265V26.4568V26.4424V26.428V26.4112V26.3632V26.344V26.0392C233.291 25.8881 233.363 25.7488 233.471 25.6404C233.579 25.5321 233.719 25.4601 233.87 25.4344H234.064H234.086H234.261H234.29H234.309H234.323C234.323 25.4344 234.323 25.4344 234.34 25.4344L234.357 25.42V25.3816L234.34 25.3648C234.34 25.3648 234.34 25.3648 234.323 25.3648H234.309H234.52H234.501H234.489H234.472H234.27H234.249H234.11C233.959 25.3392 233.82 25.2676 233.712 25.1597C233.603 25.0518 233.531 24.913 233.505 24.7624V24.4552V24.436V24.3904V24.3736V24.3592V24.3424V24.3304H233.481V24.3424V24.3544V24.3712V24.3856V24.4024V24.448V24.4672V24.4912V24.5152V24.7744C233.456 24.925 233.384 25.0639 233.276 25.1719C233.168 25.2798 233.029 25.3515 232.878 25.3768H232.737H232.718H232.514H232.499H232.48H232.449H232.432C232.432 25.3768 232.432 25.3768 232.418 25.3768L232.401 25.3936L232.151 25.396Z" fill="#80CBE8"/>
<path fill-rule="evenodd" clip-rule="evenodd" d="M226.758 26.62V26.6392L226.773 26.6536C226.773 26.6536 226.773 26.6536 226.79 26.6536H226.804H226.826H226.845H227.022H227.042H227.078H227.097H227.238C227.389 26.6796 227.527 26.7514 227.635 26.8593C227.743 26.9671 227.815 27.1057 227.841 27.256V27.5152V27.5368V27.64V27.6712V27.7024V27.7264V27.7432H227.853H227.877V27.7288V27.712V27.688V27.6568V27.604V27.5824V27.3232C227.903 27.1729 227.975 27.0343 228.083 26.9265C228.19 26.8186 228.329 26.7468 228.479 26.7208H228.621H228.64H228.676H228.695H228.87H228.882H228.902H228.921H228.938C228.938 26.7208 228.938 26.7208 228.952 26.7208L228.966 26.7064V26.6656L228.952 26.6512C228.952 26.6512 228.952 26.6512 228.938 26.6512H228.921H228.902H228.875H228.7H228.681H228.645H228.626H228.484C228.334 26.6252 228.195 26.5533 228.087 26.4455C227.979 26.3376 227.908 26.1991 227.882 26.0488V25.7896V25.768V25.7152V25.684V25.6672V25.6528V25.636V25.6216V25.6096H227.858V25.6216L227.846 25.6336V25.6504V25.6744V25.6888V25.72V25.7512V25.804V25.8256V26.0848C227.82 26.2351 227.748 26.3737 227.64 26.4815C227.532 26.5893 227.394 26.6612 227.243 26.6872H227.102H227.082H227.046H227.027H226.85H226.823H226.802H226.787C226.787 26.6872 226.787 26.6872 226.77 26.6872L226.756 26.7016L226.758 26.62Z" fill="#E3EAF3"/>
<path fill-rule="evenodd" clip-rule="evenodd" d="M215.973 40.2448V40.2208C215.973 40.2208 215.973 40.2208 215.954 40.2208H215.937H215.913H215.886H215.867H215.848H215.834H215.817H215.805H215.79H215.774H215.716H215.685H215.668H215.654H215.625H215.57H215.543H215.346C215.144 40.1855 214.957 40.0887 214.812 39.9435C214.666 39.7984 214.569 39.612 214.533 39.4096V39.268V39.2488V39.1576V39.1384V39.1072V39.0904V39.0592V39.0448V39.0136V38.9824V38.9536V38.9392V38.9008V38.8768V38.8648L214.518 38.8168V38.8048V38.7904V38.7664L214.506 38.7544H214.482H214.458V38.7664V38.7904L214.446 38.8144V38.8288V38.8408L214.432 38.8888V38.9008V38.9128V38.9512V39.0088V39.0256V39.0568V39.088V39.1024V39.1192V39.1504V39.2056V39.2248V39.2608V39.28V39.4216C214.398 39.6248 214.301 39.8124 214.156 39.9578C214.01 40.1033 213.822 40.1995 213.618 40.2328H213.422H213.395H213.34H213.314H213.297H213.266H213.249H213.191H213.179H213.165H213.148H213.124H213.107H213.088H213.069H213.057H213.03H213.006H212.992H212.973L212.958 40.2496V40.2736V40.2928C212.958 40.2928 212.97 40.2928 212.978 40.2928H212.992H213.016H213.042H213.054H213.074H213.093H213.11H213.134H213.15H213.165H213.177H213.234H213.251H213.282H213.299H213.326H213.381H213.407H213.604C213.807 40.3281 213.993 40.4248 214.139 40.57C214.284 40.7151 214.382 40.9016 214.418 41.104V41.2456V41.2648V41.3008V41.32V41.3752V41.4064V41.4232V41.4376V41.56V41.5912V41.608V41.6656V41.704V41.716V41.728V41.764V41.776V41.7904L214.43 41.8144V41.8264H214.454H214.478H214.49V41.8144V41.7976V41.7736V41.7592V41.7472V41.7112V41.6992V41.6752V41.6368V41.6224V41.5936V41.5624V41.5312V41.5168V41.4856V41.4688V41.4376V41.4184V41.3272V41.308V41.1664C214.524 40.9631 214.62 40.7756 214.766 40.6301C214.912 40.4846 215.1 40.3885 215.303 40.3552H215.5H215.526H215.582H215.61H215.625H215.642H215.673H215.73H215.747H215.762H215.774H215.79H215.805H215.824H215.843H215.87H215.894H215.91H215.93L215.944 40.3384V40.3192L215.973 40.2448Z" fill="#80CBE8"/>
<path fill-rule="evenodd" clip-rule="evenodd" d="M219.662 39.4V39.3808L219.647 39.364H219.602H219.585H219.546H219.4H219.386H219.218C219.087 39.343 218.966 39.2813 218.873 39.1878C218.78 39.0943 218.718 38.9737 218.697 38.8432V38.6032V38.584V38.5672V38.5528V38.3872H218.668L218.654 38.4016V38.5312V38.56V38.5984V38.6176V38.8576C218.631 38.9874 218.569 39.1071 218.476 39.2003C218.382 39.2935 218.263 39.3557 218.133 39.3784H217.965H217.948H217.828H217.72H217.706H217.658L217.638 39.3976V39.4384L217.658 39.4576H217.701H217.715H217.73H217.77H217.89H217.907H218.075C218.205 39.4796 218.325 39.5416 218.419 39.6349C218.512 39.7282 218.574 39.8483 218.596 39.9784V40.2184V40.2376V40.276V40.3048V40.4344L218.61 40.4488H218.634V40.2832V40.2688V40.252V40.2328V39.9928C218.656 39.8625 218.718 39.7423 218.811 39.6489C218.905 39.5556 219.025 39.4937 219.155 39.472H219.323H219.338H219.46H219.498H219.515H219.532H219.575L219.59 39.4552L219.662 39.4Z" fill="#80CBE8"/>
<path fill-rule="evenodd" clip-rule="evenodd" d="M217.206 36.04V36.0208L217.192 36.0064H217.178H217.161H217.142H217.113H217.086H217.074H216.926H216.906H216.71C216.559 35.9802 216.42 35.908 216.312 35.7997C216.204 35.6914 216.133 35.5523 216.107 35.4016V35.08V35.056V35.032V35.0128V34.9648V34.9408V34.9264V34.9096V34.8976H216.076L216.064 34.9096V34.924V34.948V34.9792V35.0104V35.0296V35.3344C216.038 35.4854 215.966 35.6248 215.858 35.7331C215.75 35.8415 215.61 35.9135 215.459 35.9392H215.08H215.061H214.912H214.9H214.871H214.84H214.818H214.804C214.804 35.9392 214.804 35.9392 214.787 35.9392L214.77 35.9536V36.04L214.787 36.0568H214.804H214.816H214.83H214.84H214.859H214.871H214.888H214.9H215.102H215.123H215.262C215.413 36.0823 215.552 36.154 215.661 36.2619C215.769 36.3697 215.841 36.5086 215.867 36.6592V36.9664V36.9856V37.0168V37.048V37.0648V37.0864V37.1032H215.879V37.24H215.903L215.915 37.228V37.2136V37.1968V37.18V37.1656V37.12V37.1008V37V36.976V36.7168C215.941 36.5665 216.013 36.4279 216.121 36.3201C216.229 36.2122 216.367 36.1404 216.518 36.1144H216.659H216.678H216.882H216.894H216.909H216.921H216.94H216.971H216.988C216.988 36.1144 217 36.1144 217.002 36.1144L217.017 36.0976L217.206 36.04Z" fill="#80CBE8"/>
<path d="M69.7792 129.77H20.2648C19.0242 129.77 18.0184 130.775 18.0184 132.016V132.858C18.0184 134.099 19.0242 135.105 20.2648 135.105H69.7792C71.0199 135.105 72.0256 134.099 72.0256 132.858V132.016C72.0256 130.775 71.0199 129.77 69.7792 129.77Z" fill="#CC7829"/>
<path d="M21.9496 181.254H17.3248L23.0968 135.105H27.6856L21.9496 181.254Z" fill="#CC7829"/>
<path d="M68.1088 181.254H72.7192L66.9472 135.105H62.3608L68.1088 181.254Z" fill="#CC7829"/>
<path d="M23.0968 135.105H27.6856L22.4848 139.857L23.0968 135.105Z" fill="#A04833"/>
<path d="M66.9472 135.105H62.3608L62.9728 139.857L66.9472 135.105Z" fill="#A04833"/>
<path d="M22.1777 115.583C22.1777 115.583 17.0513 125.975 26.6105 130.96C36.1697 135.945 42.1265 137.75 42.4025 139.84C42.6785 141.93 40.8785 144.688 41.7113 152.999C42.5441 161.31 43.9264 171.146 43.9264 171.146C43.9264 171.146 51.2681 172.254 52.3769 171.146C53.4857 170.037 52.1009 156.124 53.3369 143.618C53.3369 143.618 55.6912 137.618 52.5761 133.883L49.2161 130.187C49.2161 130.187 73.6337 134.987 70.1585 131.169C66.1553 126.76 54.2009 122.457 44.2001 117.446L43.6817 115.583H22.1777Z" fill="#25BEEF"/>
<path d="M22.1777 115.583C22.1777 115.583 17.0513 125.975 26.6105 130.96C36.1697 135.945 42.1265 137.75 42.4025 139.84C42.6785 141.93 40.8785 144.688 41.7113 152.999C42.5441 161.31 43.9265 171.146 43.9265 171.146C43.9265 171.146 51.2681 172.254 52.3769 171.146C53.4857 170.037 52.1009 156.124 53.3369 143.618C53.3369 143.618 55.6913 137.618 52.5761 133.883L49.9361 131.39L43.6721 115.595L22.1777 115.583Z" fill="#25BEEF"/>
<path d="M61.0481 179.027C58.8401 177.042 53.5601 174.549 52.3601 171.131C51.4409 172.053 46.2185 171.443 44.4785 171.21C44.4785 171.21 43.6337 173.901 43.5881 175.84C43.5425 177.779 43.5881 178.334 43.5881 178.334L46.8209 178.749V177.918C46.8209 177.918 48.7121 178.012 49.7297 179.027C50.7473 180.042 53.6537 181.382 56.7929 181.242C59.9321 181.103 63.2633 181.012 61.0481 179.027Z" fill="#D18165"/>
<path d="M56.7977 181.24C53.6561 181.379 50.7473 180.04 49.7321 179.025C48.7169 178.01 46.8233 177.916 46.8233 177.916V178.746L43.5905 178.331C43.5905 178.331 43.5449 177.777 43.5905 175.838C43.6467 174.812 43.801 173.795 44.0513 172.799C44.2721 171.882 44.4833 171.208 44.4833 171.208C46.2233 171.448 51.4433 172.048 52.3649 171.129C52.6175 171.806 52.9844 172.434 53.4497 172.986C53.5985 173.176 53.7617 173.361 53.9297 173.541C54.0977 173.721 54.2129 173.829 54.3593 173.973C54.5489 174.153 54.7409 174.333 54.9449 174.51C56.9921 176.294 59.6345 177.762 61.0481 179.025C63.2609 181.012 59.9369 181.106 56.7977 181.24Z" fill="#FFC065"/>
<path d="M56.7977 181.24C59.3201 181.13 61.9577 181.048 61.7537 179.992C53.8697 181.883 50.7497 178.792 50.1761 177.87C49.6025 176.949 48.2105 176.855 48.2105 176.855C45.6569 176.826 44.2913 176.015 43.6169 175.391C43.6049 175.542 43.5953 175.694 43.5929 175.838C43.5449 177.777 43.5929 178.331 43.5929 178.331L46.8257 178.746V177.916C46.8257 177.916 48.7169 178.01 49.7345 179.025C50.7521 180.04 53.6585 181.382 56.7977 181.24Z" fill="#7C2F13"/>
<path d="M53.9272 173.543C53.776 173.644 53.6176 173.74 53.4616 173.829C53.2487 173.955 53.0255 174.062 52.7944 174.15C52.5443 174.258 52.28 174.33 52.0096 174.364C52.1058 174.096 52.2571 173.85 52.4536 173.644C52.6353 173.447 52.8467 173.279 53.08 173.147C53.1988 173.081 53.3223 173.024 53.4496 172.977C53.5984 173.178 53.7616 173.363 53.9272 173.543Z" fill="#7C2F13"/>
<path d="M54.9425 174.52C54.8345 174.585 54.7265 174.652 54.6161 174.712C54.4011 174.835 54.1782 174.943 53.9489 175.036C53.6981 175.142 53.4341 175.213 53.1641 175.247C53.2605 174.979 53.4117 174.734 53.6081 174.527C53.7898 174.33 54.0011 174.162 54.2345 174.03C54.2729 174.009 54.3161 173.99 54.3569 173.97C54.5465 174.155 54.7385 174.335 54.9425 174.52Z" fill="#7C2F13"/>
<path d="M43.9265 171.134C44.1137 171.162 44.3033 171.189 44.4929 171.213L45.3641 171.321H45.3809C45.6689 171.354 45.9545 171.386 46.2425 171.414L46.5161 171.443C46.9097 171.482 47.3009 171.513 47.6921 171.544L48.1961 171.575H48.2873L48.7673 171.599L49.2857 171.614C49.4561 171.614 49.6241 171.614 49.7873 171.614C50.3721 171.621 50.9563 171.572 51.5321 171.47C48.1889 168.422 46.7081 165.491 45.9785 163.434C43.5497 156.594 44.9489 146.987 45.2849 144.664C45.6545 142.137 46.0649 140.495 45.2033 138.527C44.0801 135.957 41.8433 135.059 37.6673 133.026C33.8633 131.178 30.4673 129.525 27.9545 127.559C27.103 126.909 26.4944 125.992 26.2263 124.955C25.9582 123.918 26.0462 122.821 26.4761 121.84C27.0689 120.549 28.2497 119.488 30.4889 119.322C34.3363 118.992 38.0395 117.702 41.2601 115.571H22.1777V115.593V115.612L22.1561 115.655V115.67L22.1225 115.746L22.1105 115.773L22.0793 115.845L22.0649 115.881L22.0241 115.974V116.001C22.0049 116.044 21.9857 116.09 21.9665 116.138L21.9521 116.176C21.9377 116.214 21.9209 116.253 21.9065 116.294L21.8849 116.349L21.8345 116.481L21.8177 116.526C21.7961 116.589 21.7721 116.654 21.7481 116.718L21.7337 116.759L21.6761 116.925L21.6545 116.997C21.6353 117.05 21.6185 117.102 21.5993 117.158L21.5777 117.225L21.5057 117.465C21.5049 117.476 21.5049 117.487 21.5057 117.498L21.4409 117.717L21.4193 117.801C21.4025 117.863 21.3833 117.926 21.3665 117.99L21.3449 118.074C21.3209 118.166 21.2993 118.257 21.2753 118.353C21.2513 118.446 21.2297 118.542 21.2081 118.638C21.2081 118.67 21.2081 118.701 21.1889 118.73C21.1745 118.802 21.1577 118.874 21.1433 118.948C21.1433 118.979 21.1313 119.013 21.1241 119.044C21.1073 119.133 21.0905 119.222 21.0761 119.31C21.0761 119.327 21.0761 119.344 21.0761 119.358C21.0593 119.464 21.0401 119.57 21.0257 119.678L21.0113 119.771C20.9993 119.85 20.9897 119.932 20.9777 120.011C20.9777 120.05 20.9777 120.086 20.9777 120.122C20.9649 120.211 20.9553 120.3 20.9489 120.388C20.9489 120.412 20.9489 120.438 20.9489 120.462C20.9489 120.578 20.9297 120.702 20.9225 120.806V120.897L20.9081 121.161C20.9081 121.202 20.9081 121.24 20.9081 121.278C20.9081 121.367 20.9081 121.456 20.9081 121.547C20.9081 121.578 20.9081 121.61 20.9081 121.643C20.9081 121.761 20.9081 121.883 20.9081 122.003C20.9081 122.03 20.9081 122.056 20.9081 122.082C20.9081 122.178 20.9081 122.277 20.9081 122.373V122.493L20.9297 122.764C20.9297 122.8 20.9297 122.836 20.9297 122.872C20.9425 122.997 20.9569 123.122 20.9729 123.246V123.302C20.9873 123.407 21.0041 123.515 21.0233 123.623L21.0449 123.743C21.0617 123.834 21.0785 123.926 21.0977 124.017C21.0977 124.055 21.1145 124.094 21.1241 124.134C21.1505 124.259 21.1793 124.374 21.2129 124.509C21.4009 125.225 21.6732 125.916 22.0241 126.568C22.0865 126.686 22.1537 126.808 22.2233 126.921C22.2497 126.962 22.2737 127.005 22.3001 127.048C22.3841 127.185 22.4753 127.319 22.5689 127.456L22.6409 127.557C22.8387 127.833 23.051 128.099 23.2769 128.354C23.3057 128.387 23.3369 128.418 23.3657 128.45C23.4833 128.582 23.6057 128.711 23.7353 128.838C24.4834 129.563 25.3234 130.186 26.2337 130.691C26.3753 130.773 26.5217 130.852 26.6705 130.931C27.5681 131.4 28.4321 131.841 29.2625 132.254C29.8177 132.529 30.3569 132.794 30.8801 133.05L31.6529 133.425L33.1313 134.13L34.5137 134.781C37.1777 136.031 39.2441 136.984 40.6025 137.826C40.9099 138.012 41.2057 138.216 41.4881 138.438C41.6421 138.56 41.788 138.691 41.9249 138.832C42.202 139.086 42.3904 139.423 42.4625 139.792C42.4972 140.064 42.5028 140.339 42.4793 140.613C42.4313 141.256 42.2729 141.998 42.0977 142.941C42.0737 143.066 42.0521 143.181 42.0281 143.322C42.0041 143.464 41.9873 143.562 41.9681 143.668C41.9489 143.774 41.9297 143.908 41.9081 144.033C41.5998 146.029 41.4873 148.051 41.5721 150.069C41.5721 150.292 41.5913 150.52 41.6033 150.755C41.6369 151.442 41.6921 152.171 41.7713 152.951C41.8025 153.261 41.8337 153.575 41.8673 153.89V153.976C41.9345 154.607 42.0017 155.243 42.0713 155.879V155.958C42.1049 156.278 42.1409 156.597 42.1769 156.918C42.2225 157.317 42.2657 157.715 42.3113 158.118C42.3545 158.502 42.4001 158.886 42.4433 159.266V159.326C42.5057 159.839 42.5665 160.347 42.6257 160.85C42.6569 161.09 42.6857 161.33 42.7145 161.57V161.637C42.7409 161.86 42.7697 162.083 42.7961 162.302V162.388C42.8537 162.85 42.9105 163.302 42.9665 163.744V163.826C43.0241 164.277 43.0817 164.716 43.1345 165.138C43.3601 166.888 43.5593 168.378 43.7033 169.43C43.7033 169.494 43.7201 169.559 43.7273 169.622C43.7345 169.684 43.7441 169.744 43.7537 169.804C43.8329 170.382 43.8881 170.788 43.9145 170.975C43.9217 171.093 43.9265 171.134 43.9265 171.134Z" fill="#1A87C4"/>
<path d="M44.1857 128.248C53.7449 133.235 59.7017 135.035 59.9777 137.114C60.2537 139.192 58.4537 141.964 59.2865 150.275C60.1193 158.586 61.5017 168.422 61.5017 168.422C61.5017 168.422 68.8433 169.53 69.9521 168.422C71.0609 167.313 69.6761 153.4 70.9121 140.894C70.9121 140.894 73.2665 134.894 70.1513 131.157L66.8081 128.483" fill="#25BEEF"/>
<path d="M78.6232 176.315C76.4056 174.328 71.1424 171.834 69.94 168.419C69.0208 169.338 63.7984 168.729 62.0584 168.498C62.0584 168.498 61.2136 171.189 61.168 173.128C61.1224 175.067 61.168 175.622 61.168 175.622L64.4008 176.037V175.206C64.4008 175.206 66.292 175.298 67.3096 176.315C68.3272 177.333 71.2336 178.67 74.3728 178.53C77.512 178.391 80.8384 178.3 78.6232 176.315Z" fill="#D18165"/>
<path d="M74.3729 178.53C71.2313 178.67 68.3225 177.33 67.3073 176.315C66.2921 175.3 64.3985 175.206 64.3985 175.206V176.037L61.1657 175.622C61.1657 175.622 61.1201 175.067 61.1657 173.128C61.222 172.102 61.3763 171.084 61.6264 170.087C61.8472 169.173 62.0585 168.498 62.0585 168.498C63.7985 168.738 69.0185 169.338 69.9401 168.419C70.1927 169.096 70.5596 169.724 71.0248 170.277C71.1736 170.466 71.3369 170.651 71.5049 170.831C71.6728 171.011 71.7881 171.119 71.9345 171.261C72.1241 171.443 72.3161 171.623 72.5201 171.801C74.5673 173.582 77.2097 175.053 78.6233 176.315C80.8361 178.3 77.5121 178.391 74.3729 178.53Z" fill="#FFC065"/>
<path d="M74.3728 178.53C76.8952 178.42 79.5328 178.336 79.3288 177.282C71.4448 179.174 68.3248 176.082 67.7512 175.161C67.1776 174.239 65.7856 174.143 65.7856 174.143C63.232 174.117 61.8664 173.303 61.192 172.682C61.18 172.833 61.1704 172.984 61.168 173.128C61.1224 175.067 61.168 175.622 61.168 175.622L64.4008 176.037V175.206C64.4008 175.206 66.292 175.298 67.3096 176.315C68.3272 177.333 71.2336 178.67 74.3728 178.53Z" fill="#7C2F13"/>
<path d="M71.5024 170.831C71.3512 170.932 71.1928 171.028 71.0368 171.117C70.8239 171.243 70.6007 171.35 70.3696 171.438C70.1197 171.547 69.8553 171.618 69.5848 171.65C69.6837 171.386 69.8347 171.145 70.0288 170.942C70.2112 170.746 70.4225 170.579 70.6552 170.447C70.7735 170.38 70.8971 170.323 71.0248 170.277C71.1736 170.466 71.3368 170.651 71.5024 170.831Z" fill="#7C2F13"/>
<path d="M72.52 171.801C72.412 171.866 72.304 171.93 72.1936 171.993C71.9787 172.116 71.7558 172.224 71.5264 172.317C71.2757 172.423 71.0117 172.494 70.7416 172.528C70.8369 172.259 70.9882 172.014 71.1856 171.808C71.3673 171.611 71.5787 171.443 71.812 171.311C71.8516 171.288 71.8925 171.267 71.9344 171.249C72.1216 171.443 72.3136 171.623 72.52 171.801Z" fill="#7C2F13"/>
<path d="M44.1857 128.248C45.0833 128.715 45.9473 129.156 46.7777 129.57C47.3329 129.846 47.8721 130.11 48.3953 130.365L49.1681 130.742L50.6465 131.445C51.1265 131.67 51.5849 131.889 52.0289 132.095C54.6929 133.346 56.7593 134.301 58.1177 135.141C58.4247 135.328 58.7204 135.533 59.0033 135.755C59.1572 135.876 59.3031 136.007 59.4401 136.146C59.7164 136.401 59.9046 136.738 59.9777 137.106C60.0123 137.379 60.018 137.654 59.9945 137.927C59.9465 138.57 59.7881 139.314 59.6129 140.258C59.5889 140.382 59.5673 140.498 59.5433 140.639C59.5193 140.781 59.5025 140.867 59.4833 140.985C59.4641 141.102 59.4449 141.225 59.4233 141.35C59.1116 143.35 58.9966 145.377 59.0801 147.4C59.0801 147.626 59.0993 147.854 59.1113 148.089C59.1449 148.775 59.2001 149.505 59.2793 150.285C59.3105 150.594 59.3417 150.909 59.3753 151.223V151.31C59.4425 151.941 59.5097 152.577 59.5793 153.213V153.29C59.6129 153.609 59.6489 153.93 59.6849 154.25C59.7305 154.648 59.7737 155.044 59.8193 155.45C59.8625 155.834 59.9081 156.218 59.9513 156.597V156.657C60.0137 157.17 60.0745 157.678 60.1337 158.181C60.1649 158.421 60.1937 158.661 60.2225 158.901V158.97C60.2489 159.194 60.2777 159.414 60.3041 159.635V159.722C60.3617 160.182 60.4193 160.636 60.4745 161.078V161.159C60.5321 161.61 60.5897 162.05 60.6425 162.472C60.8681 164.222 61.0673 165.71 61.2113 166.763C61.2113 166.828 61.2281 166.893 61.2377 166.955C61.2473 167.018 61.2521 167.078 61.2617 167.135C61.3409 167.716 61.3961 168.122 61.4225 168.309C61.4345 168.388 61.4393 168.429 61.4393 168.429L62.0057 168.508C62.2985 168.549 62.5889 168.585 62.8769 168.618H62.8937C63.1817 168.652 63.4673 168.683 63.7553 168.712L64.0289 168.738C64.4225 168.777 64.8137 168.808 65.2049 168.837L65.7089 168.87H65.8001C65.9585 168.87 66.1193 168.887 66.2801 168.892L66.7985 168.909H67.3145C67.8993 168.916 68.4835 168.868 69.0593 168.765C65.7161 165.717 64.2353 162.784 63.5057 160.73C61.0769 153.887 62.4761 144.28 62.8121 141.959C63.1817 139.432 63.5921 137.79 62.7305 135.822C62.0273 134.214 60.8921 133.262 59.1305 132.278C56.8685 131.035 54.4212 130.165 51.8825 129.7L44.1857 128.248Z" fill="#1A87C4"/>
<path d="M51.5609 171.554L50.4929 170.584L50.5529 170.524L51.5609 171.554Z" fill="white"/>
<path d="M48.5993 168.501C48.0119 167.762 47.4793 166.982 47.0057 166.166L47.3105 165.998C47.7405 166.821 48.2307 167.612 48.7769 168.364L48.5993 168.501Z" fill="white"/>
<path d="M45.7865 163.602C45.4573 162.715 45.1895 161.805 44.9849 160.881L45.5345 160.766C45.7062 161.674 45.9379 162.569 46.2281 163.446L45.7865 163.602Z" fill="white"/>
<path d="M44.5048 158.087C44.3896 157.149 44.3176 156.208 44.2648 155.265L44.9848 155.241C45.0064 156.167 45.0568 157.094 45.1456 158.018L44.5048 158.087Z" fill="white"/>
<path d="M44.2313 152.435L44.3489 149.613L45.1745 149.673L45.0113 152.454L44.2313 152.435Z" fill="white"/>
<path d="M44.6008 146.798C44.7232 145.866 44.8264 144.93 44.9656 144.002L45.8632 144.138C45.7096 145.058 45.5968 145.979 45.4624 146.901L44.6008 146.798Z" fill="white"/>
<path d="M45.2729 141.273C45.2858 140.838 45.2512 140.402 45.1697 139.974C45.0866 139.551 44.9536 139.138 44.7737 138.746L45.6329 138.359C45.8382 138.82 45.9904 139.304 46.0865 139.799C46.1783 140.291 46.2169 140.792 46.2017 141.292L45.2729 141.273Z" fill="white"/>
<path d="M43.216 136.698C42.5087 136.139 41.7474 135.652 40.9432 135.244L41.3896 134.399C42.2575 134.834 43.0758 135.361 43.8304 135.971L43.216 136.698Z" fill="white"/>
<path d="M38.4472 133.998L35.9224 132.765L36.3328 131.932L38.8552 133.151L38.4472 133.998Z" fill="white"/>
<path d="M33.4096 131.495L30.9352 130.127L31.372 129.374L33.8272 130.689L33.4096 131.495Z" fill="white"/>
<path d="M28.5448 128.584L27.9736 128.152C27.774 128.008 27.5833 127.851 27.4024 127.684C27.0328 127.337 26.7144 126.94 26.4568 126.503L27.1264 126.1C27.354 126.466 27.6319 126.798 27.952 127.086C28.1162 127.235 28.2902 127.372 28.4728 127.497L29.0272 127.905L28.5448 128.584Z" fill="white"/>
<path d="M25.7369 123.609C25.7883 122.594 26.1577 121.621 26.7929 120.827L27.3017 121.233C26.7766 121.925 26.4804 122.764 26.4545 123.633L25.7369 123.609Z" fill="white"/>
<path d="M29.3201 119.32C29.5577 119.265 29.798 119.224 30.0401 119.195C30.2801 119.164 30.5201 119.154 30.7601 119.128L32.1401 118.994L32.2121 119.459L30.8057 119.646C30.5657 119.68 30.3425 119.697 30.1217 119.73C29.9001 119.764 29.6806 119.809 29.4641 119.867L29.3201 119.32Z" fill="white"/>
<path d="M34.8593 118.434C35.7556 118.193 36.637 117.9 37.4993 117.556L37.5881 117.762C36.7286 118.149 35.8471 118.485 34.9481 118.768L34.8593 118.434Z" fill="white"/>
<path d="M40.0457 116.382C40.4681 116.157 40.8857 115.919 41.2865 115.662C40.9001 115.948 40.4969 116.21 40.0865 116.462L40.0457 116.382Z" fill="white"/>
<path d="M31.1032 64.78C31.1032 64.78 28.5448 64.9072 28.4008 67.8424C28.2568 70.7776 26.0536 69.9544 26.0536 69.9544C26.0536 69.9544 27.5297 72.2008 30.4841 69.868C33.4385 67.5352 33.8296 67.228 33.8296 67.228C33.8296 67.228 33.8296 64.8976 31.2952 64.768" fill="black"/>
<path d="M29.9417 70.9312C29.9417 70.9312 30.5417 78.2032 33.4193 81.3568C36.2969 84.5104 33.4721 70.6888 33.4721 70.6888L29.9417 70.9312Z" fill="black"/>
<path d="M39.1793 84.8872C39.0305 84.3568 39.6593 83.0608 40.0433 82.3144C37.4393 82.7152 34.3385 80.8744 32.7233 77.62C32.6255 77.6731 32.5203 77.7111 32.4113 77.7328C32.4113 77.7328 32.1713 84.5032 30.6929 84.5872C28.9769 86.0608 23.3705 91.0432 24.5105 93.3544C25.4705 95.2936 30.6449 94.2928 38.3633 92.8024C39.1139 92.6862 39.814 92.3524 40.3769 91.8424C41.9969 90.2968 41.5529 87.5224 41.3249 86.896C41.0297 86.0776 39.4001 85.6552 39.1793 84.8872Z" fill="#EA9D7D"/>
<path d="M33.5513 85.6576C32.5289 83.44 34.6769 82.972 34.6769 82.972L34.6625 82.9408C36.0833 83.9008 37.6697 84.316 39.0953 84.0376C39.1625 84.0256 39.2273 84.0088 39.2921 83.992C39.4965 83.4079 39.7477 82.8413 40.0433 82.2976C37.4393 82.6984 34.4873 80.6848 32.8721 77.4304C32.833 77.5189 32.7681 77.5935 32.6858 77.6445C32.6036 77.6954 32.5079 77.7204 32.4113 77.716C32.4113 77.716 32.3657 78.9736 32.1929 80.4136C31.9673 82.3144 31.5257 84.5368 30.6905 84.5848C28.3625 86.56 22.7489 91.5832 23.8745 93.8128C25.0001 96.0424 32.7089 95.2528 38.3609 92.8C39.2225 92.4256 39.9257 92.0584 40.4369 91.7752C36.9089 92.164 34.4705 87.64 33.5513 85.6576Z" fill="#D18165"/>
<path d="M36.0137 64.84C33.0377 65.4208 31.2137 69.2104 31.6337 73.6096H31.6097C30.7961 73.768 30.3161 74.8096 30.5393 75.9544C30.7625 77.0992 31.6001 77.8744 32.4113 77.7232C32.5035 77.7186 32.5938 77.6949 32.6765 77.6536C32.7591 77.6123 32.8322 77.5542 32.8913 77.4832C34.5449 80.812 37.5785 82.7896 40.2185 82.2832C43.4969 81.6448 44.6561 77.6008 43.6913 72.6496C42.7265 67.6984 39.2897 64.2088 36.0137 64.84Z" fill="#EA9D7D"/>
<path d="M39.2537 78.7912C40.1651 78.8521 41.0712 78.9756 41.9657 79.1608C41.9657 79.1608 41.8745 77.8744 40.8017 77.7208C39.7289 77.5672 39.2537 78.7912 39.2537 78.7912Z" fill="#BE3E5F"/>
<path d="M41.56 72.3376C41.6656 72.8176 41.7616 73.2976 41.8936 73.7584C41.9522 73.9769 42.0377 74.1873 42.148 74.3848C42.1936 74.464 42.2752 74.5768 42.3424 74.6776C42.4096 74.7784 42.4792 74.8936 42.5416 75.0088C42.6929 75.2572 42.7704 75.5436 42.7648 75.8344C42.7488 76.0105 42.6685 76.1745 42.5392 76.2952C42.4242 76.3976 42.2857 76.4701 42.136 76.5064C41.628 76.6022 41.1038 76.565 40.6144 76.3984C41.0897 76.3764 41.5605 76.2958 42.016 76.1584C42.1014 76.1227 42.1789 76.0705 42.244 76.0048C42.2913 75.9515 42.3155 75.8815 42.3112 75.8104C42.2919 75.6085 42.2262 75.4139 42.1192 75.2416C42.0664 75.1408 42.0064 75.0424 41.944 74.9392C41.8816 74.836 41.8168 74.7472 41.7496 74.6104C41.6358 74.3694 41.5613 74.1117 41.5288 73.8472C41.4566 73.3457 41.4672 72.8357 41.56 72.3376Z" fill="#D18165"/>
<path d="M37.204 71.692C37.6866 71.6777 38.1677 71.6312 38.644 71.5528C38.8746 71.5119 39.1017 71.4533 39.3232 71.3776C39.5512 71.308 39.7624 71.2 40.0048 71.1016C39.8626 71.3211 39.6712 71.5044 39.4456 71.6368C39.2194 71.7721 38.9706 71.8656 38.7112 71.9128C38.4537 71.9587 38.1907 71.9652 37.9312 71.932C37.6755 71.9001 37.4285 71.8186 37.204 71.692Z" fill="black"/>
<path d="M43.2401 70.9504C43.2785 71.0656 43.3169 71.1904 43.3529 71.3008H43.3192C43.0618 71.3479 42.7987 71.3543 42.5392 71.32C42.2816 71.2898 42.0327 71.2082 41.8073 71.08C42.2872 71.0689 42.7659 71.0256 43.2401 70.9504Z" fill="black"/>
<path d="M43.0721 74.152C42.9763 74.1704 42.8772 74.1501 42.7963 74.0957C42.7154 74.0413 42.6592 73.9572 42.6401 73.8616L42.4337 72.8056C42.4216 72.7572 42.4195 72.7068 42.4275 72.6576C42.4355 72.6084 42.4535 72.5613 42.4803 72.5192C42.5071 72.4771 42.5422 72.441 42.5835 72.4129C42.6247 72.3849 42.6712 72.3655 42.7202 72.356C42.7692 72.3466 42.8196 72.3472 42.8683 72.3578C42.9171 72.3685 42.9631 72.389 43.0037 72.418C43.0443 72.447 43.0785 72.484 43.1043 72.5268C43.1301 72.5695 43.1469 72.617 43.1537 72.6664L43.3601 73.72C43.3785 73.8154 43.3586 73.9142 43.3047 73.9951C43.2508 74.0759 43.1672 74.1323 43.0721 74.152Z" fill="black"/>
<path d="M39.3713 74.3776C39.2755 74.396 39.1764 74.3757 39.0955 74.3213C39.0145 74.267 38.9584 74.1828 38.9393 74.0872L38.7353 73.0312C38.7224 72.9381 38.7457 72.8437 38.8004 72.7673C38.8551 72.6909 38.9371 72.6383 39.0293 72.6205C39.1216 72.6027 39.2171 72.6209 39.2964 72.6714C39.3756 72.7219 39.4325 72.8008 39.4553 72.892L39.6617 73.9456C39.6711 73.993 39.671 74.0419 39.6615 74.0893C39.652 74.1367 39.6332 74.1818 39.6062 74.2219C39.5792 74.2621 39.5446 74.2965 39.5043 74.3232C39.4639 74.3499 39.4187 74.3684 39.3713 74.3776Z" fill="black"/>
<path d="M31.5809 74.6272C31.5019 75.0228 31.4962 75.4295 31.5641 75.8272C31.6037 76.0126 31.6641 76.1929 31.7441 76.3648C31.7801 76.4584 31.8377 76.5448 31.8809 76.6432C31.9241 76.7416 31.9889 76.8328 32.0345 76.948C31.9216 76.9128 31.813 76.8653 31.7105 76.8064C31.6101 76.7412 31.5175 76.6647 31.4345 76.5784C31.262 76.3959 31.144 76.169 31.0935 75.9231C31.043 75.6771 31.0622 75.422 31.1489 75.1864C31.23 74.9589 31.3813 74.7631 31.5809 74.6272Z" fill="#D18165"/>
<path d="M31.6096 73.6024C31.6096 73.6024 33.016 78.5488 34.1752 80.1904C35.2432 81.7072 37.2472 83.2072 40.3648 82.8808C40.956 82.8216 41.5176 82.5933 41.9824 82.2232C42.8944 81.4864 44.2024 79.936 43.9528 77.1976C43.9528 77.1976 43.156 76.3 41.0176 76.3456C38.8792 76.3912 38.3344 76.9384 37.9672 77.356C37.6 77.7736 35.968 79.768 35.1472 79.144C34.3264 78.52 32.3608 74.4904 33.2896 72.3208C34.2184 70.1512 35.2888 71.0464 34.1536 68.5768C34.1536 68.5768 35.7784 67.9816 38.6176 68.6032C39.2016 68.7405 39.8157 68.6612 40.3456 68.38C40.7704 68.14 41.1544 67.7968 41.1184 67.312C41.8751 68.2557 42.5194 69.2842 43.0384 70.3768C43.0384 70.3768 44.4112 68.2864 42.4912 66.5512C40.8592 65.0776 40.3456 64.1944 39.8008 63.988C38.716 63.5776 38.2624 64.228 37.192 64.4152C36.1216 64.6024 35.9224 63.9232 34.6768 64.5856C33.4312 65.248 32.9032 66.2464 32.4808 67.1968C32.4808 67.1968 31.2592 67.0288 30.1432 69.22C29.6608 70.192 29.488 75.1432 31.6096 73.6024ZM38.92 77.4016C39.2128 77.1232 40.0504 76.6672 41.2696 76.8832C42.4336 77.0872 42.5896 77.8432 42.7696 78.4168C42.8613 78.6925 42.8892 78.9855 42.8512 79.2736C42.772 79.8496 42.4768 80.0608 41.9632 80.116C41.332 80.1856 41.1928 79.2616 40.7368 79.3096C40.2808 79.3576 40.348 80.1424 39.2248 80.1904C38.1016 80.2384 38.164 78.124 38.92 77.4016Z" fill="black"/>
<path d="M64.8784 111.784L67.3552 111.882C67.3552 111.882 67.8952 111.455 68.6248 110.898C70.0072 109.842 72.076 108.326 72.5008 108.352C73.1512 108.39 74.2816 108.863 71.4688 111.028L71.4904 111.047C71.584 111.119 72.0184 111.405 73.1296 111.472C74.4088 111.551 78.7168 111.844 79.4176 112.106C79.7968 112.25 80.6488 113.392 74.2624 113.166C74.2121 113.163 74.1618 113.171 74.1149 113.19C74.068 113.208 74.0257 113.237 73.9911 113.273C73.9565 113.31 73.9304 113.354 73.9147 113.402C73.8989 113.45 73.8939 113.5 73.9 113.55C73.9216 113.67 74.008 113.774 74.2384 113.79C74.8168 113.826 79.8112 113.91 79.7248 114.813C79.6624 115.468 78.3544 115.307 73.9768 115.115C73.9768 115.115 73.2808 115.293 73.8352 115.65C74.0272 115.775 78.976 116.236 79.2184 116.63C79.4608 117.023 80.0968 117.664 72.6736 116.85C72.6736 116.85 72.5416 116.925 73.1896 117.304C73.876 117.705 75.9064 118.242 76.4248 118.998C76.9432 119.754 75.436 119.157 71.6248 117.875L66.28 117.194C62.7448 117.693 49.516 118.821 46.2304 115.408C43.1512 112.211 41.4952 100.768 41.4952 100.768L49.024 100.514L52.1776 109.046C52.2812 109.325 52.4579 109.571 52.6893 109.759C52.9207 109.946 53.1982 110.068 53.4928 110.111L65.332 111.82" fill="#EA9D7D"/>
<path d="M44.3392 100.684L47.0224 101.08C47.0224 101.08 46.3216 110.272 48.7984 112.12C51.2752 113.968 54.7312 115.634 69.5344 115.691C74.32 115.708 77.3632 116.171 79.2952 116.764C79.4944 117.134 79.312 117.587 72.6736 116.86C72.6736 116.86 72.5416 116.934 73.1896 117.314C73.876 117.714 75.9064 118.252 76.4248 119.008C76.9432 119.764 75.436 119.166 71.6248 117.885L66.28 117.194C62.7448 117.693 49.516 118.821 46.2304 115.408C43.1512 112.211 41.4952 100.768 41.4952 100.768L44.3392 100.684Z" fill="#D18165"/>
<path d="M71.5456 111.042C71.5456 111.042 70.5089 114.926 66.9641 113.853" stroke="#2F170B" stroke-width="2" stroke-miterlimit="10"/>
<path d="M2.70643 137.142H23.3992C23.6302 137.142 23.859 137.188 24.0724 137.276C24.2859 137.365 24.4798 137.494 24.6432 137.658C24.8065 137.821 24.9361 138.015 25.0245 138.228C25.1129 138.442 25.1584 138.671 25.1584 138.902V150.064H0.944824V138.902C0.944824 138.67 0.990407 138.441 1.07897 138.228C1.16752 138.014 1.29732 137.82 1.46093 137.657C1.62454 137.493 1.81876 137.364 2.03247 137.276C2.24618 137.187 2.4752 137.142 2.70643 137.142Z" fill="#FF5061"/>
<path d="M0.947205 150.064V147.515L3.5776 150.064H0.947205Z" fill="#FC7E85"/>
<path d="M25.156 150.064V147.515L22.5232 150.064H25.156Z" fill="#FC7E85"/>
<path d="M0.944824 138.902V139.542H25.156V138.902C25.156 138.671 25.1105 138.442 25.0221 138.228C24.9337 138.015 24.8041 137.821 24.6408 137.658C24.4774 137.494 24.2835 137.365 24.07 137.276C23.8566 137.188 23.6278 137.142 23.3968 137.142H2.70643C2.23964 137.142 1.79193 137.328 1.46163 137.657C1.13134 137.987 0.94546 138.435 0.944824 138.902Z" fill="#FC7E85"/>
<path d="M65.0104 111.784V117.107" stroke="#2F170B" stroke-width="6" stroke-linecap="round" stroke-linejoin="round"/>
<path d="M49.9216 99.8224L47.4496 92.0608C46.8912 90.2619 45.804 88.6729 44.3296 87.5008C43.9532 87.1999 43.5452 86.9408 43.1128 86.728C43.0756 86.7102 43.0343 86.7023 42.9931 86.7051C42.9519 86.7079 42.9121 86.7213 42.8776 86.744C42.8431 86.7667 42.8151 86.7979 42.7961 86.8346C42.7772 86.8713 42.7681 86.9123 42.7696 86.9536L43.24 101.08H49C49.1524 101.081 49.3028 101.047 49.439 100.978C49.5752 100.91 49.6932 100.81 49.7833 100.687C49.8733 100.565 49.9328 100.422 49.9569 100.272C49.981 100.121 49.9689 99.9672 49.9216 99.8224Z" fill="#25BEEF"/>
<path d="M42.8752 89.9512L43.24 101.08H47.0272C47.1136 98.38 46.912 95.3944 45.3352 92.0776C44.26 89.8168 43.6384 89.704 43.3768 89.716C43.1867 89.7312 43.0086 89.8148 42.8752 89.9512Z" fill="#1A87C4"/>
<path d="M8.2 133.312C8.30985 132.88 8.36865 132.436 8.3752 131.99C8.4304 128.255 8.7856 114.002 10.9384 107.51C11.6224 105.438 17.9128 94.9 17.9128 94.9L26.8984 96.8008L19 109.96C18.6491 110.543 18.3909 111.177 18.2344 111.839L13.408 132.393C13.3416 132.675 13.3393 132.968 13.4012 133.252C13.463 133.535 13.5876 133.801 13.7656 134.03C14.7808 135.333 16.792 137.98 16.7584 138.467C16.7152 139.118 16.2352 140.246 14.0872 137.418C14.0872 137.418 13.72 137.798 13.6336 139.077C13.5472 140.356 13.3648 145.278 12.9592 145.36C12.5536 145.442 11.6416 146.615 11.9464 139.924C11.9464 139.924 11.3512 139.593 11.3128 140.164C11.2744 140.735 10.9432 146.234 10.2568 145.643C9.57041 145.053 9.7768 144.268 9.988 139.883C9.988 139.883 9.5392 139.528 9.4528 139.739C9.3664 139.95 8.8744 145.144 8.44 145.115C8.0056 145.086 7.4032 145.989 8.26 138.57C8.26 138.57 8.02 138.446 7.7488 139.19C7.4776 139.934 6.4288 143.202 6.088 142.31C5.7472 141.417 5.9368 141.321 7.2424 137.526L8.2 133.312Z" fill="#EA9D7D"/>
<path d="M26.9032 96.7984L24.784 96.3496C23.2 98.3584 21.232 99.82 18.6664 103.574C16.6696 106.497 15.376 109.475 14.8024 110.733C13.228 114.179 13.5472 115.938 12.4984 124.442C11.8672 129.549 11.5528 132.1 11.2216 133.437C11.2216 133.437 8.84803 143.001 10.0072 145.37C10.0611 145.479 10.1441 145.572 10.2472 145.638C10.9336 146.229 11.2624 140.738 11.3032 140.159C11.344 139.581 11.9368 139.919 11.9368 139.919C11.632 146.61 12.5464 145.439 12.9496 145.355C13.3528 145.271 13.5376 140.373 13.624 139.082C13.7104 137.802 14.0776 137.423 14.0776 137.423C16.2256 140.25 16.7056 139.122 16.7488 138.472C16.7824 137.992 14.7712 135.338 13.756 134.034C13.578 133.806 13.4535 133.54 13.3916 133.257C13.3297 132.973 13.3321 132.68 13.3984 132.398L18.2248 111.844C18.3838 111.18 18.6454 110.544 19 109.96L26.9032 96.7984Z" fill="#D18165"/>
<path d="M42.844 117.431H24.244C23.9526 117.431 23.6646 117.368 23.3997 117.246C23.1349 117.125 22.8994 116.947 22.7094 116.726C22.5194 116.505 22.3793 116.246 22.2987 115.966C22.2181 115.686 22.1989 115.391 22.2424 115.103L26.632 86.1328L30.6352 84.616C32.2504 88.0408 37.7464 88.7128 39.3328 85.276L42.76 86.5816C43.3523 86.7248 43.8758 87.0708 44.2397 87.5596C44.6035 88.0484 44.7848 88.6491 44.752 89.2576L44.716 90.3376C44.436 99.04 44.1536 107.741 43.8688 116.44C43.8664 116.512 43.8472 116.862 42.844 117.431Z" fill="#25BEEF"/>
<path d="M14.4904 100.641C14.3835 100.569 14.2921 100.476 14.2219 100.368C14.1516 100.26 14.1038 100.138 14.0814 100.011C14.059 99.8843 14.0624 99.7541 14.0915 99.6285C14.1205 99.5028 14.1746 99.3843 14.2504 99.28L21.0184 89.8816C21.0184 89.8816 23.4184 86.7904 26.62 86.1328L28.4488 95.6704L21.9808 105.51C21.9569 105.546 21.9261 105.577 21.89 105.601C21.854 105.625 21.8136 105.642 21.7711 105.65C21.7286 105.658 21.6849 105.657 21.6426 105.648C21.6003 105.639 21.5603 105.622 21.5248 105.597L14.4904 100.641Z" fill="#25BEEF"/>
<path d="M21.9928 105.501L28.4176 95.7376L28.4032 95.644C28.3756 95.4661 28.3023 95.2984 28.1906 95.1573C28.0789 95.0162 27.9324 94.9064 27.7657 94.8387C27.5989 94.7711 27.4174 94.7477 27.2389 94.7711C27.0604 94.7944 26.891 94.8637 26.7472 94.972C25.5232 95.9032 23.956 97.5112 22.5208 98.9824C21.0208 100.518 19.4152 102.167 18.6664 103.574L21.5464 105.587C21.6173 105.634 21.7038 105.652 21.7873 105.635C21.8709 105.619 21.9447 105.571 21.9928 105.501Z" fill="#1A87C4"/>
<path d="M43.8688 116.44C42.4576 115.943 38.7904 115.924 33.2344 114.174C28.0192 112.53 26.968 111.198 26.4952 110.243C25.3792 107.997 26.1088 105.15 26.4088 103.979C26.9464 101.877 27.1 101.073 28.18 98.4064C28.5424 97.5112 28.66 95.344 28.18 95.1664C27.6208 94.96 26.0392 97.3744 24.4216 100.725L22.2424 115.103C22.1989 115.391 22.2181 115.686 22.2987 115.966C22.3793 116.246 22.5194 116.505 22.7094 116.726C22.8994 116.947 23.1349 117.125 23.3997 117.246C23.6646 117.368 23.9526 117.431 24.244 117.431H42.844C43.1101 117.431 43.3658 117.328 43.557 117.143C43.7483 116.958 43.8601 116.706 43.8688 116.44Z" fill="#1A87C4"/>
<path d="M17.1328 137.142H14.2384C14.099 137.424 14.0322 137.736 14.044 138.05C14.044 138.633 14.8216 139.216 14.8216 139.216C14.8216 139.216 16.3984 139.518 16.7656 139.346C17.1328 139.173 17.1328 137.142 17.1328 137.142Z" fill="#FC7E85"/>
<path d="M28.9 94.9816H33.652C33.9171 94.9816 34.132 94.7667 34.132 94.5016V93.2824C34.132 93.0173 33.9171 92.8024 33.652 92.8024H28.9C28.6349 92.8024 28.42 93.0173 28.42 93.2824V94.5016C28.42 94.7667 28.6349 94.9816 28.9 94.9816Z" fill="#E3EAF3"/>
<path d="M111.1 126.954C111.1 130.35 112.67 133.434 113.812 134.478C114.621 135.222 114.803 136.437 114.839 137.082C114.86 137.523 114.934 137.96 115.058 138.383C115.382 139.434 116.109 141.057 117.53 140.963C118.574 140.894 119.104 140.483 120.078 140.2C121.053 139.917 122.562 138.978 122.562 138.978C122.234 137.114 121.084 132.4 122.034 131.366C121.314 131.147 120.815 130.682 120.16 130.194C119.949 130.041 119.742 129.873 119.538 129.714C119.375 129.568 119.214 129.422 119.058 129.27C118.857 129.074 118.653 128.874 118.451 128.663C116.435 126.534 114.729 123.748 113.303 122.282C111.054 119.966 111.107 123.558 111.1 126.954Z" fill="#EA9D7D"/>
<path d="M191.176 117.695C191.176 117.695 157.766 119.469 154.857 119.836C151.948 120.203 121.703 131.248 121.703 131.248C121.703 131.248 120.642 136.048 122.423 139.067C122.423 139.067 147.071 134.651 152.86 133.29L163.386 131.044C163.386 131.044 187.48 137.385 191.949 136.12C194.105 135.511 196.152 134.569 198.016 133.326C198.016 133.326 189.64 122.704 191.176 117.695Z" fill="#FFC065"/>
<path d="M191.949 136.12C194.105 135.511 196.152 134.569 198.016 133.326C198.016 133.326 189.64 122.704 191.176 117.695L190.007 117.758C189.851 119.559 189.262 121.297 188.289 122.822C185.498 127.206 180.556 128.663 179.39 128.973C173.39 130.562 170.601 127.384 163.408 127.053C162.219 127.024 161.03 127.079 159.849 127.218C154.64 127.63 149.506 128.708 144.573 130.427C140.087 131.915 133.053 135.026 121.389 134.632C121.406 136.072 121.629 137.752 122.414 139.067C122.414 139.067 147.062 134.651 152.85 133.29L162.395 132.712C162.395 132.712 187.48 137.385 191.949 136.12Z" fill="#FFAA39"/>
<path d="M121.456 135.88C121.456 135.88 140.234 131.8 148.634 129.753C150.614 129.269 152.626 128.928 154.655 128.73L155.855 128.613C159.146 128.294 162.462 128.353 165.738 128.79C173.284 129.798 187.377 131.476 190.586 130.446C193.178 129.614 193.286 129.46 194.666 128.471" stroke="white" stroke-width="3" stroke-miterlimit="10"/>
<path d="M211.605 82.2256C211.278 82.5717 210.98 82.9433 210.712 83.3368C209.138 85.6288 209.154 86.2168 206.697 86.9104C206.697 86.9104 204.666 87.832 206.505 88.9336C206.505 88.9336 206.505 89.2504 206.025 90.0088C205.562 90.7288 202.458 93.7096 208.197 95.908C208.302 95.949 208.397 96.0143 208.472 96.0986C208.548 96.183 208.603 96.284 208.632 96.3934C208.661 96.5029 208.664 96.6177 208.641 96.7285C208.617 96.8393 208.568 96.943 208.497 97.0312L203.406 102.297L209.886 106.403L216.863 95.1616C216.863 95.1616 215.346 93.7744 215.126 93.6304C215.126 93.6304 218.625 92.0968 217.139 90.7312C215.654 89.3656 214.42 90.7144 214.42 90.7144L213.83 90.2344L216.842 85.5184L211.605 82.2256Z" fill="#EA9D7D"/>
<path d="M216.858 95.56L215.39 97.48C215.39 97.48 215.001 95.2552 214.732 94.2976C214.698 94.1745 214.707 94.0434 214.759 93.9265C214.811 93.8096 214.901 93.7143 215.015 93.6568C216.033 93.1408 218.325 91.804 217.151 90.7264C215.978 89.6488 214.571 90.8464 214.005 91.4152C213.934 91.4876 213.84 91.5311 213.739 91.5373C213.638 91.5436 213.539 91.512 213.46 91.4488C213.381 91.385 213.329 91.2943 213.313 91.1942C213.297 91.094 213.318 90.9915 213.374 90.9064L215.15 88.1992C215.373 87.849 215.526 87.458 215.598 87.0487C215.67 86.6394 215.66 86.2199 215.569 85.8143C215.478 85.4088 215.308 85.0252 215.069 84.6857C214.829 84.3462 214.525 84.0574 214.173 83.836L212.411 82.7272C212.181 82.5842 211.906 82.5323 211.64 82.5816C211.373 82.6308 211.135 82.7778 210.971 82.9936C211.24 81.6736 212.517 81.1144 212.954 80.932C215.702 79.7776 218.531 81.6688 219.146 82.0792C220.826 83.212 222.808 85.4392 222.321 86.9128C222.201 87.28 221.87 88.2304 221.87 88.2304C221.87 88.2304 222.686 89.1112 222.746 89.7808C222.854 91.0216 221.085 92.452 218.886 94.216C217.835 95.0488 217.24 95.404 216.858 95.56Z" fill="#000001"/>
<path d="M212.68 86.44C212.396 86.3513 212.129 86.2167 211.888 86.0416C211.646 85.8732 211.424 85.6766 211.228 85.456C211.029 85.2385 210.859 84.9966 210.722 84.736C210.58 84.4704 210.491 84.1805 210.458 83.8816C210.671 84.1 210.844 84.316 211.034 84.5224L211.586 85.144C211.96 85.5568 212.327 85.96 212.68 86.44Z" fill="#000001"/>
<path d="M210.827 86.2528L209.939 87.6232" stroke="#000001" stroke-width="3" stroke-miterlimit="10" stroke-linecap="round"/>
<path d="M206.987 91.4176C206.908 91 206.267 89.8936 206.068 89.9392L206.025 90.0088C205.717 90.4015 205.433 90.8127 205.175 91.24C205.694 91.7704 206.99 91.4296 206.987 91.4176Z" fill="#BE3E5F"/>
<path d="M215.601 90.952C215.76 90.9011 215.928 90.8851 216.093 90.9049C216.259 90.9248 216.418 90.9802 216.561 91.0672C216.639 91.1237 216.703 91.199 216.744 91.2862C216.786 91.3734 216.806 91.4697 216.801 91.5664C216.774 91.7431 216.699 91.9091 216.585 92.0464C216.377 92.3052 216.115 92.515 215.817 92.6608C215.671 92.7378 215.514 92.7928 215.351 92.824C215.189 92.865 215.018 92.8435 214.871 92.764C215.023 92.7968 215.181 92.7773 215.32 92.7088C215.462 92.6546 215.597 92.5846 215.723 92.5C215.979 92.3391 216.205 92.1363 216.393 91.9C216.485 91.7984 216.548 91.6741 216.575 91.54C216.582 91.4779 216.573 91.4153 216.551 91.3569C216.529 91.2986 216.494 91.2462 216.448 91.204C216.201 91.0294 215.903 90.9408 215.601 90.952Z" fill="#D18165"/>
<path d="M204.921 102.878C206.056 103.358 210.664 99.9232 212.104 98.4256C213.544 96.928 212.891 96.3376 212.891 96.3376C211.499 96.7744 208.391 96.0208 208.391 96.0208C208.539 96.1406 208.632 96.3138 208.653 96.5025C208.673 96.6913 208.618 96.8805 208.499 97.0288L203.939 101.651C204.165 102.194 204.482 102.69 204.921 102.878Z" fill="#D18165"/>
<path d="M189.366 112.214C194.438 104.615 196.833 102.58 200.622 100.526C202.665 99.4365 204.874 98.6928 207.16 98.3248C206.291 99.5008 205.689 99.9688 205.48 100.466C205.154 101.21 208.209 101.15 213.335 101.051C213.15 101.436 213.024 101.847 212.963 102.27C212.929 102.738 212.985 103.207 213.129 103.653C213.665 105.399 213.604 107.273 212.956 108.981C212.494 110.203 211.967 111.399 211.377 112.564C209.85 115.472 208.067 118.239 206.051 120.832C204.131 123.258 202.691 124.612 201.071 127.701C200.147 129.47 200.171 129.885 199.672 130.264C198.124 131.433 194.03 130.382 183.098 121.233C182.971 121.127 182.872 120.992 182.81 120.839C182.747 120.687 182.723 120.521 182.739 120.357C182.755 120.193 182.811 120.035 182.902 119.897C182.993 119.76 183.116 119.646 183.261 119.567C185.651 117.748 187.698 114.717 189.366 112.214Z" fill="#FFC065"/>
<path d="M189.827 126.652L195.076 130.204C196.041 130.782 197.056 131.27 198.11 131.663C199.746 130.262 205.084 123.717 205.343 123.189L210.774 112.01C211.431 110.754 211.589 109.297 211.216 107.93C210.671 105.971 209.246 103.682 205.53 104.152L203.963 104.632C201.735 105.33 199.868 106.87 198.76 108.926L193.979 117.292C193.542 117.93 193.019 117.866 193.187 118.622C193.251 118.828 193.257 119.048 193.206 119.258C192.087 121.675 190.585 123.896 188.757 125.834C189.124 126.119 189.482 126.39 189.827 126.652Z" fill="#FFAA39"/>
<path d="M175.749 141.383C176.079 141.083 176.442 140.821 176.831 140.603C180.098 138.791 192.491 131.742 197.2 126.779C198.7 125.195 205.017 114.674 205.017 114.674L199.096 107.651L191.248 120.851C190.899 121.435 190.462 121.962 189.952 122.414L174.112 136.377C173.895 136.569 173.638 136.709 173.359 136.789C173.08 136.868 172.787 136.884 172.502 136.835C170.874 136.557 167.591 136.036 167.178 136.293C166.624 136.638 165.856 137.596 169.365 138.153C169.365 138.153 169.204 138.654 168.117 139.336C167.03 140.018 162.777 142.504 162.897 142.898C163.017 143.291 162.417 144.652 168.177 141.218C168.177 141.218 168.748 141.585 168.256 141.892C167.764 142.199 163.082 145.086 163.936 145.413C164.79 145.739 165.376 145.194 169.132 142.931C169.132 142.931 169.658 143.159 169.511 143.334C169.365 143.51 165.023 146.399 165.254 146.766C165.484 147.134 164.973 148.094 171.105 143.834C171.105 143.834 171.33 143.99 170.802 144.578C170.274 145.166 167.891 147.638 168.839 147.513C169.787 147.388 169.782 147.179 172.509 144.237L175.766 141.388L175.749 141.383Z" fill="#EA9D7D"/>
<path d="M201.542 121.101C201.663 121.162 201.794 121.198 201.929 121.207C202.064 121.217 202.2 121.2 202.328 121.157C202.456 121.114 202.575 121.046 202.677 120.957C202.779 120.867 202.862 120.759 202.922 120.638L208.278 109.67C208.285 109.659 208.291 109.648 208.295 109.636C209.62 106.54 206.687 103.314 203.471 104.318L202.36 104.663C200.334 105.297 198.635 106.695 197.622 108.561L193.302 116.553C193.28 116.593 193.266 116.637 193.262 116.683C193.257 116.728 193.262 116.774 193.275 116.818C193.289 116.862 193.311 116.902 193.341 116.937C193.371 116.972 193.408 117.001 193.449 117.021L201.542 121.101Z" fill="#FFC065"/>
<path d="M208.326 109.65L208.502 109.276L208.588 109.084L208.643 108.882C208.679 108.746 208.722 108.611 208.751 108.472C208.78 108.333 208.782 108.191 208.797 108.047C208.811 107.905 208.811 107.762 208.797 107.62C208.795 107.476 208.78 107.332 208.751 107.19L208.662 106.763C208.622 106.624 208.564 106.49 208.516 106.353C208.293 105.804 207.956 105.31 207.528 104.901C207.1 104.491 206.59 104.178 206.032 103.979C205.466 103.781 204.863 103.715 204.268 103.785L204.045 103.809C203.972 103.82 203.9 103.836 203.829 103.857L203.399 103.965C203.135 104.049 202.883 104.14 202.624 104.226C202.365 104.313 202.103 104.402 201.839 104.507C201.577 104.612 201.321 104.733 201.074 104.87C200.582 105.139 200.121 105.461 199.698 105.83C198.867 106.56 198.157 107.419 197.596 108.374C197.051 109.334 196.434 110.219 195.875 111.155C195.316 112.091 194.824 113.056 194.339 114.035C194.099 114.515 193.859 115.012 193.641 115.509C193.526 115.749 193.418 116.008 193.31 116.258L193.24 116.44C193.201 116.514 193.179 116.596 193.178 116.68C193.177 116.761 193.201 116.841 193.246 116.908C193.292 116.975 193.356 117.027 193.432 117.057L193.466 116.992C193.418 116.96 193.382 116.916 193.36 116.863C193.339 116.81 193.334 116.752 193.346 116.697C193.399 116.585 193.464 116.478 193.54 116.38C193.691 116.14 193.842 115.926 193.986 115.694C194.282 115.235 194.562 114.77 194.841 114.302C195.393 113.366 195.93 112.42 196.413 111.446C196.895 110.471 197.303 109.451 197.807 108.494C198.32 107.549 199.055 106.744 199.948 106.146C200.387 105.852 200.852 105.599 201.338 105.39C201.578 105.287 201.818 105.191 202.058 105.107L202.432 104.99L202.823 104.879L203.606 104.658L203.97 104.582C204.03 104.566 204.09 104.554 204.15 104.546H204.335C204.822 104.504 205.312 104.562 205.775 104.718C206.73 105.036 207.524 105.711 207.99 106.602C208.23 107.055 208.376 107.551 208.418 108.062C208.457 108.591 208.4 109.124 208.25 109.634L208.326 109.65Z" fill="#FFAA39"/>
<path d="M197.013 136.235L198.914 136.799C199.801 137.063 200.747 137.059 201.632 136.786C202.517 136.514 203.301 135.985 203.886 135.268C208.809 129.244 221.358 113.344 224.766 103.809C225.064 103.014 225.176 102.162 225.092 101.317C225.009 100.472 224.734 99.6582 224.286 98.9368C223.983 98.4202 223.544 97.9962 223.017 97.7104L197.013 136.235Z" fill="#396E8E"/>
<path d="M224.92 80.6176C224.92 80.6176 227.865 81.2392 227.865 83.164C227.865 84.6736 226.154 90.7816 225.419 93.3304C225.313 93.699 225.094 94.0249 224.792 94.2622C224.491 94.4995 224.122 94.6361 223.739 94.6528C223.269 94.6907 222.797 94.62 222.359 94.4464L224.92 80.6176Z" fill="#396E8E"/>
<path d="M133.749 151.684L151.012 144.314L186.669 159.194L165.438 162.659C156.989 164.039 149.39 168.604 144.203 175.415L133.749 151.684Z" fill="#54A4CC"/>
<path d="M100.283 175.406C100.283 175.406 106.732 152.529 131.483 149.2C131.483 149.2 144.239 161.68 144.203 175.406H100.283Z" fill="#396E8E"/>
<path d="M146.25 134.769C146.25 134.769 146.805 171.16 186.669 166.384C189.133 166.384 191.496 165.405 193.238 163.663C194.98 161.921 195.959 159.558 195.959 157.094V140.178L146.25 134.769Z" fill="#396E8E"/>
<path d="M101.632 150.688C101.632 150.688 101.493 152.908 103.989 153.184C106.485 153.46 147.306 143.985 147.306 143.985L150.119 149.44L153.64 141.954L146.262 134.769L101.632 150.688Z" fill="#396E8E"/>
<path d="M101.632 147.222L145.312 129.071C146.8 128.759 148.331 128.716 149.834 128.946L188.714 134.879C190.148 135.085 191.525 135.577 192.765 136.326C194.005 137.075 195.081 138.066 195.93 139.24C196.871 140.572 197.414 142.014 196.65 143.159C194.711 146.07 146.25 134.759 146.25 134.759L101.632 150.688C101.632 150.688 99.6904 149.164 101.632 147.222Z" fill="#54A4CC"/>
<path d="M186.654 145.78L186.359 143.634C186.134 142.312 185.831 140.994 185.572 139.689C185.426 139.038 185.219 138.386 185.044 137.74C184.869 137.094 184.701 136.449 184.48 135.82L183.789 133.919C183.669 133.607 183.57 133.29 183.434 132.981L183.011 132.04C181.956 129.569 180.514 127.282 178.739 125.265C178.305 124.761 177.798 124.305 177.338 123.849L176.572 123.218C176.323 123.002 176.059 122.805 175.782 122.627C174.737 121.856 173.556 121.287 172.302 120.947C173.394 121.556 174.363 122.363 175.158 123.328C175.369 123.554 175.563 123.795 175.739 124.048L176.282 124.782C176.591 125.315 176.934 125.81 177.206 126.354C178.31 128.497 179.062 130.803 179.433 133.185L179.596 134.061C179.646 134.356 179.663 134.661 179.699 134.958L179.882 136.744C179.932 137.337 179.922 137.944 179.946 138.546C179.97 139.149 179.992 139.746 179.975 140.339C179.91 141.554 179.889 142.739 179.793 143.939L179.574 145.934C179.296 146.541 179.176 147.208 179.226 147.874C179.277 148.54 179.496 149.182 179.863 149.74C180.229 150.298 180.732 150.754 181.323 151.064C181.915 151.375 182.575 151.53 183.243 151.514C183.911 151.499 184.563 151.314 185.14 150.978C185.717 150.641 186.198 150.163 186.539 149.589C186.881 149.015 187.07 148.363 187.09 147.696C187.11 147.028 186.96 146.366 186.654 145.773V145.78Z" fill="#E3EAF3"/>
<path d="M183.153 149.709C184.331 149.709 185.286 148.754 185.286 147.575C185.286 146.397 184.331 145.442 183.153 145.442C181.974 145.442 181.019 146.397 181.019 147.575C181.019 148.754 181.974 149.709 183.153 149.709Z" fill="#396E8E"/>
<path d="M197.013 136.235L196.07 135.786C195.238 135.389 194.591 134.689 194.261 133.829C193.93 132.969 193.942 132.015 194.294 131.164C197.193 124.149 205.094 107.214 217.384 97.2424C218.491 96.308 219.912 95.8293 221.358 95.9032C222.573 95.9896 223.586 96.5344 222.798 98.3728C221.193 102.04 197.013 136.235 197.013 136.235Z" fill="#54A4CC"/>
<path d="M222.374 94.264L225.335 78.3016C225.335 78.3016 224.548 77.2672 223.072 79.132C221.51 81.1096 219.534 84.112 218.942 85.7368C218.241 87.6568 215.145 94.576 222.374 94.264Z" fill="#54A4CC"/>
<path d="M228.674 88.384C228.345 87.727 227.822 87.1872 227.176 86.8384C227.034 87.4192 226.881 88.024 226.722 88.6336C226.888 88.7849 227.025 88.9656 227.126 89.1664C227.637 90.1768 227.879 92.7424 224.176 98.788C224.212 98.8384 224.248 98.884 224.282 98.9368C224.632 99.482 224.877 100.089 225.002 100.725C228.683 95.0056 229.922 90.8512 228.674 88.384Z" fill="#54A4CC"/>
<path d="M199.631 136.95C199.35 141.46 197.332 143.997 195.959 145.218V148.682L195.981 148.725C196.245 148.593 202.326 145.442 202.545 136.379C201.661 136.88 200.639 137.081 199.631 136.95Z" fill="#54A4CC"/>
<path d="M100.36 175.48H196.144C197.002 175.481 197.824 175.822 198.431 176.428C199.038 177.035 199.379 177.857 199.379 178.715V181.259H97.1176V178.715C97.1179 178.29 97.2021 177.869 97.3652 177.476C97.5284 177.083 97.7673 176.726 98.0684 176.426C98.3695 176.125 98.7269 175.887 99.1201 175.725C99.5133 175.563 99.9346 175.479 100.36 175.48Z" fill="#54A4CC"/>
<path d="M184.646 174.04H193.312C193.465 174.04 193.613 174.101 193.721 174.209C193.829 174.318 193.89 174.465 193.89 174.618V175.48H184.067V174.614C184.067 174.46 184.128 174.313 184.237 174.205C184.345 174.096 184.492 174.035 184.646 174.035V174.04Z" fill="#E3EAF3"/>
<path d="M188.591 171.558H189.366C190.022 171.558 190.651 171.819 191.114 172.282C191.578 172.746 191.838 173.375 191.838 174.03H186.119C186.119 173.375 186.38 172.746 186.843 172.282C187.307 171.819 187.936 171.558 188.591 171.558Z" fill="#54A4CC"/>
<path d="M183.482 127.998C183.111 127.999 182.745 127.911 182.416 127.74C182.087 127.57 181.804 127.323 181.59 127.019C178.43 122.534 164.567 122.337 156.568 123.268C155.966 123.325 155.365 123.144 154.895 122.763C154.425 122.382 154.123 121.832 154.054 121.231C153.985 120.63 154.154 120.026 154.526 119.549C154.897 119.071 155.441 118.758 156.04 118.677C158.44 118.401 179.613 116.2 185.368 124.36C185.612 124.706 185.756 125.112 185.785 125.534C185.814 125.957 185.726 126.379 185.532 126.755C185.337 127.131 185.043 127.446 184.681 127.666C184.32 127.886 183.905 128.003 183.482 128.003V127.998Z" fill="#54A4CC"/>
</svg>
