<svg width="94" height="51" viewBox="0 0 94 51" fill="none" xmlns="http://www.w3.org/2000/svg">
<path d="M17.9254 22.194C18.7414 22.194 19.4674 22.062 20.1034 21.798C20.7514 21.522 21.2974 21.132 21.7414 20.628C22.1854 20.124 22.5214 19.512 22.7494 18.792C22.9894 18.06 23.1094 17.232 23.1094 16.308V0.774H29.1934V16.308C29.1934 17.916 28.9294 19.392 28.4014 20.736C27.8854 22.08 27.1414 23.238 26.1694 24.21C25.1974 25.182 24.0154 25.938 22.6234 26.478C21.2314 27.018 19.6654 27.288 17.9254 27.288C16.1734 27.288 14.6014 27.018 13.2094 26.478C11.8174 25.938 10.6354 25.182 9.66336 24.21C8.69136 23.238 7.94736 22.08 7.43136 20.736C6.91536 19.392 6.65736 17.916 6.65736 16.308V0.774H12.7414V16.29C12.7414 17.214 12.8554 18.042 13.0834 18.774C13.3234 19.494 13.6654 20.112 14.1094 20.628C14.5534 21.132 15.0934 21.522 15.7294 21.798C16.3774 22.062 17.1094 22.194 17.9254 22.194ZM63.4302 0.774V27H58.0662V11.916C58.0662 11.568 58.0722 11.19 58.0842 10.782C58.1082 10.374 58.1442 9.96 58.1922 9.54L51.2262 23.022C51.0102 23.442 50.7162 23.76 50.3442 23.976C49.9842 24.192 49.5702 24.3 49.1022 24.3H48.2742C47.8062 24.3 47.3862 24.192 47.0142 23.976C46.6542 23.76 46.3662 23.442 46.1502 23.022L39.1842 9.504C39.2202 9.936 39.2502 10.362 39.2742 10.782C39.2982 11.19 39.3102 11.568 39.3102 11.916V27H33.9462V0.774H38.5902C38.8542 0.774 39.0822 0.779999 39.2742 0.791998C39.4782 0.803999 39.6582 0.839999 39.8142 0.899999C39.9702 0.959999 40.1082 1.056 40.2282 1.188C40.3602 1.308 40.4862 1.482 40.6062 1.71L47.3562 15.012C47.5962 15.468 47.8242 15.942 48.0402 16.434C48.2682 16.926 48.4842 17.43 48.6882 17.946C48.8922 17.418 49.1022 16.902 49.3182 16.398C49.5462 15.894 49.7862 15.414 50.0382 14.958L56.7702 1.71C56.8902 1.482 57.0102 1.308 57.1302 1.188C57.2622 1.056 57.4062 0.959999 57.5622 0.899999C57.7182 0.839999 57.8922 0.803999 58.0842 0.791998C58.2882 0.779999 58.5222 0.774 58.7862 0.774H63.4302ZM86.1808 20.214C86.3248 20.214 86.4688 20.244 86.6128 20.304C86.7568 20.352 86.8948 20.442 87.0268 20.574L89.4388 23.112C88.3828 24.492 87.0568 25.536 85.4608 26.244C83.8768 26.94 81.9988 27.288 79.8268 27.288C77.8348 27.288 76.0468 26.952 74.4628 26.28C72.8908 25.596 71.5528 24.66 70.4488 23.472C69.3568 22.272 68.5168 20.856 67.9288 19.224C67.3408 17.58 67.0468 15.798 67.0468 13.878C67.0468 11.922 67.3648 10.128 68.0008 8.496C68.6368 6.852 69.5308 5.436 70.6828 4.248C71.8348 3.06 73.2148 2.136 74.8228 1.476C76.4308 0.815999 78.2008 0.485999 80.1328 0.485999C81.1168 0.485999 82.0408 0.575999 82.9048 0.755999C83.7808 0.923998 84.5968 1.164 85.3528 1.476C86.1088 1.776 86.8048 2.142 87.4408 2.574C88.0768 3.006 88.6408 3.474 89.1328 3.978L87.0808 6.732C86.9488 6.9 86.7928 7.056 86.6128 7.2C86.4328 7.332 86.1808 7.398 85.8568 7.398C85.6408 7.398 85.4368 7.35 85.2448 7.254C85.0528 7.158 84.8488 7.044 84.6328 6.912C84.4168 6.768 84.1768 6.618 83.9128 6.462C83.6608 6.294 83.3548 6.144 82.9948 6.012C82.6468 5.868 82.2328 5.748 81.7528 5.652C81.2848 5.556 80.7328 5.508 80.0968 5.508C79.0888 5.508 78.1648 5.694 77.3248 6.066C76.4968 6.438 75.7768 6.984 75.1648 7.704C74.5648 8.412 74.0968 9.288 73.7608 10.332C73.4368 11.364 73.2748 12.546 73.2748 13.878C73.2748 15.222 73.4548 16.416 73.8148 17.46C74.1868 18.504 74.6848 19.386 75.3088 20.106C75.9448 20.814 76.6828 21.354 77.5228 21.726C78.3628 22.098 79.2628 22.284 80.2228 22.284C80.7748 22.284 81.2788 22.26 81.7348 22.212C82.1908 22.152 82.6168 22.062 83.0128 21.942C83.4088 21.81 83.7808 21.642 84.1288 21.438C84.4768 21.222 84.8308 20.952 85.1908 20.628C85.3348 20.508 85.4908 20.412 85.6588 20.34C85.8268 20.256 86.0008 20.214 86.1808 20.214Z" fill="white"/>
<path d="M24.5243 32.64V47H22.6643V36.78C22.6643 36.6267 22.6676 36.4633 22.6743 36.29C22.6876 36.1167 22.701 35.94 22.7143 35.76L17.9343 44.53C17.7676 44.8567 17.511 45.02 17.1643 45.02H16.8643C16.5176 45.02 16.2643 44.8567 16.1043 44.53L11.2343 35.73C11.2743 36.1033 11.2943 36.4533 11.2943 36.78V47H9.4243V32.64H11.0043C11.191 32.64 11.3343 32.66 11.4343 32.7C11.541 32.7333 11.641 32.8333 11.7343 33L16.5343 41.6C16.6276 41.7733 16.7143 41.9567 16.7943 42.15C16.8743 42.3433 16.951 42.5367 17.0243 42.73C17.1643 42.3367 17.3276 41.9567 17.5143 41.59L22.2243 33C22.311 32.8333 22.4043 32.7333 22.5043 32.7C22.611 32.66 22.7576 32.64 22.9443 32.64H24.5243ZM35.1941 36.68C35.9408 36.68 36.6141 36.8033 37.2141 37.05C37.8208 37.29 38.3341 37.64 38.7541 38.1C39.1808 38.5533 39.5075 39.1033 39.7341 39.75C39.9608 40.39 40.0741 41.11 40.0741 41.91C40.0741 42.71 39.9608 43.4333 39.7341 44.08C39.5075 44.7267 39.1808 45.2767 38.7541 45.73C38.3341 46.1833 37.8208 46.5333 37.2141 46.78C36.6141 47.02 35.9408 47.14 35.1941 47.14C34.4408 47.14 33.7608 47.02 33.1541 46.78C32.5541 46.5333 32.0408 46.1833 31.6141 45.73C31.1875 45.2767 30.8575 44.7267 30.6241 44.08C30.3975 43.4333 30.2841 42.71 30.2841 41.91C30.2841 41.11 30.3975 40.39 30.6241 39.75C30.8575 39.1033 31.1875 38.5533 31.6141 38.1C32.0408 37.64 32.5541 37.29 33.1541 37.05C33.7608 36.8033 34.4408 36.68 35.1941 36.68ZM35.1941 45.62C36.1541 45.62 36.8708 45.2967 37.3441 44.65C37.8175 44.0033 38.0541 43.0933 38.0541 41.92C38.0541 40.7467 37.8175 39.8367 37.3441 39.19C36.8708 38.5367 36.1541 38.21 35.1941 38.21C34.2208 38.21 33.4941 38.5367 33.0141 39.19C32.5408 39.8367 32.3041 40.7467 32.3041 41.92C32.3041 43.0933 32.5408 44.0033 33.0141 44.65C33.4941 45.2967 34.2208 45.62 35.1941 45.62ZM47.7009 44.5C48.0209 44.92 48.3675 45.2133 48.7409 45.38C49.1142 45.5467 49.5209 45.63 49.9609 45.63C50.8675 45.63 51.5642 45.3067 52.0509 44.66C52.5442 44.0133 52.7909 43.0367 52.7909 41.73C52.7909 40.5233 52.5742 39.64 52.1409 39.08C51.7075 38.5133 51.0942 38.23 50.3009 38.23C49.7409 38.23 49.2542 38.3567 48.8409 38.61C48.4342 38.8633 48.0542 39.2233 47.7009 39.69V44.5ZM47.7009 38.24C48.1209 37.7733 48.5975 37.3967 49.1309 37.11C49.6642 36.8233 50.2709 36.68 50.9509 36.68C51.5442 36.68 52.0775 36.7967 52.5509 37.03C53.0309 37.2567 53.4375 37.5867 53.7709 38.02C54.1042 38.4467 54.3609 38.9667 54.5409 39.58C54.7209 40.1933 54.8109 40.8867 54.8109 41.66C54.8109 42.48 54.7075 43.2267 54.5009 43.9C54.3009 44.5733 54.0109 45.15 53.6309 45.63C53.2575 46.11 52.8009 46.4833 52.2609 46.75C51.7209 47.01 51.1142 47.14 50.4409 47.14C50.1142 47.14 49.8142 47.1067 49.5409 47.04C49.2675 46.98 49.0142 46.89 48.7809 46.77C48.5542 46.65 48.3442 46.5033 48.1509 46.33C47.9575 46.1567 47.7742 45.96 47.6009 45.74L47.5109 46.59C47.4575 46.8633 47.2909 47 47.0109 47H45.7509V32.24H47.7009V38.24ZM62.5213 36.84V47H60.5713V36.84H62.5213ZM62.8913 33.7C62.8913 33.88 62.8547 34.0533 62.7813 34.22C62.708 34.38 62.608 34.5233 62.4813 34.65C62.3613 34.77 62.218 34.8667 62.0513 34.94C61.8847 35.0067 61.7113 35.04 61.5313 35.04C61.3513 35.04 61.1813 35.0067 61.0213 34.94C60.8613 34.8667 60.718 34.77 60.5913 34.65C60.4713 34.5233 60.3747 34.38 60.3013 34.22C60.2347 34.0533 60.2013 33.88 60.2013 33.7C60.2013 33.5133 60.2347 33.34 60.3013 33.18C60.3747 33.0133 60.4713 32.87 60.5913 32.75C60.718 32.6233 60.8613 32.5267 61.0213 32.46C61.1813 32.3867 61.3513 32.35 61.5313 32.35C61.7113 32.35 61.8847 32.3867 62.0513 32.46C62.218 32.5267 62.3613 32.6233 62.4813 32.75C62.608 32.87 62.708 33.0133 62.7813 33.18C62.8547 33.34 62.8913 33.5133 62.8913 33.7ZM70.8446 32.24V47H68.8846V32.24H70.8446ZM83.8598 40.79C83.8598 40.4033 83.8031 40.0467 83.6898 39.72C83.5831 39.3933 83.4231 39.11 83.2098 38.87C82.9964 38.63 82.7364 38.4433 82.4298 38.31C82.1231 38.1767 81.7698 38.11 81.3698 38.11C80.5498 38.11 79.9031 38.3467 79.4298 38.82C78.9631 39.2933 78.6664 39.95 78.5398 40.79H83.8598ZM85.4698 45.55C85.2298 45.83 84.9531 46.0733 84.6398 46.28C84.3264 46.48 83.9931 46.6433 83.6398 46.77C83.2864 46.8967 82.9198 46.99 82.5398 47.05C82.1664 47.11 81.7964 47.14 81.4298 47.14C80.7298 47.14 80.0798 47.0233 79.4798 46.79C78.8864 46.55 78.3698 46.2033 77.9298 45.75C77.4964 45.29 77.1564 44.7233 76.9098 44.05C76.6698 43.37 76.5498 42.59 76.5498 41.71C76.5498 41.0033 76.6598 40.3467 76.8798 39.74C77.0998 39.1267 77.4131 38.5933 77.8198 38.14C78.2331 37.6867 78.7364 37.33 79.3298 37.07C79.9231 36.81 80.5898 36.68 81.3298 36.68C81.9498 36.68 82.5198 36.7833 83.0398 36.99C83.5664 37.19 84.0198 37.4833 84.3998 37.87C84.7798 38.2567 85.0764 38.7333 85.2898 39.3C85.5098 39.8667 85.6198 40.5133 85.6198 41.24C85.6198 41.54 85.5864 41.7433 85.5198 41.85C85.4531 41.95 85.3298 42 85.1498 42H78.4898C78.5098 42.6067 78.5964 43.1367 78.7498 43.59C78.9031 44.0367 79.1131 44.41 79.3798 44.71C79.6531 45.01 79.9764 45.2333 80.3498 45.38C80.7231 45.5267 81.1398 45.6 81.5998 45.6C82.0331 45.6 82.4064 45.55 82.7198 45.45C83.0398 45.35 83.3131 45.2433 83.5398 45.13C83.7731 45.01 83.9664 44.9 84.1198 44.8C84.2798 44.7 84.4198 44.65 84.5398 44.65C84.6998 44.65 84.8231 44.71 84.9098 44.83L85.4698 45.55Z" fill="white"/>
</svg>
