<svg width="30" height="31" viewBox="0 0 30 31" fill="none" xmlns="http://www.w3.org/2000/svg">
<path d="M26.0375 10.5125L17.85 3.9625C16.25 2.6875 13.75 2.675 12.1625 3.95L3.975 10.5125C2.8 11.45 2.0875 13.325 2.3375 14.8L3.9125 24.225C4.275 26.3375 6.2375 28 8.375 28H21.625C23.7375 28 25.7375 26.3 26.1 24.2125L27.675 14.7875C27.9 13.325 27.1875 11.45 26.0375 10.5125ZM15.9375 23C15.9375 23.5125 15.5125 23.9375 15 23.9375C14.4875 23.9375 14.0625 23.5125 14.0625 23V19.25C14.0625 18.7375 14.4875 18.3125 15 18.3125C15.5125 18.3125 15.9375 18.7375 15.9375 19.25V23Z" fill="white"/>
</svg>
