<svg width="25" height="25" viewBox="0 0 25 25" fill="none" xmlns="http://www.w3.org/2000/svg">
<g id="&#240;&#159;&#166;&#134; icon &#34;lock&#34;" opacity="0.8">
<g id="Group">
<path id="Vector" d="M19.4767 11.0465C19 11.0465 18.6046 10.6512 18.6046 10.1744V7.84884C18.6046 4.18605 17.5697 1.74419 12.5 1.74419C7.43019 1.74419 6.39531 4.18605 6.39531 7.84884V10.1744C6.39531 10.6512 5.99996 11.0465 5.52322 11.0465C5.04647 11.0465 4.65112 10.6512 4.65112 10.1744V7.84884C4.65112 4.47674 5.46508 0 12.5 0C19.5348 0 20.3488 4.47674 20.3488 7.84884V10.1744C20.3488 10.6512 19.9534 11.0465 19.4767 11.0465Z" fill="#0086FF"/>
<path id="Vector_2" d="M12.5 20.9302C10.4186 20.9302 8.72095 19.2326 8.72095 17.1512C8.72095 15.0698 10.4186 13.3721 12.5 13.3721C14.5814 13.3721 16.2791 15.0698 16.2791 17.1512C16.2791 19.2326 14.5814 20.9302 12.5 20.9302ZM12.5 15.1163C11.3837 15.1163 10.4651 16.0349 10.4651 17.1512C10.4651 18.2674 11.3837 19.1861 12.5 19.1861C13.6163 19.1861 14.5349 18.2674 14.5349 17.1512C14.5349 16.0349 13.6163 15.1163 12.5 15.1163Z" fill="#0086FF"/>
<path id="Vector_3" d="M18.314 25H6.68605C1.55814 25 0 23.4419 0 18.314V15.9884C0 10.8605 1.55814 9.30234 6.68605 9.30234H18.314C23.4419 9.30234 25 10.8605 25 15.9884V18.314C25 23.4419 23.4419 25 18.314 25ZM6.68605 11.0465C2.52326 11.0465 1.74419 11.8372 1.74419 15.9884V18.314C1.74419 22.4651 2.52326 23.2558 6.68605 23.2558H18.314C22.4767 23.2558 23.2558 22.4651 23.2558 18.314V15.9884C23.2558 11.8372 22.4767 11.0465 18.314 11.0465H6.68605Z" fill="#0086FF"/>
</g>
</g>
</svg>
