<svg width="25" height="25" viewBox="0 0 25 25" fill="none" xmlns="http://www.w3.org/2000/svg">
<g opacity="0.8">
<path d="M12.4885 17.0961C10.0838 17.0961 8.13208 15.0354 8.13208 12.4964C8.13208 9.95738 10.0838 7.89673 12.4885 7.89673C14.8932 7.89673 16.8449 9.95738 16.8449 12.4964C16.8449 15.0354 14.8932 17.0961 12.4885 17.0961ZM12.4885 9.7366C11.048 9.7366 9.87465 10.9754 9.87465 12.4964C9.87465 14.0174 11.048 15.2562 12.4885 15.2562C13.929 15.2562 15.1023 14.0174 15.1023 12.4964C15.1023 10.9754 13.929 9.7366 12.4885 9.7366Z" fill="#0086FF"/>
<path d="M16.2175 24.995C15.9735 24.995 15.7296 24.9582 15.4856 24.8969C14.7653 24.6884 14.1612 24.21 13.7779 23.5354L13.6385 23.2901C12.9531 22.0389 12.0121 22.0389 11.3267 23.2901L11.1989 23.5231C10.8155 24.21 10.2114 24.7006 9.49117 24.8969C8.75929 25.1054 8.00418 24.995 7.36524 24.5902L5.3671 23.3759C4.65846 22.9466 4.14731 22.2475 3.92658 21.4011C3.71747 20.5548 3.82203 19.6839 4.22862 18.9357C4.56552 18.3101 4.65846 17.7459 4.46097 17.3902C4.26348 17.0345 3.76394 16.826 3.07853 16.826C1.38243 16.826 0 15.3663 0 13.5755V11.4167C0 9.62594 1.38243 8.16631 3.07853 8.16631C3.76394 8.16631 4.26348 7.95779 4.46097 7.60208C4.65846 7.24638 4.57714 6.68215 4.22862 6.05659C3.82203 5.30838 3.71747 4.42524 3.92658 3.59117C4.13569 2.74483 4.64684 2.04567 5.3671 1.61637L7.37686 0.402057C8.68959 -0.419753 10.4205 0.0586138 11.2105 1.46918L11.3499 1.7145C12.0353 2.96561 12.9763 2.96561 13.6617 1.7145L13.7895 1.48145C14.5795 0.0586138 16.3104 -0.419753 17.6348 0.414322L19.6329 1.62864C20.3415 2.05794 20.8527 2.75709 21.0734 3.60343C21.2825 4.44977 21.178 5.32064 20.7714 6.06886C20.4345 6.69442 20.3415 7.25864 20.539 7.61435C20.7365 7.97006 21.2361 8.17858 21.9215 8.17858C23.6176 8.17858 25 9.63821 25 11.429V13.5878C25 15.3786 23.6176 16.8382 21.9215 16.8382C21.2361 16.8382 20.7365 17.0468 20.539 17.4025C20.3415 17.7582 20.4229 18.3224 20.7714 18.948C21.178 19.6962 21.2941 20.5793 21.0734 21.4134C20.8643 22.2597 20.3532 22.9589 19.6329 23.3882L17.6231 24.6025C17.1817 24.8601 16.7054 24.995 16.2175 24.995ZM12.4884 20.4566C13.5223 20.4566 14.4865 21.1435 15.1487 22.3579L15.2765 22.5909C15.4159 22.8485 15.6482 23.0325 15.927 23.1061C16.2059 23.1797 16.4847 23.1429 16.717 22.9957L18.7268 21.7691C19.0288 21.5851 19.2612 21.2785 19.3541 20.9105C19.447 20.5425 19.4006 20.1623 19.2263 19.8434C18.5641 18.6413 18.4828 17.4025 18.994 16.458C19.5051 15.5135 20.5623 14.9738 21.8866 14.9738C22.6301 14.9738 23.2226 14.3483 23.2226 13.5633V11.4045C23.2226 10.6317 22.6301 9.99392 21.8866 9.99392C20.5623 9.99392 19.5051 9.45422 18.994 8.50975C18.4828 7.56529 18.5641 6.32644 19.2263 5.12439C19.4006 4.80548 19.447 4.42524 19.3541 4.05727C19.2612 3.68929 19.0404 3.39491 18.7384 3.19866L16.7286 1.98435C16.2291 1.66543 15.5669 1.84942 15.2649 2.38912L15.1371 2.62217C14.4749 3.83648 13.5107 4.52337 12.4768 4.52337C11.4428 4.52337 10.4786 3.83648 9.81645 2.62217L9.68866 2.37685C9.39823 1.86169 8.74768 1.6777 8.24814 1.98435L6.23838 3.21093C5.93634 3.39491 5.704 3.70156 5.61106 4.06953C5.51812 4.43751 5.56459 4.81775 5.73885 5.13666C6.40102 6.33871 6.48234 7.57755 5.97119 8.52202C5.46004 9.46649 4.40288 10.0062 3.07853 10.0062C2.33504 10.0062 1.74257 10.6317 1.74257 11.4167V13.5755C1.74257 14.3483 2.33504 14.9861 3.07853 14.9861C4.40288 14.9861 5.46004 15.5258 5.97119 16.4703C6.48234 17.4147 6.40102 18.6536 5.73885 19.8556C5.56459 20.1745 5.51812 20.5548 5.61106 20.9228C5.704 21.2907 5.92472 21.5851 6.22677 21.7814L8.23652 22.9957C8.48048 23.1551 8.77091 23.1919 9.0381 23.1183C9.31691 23.0447 9.54926 22.8485 9.70028 22.5909L9.82807 22.3579C10.4902 21.1558 11.4545 20.4566 12.4884 20.4566Z" fill="#0086FF"/>
</g>
</svg>
