<svg width="25" height="25" viewBox="0 0 25 25" fill="none" xmlns="http://www.w3.org/2000/svg">
<path d="M11.9198 23.8373C5.34936 23.8373 0 18.4885 0 11.9187C0 5.34886 5.34936 0 11.9198 0C18.4902 0 23.8395 5.34886 23.8395 11.9187C23.8395 18.4885 18.4902 23.8373 11.9198 23.8373ZM11.9198 1.74419C6.30294 1.74419 1.74436 6.31398 1.74436 11.9187C1.74436 17.5233 6.30294 22.0931 11.9198 22.0931C17.5366 22.0931 22.0952 17.5233 22.0952 11.9187C22.0952 6.31398 17.5366 1.74419 11.9198 1.74419Z" fill="#A0A0A0"/>
<path d="M24.1307 24.9999C23.9098 24.9999 23.6888 24.9185 23.5144 24.7441L21.1886 22.4185C20.8513 22.0813 20.8513 21.5232 21.1886 21.186C21.5258 20.8487 22.084 20.8487 22.4213 21.186L24.7471 23.5115C25.0843 23.8488 25.0843 24.4069 24.7471 24.7441C24.5726 24.9185 24.3517 24.9999 24.1307 24.9999Z" fill="#A0A0A0"/>
</svg>
