<svg width="28" height="29" viewBox="0 0 28 29" fill="none" xmlns="http://www.w3.org/2000/svg">
<path d="M24.2892 7.92169C26.3386 7.92169 28 6.26028 28 4.21084C28 2.16141 26.3386 0.5 24.2892 0.5C22.2397 0.5 20.5783 2.16141 20.5783 4.21084C20.5783 6.26028 22.2397 7.92169 24.2892 7.92169Z" fill="#38B444"/>
<path d="M22.9937 9.81082C20.8752 9.35202 19.148 7.62479 18.6892 5.50624C18.5137 4.68311 18.5002 3.88696 18.6487 3.1313C18.8241 2.29467 18.2034 1.51202 17.3398 1.51202H6.74699C3.02265 1.51202 0 4.53467 0 8.25901V17.6373C0 21.3617 3.02265 24.3843 6.74699 24.3843H8.77108C9.14892 24.3843 9.6347 24.6272 9.8506 24.9241L11.8747 27.6094C12.7653 28.7968 14.2226 28.7968 15.1133 27.6094L17.1373 24.9241C17.3937 24.5867 17.7851 24.3843 18.2169 24.3843H20.2545C23.9788 24.3843 26.988 21.3752 26.988 17.6508V11.1602C26.988 10.3101 26.2053 9.68937 25.3687 9.8513C24.613 9.98624 23.8169 9.98624 22.9937 9.81082ZM8.09639 15.006C7.34072 15.006 6.74699 14.3988 6.74699 13.6566C6.74699 12.9144 7.34072 12.3072 8.09639 12.3072C8.83855 12.3072 9.44578 12.9144 9.44578 13.6566C9.44578 14.3988 8.85205 15.006 8.09639 15.006ZM13.494 15.006C12.7383 15.006 12.1446 14.3988 12.1446 13.6566C12.1446 12.9144 12.7383 12.3072 13.494 12.3072C14.2361 12.3072 14.8434 12.9144 14.8434 13.6566C14.8434 14.3988 14.2496 15.006 13.494 15.006ZM18.8916 15.006C18.1359 15.006 17.5422 14.3988 17.5422 13.6566C17.5422 12.9144 18.1359 12.3072 18.8916 12.3072C19.6337 12.3072 20.241 12.9144 20.241 13.6566C20.241 14.3988 19.6472 15.006 18.8916 15.006Z" fill="#54A4CC"/>
</svg>
