<svg width="20" height="25" viewBox="0 0 20 25" fill="none" xmlns="http://www.w3.org/2000/svg">
<g id="&#240;&#159;&#166;&#134; icon &#34;shield security&#34;" opacity="0.8">
<path id="Vector" d="M17.7501 2.75741L11.2374 0.195838C10.5624 -0.0652793 9.46118 -0.0652793 8.78623 0.195838L2.27352 2.75741C1.01835 3.25479 0 4.7967 0 6.20183V16.2739C0 17.2811 0.627586 18.6117 1.39727 19.2085L7.90998 24.3192C9.05858 25.2269 10.9413 25.2269 12.0899 24.3192L18.6026 19.2085C19.3723 18.5992 19.9999 17.2811 19.9999 16.2739V6.20183C20.0117 4.7967 18.9934 3.25479 17.7501 2.75741ZM10.894 13.5756V16.8459C10.894 17.3557 10.4914 17.7785 10.0059 17.7785C9.52039 17.7785 9.11779 17.3557 9.11779 16.8459V13.5756C7.92182 13.1777 7.04554 12.0088 7.04554 10.6286C7.04554 8.91259 8.37179 7.51991 10.0059 7.51991C11.64 7.51991 12.9662 8.91259 12.9662 10.6286C12.9662 12.0212 12.0899 13.1777 10.894 13.5756Z" fill="#0086FF"/>
</g>
</svg>
