<svg width="27" height="27" viewBox="0 0 27 27" fill="none" xmlns="http://www.w3.org/2000/svg">
<g id="&#240;&#159;&#166;&#134; icon &#34;message question&#34;" opacity="0.8">
<g id="Group">
<path id="Vector" d="M19.75 21.9109H14.75L9.18749 25.7793C8.36249 26.3543 7.25 25.7402 7.25 24.6946V21.9109C3.5 21.9109 1 19.2971 1 15.3763V7.53461C1 3.61384 3.5 1 7.25 1H19.75C23.5 1 26 3.61384 26 7.53461V15.3763C26 19.2971 23.5 21.9109 19.75 21.9109Z" stroke="#0086FF" stroke-width="2" stroke-miterlimit="10" stroke-linecap="round" stroke-linejoin="round"/>
<path id="Vector_2" d="M13.5 12.6708V12.3964C13.5 11.5076 14.025 11.0372 14.55 10.6582C15.0625 10.2922 15.5749 9.82174 15.5749 8.95917C15.5749 7.7568 14.65 6.78964 13.5 6.78964C12.35 6.78964 11.425 7.7568 11.425 8.95917" stroke="#0086FF" stroke-width="2" stroke-linecap="round" stroke-linejoin="round"/>
<path id="Vector_3" d="M13.4944 15.7944H13.5056" stroke="#0086FF" stroke-width="2" stroke-linecap="round" stroke-linejoin="round"/>
</g>
</g>
</svg>
