<svg width="25" height="25" viewBox="0 0 25 25" fill="none" xmlns="http://www.w3.org/2000/svg">
<g id="&#240;&#159;&#166;&#134; icon &#34;verify&#34;" opacity="0.8">
<path id="Vector" d="M9.59686 3.03338L9.60559 3.0261L9.61415 3.01863L11.5694 1.31306C12.0752 0.89217 12.9347 0.899413 13.4188 1.31223C13.4192 1.31252 13.4195 1.31282 13.4199 1.31312L15.3899 3.00835C15.3904 3.00875 15.3909 3.00915 15.3913 3.00955C15.6971 3.27408 16.0852 3.47299 16.4419 3.60549C16.799 3.73815 17.2208 3.83991 17.6199 3.83991H19.745C20.5181 3.83991 21.1576 4.47972 21.1576 5.25181V7.37628C21.1576 7.78031 21.2588 8.20197 21.3928 8.56054C21.5266 8.9185 21.7259 9.30135 21.9884 9.60456C21.9888 9.60501 21.9892 9.60547 21.9896 9.60593L23.6853 11.5754C23.6857 11.5758 23.686 11.5762 23.6863 11.5765C24.1021 12.064 24.1039 12.9371 23.6956 13.4272L22.0021 15.3941C22.0016 15.3946 22.0012 15.3951 22.0007 15.3956C21.7362 15.7013 21.5372 16.0892 21.4047 16.4458C21.272 16.8029 21.1701 17.2246 21.1701 17.6237V19.7482C21.1701 20.5203 20.5306 21.1601 19.7575 21.1601H17.6324C17.2283 21.1601 16.8067 21.2612 16.448 21.3951C16.09 21.5289 15.7071 21.7281 15.4038 21.9905C15.4034 21.9909 15.4029 21.9913 15.4025 21.9917L13.4344 23.6851C12.9289 24.1078 12.0678 24.1012 11.5829 23.6879C11.5825 23.6875 11.5821 23.6872 11.5817 23.6869L9.6116 21.9917C9.61112 21.9912 9.61064 21.9908 9.61016 21.9904C9.30437 21.7259 8.91634 21.527 8.55965 21.3945C8.20253 21.2618 7.7808 21.1601 7.38169 21.1601H5.21906C4.44598 21.1601 3.80642 20.5203 3.80642 19.7482V17.6112C3.80642 17.2114 3.70426 16.7929 3.57387 16.4408C3.44298 16.0873 3.24957 15.7088 2.99951 15.4088L2.99954 15.4088L2.99358 15.4018L1.30917 13.4185C1.30872 13.418 1.30827 13.4175 1.30782 13.4169C0.897405 12.927 0.897393 12.0731 1.30778 11.5831C1.30825 11.5826 1.30871 11.582 1.30917 11.5815L2.99358 9.59823L2.99361 9.59826L2.99951 9.59119C3.24957 9.2912 3.44298 8.91275 3.57387 8.55925C3.70426 8.20712 3.80642 7.78857 3.80642 7.38877V5.25181C3.80642 4.47972 4.44598 3.83991 5.21906 3.83991H7.38169C7.78034 3.83991 8.20104 3.73832 8.55514 3.60872C8.90997 3.47885 9.29402 3.28566 9.59686 3.03338ZM18.4019 10.8453L18.4019 10.8453C19.155 10.0923 19.1551 8.85917 18.4019 8.1062C17.6488 7.35342 16.4158 7.35341 15.6628 8.1062L10.9945 12.7731L9.33877 11.118C9.33876 11.118 9.33876 11.118 9.33876 11.118C8.58574 10.3652 7.35271 10.3652 6.59969 11.118L7.22812 11.7466L6.59969 11.118C5.8465 11.8709 5.8465 13.1041 6.59969 13.8571L7.29025 13.1663L6.5997 13.8571L9.62492 16.8813C9.98535 17.2416 10.4763 17.449 10.9945 17.449C11.5126 17.449 12.0036 17.2416 12.364 16.8813L11.657 16.1741L12.364 16.8813L18.4019 10.8453Z" stroke="#0086FF" stroke-width="2"/>
</g>
</svg>
