<svg width="16" height="17" viewBox="0 0 16 17" fill="none" xmlns="http://www.w3.org/2000/svg">
<g opacity="0.6">
<path d="M13.4 5.70482V7.3241C13.048 7.27783 12.648 7.2547 12.2 7.24699V5.70482C12.2 3.2759 11.488 1.65663 8.00001 1.65663C4.51201 1.65663 3.80001 3.2759 3.80001 5.70482V7.24699C3.35201 7.2547 2.95201 7.27783 2.60001 7.3241V5.70482C2.60001 3.46867 3.16001 0.5 8.00001 0.5C12.84 0.5 13.4 3.46867 13.4 5.70482Z" fill="#0086FF"/>
<path d="M13.4 7.3241C13.048 7.27784 12.648 7.2547 12.2 7.24699H3.8C3.352 7.2547 2.952 7.27784 2.6 7.3241C0.56 7.56314 0 8.52699 0 11.1024V12.6446C0 15.7289 0.8 16.5 4 16.5H12C15.2 16.5 16 15.7289 16 12.6446V11.1024C16 8.52699 15.44 7.56314 13.4 7.3241ZM5.368 12.421C5.216 12.5598 5.008 12.6446 4.8 12.6446C4.696 12.6446 4.592 12.6215 4.496 12.5829C4.392 12.5443 4.312 12.4904 4.232 12.421C4.088 12.2745 4 12.074 4 11.8735C4 11.7733 4.024 11.673 4.064 11.5805C4.104 11.488 4.16 11.4031 4.232 11.326C4.312 11.2566 4.392 11.2027 4.496 11.1641C4.792 11.0407 5.144 11.1101 5.368 11.326C5.44 11.4031 5.496 11.488 5.536 11.5805C5.576 11.673 5.6 11.7733 5.6 11.8735C5.6 12.074 5.512 12.2745 5.368 12.421ZM8.736 12.1665C8.696 12.259 8.64 12.3439 8.568 12.421C8.416 12.5598 8.208 12.6446 8 12.6446C7.784 12.6446 7.584 12.5598 7.432 12.421C7.36 12.3439 7.304 12.259 7.264 12.1665C7.224 12.074 7.2 11.9737 7.2 11.8735C7.2 11.6653 7.288 11.4725 7.432 11.326C7.728 11.0407 8.264 11.0407 8.568 11.326C8.712 11.4725 8.8 11.6653 8.8 11.8735C8.8 11.9737 8.776 12.074 8.736 12.1665ZM11.768 12.421C11.616 12.5598 11.408 12.6446 11.2 12.6446C10.992 12.6446 10.784 12.5598 10.632 12.421C10.488 12.2745 10.4 12.0817 10.4 11.8735C10.4 11.6653 10.488 11.4725 10.632 11.326C10.936 11.0407 11.472 11.0407 11.768 11.326C11.8 11.3646 11.832 11.4031 11.864 11.4494C11.896 11.488 11.92 11.5342 11.936 11.5805C11.96 11.6268 11.976 11.673 11.984 11.7193C11.992 11.7733 12 11.8272 12 11.8735C12 12.074 11.912 12.2745 11.768 12.421Z" fill="#0086FF"/>
</g>
</svg>
