<svg width="109" height="110" viewBox="0 0 109 110" fill="none" xmlns="http://www.w3.org/2000/svg">
<g clip-path="url(#clip0_1_75)">
<path d="M97.4103 98.1073C99.0286 99.864 100.652 101.622 102.274 103.378H82.6757C83.3317 101.976 84.0019 100.573 84.6216 99.1372C85.0249 98.1915 85.3617 97.226 85.6532 96.2385C85.6673 96.2428 85.6721 96.2476 85.6864 96.2428C87.8815 96.0565 90.0762 95.8654 92.2705 95.6694C92.5615 95.6461 92.4914 95.213 92.2042 95.2408C90.0663 95.4268 87.9281 95.6133 85.7895 95.7951C86.3616 93.7815 86.7699 91.7168 87.1961 89.6753C87.4027 88.7058 87.5851 87.7407 87.7783 86.7664C88.9411 86.4637 90.0944 86.1606 91.2526 85.8531C91.8298 85.6992 92.4396 85.573 92.646 84.9537C92.7345 84.6829 92.3226 84.5293 92.2329 84.7997C92.0123 85.4522 90.3422 85.6385 89.7525 85.7969C89.1235 85.9602 88.5001 86.1331 87.8808 86.2913C88.3638 83.8439 88.8334 81.383 89.2638 78.9168C89.3106 78.6424 88.8749 78.6002 88.8286 78.8805C88.1949 82.474 87.5101 86.0577 86.7604 89.6287C86.7146 89.8334 86.6707 90.0384 86.6287 90.2439C85.4704 88.4354 84.5236 86.5384 83.7774 84.5196C83.6793 84.2544 83.2759 84.4364 83.3787 84.6969C84.1664 86.8551 85.1978 88.8782 86.4655 90.7943C86.4789 90.817 86.4933 90.8216 86.502 90.8358C85.8739 93.8144 85.2129 96.7878 83.9466 99.5754C83.8291 99.8176 83.7208 100.06 83.6083 100.302C81.9434 98.3963 80.3768 96.4103 78.9289 94.3405C78.7647 94.1128 78.4217 94.3927 78.586 94.6166C80.0736 96.7321 81.6676 98.7597 83.375 100.699C83.3835 100.713 83.4019 100.722 83.4116 100.731C82.9993 101.617 82.5857 102.497 82.1784 103.378H64.5034C64.4758 103.216 64.4601 103.052 64.4601 102.885C64.4601 101.426 65.5347 100.177 66.7306 99.3283C67.9224 98.4802 69.2957 97.8837 70.3933 96.9188C70.7918 96.5639 71.1675 96.1402 71.2843 95.6275C71.5285 94.5644 70.6697 93.6092 70.1263 92.6681C68.4562 89.7777 69.6575 86.1467 70.8952 83.052C71.2325 82.19 71.6445 81.2525 72.4847 80.8567C73.7083 80.2831 75.0872 81.1455 76.1983 81.9187C77.3093 82.6883 78.8396 83.4061 79.9274 82.6041C81.0057 81.8122 80.762 80.1057 80.0485 78.9781C79.2425 77.6963 78.0144 76.7217 77.2028 75.4497C76.3864 74.1774 76.0996 72.3222 77.1885 71.2635C78.4821 70.015 80.6121 70.7141 82.2762 71.4177C83.9415 72.1212 86.2071 72.6065 87.2623 71.1518C87.8677 70.3269 87.7745 69.1574 87.313 68.2486C86.8485 67.3347 86.0899 66.6215 85.3617 65.9038C84.9642 65.5075 84.5475 65.0551 84.4994 64.4965C84.4526 63.9883 84.7349 63.4983 85.0538 63.093C86.8773 60.8094 90.4787 60.1706 92.9881 61.6904C95.4926 63.2144 96.5713 66.6868 95.3569 69.3485C94.8972 70.3551 94.1933 71.6556 95.0096 72.4109C96.0688 73.4079 97.6169 71.7256 99.0707 71.6042C100.295 71.5016 101.345 72.6576 101.51 73.8652C101.67 75.0764 101.144 76.2699 100.487 77.2999C99.2253 79.2809 97.4574 80.8797 95.8451 82.59C95.5867 82.866 95.3198 83.1595 95.2534 83.5317C95.1304 84.1479 95.5902 84.7253 96.1024 85.0936C97.2509 85.9184 98.7183 86.1237 100.07 86.5432C101.429 86.9624 102.836 87.7643 103.221 89.1206C103.629 90.5836 102.649 92.1081 101.425 93.0174C100.196 93.926 98.7145 94.439 97.4524 95.3061C97.0867 95.5582 96.7161 95.8696 96.6035 96.2987C96.4395 96.9698 96.9418 97.604 97.4103 98.1073Z" fill="url(#paint0_linear_1_75)"/>
<path d="M14.0437 98.1073C12.4237 99.8654 10.8026 101.622 9.18031 103.378H28.7782C28.1221 101.976 27.4509 100.573 26.8325 99.1372C26.43 98.1915 26.0918 97.226 25.8012 96.2385C25.7865 96.2428 25.7828 96.2476 25.7682 96.2428C23.5729 96.0565 21.378 95.8653 19.1835 95.6694C18.8933 95.6461 18.9632 95.213 19.2497 95.2408C21.3875 95.4268 23.5259 95.6133 25.6646 95.7951C25.0921 93.7815 24.6841 91.7168 24.2577 89.6753C24.0513 88.7058 23.8687 87.7407 23.6759 86.7664C22.5168 86.4648 21.3585 86.1603 20.2009 85.8531C19.6244 85.6992 19.0143 85.573 18.8086 84.9537C18.7185 84.6829 19.1315 84.5293 19.2208 84.7997C19.4418 85.4522 21.1108 85.6385 21.7023 85.7969C22.3304 85.9602 22.9538 86.1331 23.5732 86.2913C23.0898 83.8439 22.6203 81.383 22.1901 78.9168C22.1421 78.6424 22.5791 78.6002 22.6252 78.8805C23.2589 82.474 23.9436 86.0577 24.6938 89.6287C24.7394 89.8334 24.7833 90.0384 24.8253 90.2439C25.9835 88.4354 26.9307 86.5384 27.6767 84.5196C27.7746 84.2544 28.1778 84.4364 28.0749 84.6969C27.2876 86.8551 26.2552 88.8782 24.9896 90.7943C24.9753 90.817 24.9616 90.8216 24.9521 90.8358C25.5802 93.8144 26.241 96.7878 27.5072 99.5754C27.6248 99.8176 27.7332 100.06 27.8455 100.302C29.51 98.3963 31.0772 96.4103 32.5253 94.3405C32.6894 94.1128 33.0322 94.3927 32.8678 94.6166C31.3808 96.7321 29.7872 98.7597 28.0792 100.699C28.0703 100.713 28.0519 100.722 28.0422 100.731C28.4544 101.617 28.8683 102.497 29.2755 103.378H46.9505C46.9793 103.216 46.9939 103.052 46.9939 102.885C46.9939 101.426 45.9192 100.177 44.7234 99.3283C43.5316 98.4802 42.1587 97.8837 41.0606 96.9188C40.6625 96.5639 40.2865 96.1402 40.1696 95.6275C39.9257 94.5644 40.7841 93.6092 41.3278 92.6681C42.9977 89.7777 41.7964 86.1467 40.5586 83.052C40.2215 82.19 39.8094 81.2525 38.9701 80.8567C37.7457 80.2831 36.3656 81.1455 35.2556 81.9187C34.1445 82.6883 32.6146 83.4061 31.5266 82.6041C30.4479 81.8122 30.692 80.1057 31.4054 78.9781C32.2115 77.6963 33.4395 76.7217 34.2511 75.4497C35.0674 74.1774 35.3542 72.3222 34.2654 71.2635C32.9717 70.015 30.8418 70.7141 29.1778 71.4177C27.5121 72.1212 25.248 72.6065 24.1916 71.1518C23.5864 70.3269 23.6795 69.1574 24.1409 68.2486C24.6058 67.3347 25.3644 66.6215 26.0919 65.9038C26.4897 65.5075 26.9073 65.0551 26.9546 64.4965C27.0015 63.9883 26.7202 63.4983 26.4001 63.093C24.5767 60.8094 20.9755 60.1706 18.466 61.6904C15.9614 63.2144 14.883 66.6868 16.0976 69.3485C16.558 70.3551 17.2607 71.6556 16.4445 72.4109C15.3853 73.4079 13.8371 71.7256 12.3832 71.6042C11.1589 71.5016 10.1094 72.6576 9.94506 73.8652C9.78558 75.0764 10.3098 76.2699 10.9669 77.2999C12.2287 79.2809 13.9968 80.8797 15.6091 82.59C15.8683 82.866 16.1342 83.1595 16.2007 83.5317C16.3236 84.1479 15.8632 84.7253 15.3517 85.0936C14.2031 85.9184 12.7357 86.1237 11.3845 86.5432C10.0247 86.9624 8.61802 87.7643 8.23304 89.1206C7.82578 90.5836 8.80595 92.1081 10.0295 93.0174C11.2579 93.926 12.7406 94.439 14.0015 95.3061C14.3674 95.5582 14.738 95.8696 14.8502 96.2987C15.0146 96.9698 14.5125 97.604 14.0437 98.1073Z" fill="url(#paint1_linear_1_75)"/>
<path opacity="0.5" d="M105.836 103.378H-0.0446777C1.07534 98.5692 5.08258 94.5443 10.5191 92.4571C12.5292 91.6765 14.7446 91.1629 17.0753 90.9755C18.5137 87.1367 21.0082 83.6541 24.2951 80.7259C30.6216 75.0957 39.8918 71.5466 50.2235 71.5466C64.445 71.5466 76.653 78.2795 81.9525 87.9009C82.6223 87.8464 83.2991 87.8067 83.9868 87.8067C94.002 87.8067 102.113 94.1681 102.113 102.01C102.113 102.089 102.113 102.155 102.103 102.224C103.448 102.444 104.703 102.843 105.836 103.378Z" fill="url(#paint2_linear_1_75)"/>
<path opacity="0.7" d="M30.7506 103.378H113.045C112.175 99.6412 109.06 96.5124 104.835 94.891C103.271 94.2838 101.55 93.8841 99.7381 93.7384C98.6205 90.7547 96.6825 88.0477 94.1269 85.772C89.2099 81.3965 82.0047 78.6378 73.9743 78.6378C62.9208 78.6378 53.4328 83.8705 49.3139 91.3488C48.7924 91.3069 48.266 91.2751 47.7322 91.2751C39.9479 91.2751 33.6443 96.2199 33.6443 102.316C33.6443 102.376 33.6443 102.428 33.6508 102.481C32.6067 102.653 31.6313 102.963 30.7506 103.378Z" fill="url(#paint3_linear_1_75)"/>
<path d="M68.9345 80.2087C68.9345 80.2087 67.7417 76.5278 64.4381 77.8935L64.4353 77.8923L64.4073 77.9059C64.2702 77.9628 64.1358 78.0256 64.0043 78.0942C64.0043 78.0942 64.034 78.1718 64.0961 78.298L64.1059 78.3192H64.1067C64.4747 79.0407 65.8576 81.1963 68.9345 80.2087Z" fill="white"/>
<path d="M86.4702 98.8589L86.4193 98.8509L86.4153 98.8531C83.6238 98.5598 82.4673 100.265 81.9922 101.673C81.8981 100.514 81.6675 99.3731 81.2181 98.2846C81.1037 98.0063 80.976 97.7381 80.8425 97.4751C84.8723 96.5929 84.5754 92.6858 84.5754 92.6858C84.3929 92.6783 84.2193 92.6799 84.0509 92.6858H83.9894L83.9867 92.6896C81.0501 92.8249 80.3604 94.9834 80.2258 96.3888C78.7844 94.1248 76.7113 92.3558 74.7539 90.4871C77.4612 88.6871 76.1674 85.8402 76.1674 85.8402C76.0189 85.8872 75.8805 85.9387 75.7479 85.9921L75.72 86.0028L75.7191 86.0045C73.7157 86.8346 73.5844 88.4238 73.7916 89.5472C73.7899 89.5451 73.7879 89.5433 73.7859 89.5416C72.6652 88.4111 71.732 87.1689 71.0184 85.8351C73.7535 84.8817 73.7149 82.5038 73.6256 81.7351L73.6266 81.7348L73.6216 81.7C73.6043 81.5677 73.5881 81.4907 73.5881 81.4907C73.4354 81.5066 73.2913 81.5286 73.1522 81.5535L73.1157 81.5586L73.1147 81.561C70.9117 81.9785 70.4996 83.5967 70.4996 84.7488C69.8631 83.264 69.4923 81.6799 69.4396 80.0149C72.743 80.5383 73.7052 77.5023 73.7052 77.5023C73.5555 77.4355 73.4107 77.3806 73.2685 77.3317L73.2599 77.3278H73.259C71.2297 76.6288 70.0694 77.6963 69.4674 78.6641C69.4748 78.5456 69.4789 78.4275 69.4904 78.3097C69.6067 77.0903 69.8509 75.8969 70.181 74.7256C72.9486 74.6072 73.5364 72.4323 73.6553 71.7129H73.6565L73.6583 71.6949C73.6792 71.5619 73.6842 71.4833 73.6842 71.4833C73.554 71.4602 73.423 71.4423 73.2913 71.4295L73.2445 71.4232L73.2424 71.4261C72.2859 71.3413 71.603 71.5792 71.1162 71.963C71.4417 71.1276 71.795 70.3019 72.1649 69.485C74.6311 70.5904 76.1406 68.9606 76.5757 68.3834H76.5766L76.5863 68.3702C76.668 68.2616 76.7082 68.194 76.7082 68.194C76.6026 68.1122 76.4933 68.0351 76.3806 67.963L76.3471 67.9387L76.3443 67.9396C74.7654 66.9304 73.5364 67.499 72.765 68.1887C72.9808 67.7322 73.1979 67.2763 73.4163 66.821C73.466 66.7185 73.4433 66.6201 73.3912 66.5447C76.1447 66.4168 76.7285 64.25 76.8474 63.5317L76.8501 63.517C76.8715 63.3825 76.8765 63.3021 76.8765 63.3021C76.7466 63.2794 76.6158 63.2617 76.4846 63.2488L76.4355 63.242L76.4328 63.2448C73.4874 62.9851 73.1398 65.796 73.0993 66.4246C73.0473 66.4419 72.9985 66.4768 72.9668 66.5452C72.5551 67.4065 72.1398 68.2733 71.7405 69.1486C71.631 68.4483 71.023 65.8044 68.1718 66.284L68.169 66.2821L68.1288 66.2909C67.996 66.3135 67.8643 66.342 67.7341 66.3762C67.7341 66.3762 68.1813 69.5582 71.6619 69.3228C70.9614 70.8688 70.3152 72.4424 69.8258 74.0616C69.6529 73.1848 68.9463 70.9164 66.285 71.3642L66.2819 71.362L66.2417 71.371C66.1092 71.3935 65.9778 71.4219 65.8478 71.4562C65.8478 71.4562 66.2927 74.6063 69.7237 74.4046C69.4905 75.2178 69.2956 76.0419 69.1565 76.8801C68.9902 77.8796 68.9154 78.8641 68.9326 79.8304C68.9243 79.8558 68.9167 79.8814 68.9097 79.9072C68.9183 79.9098 68.9277 79.9112 68.9354 79.9129C68.9736 81.6029 69.3014 83.2368 69.9321 84.7981C69.0486 84.0984 67.6503 83.531 66.0016 84.781L65.9987 84.7805L65.9683 84.8054C65.8585 84.8904 65.7451 84.9823 65.632 85.0854C65.632 85.0854 65.6868 85.1591 65.7894 85.2754L65.7902 85.2771H65.7913C66.3041 85.8526 68.0376 87.4415 70.5459 86.111C70.8223 86.6317 71.1308 87.1439 71.4814 87.645C71.8837 88.2171 72.3245 88.7518 72.791 89.2664C71.9027 88.6457 70.593 88.2486 69.0689 89.4043L69.0652 89.404L69.0365 89.428C68.925 89.5142 68.8134 89.6055 68.7001 89.7083C68.7001 89.7083 68.7541 89.7823 68.8568 89.8974L68.8596 89.9009C69.3992 90.5052 71.2836 92.2303 73.9967 90.5137C74.0389 90.5551 74.0823 90.5948 74.1241 90.6355C74.1494 90.6941 74.1759 90.7521 74.2037 90.8096C74.226 90.7978 74.2471 90.7858 74.2682 90.7739C75.3227 91.7831 76.4223 92.7508 77.4441 93.7874C76.7671 93.5507 75.9314 93.5164 74.9089 93.8336L74.906 93.8319L74.8646 93.8472C74.6986 93.8999 74.5306 93.9588 74.3558 94.0309C74.3558 94.0309 75.5198 98.1563 80.0908 97.1614C80.1291 97.2306 80.1714 97.2985 80.2073 97.3682C80.2158 97.5055 80.2261 97.5838 80.2261 97.5838C80.254 97.5798 80.2791 97.5753 80.3059 97.5713C80.9793 98.9235 81.3112 100.35 81.4256 101.811C80.9128 100.402 79.6934 98.6348 76.8334 99.0652L76.8304 99.0623L76.7746 99.0727C76.5873 99.1022 76.4011 99.139 76.2167 99.183C76.2167 99.183 76.2313 99.3005 76.2756 99.4943L76.2764 99.5004H76.2773C76.5059 100.495 77.5219 103.488 81.4086 103.413C81.6167 103.275 81.8752 103.288 82.0934 103.4C85.9346 103.275 86.8073 100.264 86.99 99.2641V99.2624C87.0264 99.0637 87.035 98.9439 87.035 98.9439C86.839 98.9058 86.6517 98.8799 86.4702 98.8589Z" fill="white"/>
<path d="M46.1839 86.1695C46.1839 86.1695 47.0697 83.4331 49.524 84.4488L49.5259 84.4477L49.5464 84.4573C49.6451 84.499 49.7449 84.5438 49.8467 84.5977C49.8467 84.5977 49.8247 84.6551 49.7784 84.749L49.7712 84.7646H49.77C49.4982 85.301 48.4698 86.903 46.1839 86.1695Z" fill="white"/>
<path d="M33.1525 100.029L33.19 100.023L33.1919 100.025C35.266 99.8068 36.1266 101.074 36.4803 102.121C36.549 101.259 36.7217 100.412 37.0552 99.6016C37.1396 99.3954 37.2348 99.196 37.3336 99.0003C34.3395 98.3452 34.5591 95.4415 34.5591 95.4415C34.6958 95.4359 34.8233 95.437 34.949 95.4415L34.9943 95.441L34.9961 95.4437C37.179 95.5446 37.6919 97.1484 37.792 98.194C38.8634 96.5112 40.404 95.196 41.8598 93.8076C39.8458 92.469 40.8081 90.3538 40.8081 90.3538C40.9131 90.3872 41.0166 90.4251 41.1184 90.4672L41.1393 90.4749L41.1405 90.4763C42.6289 91.0928 42.729 92.2734 42.5733 93.1092C42.5749 93.1075 42.576 93.1057 42.5779 93.1046C43.4106 92.2644 44.1047 91.342 44.6353 90.3505C42.602 89.6419 42.6299 87.8742 42.696 87.3038L42.6952 87.3033L42.7001 87.2769C42.7124 87.179 42.7249 87.1219 42.7249 87.1219C42.8385 87.1332 42.946 87.1502 43.0478 87.168L43.0762 87.1724L43.0774 87.1737C44.7139 87.4847 45.0202 88.6871 45.0202 89.5427C45.4937 88.44 45.7683 87.2619 45.8085 86.0249C43.3529 86.4144 42.6377 84.158 42.6377 84.158C42.744 84.1109 42.8523 84.0684 42.9623 84.0307L42.969 84.0279H42.9698C44.4774 83.5087 45.3398 84.3015 45.7865 85.0209C45.7804 84.9331 45.7777 84.8458 45.7702 84.7578C45.6847 83.8513 45.5021 82.9653 45.2562 82.0944C43.1994 82.0066 42.7622 80.3896 42.6742 79.8551L42.6731 79.8549L42.6719 79.842C42.6568 79.7435 42.6528 79.6844 42.6528 79.6844C42.7501 79.6678 42.8478 79.6545 42.946 79.6447L42.9804 79.6405L42.9814 79.6419C43.6921 79.5796 44.2001 79.7556 44.561 80.0403C44.3198 79.4202 44.056 78.8068 43.7822 78.1996C41.95 79.0218 40.8283 77.8098 40.5046 77.3813H40.5037L40.497 77.3714C40.4364 77.2903 40.4056 77.2399 40.4056 77.2399C40.4846 77.1798 40.5656 77.1225 40.6486 77.0681L40.6749 77.0506L40.6772 77.0518C41.851 76.3017 42.7622 76.7237 43.3358 77.2365C43.1755 76.8958 43.0129 76.5579 42.8515 76.2197C42.815 76.1438 42.8315 76.0709 42.8708 76.0145C40.8255 75.9195 40.3901 74.3094 40.3019 73.776L40.3 73.7651C40.2836 73.6646 40.2807 73.6048 40.2807 73.6048C40.3773 73.5879 40.4744 73.5746 40.572 73.5651L40.6084 73.5605L40.6104 73.5623C42.7995 73.3695 43.058 75.4585 43.0879 75.9258C43.1264 75.9383 43.163 75.9638 43.186 76.0151C43.4931 76.6554 43.8015 77.2991 44.0983 77.9502C44.1788 77.4295 44.6311 75.4652 46.7496 75.8215L46.7516 75.8198L46.7813 75.826C46.8765 75.8427 46.9731 75.8628 47.0753 75.8896C47.0753 75.8896 46.7427 78.2541 44.156 78.0785C44.6762 79.2282 45.1564 80.398 45.5215 81.6013C45.649 80.9493 46.1755 79.2638 48.1517 79.596L48.1537 79.5949L48.1837 79.6012C48.2786 79.6181 48.3754 79.638 48.4765 79.6647C48.4765 79.6647 48.1459 82.0055 45.5963 81.8557C45.7701 82.4607 45.915 83.0725 46.0178 83.6954C46.1416 84.4382 46.1975 85.17 46.1848 85.8883L46.2015 85.9455C46.1945 85.947 46.1888 85.9478 46.1831 85.9498C46.154 87.2047 45.9101 88.4197 45.4404 89.5795C46.0976 89.0594 47.1365 88.6382 48.3633 89.5667L48.3649 89.5665L48.3872 89.5855C48.4733 89.6511 48.5566 89.7203 48.6367 89.7929C48.6367 89.7929 48.5965 89.8488 48.5195 89.9348L48.5187 89.9361V89.9355C48.1371 90.363 46.8494 91.5439 44.9853 90.5558C44.7808 90.9419 44.5506 91.3228 44.2901 91.6953C43.9917 92.1205 43.6631 92.5179 43.3175 92.9002C43.9771 92.439 44.95 92.1434 46.083 93.0028H46.0849L46.1071 93.021C46.1931 93.0873 46.2767 93.1567 46.3577 93.2289C46.3577 93.2289 46.3175 93.2836 46.2408 93.3694L46.2385 93.3717C45.8373 93.8207 44.4371 95.1025 42.4213 93.827C42.3897 93.8581 42.3569 93.8876 42.3261 93.9176C42.3076 93.9613 42.2878 94.0044 42.2668 94.047C42.2505 94.0384 42.236 94.0293 42.2198 94.0208C41.4363 94.7706 40.6178 95.4891 39.8592 96.2602C40.3626 96.0845 40.9828 96.0588 41.7432 96.2948L41.7455 96.293L41.7763 96.3044C41.8991 96.3441 42.025 96.3874 42.1545 96.441C42.1545 96.441 41.2892 99.5069 37.8914 98.7676C37.8639 98.8193 37.832 98.8697 37.8052 98.9213C37.7995 99.0228 37.7919 99.0817 37.7919 99.0817C37.7717 99.0789 37.7533 99.0748 37.7322 99.0721C37.2326 100.077 36.9849 101.137 36.9005 102.223C37.2818 101.177 38.1884 99.8623 40.3135 100.182L40.3164 100.18L40.3566 100.188C40.4912 100.209 40.6275 100.235 40.7707 100.27C40.7707 100.27 40.7602 100.357 40.7274 100.501V100.506H40.7266C40.5566 101.245 39.8028 103.469 36.9132 103.413C36.7583 103.311 36.5662 103.321 36.404 103.404C33.55 103.311 32.9009 101.073 32.7654 100.33V100.329C32.7382 100.182 32.7309 100.092 32.7309 100.092C32.8768 100.064 33.0171 100.044 33.1525 100.029Z" fill="white"/>
<path d="M93.9524 16.6767V74.0634C93.9524 79.7848 90.9345 84.81 86.4011 87.6445C86.3914 87.6526 86.3914 87.6526 86.3827 87.6526L85.2802 88.2903C85.2735 88.2903 85.2554 88.2993 85.2478 88.3074L56.4117 104.852L27.5324 88.2818L26.4492 87.6621C21.8955 84.8185 18.872 79.7944 18.872 74.0635V16.6767C18.872 12.0748 35.6836 8.34387 56.4117 8.34387C77.1511 8.34383 93.9524 12.0748 93.9524 16.6767Z" fill="#5590EB"/>
<path d="M93.9524 11.0149V22.5607H18.872V11.0149C18.872 11.0149 21.3516 11.5063 26.4225 9.4376C30.5162 7.75756 38.318 2.46557 51.3489 0.502716C52.9525 0.260251 54.6445 0.0711435 56.4116 -0.059082C58.1816 0.0711435 59.8705 0.260251 61.4737 0.502716C74.5066 2.46557 82.309 7.75756 86.401 9.4376C91.4708 11.5063 93.9524 11.0149 93.9524 11.0149Z" fill="#028CEF"/>
<path d="M90.4843 14.2558V74.0634C90.4843 78.3896 88.2995 82.353 84.6237 84.6807L84.3459 84.8447H83.8513L83.1329 85.5407L56.4116 100.87L28.2443 84.706C24.5417 82.3799 22.3406 78.3993 22.3406 74.0634V14.2558C23.7793 13.9958 25.5822 13.5061 27.7417 12.6259C28.7992 12.1955 29.9785 11.6009 31.3393 10.9021C35.7184 8.69733 42.3229 5.34437 51.8685 3.91405C53.3242 3.68923 54.8512 3.51949 56.4116 3.3967C57.9734 3.51949 59.497 3.68923 60.9561 3.91405C70.4997 5.34437 77.1058 8.69738 81.485 10.9021C82.847 11.6009 84.0251 12.1955 85.0736 12.6259C87.2411 13.5061 89.037 13.9958 90.4756 14.2558H90.4843Z" fill="#37AEFD"/>
<path d="M72.0365 48.7357H60.3915V37.1618C60.3915 34.9761 58.608 33.2022 56.4077 33.2022C54.2078 33.2022 52.4234 34.9761 52.4234 37.1618V48.7357H40.7793C38.5781 48.7357 36.7948 50.5078 36.7948 52.695C36.7948 54.8815 38.5781 56.6556 40.7793 56.6556H52.4234V68.2275C52.4234 70.4147 54.2078 72.1868 56.4077 72.1868C58.608 72.1868 60.3915 70.4147 60.3915 68.2275V56.6556H72.0365C74.2355 56.6556 76.0206 54.8815 76.0206 52.695C76.0206 50.5078 74.2355 48.7357 72.0365 48.7357Z" fill="#E2EEEE"/>
<path opacity="0.3" d="M90.4757 14.2558C90.1971 47.447 63.0445 74.2619 29.5779 74.2619C27.1263 74.2619 24.715 74.1156 22.3406 73.8394V14.2558C23.7794 13.9958 25.5822 13.5061 27.7417 12.6259C28.7993 12.1955 29.9785 11.6009 31.3393 10.9021C35.7185 8.69733 42.3229 5.34437 51.8685 3.91405C53.3243 3.68923 54.8512 3.51949 56.4116 3.3967C57.9734 3.51949 59.497 3.68923 60.9562 3.91405C70.4997 5.34437 77.1058 8.69738 81.485 10.9021C82.847 11.6009 84.0251 12.1955 85.0737 12.6259C87.2411 13.5061 89.0371 13.9958 90.4757 14.2558Z" fill="#5590EB"/>
<path d="M32.556 16.0307H33.7862V21.464H32.556V16.0307ZM39.1112 21.464C38.7548 20.8349 38.3732 20.2202 37.9673 19.6214C37.5576 19.0165 37.1227 18.4438 36.6577 17.9038V21.464H35.4427V16.0307H36.4447C36.6192 16.204 36.8123 16.4154 37.0216 16.6654C37.2413 16.9287 37.4551 17.1967 37.663 17.4693C37.8874 17.7604 38.1054 18.0562 38.317 18.3566C38.5315 18.6614 38.733 18.9552 38.9221 19.2381V16.0307H40.1465V21.464H39.1112ZM43.2942 20.5335C43.4674 20.5335 43.6115 20.517 43.7226 20.4889C43.8362 20.4598 43.9274 20.4212 43.9957 20.3703C44.0626 20.322 44.1116 20.2628 44.1386 20.1938C44.1644 20.1264 44.1769 20.0516 44.1769 19.9669C44.1769 19.7903 44.0945 19.6415 43.9254 19.5243C43.7564 19.4065 43.4674 19.2795 43.0581 19.1437C42.8758 19.0808 42.6991 19.0078 42.5207 18.9274C42.3411 18.8475 42.1813 18.7453 42.0402 18.6212C41.8972 18.4993 41.7799 18.3508 41.6925 18.1755C41.6023 18.0002 41.5573 17.7867 41.5573 17.5361C41.5573 17.2844 41.6036 17.0599 41.7003 16.8581C41.7935 16.6573 41.929 16.4853 42.1015 16.3441C42.2755 16.2039 42.4859 16.0936 42.7336 16.0175C42.9804 15.9419 43.2588 15.9057 43.5701 15.9057C43.9368 15.9057 44.2576 15.946 44.5247 16.023C44.7935 16.1007 45.0134 16.1862 45.1883 16.2815L44.832 17.2461C44.6783 17.1678 44.5104 17.0981 44.3238 17.0389C44.1356 16.978 43.9111 16.9468 43.6479 16.9468C43.353 16.9468 43.1428 16.9884 43.013 17.0709C42.8844 17.1517 42.8201 17.2741 42.8201 17.4417C42.8201 17.5417 42.8442 17.6251 42.8921 17.6926C42.9383 17.7592 43.0055 17.8236 43.0929 17.876C43.1785 17.9307 43.279 17.9826 43.3934 18.0271C43.5038 18.0712 43.6307 18.1146 43.7679 18.1629C44.0503 18.2686 44.299 18.37 44.5103 18.4732C44.7197 18.5753 44.8936 18.6947 45.0328 18.8303C45.1728 18.9647 45.2757 19.1261 45.3464 19.3083C45.413 19.4919 45.4462 19.713 45.4462 19.9758C45.4462 20.4812 45.269 20.8764 44.9096 21.1542C44.5524 21.4334 44.0146 21.5737 43.2941 21.5737C43.0514 21.5737 42.8325 21.5598 42.6377 21.5313C42.4443 21.5028 42.2714 21.4669 42.122 21.4275C41.9708 21.3833 41.8424 21.3393 41.7359 21.2932C41.628 21.2449 41.537 21.2001 41.4629 21.1594L41.8095 20.1859C41.9741 20.2747 42.1728 20.3548 42.4139 20.4268C42.6529 20.4961 42.9469 20.5335 43.2942 20.5335ZM48.927 21.5738C48.5445 21.5738 48.2125 21.5205 47.9327 21.4151C47.6523 21.3068 47.4249 21.1582 47.2425 20.9666C47.0609 20.7764 46.9266 20.5471 46.8399 20.2851C46.7526 20.0218 46.7091 19.7287 46.7091 19.411V16.0307H47.9396V19.3083C47.9396 19.5283 47.9663 19.7154 48.0154 19.8696C48.0653 20.0232 48.1336 20.1479 48.2207 20.2451C48.3062 20.3418 48.4122 20.4107 48.5371 20.4535C48.6589 20.496 48.7973 20.5153 48.9424 20.5153C49.2438 20.5153 49.4849 20.4252 49.6711 20.2413C49.8593 20.0584 49.9514 19.7468 49.9514 19.3083V16.0307H51.1827V19.411C51.1827 19.7288 51.1385 20.0226 51.0492 20.2885C50.9591 20.5561 50.8224 20.7852 50.6402 20.9755C50.4557 21.1653 50.2196 21.3128 49.9372 21.4174C49.6536 21.5228 49.3161 21.5738 48.927 21.5738ZM54.3632 15.9669C55.1825 15.9669 55.8122 16.1138 56.2487 16.4029C56.6844 16.694 56.9022 17.1444 56.9022 17.7555C56.9022 18.1371 56.815 18.4483 56.6386 18.6856C56.4637 18.9232 56.209 19.1103 55.8787 19.2443C55.9995 19.3963 56.115 19.5525 56.2247 19.7125C56.3464 19.8873 56.4653 20.07 56.5835 20.2608C56.7018 20.4521 56.8179 20.6508 56.9256 20.8567C57.0357 21.0641 57.1406 21.2654 57.2336 21.4641H55.8575C55.7577 21.2887 55.6568 21.1069 55.5539 20.9242C55.4515 20.7411 55.3441 20.563 55.2374 20.3913C55.1342 20.2257 55.0275 20.0624 54.9174 19.9014C54.8186 19.7561 54.7129 19.6155 54.6008 19.4801H53.9928V21.4641H52.7618V16.1096C53.0365 16.0564 53.3141 16.0194 53.5932 15.9987C53.8813 15.9789 54.1346 15.9669 54.3632 15.9669ZM54.4325 17.0106C54.3451 17.0106 54.2652 17.0134 54.1924 17.018C54.1233 17.0228 54.0551 17.029 53.9928 17.035V18.5095H54.3391C54.8013 18.5095 55.1323 18.4506 55.3331 18.3355C55.5319 18.222 55.6337 18.0254 55.6337 17.7476C55.6337 17.482 55.5311 17.292 55.3282 17.179C55.1278 17.0668 54.826 17.0106 54.4325 17.0106ZM62.3301 21.464C62.2675 21.2694 62.2023 21.0756 62.1345 20.8827C62.0633 20.6848 61.9954 20.4853 61.9258 20.2885H59.7901C59.7218 20.4869 59.651 20.6848 59.5825 20.8848C59.514 21.0764 59.4498 21.2696 59.3898 21.4641H58.1104C58.3163 20.8805 58.5108 20.3391 58.6962 19.8407C58.8799 19.3458 59.0624 18.8778 59.2381 18.4381C59.4146 17.9995 59.5884 17.5816 59.7604 17.1875C59.9298 16.7981 60.1079 16.4124 60.2944 16.0308H61.462C61.6409 16.4075 61.8163 16.7932 61.991 17.1875C62.1659 17.5816 62.3419 17.9995 62.5185 18.4381C62.7052 18.9035 62.8864 19.3711 63.0621 19.8407C63.2482 20.3391 63.4433 20.8805 63.6478 21.4641L62.3301 21.464ZM60.8512 17.2617C60.8243 17.3411 60.7832 17.448 60.7302 17.5841C60.6695 17.7402 60.6104 17.897 60.5529 18.0544C60.477 18.2506 60.4007 18.4468 60.3241 18.6428C60.2372 18.8666 60.152 19.0911 60.0686 19.3162H61.6332C61.5505 19.0808 61.4689 18.8554 61.3911 18.641C61.3115 18.4262 61.2373 18.2278 61.1672 18.0514C61.0965 17.8723 61.0325 17.7158 60.9801 17.5809C60.9389 17.4738 60.8959 17.3674 60.8512 17.2617ZM68.414 21.464C68.0616 20.8425 67.6794 20.2279 67.2694 19.6214C66.8591 19.0165 66.4222 18.4438 65.9603 17.9038V21.464H64.7464V16.0307H65.747C65.9209 16.204 66.1131 16.4154 66.324 16.6654C66.5431 16.9293 66.7571 17.1973 66.9659 17.4693C67.1889 17.7609 67.4062 18.0567 67.6178 18.3566C67.8235 18.6479 68.0255 18.9417 68.2236 19.2381V16.0307H69.4494V21.464H68.414ZM73.5979 21.5738C72.7086 21.5738 72.0316 21.3274 71.5668 20.8379C71.1009 20.3459 70.8668 19.6474 70.8668 18.7426C70.8668 18.2936 70.9387 17.8934 71.079 17.5401C71.2222 17.1875 71.417 16.8904 71.6636 16.6467C71.9118 16.4029 72.2073 16.2187 72.5482 16.0931C72.8893 15.9669 73.2618 15.9057 73.6592 15.9057C73.8916 15.9057 74.101 15.9218 74.2915 15.9567C74.4815 15.9896 74.6475 16.0275 74.7906 16.0735C74.931 16.118 75.0499 16.1637 75.1448 16.2113C75.2372 16.2589 75.3082 16.2951 75.3485 16.3213L74.9943 17.3095C74.8251 17.2198 74.6312 17.1444 74.4065 17.0821C74.1829 17.018 73.9282 16.988 73.6441 16.988C73.4547 16.988 73.2694 17.018 73.088 17.0821C72.9065 17.1444 72.7468 17.2454 72.6079 17.3846C72.4685 17.5202 72.3572 17.7021 72.2726 17.9209C72.1889 18.1394 72.1448 18.4064 72.1448 18.7199C72.1448 18.9711 72.1725 19.2053 72.2284 19.4212C72.2842 19.6388 72.3735 19.8271 72.4961 19.9827C72.6193 20.14 72.7816 20.2633 72.9813 20.3549C73.1832 20.447 73.423 20.4925 73.7062 20.4925C73.8859 20.4925 74.0462 20.4814 74.1893 20.4604C74.3326 20.4388 74.4585 20.4151 74.567 20.3862C74.6802 20.3567 74.7751 20.3249 74.8587 20.2886C74.9443 20.2524 75.0201 20.2178 75.0904 20.186L75.4284 21.1662C75.2543 21.271 75.0097 21.3646 74.6935 21.4485C74.3776 21.5319 74.0136 21.5738 73.5979 21.5738ZM76.6104 21.464V16.0307H80.3037V17.0577H77.8433V18.1238H80.0274V19.129H77.8433V20.437H80.4854V21.464H76.6104Z" fill="white"/>
<path d="M36.7295 53.2618C36.8256 53.168 36.8785 53.0385 36.8727 52.9049C36.8709 52.8128 36.8699 52.695 36.8785 52.5589C36.8942 52.2369 37.0628 49.9692 37.9714 49.3336C38.8779 48.6959 39.3052 47.1397 39.6528 47.4546C39.9075 47.6864 39.5203 48.7458 39.2969 49.2948C39.2191 49.4833 39.2659 49.6976 39.4128 49.8342C39.63 50.0367 39.8919 50.361 39.8576 50.7192C39.7969 51.3134 40.3329 51.6626 39.8576 52.0941C39.5154 52.407 38.4103 53.6874 37.812 54.3883C37.6086 54.6264 37.2367 54.6162 37.0428 54.3697L36.6886 53.9065C36.5356 53.7112 36.5566 53.4359 36.7295 53.2618ZM21.3538 105.937L21.5449 107.993H23.3782L23.2503 105.579L21.3538 105.937Z" fill="#FFC4BD"/>
<path d="M24.3596 108.841L23.4645 107.463H21.1405C21.1405 107.463 20.9705 108.481 21.374 109.168C21.7781 109.858 22.7604 109.837 22.7604 109.837L24.3596 108.841Z" fill="#343736"/>
<path d="M22.7604 109.837C22.7604 109.837 22.805 108.503 24.3596 108.503C25.9173 108.503 25.6598 109.837 25.6598 109.837H22.7604Z" fill="#404443"/>
<path d="M29.3007 105.937L29.4918 107.993H31.325L31.197 105.579L29.3007 105.937Z" fill="#FFC4BD"/>
<path d="M32.3073 108.841L31.411 107.463H29.0862C29.0862 107.463 28.9153 108.481 29.3216 109.168C29.7271 109.858 30.7061 109.837 30.7061 109.837L32.3073 108.841Z" fill="#343736"/>
<path d="M30.7061 109.837C30.7061 109.837 30.7517 108.503 32.3073 108.503C33.864 108.503 33.6078 109.837 33.6078 109.837H30.7061Z" fill="#404443"/>
<path d="M31.9856 87.9808C31.758 85.1541 29.0286 75.005 29.0286 75.005L25.4082 74.7414C25.4082 74.7414 25.3726 74.9688 25.3266 75.3565C24.1741 74.5634 21.3048 72.9317 20.1543 75.4351C18.6992 78.5976 21.3238 88.0375 20.4719 91.8783C19.6193 95.7232 20.7276 105.33 20.9563 106.037C21.1819 106.743 23.4289 106.291 23.4289 106.291C23.4289 106.291 24.6792 96.6275 24.9051 92.8977C25.0049 91.2059 25.3986 84.0423 25.4081 84.067C26.2918 87.416 28.005 91.8783 28.005 91.8783C27.323 94.8757 29.0844 103.465 28.6878 105.669C28.2902 107.873 31.4746 106.433 31.4746 106.433C31.4746 106.433 32.2124 90.8051 31.9856 87.9808Z" fill="#113A5A"/>
<path d="M24.6034 74.9016L22.3532 74.8899C22.3532 74.8899 22.3372 75.1434 22.3133 75.5799C21.8907 75.3267 21.2713 74.9988 20.5892 74.7584C21.659 73.5565 23.4233 74.229 24.6034 74.9016Z" fill="url(#paint4_linear_1_75)"/>
<path opacity="0.3" d="M31.4719 106.431C31.4719 106.431 31.4601 106.436 31.4361 106.443C31.304 101.279 31.0079 91.3649 30.6682 89.0817C30.1984 85.9653 26.3917 74.9069 26.3917 74.9069L25.3843 74.9015C25.4025 74.7983 25.4094 74.7402 25.4094 74.7402L29.0317 75.0049C29.0317 75.0049 31.7562 85.154 31.9875 87.9772C32.2123 90.8068 31.4719 106.431 31.4719 106.431Z" fill="url(#paint5_linear_1_75)"/>
<path d="M25.3276 75.3565C25.1308 75.2186 24.8812 75.0623 24.6033 74.9016H25.3844C25.3678 75.0101 25.3506 75.1609 25.3276 75.3565Z" fill="url(#paint6_linear_1_75)"/>
<path opacity="0.4" d="M19.7059 75.992C19.7059 75.992 19.9015 76.3532 20.0727 76.692C20.2433 77.0306 22.2286 77.7311 22.7604 77.4756C23.2935 77.2214 23.1025 76.4806 23.1025 76.4806L19.7059 75.992Z" fill="#5D5D5D"/>
<path d="M26.5981 60.1198C26.5981 60.1198 33.2023 60.0339 33.8852 58.2816C34.5672 56.5296 36.6154 53.1394 36.6154 53.1394L38.321 54.1564C38.321 54.1564 36.899 61.8986 34.0551 62.6897C31.2126 63.4811 27.7158 64.9806 27.7158 64.9806L26.5981 60.1198Z" fill="#113A5A"/>
<path d="M21.0972 60.1199C21.0972 60.1199 22.7183 62.578 20.5854 68.0024C18.4533 73.4284 19.9884 75.9716 19.9884 75.9716C19.9884 75.9716 24.4228 77.3697 29.5835 75.9716C29.5835 75.9716 30.0532 66.69 30.0532 64.0196C30.0532 61.3478 28.8626 60.1244 26.5981 60.1198C23.1025 60.1114 21.0972 60.1199 21.0972 60.1199Z" fill="#F9C886"/>
<path opacity="0.5" d="M26.5981 60.3943H26.3534C26.3534 60.3943 27.2712 63.0583 27.4942 64.0196C27.7158 64.9807 26.4504 76.5219 26.4504 76.5219H27.5405C27.5405 76.5219 28.9863 67.4724 28.8807 65.6719C28.7725 63.8695 26.5981 60.3943 26.5981 60.3943Z" fill="#F9C886"/>
<path d="M25.8837 60.218L25.7453 58.9322L23.9437 58.5302L23.7621 60.218C23.7621 60.218 25.2621 60.8054 25.8837 60.218Z" fill="#FFC4BD"/>
<path opacity="0.4" d="M27.8572 75.992L27.5548 76.3934L27.2529 76.4354C27.2529 76.4354 26.9851 77.491 27.5461 77.3379C28.2508 77.1479 29.4438 76.5754 29.4438 76.5754L27.8572 75.992Z" fill="#5D5D5D"/>
<path d="M20.9842 60.6001L20.8695 60.0219C20.8695 60.0219 23.1055 59.8846 23.2188 59.8273C23.33 59.7713 24.0821 60.3175 24.0821 62.7475C24.0821 65.1776 22.6048 76.0566 22.7604 76.9887C22.9161 77.9213 19.7059 76.3671 19.7059 76.3671C19.7059 76.3671 18.4841 72.8836 19.7059 69.5826C20.9261 66.2792 20.9842 60.6001 20.9842 60.6001Z" fill="#FED948"/>
<path d="M23.816 59.5836C23.816 59.5836 23.1034 59.4844 23.1786 59.8541C23.2534 60.2254 23.646 60.904 23.646 60.904L24.3502 60.4476L23.816 59.5836Z" fill="#E2EEEE"/>
<path d="M26.0448 59.8052C26.0448 59.8052 28.5571 59.7385 29.5559 60.6149C30.2858 61.2555 30.9487 62.3272 30.8408 65.0148C30.5003 73.6609 31.6938 75.992 29.8175 76.4807C29.2323 76.6326 27.4749 77.0721 27.4749 77.0721C27.4749 77.0721 28.618 67.8159 28.2613 64.9513C28.0989 63.645 26.0448 59.8052 26.0448 59.8052Z" fill="#FED948"/>
<path d="M25.8203 59.5363C25.8203 59.5363 26.7048 59.4844 26.6296 59.8541C26.5559 60.2254 26.1611 60.9039 26.1611 60.9039L25.4581 60.4476L25.8203 59.5363Z" fill="#E2EEEE"/>
<path d="M24.1609 60.3175C24.1609 60.3175 24.7601 60.671 25.0722 60.621C25.0722 60.621 25.6186 63.1362 25.683 63.9833C25.7474 64.8317 25.683 64.9807 25.683 64.9807H25.8321C25.8321 64.9807 25.9498 64.3129 25.8321 63.4126C25.7138 62.5112 25.2565 60.6035 25.2565 60.6035L25.7251 60.4025L25.6512 60.3175C25.6512 60.3175 24.9366 60.6574 24.3384 60.2752C23.7422 59.8937 24.1609 60.3175 24.1609 60.3175Z" fill="#E2EEEE"/>
<path d="M24.2424 58.7947L24.0821 59.0166C24.0821 59.0166 25.7138 59.3248 25.8203 59.5363L25.7665 59.1029L24.2424 58.7947Z" fill="#D89E9A"/>
<path d="M26.4261 59.316C25.5702 59.2713 24.7665 59.0026 23.9101 58.9742C23.8622 58.7145 23.5538 58.4464 23.3628 58.3064C23.2447 58.2239 23.1064 58.1364 22.9641 58.0672C22.5129 57.7792 21.9529 57.5348 21.8569 57.0741C21.6017 55.9032 22.7839 56.7795 23.2533 56.6355C23.522 56.5568 23.6211 56.4554 23.7535 56.2036C23.8901 55.9461 23.8351 55.6027 23.895 55.3283C24.0589 54.5683 24.4403 54.2775 25.0934 53.9512C25.3883 53.8016 25.8743 53.4988 26.2034 53.4795C27.4021 53.4207 27.156 54.2732 27.3681 54.9092C27.5815 55.5275 27.9694 56.0669 28.1873 56.6871C28.6878 58.1318 28.2326 59.4035 26.4261 59.316Z" fill="#FFC4BD"/>
<path d="M27.4617 54.4587C27.3527 54.0828 27.1696 53.7889 26.626 53.7591C25.9258 53.7205 24.9186 54.3702 24.4289 54.8428C24.1061 55.1542 24.2221 55.3759 24.0829 55.7767C23.9506 56.1629 24.0014 56.5673 23.1505 56.7553C22.9995 56.7882 22.6817 56.5832 22.5283 56.5613C22.0691 56.4985 22.0145 56.3857 21.9848 56.9526C21.947 57.5921 22.6404 57.8348 22.5956 57.8897C21.2143 57.1573 21.44 56.1248 21.7927 54.8844C22.1871 53.5045 22.1316 53.8105 23.188 53.3736C23.4061 53.2823 23.5778 53.1888 23.7745 53.0619C24.3238 52.7053 24.7782 52.0192 25.4159 51.82C26.2873 51.5442 26.0208 51.8554 26.3227 52.3072C26.8285 53.0657 28.2249 53.4286 27.4617 54.4587Z" fill="#313B6B"/>
<path d="M32.0288 66.9683V71.4923C32.0288 71.7361 31.8281 71.9362 31.5834 71.9362H24.9308C24.6851 71.9362 24.4842 71.7361 24.4842 71.4923V66.9683C24.4842 66.7246 24.6851 66.5251 24.9308 66.5251H31.5834C31.8281 66.5251 32.0288 66.7246 32.0288 66.9683Z" fill="#37AEFD"/>
<path d="M32.0288 67.4083V71.7752C32.0288 72.0174 31.8281 72.2157 31.5834 72.2157H24.9308C24.6851 72.2157 24.4842 72.0173 24.4842 71.7752V67.4083H32.0288ZM30.6536 66.8657C30.6355 66.8656 30.6175 66.8691 30.6008 66.8759C30.584 66.8827 30.5687 66.8928 30.5559 66.9055C30.543 66.9182 30.5328 66.9332 30.5259 66.9499C30.5189 66.9665 30.5153 66.9843 30.5153 67.0024C30.5153 67.0766 30.5777 67.139 30.6536 67.139C30.7296 67.139 30.7908 67.0766 30.7908 67.0024C30.7909 66.9844 30.7875 66.9666 30.7806 66.95C30.7738 66.9334 30.7637 66.9183 30.7509 66.9056C30.7382 66.8929 30.723 66.8828 30.7063 66.8759C30.6896 66.8691 30.6717 66.8656 30.6536 66.8657ZM31.0301 66.8657C30.9543 66.8657 30.8939 66.9258 30.8939 67.0024C30.8939 67.0766 30.9543 67.139 31.0301 67.139C31.1067 67.139 31.1693 67.0766 31.1693 67.0024C31.1693 66.9258 31.1067 66.8657 31.0301 66.8657ZM31.4083 66.8657C31.3307 66.8657 31.271 66.9258 31.271 67.0024C31.271 67.0203 31.2745 67.0381 31.2813 67.0547C31.2882 67.0713 31.2983 67.0864 31.3111 67.0991C31.3238 67.1118 31.339 67.1218 31.3557 67.1287C31.3724 67.1355 31.3903 67.139 31.4083 67.139C31.4841 67.139 31.5446 67.0766 31.5446 67.0024C31.5446 66.9258 31.4841 66.8657 31.4083 66.8657Z" fill="#ECECEC"/>
<path d="M28.0299 69.2729C28.0299 69.9991 27.4377 70.5859 26.7093 70.5859C25.9806 70.5859 25.3883 69.9991 25.3883 69.2729C25.3883 68.55 25.9806 67.9616 26.7093 67.9616C27.4377 67.9617 28.0299 68.5501 28.0299 69.2729Z" fill="#37AEFD"/>
<path d="M30.0793 68.4542H28.6669C28.6415 68.4541 28.6171 68.4441 28.5991 68.4263C28.5811 68.4084 28.5709 68.3843 28.5708 68.359C28.5708 68.3079 28.6139 68.2654 28.6669 68.2654H30.0793C30.1331 68.2654 30.1733 68.3079 30.1733 68.359C30.1733 68.4111 30.1331 68.4542 30.0793 68.4542ZM31.4278 69.2038H28.6669C28.6139 69.2038 28.5708 69.1617 28.5708 69.1096C28.5708 69.0578 28.6139 69.0155 28.6669 69.0155H31.4278C31.4776 69.0155 31.5197 69.0578 31.5197 69.1096C31.5197 69.1617 31.4776 69.2038 31.4278 69.2038ZM31.4278 69.6014H28.6669C28.6415 69.6015 28.6171 69.5915 28.5991 69.5737C28.5811 69.5559 28.5709 69.5318 28.5708 69.5065C28.5708 69.4559 28.6139 69.4134 28.6669 69.4134H31.4278C31.4776 69.4134 31.5197 69.4559 31.5197 69.5065C31.5197 69.5589 31.4776 69.6014 31.4278 69.6014ZM31.4278 69.9991H28.6669C28.6139 69.9991 28.5708 69.9554 28.5708 69.905C28.5708 69.8535 28.6139 69.8103 28.6669 69.8103H31.4278C31.4776 69.8103 31.5197 69.8535 31.5197 69.905C31.5197 69.9554 31.4776 69.9991 31.4278 69.9991ZM31.4278 70.3959H28.6669C28.6415 70.396 28.6171 70.386 28.5991 70.3682C28.5811 70.3504 28.5709 70.3262 28.5708 70.301C28.5708 70.2493 28.6139 70.2088 28.6669 70.2088H31.4278C31.4776 70.2088 31.5197 70.2493 31.5197 70.301C31.5197 70.3534 31.4776 70.3959 31.4278 70.3959ZM31.4278 70.7928H28.6669C28.6139 70.7928 28.5708 70.7508 28.5708 70.6992C28.5708 70.6465 28.6139 70.6057 28.6669 70.6057H31.4278C31.4776 70.6057 31.5197 70.6465 31.5197 70.6992C31.5197 70.7508 31.4776 70.7928 31.4278 70.7928Z" fill="#1B284E"/>
<path d="M22.3076 70.1644C22.3076 70.1644 23.7612 70.0238 23.8862 69.486C24.057 68.7445 24.4825 68.4583 24.4825 68.4583V69.4651C24.4825 69.4651 26.1236 68.702 27.3616 69.0632C27.3616 69.0632 27.9568 70.7163 26.0172 71.0116C24.0773 71.3092 22.3077 72.3677 22.3077 72.3677V70.1644H22.3076Z" fill="#FFC4BD"/>
<path d="M18.8789 62.154C18.8789 62.154 20.2434 59.4844 21.0972 60.1199C21.9493 60.7551 23.1025 62.111 21.6938 64.9512C20.2879 67.7915 19.2651 70.7996 19.2651 70.7996L22.5475 69.6556V72.6234C22.5475 72.6234 17.429 75.6746 16.7482 74.8688C16.0643 74.064 18.8789 62.154 18.8789 62.154Z" fill="#113A5A"/>
<path d="M91.655 67.8737C91.655 67.8737 90.515 73.8554 90.2588 74.3321C90.0022 74.8095 86.8034 77.5829 86.8034 77.5829L87.5487 78.8742C87.5487 78.8742 90.8598 77.1197 91.8289 75.555C92.7986 73.9885 95.3007 66.7785 94.218 65.9803C93.1357 65.1812 91.6995 67.8182 91.6995 67.8182L91.655 67.8737Z" fill="url(#paint7_linear_1_75)"/>
<path d="M84.8148 78.4292C84.6294 78.4704 84.3049 78.4885 84.035 78.2251C83.9569 78.1481 84.0202 78.0207 84.13 78.0222C84.3106 78.0278 84.4977 77.788 84.9402 77.9121C85.8192 78.1577 86.6218 77.962 86.6218 77.962L87.0405 78.7935C87.0405 78.7935 86.5328 79.7383 86.017 79.9945C85.53 80.2353 84.4217 81.056 83.3423 80.3796C83.229 80.3091 83.1993 80.1566 83.2827 80.0517C83.5318 79.7331 84.0626 79.0942 84.4787 78.8357C84.6858 78.7064 84.808 78.6117 84.8769 78.5429C84.924 78.4944 84.8809 78.4156 84.8148 78.4292Z" fill="#FFDCB0"/>
<path d="M86.8034 77.5829L86.5114 77.9366L87.0518 78.8828L87.5487 78.8742L86.8034 77.5829Z" fill="#2B3990"/>
<path d="M89.5074 76.6295C90.3699 74.8985 91.2431 73.1319 91.4947 71.2339C91.6322 70.213 91.0806 69.1799 91.2343 68.1611C91.3897 67.1237 94.4638 65.0164 95.2583 64.1593C95.2775 64.14 95.4963 63.0262 95.5137 63.0038C95.6962 63.0993 95.868 63.2135 96.0151 63.3587C96.666 63.9993 96.6928 64.9779 96.8051 65.8606C97.0059 67.4383 97.5997 68.9463 98.0586 70.477C99.0834 73.8935 99.4415 77.4509 99.7952 80.9855C99.8274 81.3183 99.8563 81.6765 99.6672 81.9602C99.4376 82.3074 98.9681 82.4214 98.5434 82.5048C96.4047 82.9238 94.2464 83.2566 92.0776 83.5043C90.8428 83.6455 89.5759 83.7564 88.367 83.4737C88.16 83.4261 87.9474 83.3626 87.7878 83.2282C87.4448 82.9431 87.4464 82.4461 87.5061 82.0221C87.7703 80.1248 88.6453 78.3613 89.5074 76.6295Z" fill="url(#paint8_linear_1_75)"/>
<path d="M94.3824 64.9059C94.3824 64.9059 94.6007 64.4467 94.2373 64.1094C93.8725 63.7698 94.3576 63.0301 95.5982 63.3648C96.838 63.6973 96.5353 64.0929 96.5353 64.0929C96.5353 64.0929 94.8874 65.0929 94.3824 64.9059Z" fill="url(#paint9_linear_1_75)"/>
<path d="M92.8658 59.9255C94.0279 60.3115 95.1896 60.6987 96.3509 61.087C96.7325 61.2132 97.182 61.4213 97.2134 61.8195C97.2326 62.0627 97.0819 62.2804 96.9859 62.5037C96.7697 63.0083 96.8428 63.6257 97.1714 64.0656C97.4898 64.493 98.001 64.7329 98.3668 65.1175C99.0967 65.8847 99.1312 67.0499 99.1551 68.1015C99.1879 69.5348 99.2774 70.9662 99.4232 72.3925C99.5329 73.4612 99.7872 74.696 100.751 75.1802C101.773 75.6955 103.088 74.9891 103.584 73.9632C104.083 72.9366 103.964 71.7259 103.73 70.6101C103.58 69.8982 103.387 69.1617 103.563 68.4559C103.742 67.7439 104.287 67.1163 104.254 66.3827C104.219 65.5935 103.54 65.0092 102.951 64.4786C102.047 63.6581 101.234 62.7277 100.61 61.679C99.9879 60.6273 100.316 58.7831 99.7061 57.7218C99.1003 56.6611 98.1747 55.7314 97.0327 55.2869C95.8873 54.8435 93.7294 55.7359 93.0706 56.7693C92.5097 57.6537 92.6728 58.7962 92.8592 59.8273" fill="#1C244D"/>
<path d="M103.127 102.721C103.383 103.118 103.636 103.512 103.893 103.908C104.079 104.198 104.32 104.521 104.667 104.534C104.768 104.539 104.873 104.515 104.969 104.552C105.18 104.635 105.176 104.929 105.132 105.15C104.913 106.284 104.654 107.494 103.822 108.294C103.676 108.434 103.485 108.566 103.288 108.523C103.093 108.48 102.995 108.161 103.182 108.084C103.112 108.041 103.012 108.056 102.957 108.117C102.753 107.992 102.768 107.692 102.836 107.463C102.961 107.04 103.178 106.649 103.313 106.227C103.446 105.807 103.485 105.326 103.264 104.944C103.084 104.635 102.763 104.436 102.523 104.171C102.284 103.907 102.132 103.483 102.353 103.202C102.571 102.925 102.993 102.959 103.339 103.02" fill="#EAE0B7"/>
<path d="M103.285 105.239L104.027 104.105C104.027 104.105 105.34 104.603 105.569 105.028C105.732 105.33 104.674 107.364 104.133 108.436C103.911 108.878 102.091 108.677 102.091 108.677C102.091 108.677 102.035 108.738 101.766 108.338C101.5 107.938 102.954 107.685 103.118 106.584C103.221 105.886 103.285 105.239 103.285 105.239Z" fill="#343736"/>
<path d="M93.9474 104C93.9474 104.47 93.9474 104.94 93.949 105.41C93.949 105.754 93.9771 106.156 94.2602 106.352C94.345 106.41 94.4465 106.446 94.5081 106.528C94.6408 106.711 94.4773 106.957 94.3207 107.12C93.5218 107.958 92.648 108.84 91.5119 109.068C91.3141 109.108 91.0826 109.118 90.9396 108.976C90.7962 108.835 90.8895 108.515 91.0883 108.549C91.0521 108.474 90.9585 108.434 90.8809 108.457C90.7753 108.243 90.9511 107.997 91.1325 107.838C91.4655 107.549 91.8626 107.337 92.2033 107.055C92.5433 106.77 92.837 106.388 92.8582 105.946C92.8745 105.589 92.7105 105.251 92.6537 104.899C92.5942 104.547 92.6943 104.109 93.0342 103.991C93.3673 103.874 93.7033 104.128 93.9644 104.364" fill="#EAE0B7"/>
<path d="M97.7993 66.4269C97.779 67.5801 97.6992 68.7468 98.0776 69.8569C98.3714 70.7208 99.0428 71.472 99.5298 72.281C100.247 73.4755 100.564 74.8134 100.442 76.1298C100.416 76.4195 100.365 76.7147 100.187 76.9681C99.9332 77.326 99.4634 77.5517 98.9994 77.7366C96.9186 78.5611 94.5159 78.8765 92.2071 78.63C91.9605 78.6038 91.6961 78.5639 91.5254 78.4224C91.3044 78.2408 91.3102 77.9582 91.3409 77.7065C91.4655 76.7114 91.775 75.7289 92.2542 74.8004C92.5961 74.1405 93.0273 73.5004 93.2137 72.8017C93.3982 72.1041 93.2951 71.3104 92.6787 70.7854C92.5008 70.6335 92.2869 70.5104 92.1141 70.3534C91.6156 69.9039 91.5454 69.2366 91.7414 68.6617C91.9384 68.0858 92.364 67.5778 92.7861 67.08C93.6485 66.0616 94.7348 65.6117 95.5982 64.5918C95.5982 64.5918 97.8512 63.2878 97.7993 66.4269Z" fill="#ECECEC"/>
<path d="M94.4525 80.3868C94.6781 83.2611 95.8948 85.9528 96.4605 88.7778C96.7123 90.0324 96.8331 91.3099 97.0845 92.5637C97.6532 95.4221 98.872 98.0974 100.08 100.743C100.59 101.861 101.126 103.014 102.035 103.831C102.386 104.146 102.948 104.395 103.289 104.072C103.487 103.885 103.516 103.576 103.49 103.3C103.38 102.13 102.554 101.181 102.065 100.116C101.399 98.6706 101.366 97.0232 101.331 95.4273C101.236 91.0866 101.05 86.7483 100.774 82.4152C100.692 81.0937 100.586 79.7316 99.9884 78.5556C99.3894 77.3799 98.1612 76.429 96.8667 76.5856C96.1243 76.6754 95.4703 77.102 94.7733 77.373C93.5247 77.8609 92.6055 78.0237 91.3715 77.4979C91.0424 82.1255 90.8886 86.5872 91.2488 91.2116C91.3316 92.2741 91.4168 93.3337 91.4992 94.3944C91.7348 97.4058 91.9698 100.417 92.2055 103.428C92.2666 104.204 92.5367 105.201 93.3039 105.237C94.02 105.273 94.4093 104.406 94.5446 103.69C95.121 100.633 94.7004 97.4874 94.5137 94.3815C94.3256 91.2746 94.41 88.0085 95.8759 85.2748" fill="#202953"/>
<path d="M98.724 64.4167C98.892 64.4264 99.0343 64.3911 99.1535 64.3328C99.1745 64.3475 99.1965 64.3606 99.2168 64.3776C99.4232 64.5409 99.6257 64.7228 99.7335 64.9627C99.8756 65.2772 99.8379 65.6389 99.8023 65.9797C99.6806 67.1278 99.6046 68.2803 99.5747 69.4344C99.5471 70.4992 99.5607 71.5723 99.7632 72.6172C99.9245 73.4293 100.195 74.2113 100.469 74.9943C101.383 77.62 102.337 80.3171 104.182 82.4056C104.537 82.811 104.953 83.3458 104.705 83.8236C104.537 84.1467 104.136 84.2606 103.783 84.3448C102.317 84.6886 100.622 84.9886 99.4376 84.067C98.4781 83.3212 98.1883 82.0065 98.1553 80.7984C98.1231 79.588 98.2746 78.3511 97.9337 77.19C97.7458 76.5498 97.4131 75.9601 97.2084 75.3247C97.0117 74.7131 96.9377 74.0708 96.8561 73.4336C96.5718 71.1936 96.0831 70.0621 95.6039 67.8564C95.5359 67.5409 96.1462 65.97 95.9551 65.7115C95.9188 65.6613 95.8794 65.6179 95.8384 65.5765C96.8001 64.7426 97.4354 64.3486 98.724 64.4167Z" fill="url(#paint10_linear_1_75)"/>
<path d="M101.48 80.5836L101.93 81.269L99.0294 82.1255L98.8241 81.3529L101.48 80.5836Z" fill="#202953"/>
<path d="M92.6164 105.994L94.1789 105.763C94.1789 105.763 94.7195 106.603 94.6829 107.084C94.6559 107.426 92.8715 108.529 91.8347 109.143C91.408 109.396 90.7025 109.154 90.7025 109.154C90.7025 109.154 90.6218 109.177 90.6132 108.695C90.6043 108.213 91.3658 107.391 91.9813 107.037C92.5972 106.688 92.6164 105.994 92.6164 105.994Z" fill="#343736"/>
<path d="M97.055 63.1847C97.227 63.5554 97.2598 64.0209 97.0184 64.3531C96.7783 64.6848 95.8392 65.6541 95.581 65.3342C95.505 65.2381 95.8372 64.2381 95.7681 64.1359C95.3445 63.5288 94.195 63.8235 93.8291 63.1813C93.7665 63.0748 93.717 62.9579 93.7074 62.8348C93.6132 61.5915 93.1751 61.8931 93.2839 61.0943C93.3192 60.8251 93.1541 60.5614 93.1751 60.2894C93.2022 59.9373 93.3731 59.613 93.5431 59.3023C93.7503 58.9168 93.958 58.5321 94.1653 58.1469C94.2038 58.0737 94.2453 57.9978 94.3163 57.9513C94.5053 57.8249 94.7531 57.987 94.9041 58.156C95.3113 58.6094 95.5897 59.1719 96.0323 59.5914C96.4741 60.0115 97.1866 60.2566 97.6956 59.9208C97.8856 59.7951 98.0653 59.5905 98.2882 59.6297C98.4611 59.6595 98.5762 59.8397 98.5831 60.0149C98.5923 60.1884 98.5166 60.3555 98.4331 60.5086C98.1575 61.0042 97.7674 61.4265 97.4469 61.8953" fill="#EAE0B7"/>
<path d="M97.9089 67.5885C97.9089 67.5885 100.754 72.9789 100.852 73.5108C100.949 74.0423 100.177 78.1911 100.177 78.1911L101.569 78.7421C101.569 78.7421 103.066 75.3236 102.846 73.4984C102.627 71.6732 100.079 64.4781 98.7315 64.5207C97.3855 64.5628 97.9088 67.5162 97.9088 67.5162V67.5885H97.9089Z" fill="url(#paint11_linear_1_75)"/>
<path d="M96.2068 65.2682C96.2068 65.2682 96.2399 64.2214 96.0937 63.9144C95.9466 63.6083 98.4136 63.0606 98.8335 63.5768C99.2561 64.0924 98.9881 64.5895 98.9881 64.5895L96.2068 65.2682Z" fill="url(#paint12_linear_1_75)"/>
<path d="M99.1484 80.083C99.0274 80.2293 98.7855 80.444 98.4102 80.4044C98.2996 80.3925 98.2699 80.253 98.357 80.1868C98.5019 80.0796 98.4993 79.7757 98.9236 79.6C99.7648 79.2496 100.271 78.601 100.271 78.601L101.119 78.9933C101.119 78.9933 101.313 80.0472 101.068 80.5669C100.838 81.0561 100.482 82.3842 99.2129 82.5214C99.0793 82.5355 98.962 82.4334 98.962 82.2997C98.9584 81.8967 98.9746 81.0681 99.1389 80.6091C99.2203 80.3794 99.2561 80.2293 99.2675 80.134C99.2744 80.0665 99.1907 80.0314 99.1484 80.083Z" fill="#FFDCB0"/>
<path d="M100.177 78.1911L100.169 78.648L101.185 79.0561L101.569 78.7422L100.177 78.1911Z" fill="#2B3990"/>
<path d="M79.3878 104.726L79.1724 107.015H77.1321L77.273 104.327L79.3878 104.726Z" fill="#EAE0B7"/>
<path d="M75.982 107.959L76.9802 106.425H79.567C79.567 106.425 79.7577 107.558 79.3069 108.326C78.8536 109.091 77.7626 109.067 77.7626 109.067L75.982 107.959Z" fill="#343736"/>
<path d="M77.7626 109.067C77.7626 109.067 77.7137 107.582 75.982 107.582C74.2497 107.582 74.5341 109.067 74.5341 109.067H77.7626Z" fill="#404443"/>
<path d="M89.6344 104.726L89.4232 107.015H87.3796L87.5227 104.327L89.6344 104.726Z" fill="#EAE0B7"/>
<path d="M86.2321 107.959L87.2281 106.425H89.8149C89.8149 106.425 90.0052 107.558 89.5557 108.326C89.1045 109.091 88.0106 109.067 88.0106 109.067L86.2321 107.959Z" fill="#343736"/>
<path d="M88.0106 109.067C88.0106 109.067 87.9626 107.582 86.2322 107.582C84.4977 107.582 84.7828 109.067 84.7828 109.067H88.0106Z" fill="#404443"/>
<path d="M77.6352 79.3635L77.0741 105.229C77.0741 105.229 78.6676 106.281 79.6067 105.671C80.546 105.059 82.1161 86.3033 82.1161 86.3033L86.9755 105.115C86.9755 105.115 88.78 106.767 89.72 105.545C90.6581 104.326 86.4011 77.0609 86.4011 77.0609L77.6352 79.3635Z" fill="#DBCD93"/>
<path d="M83.7103 79.1515L83.4643 77.7449L86.4203 76.8458L89.403 98.728L83.7103 79.1515ZM77.4162 70.5303C77.4162 70.5303 74.1443 75.6065 73.6295 75.4614C72.918 75.2605 72.4762 75.4857 72.4762 75.4857L73.3329 75.9535C73.3329 75.9535 71.9182 76.9795 71.6522 78.1889C71.6522 78.1889 72.7816 79.4611 73.9379 77.9654C75.0919 76.4702 79.3878 72.4913 79.3878 72.4913L77.4162 70.5303Z" fill="#EAE0B7"/>
<path d="M86.7272 75.2301C86.3118 75.4343 85.9495 75.5885 85.7096 75.6791C84.6898 76.0714 84.9162 74.5287 84.9162 74.5287C84.9162 74.5287 85.6385 73.7762 86.3512 73.0207C86.4972 73.7555 86.6315 74.5067 86.7272 75.2301Z" fill="#4D73B9"/>
<path d="M78.5378 60.9779L78.7769 59.5601L80.98 59.3449L81.2949 60.8734C81.2949 60.8734 81.021 62.2975 78.5378 60.9779Z" fill="#EAE0B7"/>
<path d="M88.9009 67.5659C88.827 67.6651 88.7481 67.764 88.6667 67.8505C88.3025 68.2428 87.8567 68.5371 87.5024 68.7315C87.3337 68.8281 87.1848 68.8979 87.0742 68.9498C86.9466 69.0105 86.8704 69.0382 86.8704 69.0382C86.8704 69.0382 85.7471 67.1359 85.4213 67.9979C85.2667 68.4069 85.8748 70.6216 86.3511 73.0207C85.6383 73.7762 84.9161 74.5288 84.9161 74.5288C84.9161 74.5288 84.6898 76.0714 85.7096 75.6792C85.9494 75.5885 86.3117 75.4344 86.7272 75.2302C86.9743 77.1211 86.958 78.8063 86.2176 79.4492C84.827 80.6511 81.5889 81.3977 79.4165 81.2492C78.5378 81.1879 77.8291 80.9788 77.4889 80.5972C76.3065 79.266 76.1646 71.1767 76.1646 69.0235C76.1646 66.8708 75.9369 64.1955 76.5583 62.7096C76.885 61.9322 78.5703 60.2056 78.5703 60.2056C78.5972 60.239 78.6242 60.2679 78.655 60.2965C80.0695 61.772 81.2882 59.8116 81.2882 59.8116C84.721 58.8427 88.9957 63.9047 89.323 65.9513C89.4232 66.588 89.2232 67.1248 88.9009 67.5659Z" fill="#FF6363"/>
<path d="M88.9009 67.5659C88.827 67.6651 88.7481 67.764 88.6667 67.8505C88.4177 67.4026 87.5629 65.9535 87.2892 66.7918C87.2127 67.0194 87.3191 67.7396 87.5024 68.7315C87.3337 68.8281 87.1848 68.8979 87.0742 68.9498C86.9466 69.0105 86.8704 69.0382 86.8704 69.0382C86.8704 69.0382 85.7471 67.1359 85.4213 67.9979C85.2667 68.4069 85.8748 70.6216 86.3511 73.0207C85.6383 73.7762 84.9161 74.5288 84.9161 74.5288C84.9161 74.5288 84.6898 76.0714 85.7096 75.6792C85.9494 75.5885 86.3117 75.4344 86.7272 75.2302C86.9743 77.1211 86.958 78.8063 86.2176 79.4492C84.827 80.6511 81.5889 81.3977 79.4165 81.2492C79.3952 81.2245 79.3732 81.2004 79.3551 81.1765C78.1729 79.6583 78.0326 70.4214 78.0326 67.963C78.0326 65.5057 77.8038 62.4517 78.4273 60.7552C78.4761 60.6211 78.5552 60.4658 78.655 60.2965C80.0695 61.772 81.2882 59.8116 81.2882 59.8116C84.721 58.8427 88.9957 63.9047 89.323 65.9513C89.4232 66.588 89.2232 67.1248 88.9009 67.5659Z" fill="url(#paint13_linear_1_75)"/>
<path d="M90.1166 72.3042C90.0351 73.4057 88.0875 74.5719 86.7272 75.2301C86.3118 75.4343 85.9495 75.5885 85.7096 75.6791C84.6898 76.0714 84.9162 74.5287 84.9162 74.5287C84.9162 74.5287 85.6385 73.7762 86.3512 73.0207C86.9223 72.4193 87.4853 71.8118 87.6621 71.5882C87.9337 71.2407 87.4238 69.8114 87.0742 68.9497C87.4704 68.7709 88.3621 68.3094 88.9009 67.5658C89.3801 68.8831 90.1925 71.2865 90.1166 72.3042Z" fill="#EAE0B7"/>
<path d="M84.6448 73.2192H85.367C85.367 73.2192 84.7714 74.8531 85.4571 75.8946C86.1444 76.9346 85.367 77.061 85.367 77.061C85.367 77.061 84.392 75.0853 84.6448 73.2192Z" fill="#E3B433"/>
<path d="M68.2218 72.5239L74.0571 76.454L72.6254 79.9213L65.1671 75.188L67.2097 73.2666L68.2218 72.5239Z" fill="white"/>
<path d="M74.1191 76.4506L72.6454 79.982L65.1035 75.1927L67.1712 73.2329L67.1752 73.2298L68.2121 72.4715L74.1191 76.4506ZM72.6037 79.8612L73.9935 76.457L68.2328 72.578L67.2492 73.2975L65.2295 75.1854L72.6037 79.8612Z" fill="url(#paint14_linear_1_75)"/>
<path d="M68.2218 72.5239L68.2583 72.5475L68.3889 73.2115L67.1577 73.3417L67.2098 73.2666L68.2218 72.5239Z" fill="url(#paint15_linear_1_75)"/>
<path d="M67.2642 73.285L68.3363 73.1728L68.219 72.588L67.2642 73.285Z" fill="url(#paint16_linear_1_75)"/>
<path d="M66.952 74.7391L66.498 75.403C66.4875 75.4178 66.4644 75.4188 66.4452 75.4064C66.4268 75.3928 66.4181 75.3712 66.4278 75.3565L66.8819 74.6933C66.8916 74.6779 66.9151 74.6773 66.9332 74.6898C66.9532 74.7035 66.9618 74.7244 66.952 74.7391ZM67.1589 74.88L66.7066 75.5442C66.6968 75.5592 66.6736 75.56 66.6534 75.5473C66.6364 75.5345 66.627 75.5119 66.6373 75.4986L67.0897 74.8332C67.1005 74.8185 67.1232 74.818 67.1425 74.8293C67.1618 74.8424 67.1696 74.8668 67.1589 74.88ZM67.367 75.0203L66.9157 75.6864C66.9054 75.6989 66.882 75.7004 66.8627 75.6877C66.8438 75.6745 66.8372 75.6525 66.845 75.6378L67.3001 74.9733C67.3098 74.9586 67.3324 74.958 67.3519 74.9716C67.3707 74.9841 67.3776 75.0062 67.367 75.0203ZM72.6758 76.2177L72.2237 76.8828C72.2137 76.8974 72.191 76.8992 72.1719 76.8861C72.1524 76.8731 72.1427 76.8504 72.1545 76.8356L72.6078 76.1724C72.6157 76.1576 72.6413 76.1576 72.6608 76.1685C72.679 76.1815 72.6864 76.2044 72.6758 76.2177ZM72.886 76.3583L72.4331 77.0243C72.4223 77.038 72.3994 77.0391 72.3812 77.0256C72.3618 77.0131 72.3532 76.9924 72.3629 76.9767L72.8153 76.313C72.8266 76.2976 72.8488 76.296 72.8688 76.3094C72.8893 76.3226 72.8957 76.344 72.886 76.3583ZM73.0956 76.5003L72.6413 77.1662C72.6319 77.1787 72.6078 77.1809 72.5894 77.1678C72.5695 77.1543 72.5626 77.1316 72.5712 77.1179L73.0247 76.453C73.035 76.4397 73.0589 76.4382 73.0782 76.4506C73.0985 76.464 73.1045 76.486 73.0956 76.5003ZM69.0017 73.7437L67.4372 76.0365C67.4284 76.0515 67.4035 76.0516 67.3864 76.0395C67.3661 76.026 67.3589 76.0034 67.367 75.9904L68.9326 73.6965C68.9428 73.6826 68.965 73.6806 68.9841 73.6938C69.0035 73.7065 69.0114 73.7282 69.0017 73.7437ZM69.2103 73.883L67.6475 76.1769C67.636 76.1919 67.6129 76.1927 67.5939 76.18C67.5756 76.1667 67.5669 76.1456 67.5775 76.1309L69.1409 73.8372C69.1505 73.8225 69.1738 73.8213 69.1927 73.8327C69.2118 73.8474 69.2198 73.8691 69.2103 73.883ZM69.4184 74.0237L67.855 76.318C67.8465 76.3328 67.8213 76.3333 67.8033 76.3203C67.7833 76.3094 67.7763 76.2863 67.7866 76.271L69.3483 73.9777C69.3589 73.9632 69.3831 73.9619 69.402 73.9749C69.4214 73.9877 69.4287 74.0113 69.4184 74.0237ZM69.8418 74.3077L68.2776 76.6015C68.2681 76.6168 68.2449 76.618 68.2236 76.605C68.2064 76.5929 68.197 76.5698 68.2064 76.5556L69.771 74.2619C69.7813 74.2471 69.8053 74.2471 69.8258 74.259C69.8441 74.2715 69.8526 74.2947 69.8418 74.3077ZM70.0495 74.4501L68.486 76.7427C68.4775 76.758 68.4523 76.7599 68.4351 76.746C68.4158 76.733 68.4084 76.7103 68.4158 76.6956L69.9812 74.4013C69.9899 74.3883 70.0138 74.3878 70.0322 74.3995C70.0522 74.4124 70.0611 74.4347 70.0495 74.4501ZM70.2605 74.5895L68.6953 76.8836C68.6844 76.8991 68.6617 76.9002 68.6426 76.8861C68.6234 76.8742 68.6165 76.8504 68.625 76.8368L70.1906 74.5431C70.2 74.5288 70.2243 74.5275 70.2405 74.5396C70.2615 74.5535 70.2672 74.576 70.2605 74.5895ZM70.6832 74.8757L69.1179 77.1678C69.1082 77.1822 69.0842 77.1838 69.064 77.1698C69.0467 77.1579 69.0381 77.1355 69.0486 77.1211L70.6124 74.8276C70.6226 74.8135 70.6465 74.8111 70.6648 74.8256C70.6843 74.8373 70.69 74.8599 70.6832 74.8757ZM70.8896 75.0147L69.3284 77.3082C69.3176 77.3226 69.2935 77.325 69.2742 77.3115C69.2543 77.2982 69.2458 77.2766 69.2563 77.2619L70.8205 74.9688C70.83 74.9546 70.8551 74.9518 70.8725 74.9648C70.8924 74.9784 70.9001 75.0008 70.8896 75.0147ZM71.0981 75.1558L69.5346 77.4479C69.5261 77.4633 69.5011 77.466 69.4827 77.453C69.4644 77.44 69.4568 77.4176 69.4655 77.4023L71.0299 75.1095C71.0394 75.0952 71.0619 75.0935 71.0816 75.1069C71.1008 75.1195 71.1087 75.1411 71.0981 75.1558ZM71.5205 75.4405L69.9572 77.7338C69.9475 77.7484 69.9227 77.7484 69.9057 77.7366C69.8862 77.7229 69.8783 77.7019 69.8878 77.6872L71.4514 75.3929C71.4623 75.3786 71.4839 75.3775 71.5044 75.3906C71.5244 75.403 71.531 75.4257 71.5205 75.4405ZM71.731 75.5807L70.1663 77.8742C70.1571 77.8895 70.1338 77.8907 70.1128 77.8782C70.0946 77.8645 70.0868 77.8425 70.0967 77.828L71.6599 75.5346C71.6705 75.5193 71.6944 75.5188 71.7138 75.5306C71.7321 75.5443 71.7406 75.5669 71.731 75.5807ZM71.938 75.7211L70.3748 78.0148C70.3654 78.0299 70.3413 78.0307 70.3244 78.0179C70.3039 78.0055 70.2944 77.9818 70.3057 77.9683L71.8712 75.6746C71.8785 75.6598 71.9026 75.6593 71.9231 75.6724C71.9423 75.6864 71.9471 75.7068 71.938 75.7211Z" fill="#595A5C"/>
<path d="M72.1805 76.589C72.424 76.7523 72.5221 77.0334 72.3967 77.2186C72.2707 77.4022 71.9723 77.4175 71.7289 77.2522C71.4831 77.0896 71.3871 76.8067 71.5131 76.6224C71.6369 76.4402 71.9374 76.424 72.1805 76.589Z" fill="url(#paint17_linear_1_75)"/>
<path d="M72.8574 75.4766L72.6162 75.4427C72.6162 75.4427 72.2218 75.6864 72.3119 75.8308C72.4052 75.9751 72.9744 75.9969 73.4363 75.8872C73.8955 75.7755 72.8574 75.4766 72.8574 75.4766Z" fill="#EAE0B7"/>
<path d="M78.7001 59.934L78.6743 60.1585C78.6743 60.1585 79.3971 60.5905 79.8543 60.4414C80.3126 60.294 81.0904 59.8886 81.0904 59.8886L81.009 59.4788L78.7001 59.934Z" fill="#DBCD93"/>
<path d="M78.3345 54.3714C78.3345 54.3714 77.2635 55.1044 76.6169 54.6838C75.9707 54.2626 75.6953 52.9787 75.6953 52.9787C75.6953 52.9787 75.9564 53.1927 76.4367 53.229C76.4367 53.229 76.1042 53.319 75.9841 52.6349C75.8622 51.9522 76.8205 53.2948 77.3277 53.3684C77.3277 53.3684 76.6469 52.8934 76.692 52.5129C76.7374 52.1331 77.1772 52.8072 77.4737 52.7811C77.7695 52.7555 78.1703 52.3225 79.356 52.416C80.5419 52.5096 81.3103 54.1859 82.017 53.6082C82.7236 53.03 82.4355 54.721 82.4099 55.3175C82.3837 55.9159 82.6673 58.8654 81.4972 58.3936C80.3286 57.9219 79.7614 55.5925 79.7614 55.5925L78.3345 54.3714Z" fill="#213347"/>
<path d="M79.0554 60.1772C79.0554 60.1772 77.5576 60.3893 77.2935 58.3481C77.0311 56.3109 76.383 55.2977 76.6681 54.4774C76.9533 53.6602 78.0191 53.5261 79.3992 53.9983C80.778 54.4709 81.5504 55.0782 81.3707 55.7676C81.3707 55.7676 82.7892 56.3165 81.5523 57.259C81.5523 57.259 81.6925 59.706 80.5611 60.0439C79.4307 60.3802 79.0554 60.1772 79.0554 60.1772Z" fill="#EAE0B7"/>
<path d="M76.5079 54.0164C76.5079 54.0164 76.6498 54.718 77.6274 54.4926C78.604 54.2664 78.438 54.2664 79.4298 54.3509C80.4222 54.4355 80.5306 55.7231 80.6832 56.5414C80.836 57.3618 80.7119 55.6793 81.3978 55.5727C82.0832 55.4666 81.5368 54.7024 81.5368 54.7024L79.9799 53.5402C79.9799 53.5402 78.2005 52.8559 76.5079 54.0164Z" fill="#213347"/>
</g>
<defs>
<linearGradient id="paint0_linear_1_75" x1="83.8877" y1="90.4873" x2="83.8877" y2="69.1664" gradientUnits="userSpaceOnUse">
<stop stop-color="#BDDCFD"/>
<stop offset="1" stop-color="#59C4F6"/>
</linearGradient>
<linearGradient id="paint1_linear_1_75" x1="27.5666" y1="90.4873" x2="27.5666" y2="69.1664" gradientUnits="userSpaceOnUse">
<stop stop-color="#BDDCFD"/>
<stop offset="1" stop-color="#59C4F6"/>
</linearGradient>
<linearGradient id="paint2_linear_1_75" x1="83.478" y1="87.4625" x2="46.2576" y2="87.4625" gradientUnits="userSpaceOnUse">
<stop stop-color="#BDDCFD"/>
<stop offset="1" stop-color="#59C4F6"/>
</linearGradient>
<linearGradient id="paint3_linear_1_75" x1="30.7506" y1="91.0081" x2="113.045" y2="91.0081" gradientUnits="userSpaceOnUse">
<stop stop-color="#BDDCFD"/>
<stop offset="1" stop-color="#59C4F6"/>
</linearGradient>
<linearGradient id="paint4_linear_1_75" x1="20.5892" y1="74.8379" x2="24.6034" y2="74.8379" gradientUnits="userSpaceOnUse">
<stop stop-color="#045F80"/>
<stop offset="1" stop-color="#1C4F76"/>
</linearGradient>
<linearGradient id="paint5_linear_1_75" x1="25.3843" y1="90.5914" x2="32.03" y2="90.5914" gradientUnits="userSpaceOnUse">
<stop stop-color="#045F80"/>
<stop offset="1" stop-color="#1C4F76"/>
</linearGradient>
<linearGradient id="paint6_linear_1_75" x1="24.6033" y1="75.129" x2="25.3844" y2="75.129" gradientUnits="userSpaceOnUse">
<stop stop-color="#045F80"/>
<stop offset="1" stop-color="#1C4F76"/>
</linearGradient>
<linearGradient id="paint7_linear_1_75" x1="91.9999" y1="71.2677" x2="89.4972" y2="75.6767" gradientUnits="userSpaceOnUse">
<stop stop-color="#E9C433"/>
<stop offset="1" stop-color="#F9ED32"/>
</linearGradient>
<linearGradient id="paint8_linear_1_75" x1="87.4758" y1="73.3266" x2="99.8187" y2="73.3266" gradientUnits="userSpaceOnUse">
<stop stop-color="#E9C433"/>
<stop offset="1" stop-color="#F9ED32"/>
</linearGradient>
<linearGradient id="paint9_linear_1_75" x1="97.0397" y1="66.9122" x2="95.6173" y2="64.6079" gradientUnits="userSpaceOnUse">
<stop offset="0.175" stop-color="#E3B433"/>
<stop offset="1" stop-color="#F9ED32"/>
</linearGradient>
<linearGradient id="paint10_linear_1_75" x1="95.5986" y1="74.5066" x2="104.78" y2="74.5066" gradientUnits="userSpaceOnUse">
<stop stop-color="#E9C433"/>
<stop offset="1" stop-color="#F9ED32"/>
</linearGradient>
<linearGradient id="paint11_linear_1_75" x1="100.3" y1="70.0336" x2="101.06" y2="75.0393" gradientUnits="userSpaceOnUse">
<stop stop-color="#E9C433"/>
<stop offset="1" stop-color="#F9ED32"/>
</linearGradient>
<linearGradient id="paint12_linear_1_75" x1="98.1581" y1="66.9867" x2="97.5331" y2="64.1811" gradientUnits="userSpaceOnUse">
<stop offset="0.175" stop-color="#E3B433"/>
<stop offset="1" stop-color="#F9ED32"/>
</linearGradient>
<linearGradient id="paint13_linear_1_75" x1="88.9935" y1="62.9621" x2="72.4071" y2="80.6681" gradientUnits="userSpaceOnUse">
<stop offset="0.202" stop-color="#FF6363"/>
<stop offset="1" stop-color="#EF4136"/>
</linearGradient>
<linearGradient id="paint14_linear_1_75" x1="65.1035" y1="76.2267" x2="74.1191" y2="76.2267" gradientUnits="userSpaceOnUse">
<stop stop-color="#4B9485"/>
<stop offset="1" stop-color="#2BB673"/>
</linearGradient>
<linearGradient id="paint15_linear_1_75" x1="67.1577" y1="72.9327" x2="68.3889" y2="72.9327" gradientUnits="userSpaceOnUse">
<stop stop-color="#4B9485"/>
<stop offset="1" stop-color="#2BB673"/>
</linearGradient>
<linearGradient id="paint16_linear_1_75" x1="67.2642" y1="72.9365" x2="68.3362" y2="72.9365" gradientUnits="userSpaceOnUse">
<stop stop-color="#4B9485"/>
<stop offset="1" stop-color="#2BB673"/>
</linearGradient>
<linearGradient id="paint17_linear_1_75" x1="71.4577" y1="76.9209" x2="72.4513" y2="76.9209" gradientUnits="userSpaceOnUse">
<stop stop-color="#4B9485"/>
<stop offset="1" stop-color="#2BB673"/>
</linearGradient>
<clipPath id="clip0_1_75">
<rect width="113" height="114" fill="white"/>
</clipPath>
</defs>
</svg>
