<svg width="30" height="31" viewBox="0 0 30 31" fill="none" xmlns="http://www.w3.org/2000/svg">
<path d="M21.25 3H8.75C5.3 3 2.5 5.7875 2.5 9.225V16.7V17.95C2.5 21.3875 5.3 24.175 8.75 24.175H10.625C10.9625 24.175 11.4125 24.4 11.625 24.675L13.5 27.1625C14.325 28.2625 15.675 28.2625 16.5 27.1625L18.375 24.675C18.6125 24.3625 18.9875 24.175 19.375 24.175H21.25C24.7 24.175 27.5 21.3875 27.5 17.95V9.225C27.5 5.7875 24.7 3 21.25 3ZM10 15.5C9.3 15.5 8.75 14.9375 8.75 14.25C8.75 13.5625 9.3125 13 10 13C10.6875 13 11.25 13.5625 11.25 14.25C11.25 14.9375 10.7 15.5 10 15.5ZM15 15.5C14.3 15.5 13.75 14.9375 13.75 14.25C13.75 13.5625 14.3125 13 15 13C15.6875 13 16.25 13.5625 16.25 14.25C16.25 14.9375 15.7 15.5 15 15.5ZM20 15.5C19.3 15.5 18.75 14.9375 18.75 14.25C18.75 13.5625 19.3125 13 20 13C20.6875 13 21.25 13.5625 21.25 14.25C21.25 14.9375 20.7 15.5 20 15.5Z" fill="white"/>
</svg>
