<svg width="231" height="182" viewBox="0 0 231 182" fill="none" xmlns="http://www.w3.org/2000/svg">
<path d="M40.1416 157.082C34.2736 152.57 8.38478 131.56 5.71118 101.147C1.95998 58.4848 46.9432 31.84 59.2816 24.52C87.5728 7.7728 155.577 -17.5016 198.69 20.2528C233.222 50.4928 230.51 106.11 209.159 137.93C173.975 190.36 86.7064 192.885 40.1416 157.082Z" fill="#EFF5F9"/>
<path d="M197.762 82.6552H183.148C182.883 82.6552 182.668 82.8701 182.668 83.1352V89.1184C182.668 89.3835 182.883 89.5984 183.148 89.5984H197.762C198.027 89.5984 198.242 89.3835 198.242 89.1184V83.1352C198.242 82.8701 198.027 82.6552 197.762 82.6552Z" stroke="#C9EFFB" stroke-width="2" stroke-miterlimit="10"/>
<path d="M197.762 96.5176H183.148C182.883 96.5176 182.668 96.7325 182.668 96.9976V102.981C182.668 103.246 182.883 103.461 183.148 103.461H197.762C198.027 103.461 198.242 103.246 198.242 102.981V96.9976C198.242 96.7325 198.027 96.5176 197.762 96.5176Z" stroke="#C9EFFB" stroke-width="2" stroke-miterlimit="10"/>
<path d="M205.547 89.5984H190.934C190.669 89.5984 190.454 89.8133 190.454 90.0784V96.0616C190.454 96.3267 190.669 96.5416 190.934 96.5416H205.547C205.812 96.5416 206.027 96.3267 206.027 96.0616V90.0784C206.027 89.8133 205.812 89.5984 205.547 89.5984Z" fill="#C9EFFB"/>
<path d="M189.976 89.5984H175.362C175.097 89.5984 174.882 89.8133 174.882 90.0784V96.0616C174.882 96.3267 175.097 96.5416 175.362 96.5416H189.976C190.241 96.5416 190.456 96.3267 190.456 96.0616V90.0784C190.456 89.8133 190.241 89.5984 189.976 89.5984Z" fill="#C9EFFB"/>
<path d="M26.9344 116.973H12.3208C12.0557 116.973 11.8408 117.188 11.8408 117.453V123.436C11.8408 123.701 12.0557 123.916 12.3208 123.916H26.9344C27.1995 123.916 27.4144 123.701 27.4144 123.436V117.453C27.4144 117.188 27.1995 116.973 26.9344 116.973Z" stroke="#C9EFFB" stroke-width="2" stroke-miterlimit="10"/>
<path d="M34.72 130.835H20.1064C19.8413 130.835 19.6264 131.05 19.6264 131.315V137.298C19.6264 137.563 19.8413 137.778 20.1064 137.778H34.72C34.9851 137.778 35.2 137.563 35.2 137.298V131.315C35.2 131.05 34.9851 130.835 34.72 130.835Z" stroke="#C9EFFB" stroke-width="2" stroke-miterlimit="10"/>
<path d="M37.9576 123.916H23.344C23.0789 123.916 22.864 124.131 22.864 124.396V130.379C22.864 130.644 23.0789 130.859 23.344 130.859H37.9576C38.2227 130.859 38.4376 130.644 38.4376 130.379V124.396C38.4376 124.131 38.2227 123.916 37.9576 123.916Z" fill="#C9EFFB"/>
<path d="M22.384 123.916H7.77041C7.50531 123.916 7.29041 124.131 7.29041 124.396V130.379C7.29041 130.644 7.50531 130.859 7.77041 130.859H22.384C22.6491 130.859 22.864 130.644 22.864 130.379V124.396C22.864 124.131 22.6491 123.916 22.384 123.916Z" fill="#C9EFFB"/>
<path d="M117.51 24.4696H102.897C102.632 24.4696 102.417 24.6845 102.417 24.9496V30.9328C102.417 31.1979 102.632 31.4128 102.897 31.4128H117.51C117.776 31.4128 117.99 31.1979 117.99 30.9328V24.9496C117.99 24.6845 117.776 24.4696 117.51 24.4696Z" fill="#C9EFFB"/>
<path d="M122.771 38.356H108.158C107.893 38.356 107.678 38.5709 107.678 38.836V44.8192C107.678 45.0843 107.893 45.2992 108.158 45.2992H122.771C123.036 45.2992 123.251 45.0843 123.251 44.8192V38.836C123.251 38.5709 123.036 38.356 122.771 38.356Z" fill="#C9EFFB"/>
<path d="M128.531 31.4128H113.918C113.653 31.4128 113.438 31.6277 113.438 31.8928V37.876C113.438 38.1411 113.653 38.356 113.918 38.356H128.531C128.796 38.356 129.011 38.1411 129.011 37.876V31.8928C129.011 31.6277 128.796 31.4128 128.531 31.4128Z" stroke="#C9EFFB" stroke-width="2" stroke-miterlimit="10"/>
<path d="M112.96 31.4128H98.3464C98.0813 31.4128 97.8664 31.6277 97.8664 31.8928V37.876C97.8664 38.1411 98.0813 38.356 98.3464 38.356H112.96C113.225 38.356 113.44 38.1411 113.44 37.876V31.8928C113.44 31.6277 113.225 31.4128 112.96 31.4128Z" stroke="#C9EFFB" stroke-width="2" stroke-miterlimit="10"/>
<path d="M36.2872 34.8232H17.44C17.2896 34.8245 17.1405 34.7958 17.0013 34.7389C16.8621 34.6819 16.7357 34.5978 16.6293 34.4915C16.523 34.3851 16.4389 34.2587 16.3819 34.1195C16.325 33.9803 16.2963 33.8312 16.2976 33.6808V14.8384C16.2966 14.6881 16.3255 14.5391 16.3826 14.4001C16.4397 14.2611 16.5238 14.1347 16.6301 14.0285C16.7363 13.9222 16.8626 13.8381 17.0017 13.781C17.1407 13.7239 17.2897 13.6951 17.44 13.696H36.2824C36.4327 13.6951 36.5817 13.7239 36.7207 13.781C36.8597 13.8381 36.986 13.9222 37.0923 14.0285C37.1986 14.1347 37.2827 14.2611 37.3398 14.4001C37.3968 14.5391 37.4257 14.6881 37.4248 14.8384V33.6808C37.4187 33.9811 37.297 34.2674 37.0851 34.4802C36.8732 34.693 36.5874 34.8159 36.2872 34.8232Z" fill="#A04833"/>
<path d="M36.7672 35.3608H16.9432C16.6249 35.3608 16.3197 35.2344 16.0947 35.0093C15.8696 34.7843 15.7432 34.4791 15.7432 34.1608V14.3368C15.7413 14.1787 15.771 14.0218 15.8306 13.8753C15.8902 13.7288 15.9785 13.5958 16.0904 13.484C16.2022 13.3722 16.3352 13.2838 16.4817 13.2242C16.6282 13.1646 16.7851 13.1349 16.9432 13.1368H36.7672C37.0855 13.1368 37.3907 13.2632 37.6157 13.4883C37.8408 13.7133 37.9672 14.0185 37.9672 14.3368V34.1608C37.9672 34.4791 37.8408 34.7843 37.6157 35.0093C37.3907 35.2344 37.0855 35.3608 36.7672 35.3608ZM16.9432 14.3368V34.1608H36.7768V14.3392L16.9432 14.3368Z" fill="#FFC065"/>
<path d="M22.2232 28.9048C22.4664 28.3858 22.7388 27.881 23.0392 27.3928C23.4472 27.0328 23.8072 26.6248 24.2152 26.2408L26.5432 23.9128L26.3992 24.2488V21.3688C26.3992 20.8888 26.3752 20.4088 26.4232 19.9288C26.5672 19.4488 26.7112 18.9688 26.8792 18.4888C27.0638 18.9579 27.2161 19.439 27.3352 19.9288C27.3592 20.4088 27.3352 20.8888 27.3592 21.3688V24.4648L27.2152 24.6088L24.8872 26.9368C24.5032 27.3208 24.0952 27.7048 23.7352 28.1128C23.2552 28.3768 22.7512 28.6648 22.2232 28.9048Z" fill="#FFC065"/>
<path d="M223.444 10.1488H106.338V73.9432H223.444V10.1488Z" fill="#CC7829"/>
<path d="M226.487 74.1976H103.703V76.1368H226.487V74.1976Z" fill="#BED5E6"/>
<path d="M183.798 30.7432H175.228V23.2024C175.228 22.156 175.631 22.2856 176.354 21.5224L177.496 20.3224H181.53L182.67 21.5224C183.39 22.2784 183.798 22.1488 183.798 23.2024V30.7432Z" fill="#E3EAF3"/>
<path d="M182.042 18.2464H176.985C176.41 18.2464 175.943 18.7127 175.943 19.288V19.2952C175.943 19.8705 176.41 20.3368 176.985 20.3368H182.042C182.617 20.3368 183.083 19.8705 183.083 19.2952V19.288C183.083 18.7127 182.617 18.2464 182.042 18.2464Z" fill="#E3EAF3"/>
<path d="M183.796 24.8776H175.228V27.58H183.796V24.8776Z" fill="#EF3E3B"/>
<path d="M193.437 30.7432H184.869V23.2024C184.869 22.156 185.272 22.2856 185.994 21.5224L187.134 20.3224H191.171L192.311 21.5224C193.031 22.2784 193.437 22.1488 193.437 23.2024V30.7432Z" fill="#E3EAF3"/>
<path d="M191.68 18.2464H186.623C186.048 18.2464 185.582 18.7127 185.582 19.288V19.2952C185.582 19.8705 186.048 20.3368 186.623 20.3368H191.68C192.255 20.3368 192.722 19.8705 192.722 19.2952V19.288C192.722 18.7127 192.255 18.2464 191.68 18.2464Z" fill="#E3EAF3"/>
<path d="M193.437 24.8776H184.869V27.58H193.437V24.8776Z" fill="#EF3E3B"/>
<path d="M210.006 52.7416H201.438V45.2008C201.438 44.1568 201.842 44.284 202.564 43.5208L203.704 42.3208H207.738L208.881 43.5208C209.601 44.2744 210.006 44.1472 210.006 45.2008V52.7416Z" fill="#E3EAF3"/>
<path d="M208.25 40.2472H203.193C202.618 40.2472 202.151 40.7136 202.151 41.2888V41.296C202.151 41.8713 202.618 42.3376 203.193 42.3376H208.25C208.825 42.3376 209.291 41.8713 209.291 41.296V41.2888C209.291 40.7136 208.825 40.2472 208.25 40.2472Z" fill="#E3EAF3"/>
<path d="M210.006 46.876H201.438V49.5784H210.006V46.876Z" fill="#EF3E3B"/>
<path d="M219.647 52.7416H211.077V45.2008C211.077 44.1568 211.48 44.284 212.202 43.5208L213.345 42.3208H217.379L218.519 43.5208C219.239 44.2744 219.647 44.1472 219.647 45.2008V52.7416Z" fill="#54A4CC"/>
<path d="M217.89 40.2472H212.834C212.258 40.2472 211.792 40.7136 211.792 41.2888V41.296C211.792 41.8713 212.258 42.3376 212.834 42.3376H217.89C218.466 42.3376 218.932 41.8713 218.932 41.296V41.2888C218.932 40.7136 218.466 40.2472 217.89 40.2472Z" fill="#E3EAF3"/>
<path d="M137.579 52.7416H129.011V45.2008C129.011 44.1568 129.414 44.284 130.137 43.5208L131.279 42.3208H135.314L136.454 43.5208C137.174 44.2744 137.579 44.1472 137.579 45.2008V52.7416Z" fill="#E3EAF3"/>
<path d="M135.825 40.2472H130.768C130.193 40.2472 129.726 40.7136 129.726 41.2888V41.296C129.726 41.8713 130.193 42.3376 130.768 42.3376H135.825C136.4 42.3376 136.866 41.8713 136.866 41.296V41.2888C136.866 40.7136 136.4 40.2472 135.825 40.2472Z" fill="#E3EAF3"/>
<path d="M137.579 46.876H129.011V49.5784H137.579V46.876Z" fill="#54A4CC"/>
<path d="M147.22 52.7416H138.652V45.2008C138.652 44.1568 139.055 44.284 139.778 43.5208L140.918 42.3208H144.952L146.094 43.5208C146.814 44.2744 147.22 44.1472 147.22 45.2008V52.7416Z" fill="#E3EAF3"/>
<path d="M145.463 40.2472H140.406C139.831 40.2472 139.365 40.7136 139.365 41.2888V41.296C139.365 41.8713 139.831 42.3376 140.406 42.3376H145.463C146.038 42.3376 146.505 41.8713 146.505 41.296V41.2888C146.505 40.7136 146.038 40.2472 145.463 40.2472Z" fill="#E3EAF3"/>
<path d="M147.22 46.876H138.652V49.5784H147.22V46.876Z" fill="#EF3E3B"/>
<path d="M122.106 74.2312H113.538V66.6904C113.538 65.6464 113.942 65.7736 114.664 65.0104L115.804 63.8104H119.838L120.981 65.0104C121.701 65.764 122.106 65.6368 122.106 66.6904V74.2312Z" fill="#E3EAF3"/>
<path d="M120.35 61.7344H115.293C114.718 61.7344 114.251 62.2007 114.251 62.776V62.7832C114.251 63.3585 114.718 63.8248 115.293 63.8248H120.35C120.925 63.8248 121.391 63.3585 121.391 62.7832V62.776C121.391 62.2007 120.925 61.7344 120.35 61.7344Z" fill="#E3EAF3"/>
<path d="M122.106 68.3656H113.538V71.068H122.106V68.3656Z" fill="#54A4CC"/>
<path d="M131.745 74.2312H123.177V66.6904C123.177 65.6464 123.58 65.7736 124.302 65.0104L125.445 63.8104H129.479L130.619 65.0104C131.339 65.764 131.745 65.6368 131.745 66.6904V74.2312Z" fill="#E3EAF3"/>
<path d="M129.99 61.7344H124.934C124.358 61.7344 123.892 62.2007 123.892 62.776V62.7832C123.892 63.3585 124.358 63.8248 124.934 63.8248H129.99C130.566 63.8248 131.032 63.3585 131.032 62.7832V62.776C131.032 62.2007 130.566 61.7344 129.99 61.7344Z" fill="#E3EAF3"/>
<path d="M131.745 68.3656H123.177V71.068H131.745V68.3656Z" fill="#EF3E3B"/>
<path d="M220.667 30.7432H208.403V19.96C208.403 18.4648 208.982 18.6496 210.016 17.56L211.648 15.8536H217.425L219.057 17.56C220.091 18.6424 220.667 18.4576 220.667 19.96V30.7432Z" fill="#54A4CC"/>
<path d="M218.152 12.856H210.918C210.094 12.856 209.426 13.5244 209.426 14.3488V14.356C209.426 15.1805 210.094 15.8488 210.918 15.8488H218.152C218.976 15.8488 219.645 15.1805 219.645 14.356V14.3488C219.645 13.5244 218.976 12.856 218.152 12.856Z" fill="#E3EAF3"/>
<path d="M220.667 22.348H208.403V26.2168H220.667V22.348Z" fill="#EF3E3B"/>
<path d="M124.78 52.7416H112.516V41.9416C112.516 40.4464 113.092 40.6312 114.126 39.5416L115.761 37.8352H121.535L123.167 39.5416C124.202 40.624 124.78 40.4392 124.78 41.9416V52.7416Z" fill="#E3EAF3"/>
<path d="M122.265 34.8568H115.031C114.207 34.8568 113.538 35.5252 113.538 36.3496V36.3568C113.538 37.1813 114.207 37.8496 115.031 37.8496H122.265C123.089 37.8496 123.758 37.1813 123.758 36.3568V36.3496C123.758 35.5252 123.089 34.8568 122.265 34.8568Z" fill="#54A4CC"/>
<path d="M124.78 44.3464H112.516V48.2152H124.78V44.3464Z" fill="#EF3E3B"/>
<path d="M198.513 52.7416H186.246V41.9416C186.246 40.4464 186.825 40.6312 187.859 39.5416L189.491 37.8352H195.28L196.912 39.5416C197.946 40.624 198.525 40.4392 198.525 41.9416L198.513 52.7416Z" fill="#E3EAF3"/>
<path d="M195.995 34.8568H188.762C187.937 34.8568 187.269 35.5252 187.269 36.3496V36.3568C187.269 37.1813 187.937 37.8496 188.762 37.8496H195.995C196.82 37.8496 197.488 37.1813 197.488 36.3568V36.3496C197.488 35.5252 196.82 34.8568 195.995 34.8568Z" fill="#54A4CC"/>
<path d="M198.51 44.3464H186.246V48.2152H198.51V44.3464Z" fill="#EF3E3B"/>
<path d="M174.062 73.6672H161.798V62.8672C161.798 61.3696 162.374 61.5544 163.408 60.4672L165.042 58.7608H170.817L172.451 60.4672C173.486 61.5472 174.062 61.3624 174.062 62.8672V73.6672Z" fill="#E3EAF3"/>
<path d="M171.546 55.7824H164.313C163.488 55.7824 162.82 56.4508 162.82 57.2752V57.2824C162.82 58.1069 163.488 58.7752 164.313 58.7752H171.546C172.371 58.7752 173.039 58.1069 173.039 57.2824V57.2752C173.039 56.4508 172.371 55.7824 171.546 55.7824Z" fill="#E3EAF3"/>
<path d="M174.062 65.272H161.798V69.1408H174.062V65.272Z" fill="#EF3E3B"/>
<path d="M211.895 74.2312H199.631V63.4312C199.631 61.936 200.21 62.1184 201.242 61.0312L202.876 59.3248H208.65L210.285 61.0312C211.319 62.1112 211.895 61.9288 211.895 63.4312V74.2312Z" fill="#E3EAF3"/>
<path d="M209.339 56.3464H202.106C201.281 56.3464 200.613 57.0148 200.613 57.8392V57.8464C200.613 58.6709 201.281 59.3392 202.106 59.3392H209.339C210.164 59.3392 210.832 58.6709 210.832 57.8464V57.8392C210.832 57.0148 210.164 56.3464 209.339 56.3464Z" fill="#EF3E3B"/>
<path d="M211.895 64.8496H199.631V68.7184H211.895V64.8496Z" fill="#54A4CC"/>
<path d="M205.763 30.7432H197.738V13.7056H200.697L201.75 22.2256L202.84 13.7056H205.763V30.7432Z" fill="#E3EAF3"/>
<path d="M199.814 24.2488C200.34 24.2488 200.766 23.8222 200.766 23.296C200.766 22.7698 200.34 22.3432 199.814 22.3432C199.287 22.3432 198.861 22.7698 198.861 23.296C198.861 23.8222 199.287 24.2488 199.814 24.2488Z" fill="#ABBCCA"/>
<path d="M199.814 27.1696C200.34 27.1696 200.766 26.743 200.766 26.2168C200.766 25.6906 200.34 25.264 199.814 25.264C199.287 25.264 198.861 25.6906 198.861 26.2168C198.861 26.743 199.287 27.1696 199.814 27.1696Z" fill="#ABBCCA"/>
<path d="M199.814 30.16C200.34 30.16 200.766 29.7334 200.766 29.2072C200.766 28.681 200.34 28.2544 199.814 28.2544C199.287 28.2544 198.861 28.681 198.861 29.2072C198.861 29.7334 199.287 30.16 199.814 30.16Z" fill="#ABBCCA"/>
<path d="M203.757 24.2488C204.283 24.2488 204.71 23.8222 204.71 23.296C204.71 22.7698 204.283 22.3432 203.757 22.3432C203.231 22.3432 202.804 22.7698 202.804 23.296C202.804 23.8222 203.231 24.2488 203.757 24.2488Z" fill="#ABBCCA"/>
<path d="M203.757 27.1696C204.283 27.1696 204.71 26.743 204.71 26.2168C204.71 25.6906 204.283 25.264 203.757 25.264C203.231 25.264 202.804 25.6906 202.804 26.2168C202.804 26.743 203.231 27.1696 203.757 27.1696Z" fill="#ABBCCA"/>
<path d="M203.757 30.16C204.283 30.16 204.71 29.7334 204.71 29.2072C204.71 28.681 204.283 28.2544 203.757 28.2544C203.231 28.2544 202.804 28.681 202.804 29.2072C202.804 29.7334 203.231 30.16 203.757 30.16Z" fill="#ABBCCA"/>
<path d="M159.928 52.7416H151.902V35.7064H154.862L155.915 44.224L157.002 35.7064H159.928V52.7416Z" fill="#E3EAF3"/>
<path d="M153.976 46.2496C154.502 46.2496 154.929 45.823 154.929 45.2968C154.929 44.7706 154.502 44.344 153.976 44.344C153.45 44.344 153.023 44.7706 153.023 45.2968C153.023 45.823 153.45 46.2496 153.976 46.2496Z" fill="#ABBCCA"/>
<path d="M153.976 49.168C154.502 49.168 154.929 48.7414 154.929 48.2152C154.929 47.689 154.502 47.2624 153.976 47.2624C153.45 47.2624 153.023 47.689 153.023 48.2152C153.023 48.7414 153.45 49.168 153.976 49.168Z" fill="#ABBCCA"/>
<path d="M153.976 52.1608C154.502 52.1608 154.929 51.7342 154.929 51.208C154.929 50.6818 154.502 50.2552 153.976 50.2552C153.45 50.2552 153.023 50.6818 153.023 51.208C153.023 51.7342 153.45 52.1608 153.976 52.1608Z" fill="#ABBCCA"/>
<path d="M157.922 46.2496C158.448 46.2496 158.874 45.823 158.874 45.2968C158.874 44.7706 158.448 44.344 157.922 44.344C157.395 44.344 156.969 44.7706 156.969 45.2968C156.969 45.823 157.395 46.2496 157.922 46.2496Z" fill="#ABBCCA"/>
<path d="M157.922 49.168C158.448 49.168 158.874 48.7414 158.874 48.2152C158.874 47.689 158.448 47.2624 157.922 47.2624C157.395 47.2624 156.969 47.689 156.969 48.2152C156.969 48.7414 157.395 49.168 157.922 49.168Z" fill="#ABBCCA"/>
<path d="M157.922 52.1608C158.448 52.1608 158.874 51.7342 158.874 51.208C158.874 50.6818 158.448 50.2552 157.922 50.2552C157.395 50.2552 156.969 50.6818 156.969 51.208C156.969 51.7342 157.395 52.1608 157.922 52.1608Z" fill="#ABBCCA"/>
<path d="M187.096 74.2312H179.07V57.196H182.03L183.083 65.7136L184.17 57.196H187.096V74.2312Z" fill="#E3EAF3"/>
<path d="M181.144 67.7392C181.67 67.7392 182.097 67.3126 182.097 66.7864C182.097 66.2602 181.67 65.8336 181.144 65.8336C180.618 65.8336 180.191 66.2602 180.191 66.7864C180.191 67.3126 180.618 67.7392 181.144 67.7392Z" fill="#ABBCCA"/>
<path d="M181.144 70.6576C181.67 70.6576 182.097 70.231 182.097 69.7048C182.097 69.1786 181.67 68.752 181.144 68.752C180.618 68.752 180.191 69.1786 180.191 69.7048C180.191 70.231 180.618 70.6576 181.144 70.6576Z" fill="#ABBCCA"/>
<path d="M181.144 73.6504C181.67 73.6504 182.097 73.2238 182.097 72.6976C182.097 72.1714 181.67 71.7448 181.144 71.7448C180.618 71.7448 180.191 72.1714 180.191 72.6976C180.191 73.2238 180.618 73.6504 181.144 73.6504Z" fill="#ABBCCA"/>
<path d="M185.09 67.7392C185.616 67.7392 186.042 67.3126 186.042 66.7864C186.042 66.2602 185.616 65.8336 185.09 65.8336C184.563 65.8336 184.137 66.2602 184.137 66.7864C184.137 67.3126 184.563 67.7392 185.09 67.7392Z" fill="#ABBCCA"/>
<path d="M185.09 70.6576C185.616 70.6576 186.042 70.231 186.042 69.7048C186.042 69.1786 185.616 68.752 185.09 68.752C184.563 68.752 184.137 69.1786 184.137 69.7048C184.137 70.231 184.563 70.6576 185.09 70.6576Z" fill="#ABBCCA"/>
<path d="M185.09 73.6504C185.616 73.6504 186.042 73.2238 186.042 72.6976C186.042 72.1714 185.616 71.7448 185.09 71.7448C184.563 71.7448 184.137 72.1714 184.137 72.6976C184.137 73.2238 184.563 73.6504 185.09 73.6504Z" fill="#ABBCCA"/>
<path d="M196.394 58.624H188.368V74.2312H196.394V58.624Z" fill="#BED5E6"/>
<path d="M190.442 67.7392C190.968 67.7392 191.394 67.3126 191.394 66.7864C191.394 66.2602 190.968 65.8336 190.442 65.8336C189.915 65.8336 189.489 66.2602 189.489 66.7864C189.489 67.3126 189.915 67.7392 190.442 67.7392Z" fill="#EF3E3B"/>
<path d="M190.442 70.6576C190.968 70.6576 191.394 70.231 191.394 69.7048C191.394 69.1786 190.968 68.752 190.442 68.752C189.915 68.752 189.489 69.1786 189.489 69.7048C189.489 70.231 189.915 70.6576 190.442 70.6576Z" fill="#EF3E3B"/>
<path d="M190.442 73.6504C190.968 73.6504 191.394 73.2238 191.394 72.6976C191.394 72.1714 190.968 71.7448 190.442 71.7448C189.915 71.7448 189.489 72.1714 189.489 72.6976C189.489 73.2238 189.915 73.6504 190.442 73.6504Z" fill="#EF3E3B"/>
<path d="M194.385 67.7392C194.911 67.7392 195.338 67.3126 195.338 66.7864C195.338 66.2602 194.911 65.8336 194.385 65.8336C193.859 65.8336 193.432 66.2602 193.432 66.7864C193.432 67.3126 193.859 67.7392 194.385 67.7392Z" fill="#EF3E3B"/>
<path d="M194.385 70.6576C194.911 70.6576 195.338 70.231 195.338 69.7048C195.338 69.1786 194.911 68.752 194.385 68.752C193.859 68.752 193.432 69.1786 193.432 69.7048C193.432 70.231 193.859 70.6576 194.385 70.6576Z" fill="#EF3E3B"/>
<path d="M194.385 73.6504C194.911 73.6504 195.338 73.2238 195.338 72.6976C195.338 72.1714 194.911 71.7448 194.385 71.7448C193.859 71.7448 193.432 72.1714 193.432 72.6976C193.432 73.2238 193.859 73.6504 194.385 73.6504Z" fill="#EF3E3B"/>
<path d="M190.408 61.732C190.934 61.732 191.361 61.3054 191.361 60.7792C191.361 60.253 190.934 59.8264 190.408 59.8264C189.882 59.8264 189.455 60.253 189.455 60.7792C189.455 61.3054 189.882 61.732 190.408 61.732Z" fill="#EF3E3B"/>
<path d="M190.408 64.7248C190.934 64.7248 191.361 64.2982 191.361 63.772C191.361 63.2458 190.934 62.8192 190.408 62.8192C189.882 62.8192 189.455 63.2458 189.455 63.772C189.455 64.2982 189.882 64.7248 190.408 64.7248Z" fill="#EF3E3B"/>
<path d="M194.351 61.732C194.877 61.732 195.304 61.3054 195.304 60.7792C195.304 60.253 194.877 59.8264 194.351 59.8264C193.825 59.8264 193.398 60.253 193.398 60.7792C193.398 61.3054 193.825 61.732 194.351 61.732Z" fill="#EF3E3B"/>
<path d="M194.351 64.7248C194.877 64.7248 195.304 64.2982 195.304 63.772C195.304 63.2458 194.877 62.8192 194.351 62.8192C193.825 62.8192 193.398 63.2458 193.398 63.772C193.398 64.2982 193.825 64.7248 194.351 64.7248Z" fill="#EF3E3B"/>
<path d="M138.729 30.7432H130.706V13.7056H133.662L134.716 22.2256L135.806 13.7056H138.729V30.7432Z" fill="#E3EAF3"/>
<path d="M132.779 24.2488C133.305 24.2488 133.732 23.8222 133.732 23.296C133.732 22.7698 133.305 22.3432 132.779 22.3432C132.253 22.3432 131.826 22.7698 131.826 23.296C131.826 23.8222 132.253 24.2488 132.779 24.2488Z" fill="#54A4CC"/>
<path d="M132.779 27.1696C133.305 27.1696 133.732 26.743 133.732 26.2168C133.732 25.6906 133.305 25.264 132.779 25.264C132.253 25.264 131.826 25.6906 131.826 26.2168C131.826 26.743 132.253 27.1696 132.779 27.1696Z" fill="#54A4CC"/>
<path d="M132.779 30.16C133.305 30.16 133.732 29.7334 133.732 29.2072C133.732 28.681 133.305 28.2544 132.779 28.2544C132.253 28.2544 131.826 28.681 131.826 29.2072C131.826 29.7334 132.253 30.16 132.779 30.16Z" fill="#54A4CC"/>
<path d="M136.722 24.2488C137.249 24.2488 137.675 23.8222 137.675 23.296C137.675 22.7698 137.249 22.3432 136.722 22.3432C136.196 22.3432 135.77 22.7698 135.77 23.296C135.77 23.8222 136.196 24.2488 136.722 24.2488Z" fill="#54A4CC"/>
<path d="M136.722 27.1696C137.249 27.1696 137.675 26.743 137.675 26.2168C137.675 25.6906 137.249 25.264 136.722 25.264C136.196 25.264 135.77 25.6906 135.77 26.2168C135.77 26.743 136.196 27.1696 136.722 27.1696Z" fill="#54A4CC"/>
<path d="M136.722 30.16C137.249 30.16 137.675 29.7334 137.675 29.2072C137.675 28.681 137.249 28.2544 136.722 28.2544C136.196 28.2544 135.77 28.681 135.77 29.2072C135.77 29.7334 136.196 30.16 136.722 30.16Z" fill="#54A4CC"/>
<path d="M148.026 15.1336H140.001V30.7408H148.026V15.1336Z" fill="#E3EAF3"/>
<path d="M142.074 24.2488C142.601 24.2488 143.027 23.8222 143.027 23.296C143.027 22.7698 142.601 22.3432 142.074 22.3432C141.548 22.3432 141.122 22.7698 141.122 23.296C141.122 23.8222 141.548 24.2488 142.074 24.2488Z" fill="#ABBCCA"/>
<path d="M142.074 27.1696C142.601 27.1696 143.027 26.743 143.027 26.2168C143.027 25.6906 142.601 25.264 142.074 25.264C141.548 25.264 141.122 25.6906 141.122 26.2168C141.122 26.743 141.548 27.1696 142.074 27.1696Z" fill="#ABBCCA"/>
<path d="M142.074 30.16C142.601 30.16 143.027 29.7334 143.027 29.2072C143.027 28.681 142.601 28.2544 142.074 28.2544C141.548 28.2544 141.122 28.681 141.122 29.2072C141.122 29.7334 141.548 30.16 142.074 30.16Z" fill="#ABBCCA"/>
<path d="M146.02 24.2488C146.546 24.2488 146.973 23.8222 146.973 23.296C146.973 22.7698 146.546 22.3432 146.02 22.3432C145.494 22.3432 145.067 22.7698 145.067 23.296C145.067 23.8222 145.494 24.2488 146.02 24.2488Z" fill="#ABBCCA"/>
<path d="M146.02 27.1696C146.546 27.1696 146.973 26.743 146.973 26.2168C146.973 25.6906 146.546 25.264 146.02 25.264C145.494 25.264 145.067 25.6906 145.067 26.2168C145.067 26.743 145.494 27.1696 146.02 27.1696Z" fill="#ABBCCA"/>
<path d="M146.02 30.16C146.546 30.16 146.973 29.7334 146.973 29.2072C146.973 28.681 146.546 28.2544 146.02 28.2544C145.494 28.2544 145.067 28.681 145.067 29.2072C145.067 29.7334 145.494 30.16 146.02 30.16Z" fill="#ABBCCA"/>
<path d="M142.041 18.244C142.567 18.244 142.994 17.8174 142.994 17.2912C142.994 16.765 142.567 16.3384 142.041 16.3384C141.515 16.3384 141.088 16.765 141.088 17.2912C141.088 17.8174 141.515 18.244 142.041 18.244Z" fill="#ABBCCA"/>
<path d="M142.041 21.2344C142.567 21.2344 142.994 20.8078 142.994 20.2816C142.994 19.7554 142.567 19.3288 142.041 19.3288C141.515 19.3288 141.088 19.7554 141.088 20.2816C141.088 20.8078 141.515 21.2344 142.041 21.2344Z" fill="#ABBCCA"/>
<path d="M145.986 18.244C146.513 18.244 146.939 17.8174 146.939 17.2912C146.939 16.765 146.513 16.3384 145.986 16.3384C145.46 16.3384 145.034 16.765 145.034 17.2912C145.034 17.8174 145.46 18.244 145.986 18.244Z" fill="#ABBCCA"/>
<path d="M145.986 21.2344C146.513 21.2344 146.939 20.8078 146.939 20.2816C146.939 19.7554 146.513 19.3288 145.986 19.3288C145.46 19.3288 145.034 19.7554 145.034 20.2816C145.034 20.8078 145.46 21.2344 145.986 21.2344Z" fill="#ABBCCA"/>
<path d="M180.602 52.7416L173.358 51.9088L166.115 52.7416V41.5888L173.358 42.4216L180.602 41.5888V52.7416Z" fill="#54A4CC"/>
<path d="M166.115 41.5888H163.396V52.7416H166.115V41.5888Z" fill="#EF3E3B"/>
<path d="M183.321 41.5888H180.602V52.7416H183.321V41.5888Z" fill="#EF3E3B"/>
<path d="M177.234 44.9056H169.482V49.408H177.234V44.9056Z" fill="#E3EAF3"/>
<path d="M169.041 30.7432L161.798 29.9104L154.554 30.7432V19.5904L161.798 20.4232L169.041 19.5904V30.7432Z" fill="#EF3E3B"/>
<path d="M154.554 19.5904H151.835V30.7432H154.554V19.5904Z" fill="#54A4CC"/>
<path d="M171.76 19.5904H169.041V30.7432H171.76V19.5904Z" fill="#54A4CC"/>
<path d="M165.674 22.9048H157.922V27.4072H165.674V22.9048Z" fill="#E3EAF3"/>
<path d="M125.891 30.7432L118.648 29.9104L111.405 30.7432V19.5904L118.648 20.4232L125.891 19.5904V30.7432Z" fill="#E3EAF3"/>
<path d="M111.405 19.5904H108.686V30.7432H111.405V19.5904Z" fill="#EF3E3B"/>
<path d="M128.61 19.5904H125.891V30.7432H128.61V19.5904Z" fill="#EF3E3B"/>
<path d="M122.524 22.9048H114.772V27.4072H122.524V22.9048Z" fill="#54A4CC"/>
<path d="M154.463 74.2312L147.22 73.3984L139.977 74.2312V63.0784L147.22 63.9112L154.463 63.0784V74.2312Z" fill="#EF3E3B"/>
<path d="M139.977 63.0784H137.258V74.2312H139.977V63.0784Z" fill="#E3EAF3"/>
<path d="M157.182 63.0784H154.463V74.2312H157.182V63.0784Z" fill="#E3EAF3"/>
<path d="M151.096 66.3928H143.344V70.8952H151.096V66.3928Z" fill="#54A4CC"/>
<path d="M230.178 7.07681H100.014V10.9528H230.178V7.07681Z" fill="#A04833"/>
<path d="M226.487 52.4704H103.703V54.4096H226.487V52.4704Z" fill="#E3EAF3"/>
<path d="M226.487 30.7432H103.703V32.6824H226.487V30.7432Z" fill="#E3EAF3"/>
<path d="M103.074 9.01361V77.1232H226.72V9.01361H103.074ZM223.444 73.9432H106.338V10.1488H223.444V73.9432Z" fill="#A04833"/>
<path d="M150.28 56.6248C150.28 56.6248 149.68 63.8944 146.8 67.048C143.92 70.2016 146.747 56.3824 146.747 56.3824L150.28 56.6248Z" fill="black"/>
<path d="M141.04 70.5808C141.191 70.048 140.56 68.7544 140.176 68.008C142.782 68.4064 145.883 66.568 147.498 63.3136C147.596 63.366 147.7 63.404 147.808 63.4264C147.808 63.4264 148.062 70.1968 149.529 70.2808C151.245 71.752 156.851 76.7344 155.709 79.048C154.749 80.9848 149.574 79.9864 141.858 78.4936C141.108 78.378 140.407 78.0441 139.845 77.5336C138.225 75.9904 138.669 73.2136 138.897 72.5872C139.19 71.7712 140.824 71.3464 141.04 70.5808Z" fill="#EA9D7D"/>
<path d="M146.668 71.3512C147.693 69.1336 145.542 68.6632 145.542 68.6632L145.559 68.632C144.138 69.592 142.55 70.0072 141.126 69.7312L140.927 69.6856C140.724 69.1009 140.473 68.5342 140.176 67.9912C142.782 68.3896 145.734 66.3784 147.35 63.1216C147.39 63.2084 147.455 63.2812 147.536 63.3308C147.618 63.3804 147.713 63.4045 147.808 63.4C147.808 63.4 147.856 64.66 148.026 66.0976C148.25 68.0008 148.691 70.2232 149.529 70.2712C151.854 72.244 157.47 77.2696 156.342 79.4992C155.214 81.7288 147.508 80.9392 141.858 78.484C140.997 78.1096 140.294 77.7448 139.78 77.4616C143.31 77.8576 145.749 73.3408 146.668 71.3512Z" fill="#D18165"/>
<path d="M144.208 50.5408C147.182 51.1192 149.008 54.9088 148.588 59.308H148.612C149.423 59.4664 149.903 60.508 149.682 61.6528C149.462 62.7976 148.622 63.5728 147.808 63.424C147.716 63.4197 147.625 63.3961 147.543 63.3548C147.46 63.3135 147.387 63.2553 147.328 63.184C145.677 66.5152 142.641 68.4904 140.001 67.984C136.72 67.3432 135.561 63.2992 136.526 58.36C137.49 53.4208 140.93 49.9 144.208 50.5408Z" fill="#EA9D7D"/>
<path d="M148.638 60.3208C148.839 60.4569 148.99 60.6537 149.07 60.8824C149.16 61.1183 149.179 61.375 149.126 61.6216C149.075 61.8662 148.958 62.0921 148.787 62.2744C148.705 62.3615 148.612 62.4381 148.511 62.5024C148.409 62.5637 148.299 62.6113 148.185 62.644C148.231 62.5403 148.283 62.4393 148.341 62.3416C148.384 62.2408 148.442 62.1544 148.475 62.0608C148.557 61.8896 148.618 61.7091 148.658 61.5232C148.725 61.1246 148.719 60.717 148.638 60.3208Z" fill="#D18165"/>
<path d="M138.004 64.7296C140.404 64.84 140.673 62.9968 140.673 62.9968C139.71 63.3011 138.689 63.371 137.694 63.2008C137.694 63.2008 138.4 64.0024 138.004 64.7296Z" fill="#BE3E5F"/>
<path d="M138.676 58C138.766 58.496 138.776 59.0033 138.705 59.5024C138.672 59.7669 138.597 60.0245 138.484 60.2656C138.417 60.4024 138.352 60.4864 138.29 60.5944C138.227 60.7024 138.167 60.796 138.114 60.8968C138.007 61.0691 137.942 61.2638 137.922 61.4656C137.92 61.501 137.925 61.5366 137.937 61.57C137.949 61.6035 137.968 61.6341 137.992 61.66C138.056 61.7257 138.133 61.778 138.218 61.8136C138.673 61.9508 139.144 62.0314 139.619 62.0536C139.13 62.2203 138.606 62.2575 138.098 62.1616C137.948 62.1254 137.809 62.0528 137.694 61.9504C137.565 61.8297 137.485 61.6657 137.469 61.4896C137.463 61.1988 137.541 60.9124 137.692 60.664C137.754 60.5488 137.822 60.4384 137.891 60.3328C137.961 60.2272 138.04 60.1192 138.088 60.04C138.193 59.8418 138.274 59.6315 138.328 59.4136C138.474 58.9672 138.568 58.4872 138.676 58Z" fill="#D18165"/>
<path d="M140.176 57.0136C140.654 57.0917 141.126 57.2015 141.59 57.3424C141.813 57.4142 142.03 57.5024 142.24 57.6064C142.456 57.7048 142.65 57.8464 142.878 57.9712C142.769 57.7339 142.605 57.5264 142.398 57.3664C142.193 57.2005 141.959 57.0743 141.707 56.9944C141.459 56.9133 141.2 56.872 140.939 56.872C140.678 56.8677 140.418 56.9158 140.176 57.0136Z" fill="black"/>
<path d="M137.721 56.548C137.509 56.4618 137.286 56.4091 137.058 56.392C137.015 56.512 136.977 56.632 136.936 56.752C137.17 56.758 137.404 56.7821 137.634 56.824C137.874 56.8576 138.095 56.9344 138.354 56.9944C138.181 56.7983 137.964 56.6454 137.721 56.548Z" fill="black"/>
<path d="M137.159 59.8144C137.255 59.8327 137.353 59.8124 137.434 59.758C137.514 59.7036 137.57 59.6194 137.589 59.524L137.795 58.468C137.807 58.4199 137.808 58.3699 137.8 58.3212C137.792 58.2724 137.774 58.2258 137.747 58.1841C137.72 58.1425 137.685 58.1067 137.644 58.0789C137.604 58.0511 137.557 58.0318 137.509 58.0223C137.46 58.0127 137.41 58.0131 137.362 58.0233C137.314 58.0336 137.268 58.0535 137.227 58.0819C137.187 58.1103 137.152 58.1466 137.126 58.1886C137.1 58.2306 137.083 58.2775 137.075 58.3264L136.871 59.3824C136.852 59.4779 136.872 59.577 136.926 59.658C136.98 59.739 137.064 59.7953 137.159 59.8144Z" fill="black"/>
<path d="M140.858 60.04C140.953 60.0584 141.052 60.0381 141.133 59.9837C141.214 59.9294 141.27 59.8452 141.29 59.7496L141.496 58.6936C141.508 58.6452 141.51 58.5948 141.502 58.5456C141.494 58.4964 141.476 58.4493 141.449 58.4072C141.423 58.3651 141.387 58.329 141.346 58.3009C141.305 58.2729 141.258 58.2535 141.209 58.244C141.16 58.2346 141.11 58.2352 141.061 58.2458C141.013 58.2565 140.967 58.277 140.926 58.306C140.885 58.335 140.851 58.3721 140.825 58.4148C140.8 58.4575 140.783 58.505 140.776 58.5544L140.56 59.608C140.551 59.6559 140.552 59.7052 140.562 59.7529C140.572 59.8006 140.591 59.8458 140.619 59.8859C140.646 59.9261 140.682 59.9604 140.723 59.9868C140.764 60.0133 140.81 60.0313 140.858 60.04Z" fill="black"/>
<path d="M150.282 55.7032C150.282 55.7032 148.929 47.392 144.702 50.2888C144.702 50.2888 140.579 48.8056 138.614 51.8824C136.648 54.9592 135.714 54.172 135.714 54.172C135.714 54.172 139.12 56.68 141.426 55.4152L144.326 56.2744C144.737 56.3961 145.1 56.6442 145.363 56.9837C145.626 57.3231 145.775 57.7366 145.79 58.1656L145.907 61.5688C145.988 61.7367 146.116 61.8774 146.276 61.9737C146.435 62.07 146.62 62.1178 146.806 62.1112C146.992 62.1046 147.173 62.0439 147.325 61.9365C147.477 61.8291 147.595 61.6796 147.664 61.5064C147.842 61.0888 148.026 60.6256 148.197 60.1528C148.794 58.4968 150.688 57.2464 150.282 55.7032Z" fill="black"/>
<path d="M115.401 96.6712L112.924 96.772C112.924 96.772 112.384 96.3424 111.652 95.7856C110.272 94.732 108.203 93.2128 107.778 93.2392C107.128 93.2776 105.998 93.7504 108.81 95.9176L108.789 95.9368C108.695 96.0064 108.261 96.292 107.15 96.3592C105.87 96.4384 101.562 96.7312 100.862 96.9952C100.482 97.1368 99.6304 98.2792 106.017 98.0536C106.067 98.0503 106.118 98.0583 106.165 98.0769C106.212 98.0956 106.254 98.1244 106.289 98.1613C106.324 98.1982 106.35 98.2424 106.365 98.2906C106.381 98.3387 106.386 98.3898 106.379 98.44C106.358 98.5576 106.271 98.6632 106.041 98.68C105.462 98.716 100.468 98.8 100.554 99.7024C100.617 100.36 101.925 100.199 106.314 100.005C106.314 100.005 107.01 100.185 106.456 100.542C106.264 100.665 101.315 101.128 101.073 101.519C100.83 101.91 100.192 102.554 107.618 101.742C107.618 101.742 107.747 101.817 107.102 102.194C106.415 102.594 104.385 103.134 103.866 103.89C103.348 104.646 104.853 104.046 108.666 102.765L114.014 102.088C117.549 102.585 130.778 103.713 134.063 100.3C137.142 97.1032 138.798 85.66 138.798 85.66L131.27 85.42L128.116 93.9496C128.012 94.2293 127.835 94.4759 127.604 94.6634C127.372 94.8509 127.094 94.9724 126.798 95.0152L114.962 96.724" fill="#EA9D7D"/>
<path d="M115.269 96.6712V101.997" stroke="#2F170B" stroke-width="6" stroke-linecap="round" stroke-linejoin="round"/>
<path d="M129.957 85.96L132.837 76.948C133.394 75.1487 134.482 73.5594 135.957 72.388C136.333 72.0886 136.74 71.8295 137.171 71.6152C137.209 71.5968 137.25 71.5885 137.292 71.5911C137.333 71.5936 137.373 71.6069 137.408 71.6296C137.443 71.6524 137.471 71.6838 137.49 71.7208C137.509 71.7579 137.519 71.7992 137.517 71.8408L137.042 85.96H129.957Z" fill="#EF3E3B"/>
<path d="M129.957 85.96L132.837 76.948C133.394 75.1487 134.482 73.5594 135.957 72.388C136.333 72.0886 136.74 71.8295 137.171 71.6152C137.209 71.5968 137.25 71.5885 137.292 71.5911C137.333 71.5936 137.373 71.6069 137.408 71.6296C137.443 71.6524 137.471 71.6838 137.49 71.7208C137.509 71.7579 137.519 71.7992 137.517 71.8408L137.042 85.96H129.957Z" fill="#E3EAF3"/>
<path d="M137.402 74.8408L137.042 85.96H133.257C133.17 83.26 133.372 80.2768 134.937 76.9576C136.012 74.6968 136.634 74.584 136.895 74.596C137.088 74.6127 137.269 74.6998 137.402 74.8408Z" fill="#ABBCCA"/>
<path d="M172.074 118.199C171.965 117.768 171.906 117.325 171.899 116.879C171.844 113.142 171.486 98.8792 169.336 92.3992C168.652 90.3304 162.362 79.7896 162.362 79.7896L153.376 81.6904L161.296 94.84C161.647 95.423 161.905 96.057 162.062 96.7192L166.888 117.275C166.954 117.557 166.956 117.851 166.895 118.134C166.833 118.417 166.708 118.683 166.53 118.912C165.515 120.215 163.504 122.862 163.535 123.347C163.581 123.998 164.061 125.128 166.209 122.298C166.209 122.298 166.576 122.678 166.66 123.957C166.744 125.236 166.931 130.161 167.334 130.242C167.738 130.324 168.652 131.495 168.35 124.804C168.35 124.804 168.945 124.473 168.983 125.044C169.022 125.615 169.353 131.116 170.039 130.526C170.726 129.935 170.519 129.15 170.308 124.766C170.308 124.766 170.757 124.408 170.843 124.619C170.93 124.83 171.422 130.024 171.856 129.995C172.29 129.966 172.893 130.869 172.034 123.453C172.034 123.453 172.274 123.328 172.547 124.072C172.821 124.816 173.867 128.082 174.208 127.192C174.549 126.302 174.359 126.201 173.054 122.406L172.082 118.19L172.074 118.199Z" fill="#EA9D7D"/>
<path d="M153.376 81.6856L155.495 81.2368C157.079 83.248 159.047 84.7072 161.61 88.4608C163.61 91.3864 164.903 94.3624 165.477 95.62C167.051 99.0664 166.732 100.826 167.781 109.329C168.412 114.436 168.726 116.99 169.058 118.324C169.058 118.324 171.429 127.89 170.272 130.259C170.218 130.369 170.135 130.462 170.032 130.528C169.346 131.118 169.014 125.625 168.976 125.046C168.938 124.468 168.342 124.806 168.342 124.806C168.645 131.498 167.733 130.326 167.327 130.245C166.922 130.163 166.739 125.262 166.655 123.969C166.571 122.69 166.204 122.31 166.204 122.31C164.044 125.14 163.564 124.01 163.53 123.359C163.499 122.879 165.51 120.239 166.526 118.924C166.703 118.695 166.828 118.429 166.89 118.146C166.952 117.863 166.949 117.569 166.883 117.287L162.057 96.7312C161.9 96.069 161.642 95.435 161.291 94.852L153.376 81.6856Z" fill="#D18165"/>
<path d="M130.444 84.4384H136.806V85.3984H130.137L130.444 84.4384Z" fill="#25BEEF"/>
<path d="M133.245 84.4384H136.806V85.3984H133.245C133.24 85.0816 133.24 84.76 133.245 84.4384Z" fill="#1A87C4"/>
<path d="M131.147 82.2304H136.691V83.1904H130.84L131.147 82.2304Z" fill="#25BEEF"/>
<path d="M133.401 82.2304H136.691V83.1904H133.305C133.329 82.8736 133.36 82.5544 133.401 82.2304Z" fill="#1A87C4"/>
<path d="M137.44 102.318H156.042C156.334 102.319 156.622 102.256 156.887 102.134C157.151 102.013 157.387 101.836 157.577 101.615C157.767 101.394 157.907 101.135 157.988 100.855C158.068 100.575 158.088 100.281 158.044 99.9928L153.652 71.02L149.13 70.0192C147.515 73.444 142.54 73.6 140.951 70.1632L137.519 71.4688C136.927 71.6124 136.404 71.9585 136.04 72.4472C135.676 72.9359 135.495 73.5364 135.527 74.1448L135.563 75.2272C135.846 83.928 136.131 92.628 136.418 101.327C136.413 101.399 136.432 101.75 137.44 102.318Z" fill="#E3EAF3"/>
<path d="M165.786 85.5304C165.894 85.4583 165.985 85.3653 166.056 85.257C166.126 85.1486 166.174 85.0272 166.197 84.8999C166.219 84.7726 166.216 84.6421 166.186 84.5162C166.157 84.3903 166.103 84.2716 166.026 84.1672L159.258 74.7688C159.258 74.7688 156.858 71.6776 153.654 71.02L151.826 80.5576L158.306 90.3976C158.329 90.4339 158.36 90.4651 158.396 90.4892C158.432 90.5133 158.473 90.5299 158.515 90.538C158.558 90.5461 158.602 90.5455 158.644 90.5362C158.686 90.5269 158.726 90.5091 158.762 90.484L165.786 85.5304Z" fill="#E3EAF3"/>
<path d="M158.286 90.388L151.862 80.6248L151.876 80.5312C151.903 80.3533 151.976 80.1856 152.088 80.0444C152.199 79.9032 152.345 79.7934 152.512 79.7257C152.679 79.6579 152.86 79.6346 153.038 79.658C153.217 79.6814 153.386 79.7507 153.53 79.8592C154.756 80.7928 156.323 82.3984 157.758 83.8696C159.256 85.4056 160.864 87.0544 161.61 88.4608L158.73 90.4744C158.66 90.5213 158.574 90.5386 158.491 90.5224C158.407 90.5063 158.334 90.4579 158.286 90.388Z" fill="#ABBCCA"/>
<path d="M165.37 83.2634L157.317 88.948L157.871 89.7322L165.923 84.0476L165.37 83.2634Z" fill="#25BEEF"/>
<path d="M160.425 86.7544C160.636 87.0112 160.83 87.2656 161.01 87.5128L157.871 89.7304L157.6 89.3392L157.336 88.936L160.425 86.7544Z" fill="#1A87C4"/>
<path d="M164.056 81.3969L155.894 86.7418L156.42 87.5449L164.582 82.2001L164.056 81.3969Z" fill="#25BEEF"/>
<path d="M159.412 85.5976L156.422 87.556L156.17 87.172L155.896 86.7544L158.745 84.8896C158.97 85.1248 159.196 85.3624 159.412 85.5976Z" fill="#1A87C4"/>
<path d="M136.41 101.32C137.822 100.823 141.489 100.806 147.045 99.0544C152.26 97.4128 153.309 96.0784 153.784 95.1232C154.9 92.8792 154.17 90.0304 153.87 88.8592C153.333 86.7568 153.179 85.9528 152.099 83.2864C151.737 82.3912 151.619 80.224 152.099 80.0464C152.658 79.84 154.24 82.2544 155.858 85.6072L158.037 99.9856C158.08 100.274 158.061 100.568 157.981 100.848C157.9 101.128 157.76 101.387 157.57 101.608C157.38 101.829 157.144 102.006 156.879 102.127C156.614 102.249 156.327 102.311 156.035 102.311H137.44C137.174 102.311 136.919 102.207 136.729 102.022C136.538 101.837 136.426 101.586 136.418 101.32H136.41Z" fill="#ABBCCA"/>
<path d="M108.734 95.9296C108.734 95.9296 109.77 99.8128 113.315 98.74" stroke="#2F170B" stroke-width="2" stroke-miterlimit="10"/>
<path d="M123.364 178.374C125.975 176.373 132.628 174.294 134.294 170.572C135.194 171.702 140.226 171.383 142.137 171.292C142.137 171.292 142.763 174.4 142.617 176.572C142.47 178.744 142.35 179.373 142.35 179.373L138.806 179.507L138.88 178.6C138.88 178.6 136.818 178.509 135.611 179.543C134.404 180.578 131.109 181.785 127.722 181.307C124.336 180.83 120.75 180.376 123.364 178.374Z" fill="#7C2F13"/>
<path d="M127.73 181.302C131.114 181.782 134.409 180.582 135.616 179.541C136.823 178.499 138.88 178.6 138.88 178.6L138.791 179.534L142.336 179.399C142.336 179.399 142.446 178.782 142.602 176.598C142.653 175.442 142.594 174.283 142.427 173.138C142.288 172.086 142.132 171.306 142.132 171.306C140.212 171.388 135.352 171.678 134.291 170.586C133.78 171.203 132.81 171.786 132.232 172.391C132.05 172.586 131.853 172.778 131.656 172.962C131.459 173.147 131.315 173.258 131.142 173.404C130.919 173.586 130.691 173.771 130.451 173.949C128.051 175.739 125.025 177.117 123.362 178.389C120.753 180.376 124.343 180.822 127.73 181.302Z" fill="#25BEEF"/>
<path d="M142.137 171.302C142.137 171.302 142.763 174.41 142.617 176.582C142.578 177.093 142.545 177.515 142.514 177.866C141.266 177.899 139.806 177.801 140.38 177.093C141.34 175.919 141.357 171.318 141.357 171.318L142.137 171.302Z" fill="#E3EAF3"/>
<path d="M122.829 178.854C122.993 178.679 123.172 178.518 123.364 178.374C124.463 177.532 126.157 176.644 127.873 175.622C129.242 176.007 130.46 176.801 131.363 177.899C132.153 178.893 132.217 180.515 132.431 180.779C131.555 181.698 122.653 180.614 122.483 179.697C122.483 179.697 122.483 179.675 122.483 179.666C122.5 179.363 122.622 179.076 122.829 178.854Z" fill="#E3EAF3"/>
<path d="M127.727 181.302C125.008 180.916 122.162 180.554 122.495 179.382C130.83 182.318 134.538 179.169 135.258 178.182C135.978 177.196 137.498 177.244 137.498 177.244C140.265 177.484 141.818 176.704 142.626 176.075C142.626 176.246 142.626 176.416 142.607 176.579C142.449 178.763 142.341 179.38 142.341 179.38L138.796 179.514L138.88 178.6C138.88 178.6 136.818 178.509 135.611 179.543C134.404 180.578 131.114 181.78 127.727 181.302Z" fill="#7C2F13"/>
<path d="M131.661 172.948C131.812 173.078 131.973 173.202 132.141 173.318C132.358 173.48 132.587 173.624 132.827 173.75C133.087 173.894 133.366 174.001 133.655 174.066C133.579 173.762 133.442 173.476 133.252 173.226C133.077 172.988 132.865 172.778 132.626 172.605C132.505 172.519 132.377 172.443 132.244 172.377C132.054 172.571 131.858 172.763 131.661 172.948Z" fill="#7C2F13"/>
<path d="M130.456 173.934C130.566 174.018 130.677 174.102 130.79 174.174C131.009 174.333 131.238 174.477 131.476 174.606C131.736 174.751 132.014 174.858 132.304 174.923C132.228 174.619 132.091 174.333 131.901 174.083C131.726 173.845 131.514 173.635 131.274 173.462C131.234 173.432 131.191 173.404 131.147 173.38C130.924 173.572 130.696 173.757 130.456 173.934Z" fill="#7C2F13"/>
<path d="M138.282 178.36C140.894 176.358 147.21 174.782 148.876 171.066C149.776 172.197 154.852 171.148 156.762 171.066C156.762 171.066 157.682 174.398 157.526 176.586C157.37 178.775 157.259 179.387 157.259 179.387L153.714 179.522L153.803 178.588C153.803 178.588 151.742 178.497 150.534 179.534C149.327 180.57 146.032 181.773 142.646 181.295C139.259 180.818 135.669 180.35 138.282 178.36Z" fill="#7C2F13"/>
<path d="M142.648 181.276C146.032 181.756 149.327 180.556 150.534 179.514C151.742 178.473 153.803 178.569 153.803 178.569L153.714 179.502L157.259 179.368C157.259 179.368 157.37 178.751 157.526 176.567C157.605 175.478 157.365 174.182 157.228 173.133C157.126 172.43 156.971 171.736 156.762 171.057C154.842 171.136 150.174 171.393 148.878 171.057C148.229 171.379 147.645 171.818 147.155 172.353C146.973 172.55 146.776 172.739 146.579 172.926C146.409 173.075 146.238 173.222 146.066 173.366C145.842 173.55 145.614 173.733 145.374 173.91C142.974 175.701 139.948 177.078 138.285 178.35C135.671 180.352 139.262 180.796 142.648 181.276Z" fill="#25BEEF"/>
<path d="M156.762 171.054C156.762 171.054 157.682 174.386 157.526 176.574C157.487 177.086 157.454 177.508 157.422 177.861C156.174 177.894 154.715 177.794 155.289 177.088C156.249 175.912 156.266 171.311 156.266 171.311C156.568 171.294 156.544 171.064 156.762 171.054Z" fill="#E3EAF3"/>
<path d="M137.747 178.84C137.912 178.665 138.091 178.505 138.282 178.36C139.382 177.518 141.076 176.63 142.792 175.607C144.16 175.991 145.378 176.784 146.282 177.88C147.071 178.874 147.136 180.496 147.35 180.76C146.474 181.677 137.572 180.592 137.402 179.675C137.402 179.675 137.402 179.656 137.402 179.644C137.421 179.344 137.543 179.06 137.747 178.84Z" fill="#E3EAF3"/>
<path d="M142.646 181.276C139.926 180.892 137.08 180.527 137.414 179.356C145.749 182.291 149.457 179.142 150.177 178.156C150.897 177.17 152.416 177.218 152.416 177.218C155.183 177.458 156.748 176.678 157.545 176.046C157.545 176.219 157.545 176.387 157.526 176.55C157.367 178.734 157.259 179.351 157.259 179.351L153.714 179.486L153.803 178.552C153.803 178.552 151.742 178.461 150.534 179.498C149.327 180.534 146.032 181.754 142.646 181.276Z" fill="#7C2F13"/>
<path d="M146.579 172.924C146.73 173.051 146.891 173.164 147.059 173.291C147.275 173.454 147.505 173.599 147.746 173.723C148.006 173.867 148.284 173.975 148.574 174.042C148.498 173.737 148.36 173.451 148.17 173.2C147.995 172.962 147.783 172.752 147.544 172.578C147.423 172.492 147.295 172.416 147.162 172.35C146.973 172.547 146.776 172.737 146.579 172.924Z" fill="#7C2F13"/>
<path d="M145.374 173.908C145.485 173.992 145.595 174.076 145.708 174.148C145.927 174.307 146.156 174.452 146.394 174.58C146.654 174.724 146.933 174.832 147.222 174.899C147.147 174.594 147.01 174.307 146.819 174.057C146.643 173.819 146.432 173.609 146.193 173.435C146.154 173.406 146.109 173.38 146.066 173.354C145.84 173.56 145.614 173.73 145.374 173.908Z" fill="#7C2F13"/>
<path d="M158.37 117.88C159.667 114.604 160.149 111.063 159.777 107.56C159.531 105.334 158.938 103.159 158.02 101.116C158.02 101.116 141.263 103.602 136.578 101.258C136.578 101.258 132.83 134.507 132.712 137.435C132.594 140.363 134.294 170.826 134.294 170.826C134.294 170.826 138.854 172.66 142.125 171.412C142.125 171.412 144.702 148.058 144.311 142.132L144.525 138.095C144.654 141.023 148.902 171.234 148.902 171.234C148.902 171.234 153.59 172.674 156.755 171.16C156.755 171.16 157.365 147.674 156.477 141.791L156.39 130.511L158.37 117.88Z" fill="#EF3E3B"/>
<path d="M144.897 127.259C144.273 120.059 142.977 113.154 142.554 113.2C142.23 113.234 142.554 116.817 142.672 125.034C142.758 131.735 142.626 136.238 142.432 142.607C142.065 155.039 141.568 157.173 141.033 158.891C139.636 163.299 137.339 167.369 134.289 170.843C135.827 171.534 138.316 172.329 141.098 171.714C141.444 171.639 141.785 171.543 142.12 171.429C142.12 171.429 144.698 148.074 144.306 142.149L145.139 131.262C145.12 130.158 145.046 128.958 144.897 127.259Z" fill="#C82833"/>
<path d="M159.777 107.577C159.531 105.35 158.938 103.176 158.02 101.133C158.02 101.133 141.263 103.619 136.578 101.277C136.396 102.642 149.454 102.914 153.887 111.09C154.989 113.123 154.722 136.05 154.986 142.413C155.507 154.84 155.162 157.002 154.746 158.757C153.669 163.246 151.673 167.463 148.883 171.141V171.162C149.205 171.28 149.567 171.402 149.963 171.506C151.223 171.772 153.393 172.082 155.354 171.64C155.476 171.609 155.594 171.58 155.721 171.544C156.038 171.449 156.35 171.337 156.654 171.208L156.777 171.146C156.777 171.119 156.748 170.426 156.791 169.19C156.914 163.41 157.197 146.642 156.467 141.798L156.381 130.518L156.621 128.91V128.898V128.879L158.344 117.887C159.648 114.617 160.139 111.079 159.777 107.577Z" fill="#C82833"/>
<path d="M146.445 104.711C150.172 104.711 155.085 104.406 158.786 103.082L158.625 102.63C152.478 104.834 142.869 104.166 141.282 104.037L141.342 102.206L140.862 102.191L140.788 104.474L141.011 104.495C141.062 104.5 143.339 104.711 146.445 104.711Z" fill="#7C2F13"/>
<path d="M141.014 104.495L141.057 104.015C139.486 103.862 137.929 103.592 136.398 103.206L136.271 103.67C137.829 104.063 139.414 104.339 141.014 104.495Z" fill="#7C2F13"/>
<path d="M142.353 113.332L142.756 113.07C141.076 110.49 141.724 104.382 141.731 104.32L141.251 104.267C141.225 104.526 140.582 110.61 142.353 113.332Z" fill="#7C2F13"/>
<path d="M157.01 113.433L157.13 112.967C154.146 112.211 150.479 107.284 150.441 107.234L150.054 107.519C150.21 107.728 153.863 112.634 157.01 113.433Z" fill="#7C2F13"/>
<path d="M142.226 103.857C141.299 103.857 141.297 102.417 142.226 102.417C143.154 102.417 143.154 103.857 142.226 103.857Z" fill="#7C2F13"/>
<path d="M152.142 171.309L152.622 171.287C152.622 171.083 151.694 150.782 151.182 140.75C150.501 127.485 153.453 110.939 153.482 110.774L153.002 110.687C152.97 110.853 150.009 127.454 150.693 140.774C151.216 150.806 152.133 171.105 152.142 171.309Z" fill="#7C2F13"/>
<path d="M219.974 142.821C219.04 138.633 217.607 134.694 214.622 135.033C211.636 135.371 209.25 139.463 209.159 144.05C209.075 148.338 212.459 151.49 215.445 151.154C218.43 150.818 221.15 148.091 219.974 142.821Z" fill="#7BCE34"/>
<path d="M217.048 145.403C214.06 145.742 210.678 142.588 210.762 138.297C210.762 138.201 210.762 138.102 210.762 138.004C209.724 139.851 209.169 141.931 209.147 144.05C209.063 148.338 212.447 151.49 215.433 151.154C218.2 150.839 220.734 148.478 220.158 143.939C219.314 144.761 218.219 145.276 217.048 145.403Z" fill="#3C8F2D"/>
<path d="M228.09 155.051C227.85 150.767 225.45 149.531 222.453 149.87C219.455 150.208 217.084 154.298 216.993 158.884C216.906 163.175 218.49 164.836 221.476 164.498C224.462 164.159 228.4 160.84 228.09 155.051Z" fill="#7BCE34"/>
<path d="M226.19 160.638C223.204 160.977 221.63 159.314 221.706 155.025C221.732 153.232 222.129 151.464 222.87 149.831C222.734 149.831 222.594 149.853 222.453 149.87C219.467 150.208 217.084 154.298 216.993 158.884C216.906 163.175 218.49 164.836 221.476 164.498C223.341 164.286 225.58 162.909 226.922 160.497C226.681 160.561 226.437 160.608 226.19 160.638Z" fill="#3C8F2D"/>
<path d="M209.781 150.141C207.381 148.221 204.652 148.002 203.447 149.255C202.242 150.508 203.09 152.783 205.202 155.296C207.177 157.648 209.625 158.925 211.391 157.696C212.812 156.683 212.8 152.572 209.781 150.141Z" fill="#7BCE34"/>
<path d="M210.4 150.712C210.434 151.89 210.093 152.872 209.49 153.299C207.724 154.542 205.274 153.266 203.301 150.914C203.164 150.75 203.032 150.59 202.907 150.434C202.768 151.715 203.627 153.443 205.197 155.301C207.172 157.653 209.62 158.93 211.386 157.701C212.706 156.76 212.786 153.16 210.4 150.712Z" fill="#3C8F2D"/>
<path d="M206.37 150.791C207.024 151.188 207.636 151.647 208.199 152.164C208.264 152.233 208.324 152.307 208.377 152.385C208.434 152.462 208.494 152.536 208.552 152.608C208.67 152.759 208.792 152.901 208.902 153.057C209.121 153.366 209.356 153.664 209.56 153.983C210.409 155.239 211.118 156.585 211.674 157.996C212.242 159.402 212.65 160.869 212.889 162.366L212.982 162.926C212.997 163.019 213.016 163.113 213.026 163.206L213.05 163.49C213.078 163.866 213.117 164.243 213.143 164.622C213.12 165.003 213.075 165.382 213.006 165.758C212.946 166.134 212.882 166.506 212.81 166.876C212.742 166.499 212.678 166.13 212.62 165.76C212.562 165.39 212.526 165.026 212.426 164.663C212.39 164.298 212.368 163.943 212.334 163.569L212.31 163.295C212.31 163.204 212.282 163.115 212.27 163.024L212.178 162.484C211.947 161.037 211.553 159.621 211.005 158.262C210.469 156.899 209.785 155.599 208.962 154.386C208.766 154.077 208.538 153.789 208.326 153.491C208.115 153.194 207.873 152.918 207.642 152.634C207.249 152.008 206.829 151.396 206.37 150.791Z" fill="#2E6821"/>
<path d="M214.833 136.475C215.042 137.728 215.198 138.986 215.351 140.243L215.471 144.03C215.543 146.555 215.598 149.07 215.622 151.607C215.646 154.144 215.642 156.664 215.572 159.194C215.536 160.458 215.481 161.726 215.382 162.993C215.279 163.622 215.164 164.25 215.02 164.874C214.889 165.501 214.689 166.111 214.422 166.694L214.518 166.228L214.574 165.748C214.605 165.436 214.624 165.122 214.638 164.81C214.662 164.181 214.674 163.554 214.665 162.923C214.761 161.675 214.816 160.418 214.852 159.16C214.922 156.645 214.926 154.12 214.902 151.602C214.878 149.085 214.823 146.562 214.751 144.04C214.713 142.78 214.677 141.518 214.624 140.258C214.684 139 214.742 137.742 214.833 136.475Z" fill="#2E6821"/>
<path d="M216.986 166.401C217.295 165.81 217.552 165.201 217.809 164.603C218.162 164.058 218.488 163.494 218.814 162.923C219.462 161.793 220.072 160.636 220.677 159.477C221.282 158.318 221.86 157.144 222.431 155.968L223.283 154.199C223.66 153.652 224.037 153.107 224.447 152.574C224.298 153.227 224.114 153.868 223.931 154.494L223.079 156.27C222.503 157.451 221.915 158.626 221.315 159.796C220.708 160.96 220.094 162.124 219.438 163.269L218.942 164.123C218.766 164.404 218.603 164.692 218.426 164.97C217.997 165.496 217.514 165.975 216.986 166.401Z" fill="#2E6821"/>
<path d="M221.483 181.096H210.479C209.793 181.096 209.129 180.85 208.609 180.402C208.089 179.954 207.747 179.334 207.645 178.655L205.706 165.741C205.571 164.846 212.154 165.554 216.186 165.515C219.983 165.477 226.19 165.122 226.122 165.57L224.32 178.655C224.218 179.334 223.876 179.955 223.355 180.403C222.834 180.851 222.17 181.097 221.483 181.096Z" fill="#ABBCCA"/>
<path d="M215.92 165.518C211.89 165.558 205.578 164.846 205.713 165.741L207.652 178.655C207.754 179.334 208.096 179.954 208.616 180.402C209.136 180.85 209.8 181.096 210.486 181.096H214.84C213.699 179.834 213.061 178.197 213.047 176.495C213.047 176.145 213.09 173.879 214.727 172.07C215.711 170.99 217.305 170.438 220.487 169.331C222.021 168.801 223.245 168.534 224.567 167.411C225.126 166.964 225.632 166.454 226.074 165.892L226.118 165.57C226.19 165.122 219.712 165.479 215.92 165.518Z" fill="#91A6B5"/>
<path d="M111.282 67.108H67.5496C67.0061 67.108 66.5656 67.5485 66.5656 68.092V95.704C66.5656 96.2474 67.0061 96.688 67.5496 96.688H111.282C111.826 96.688 112.266 96.2474 112.266 95.704V68.092C112.266 67.5485 111.826 67.108 111.282 67.108Z" fill="#9D9F9F"/>
<path d="M111.942 67.108H107.656C107.477 67.108 107.332 67.2531 107.332 67.432V96.364C107.332 96.5429 107.477 96.688 107.656 96.688H111.942C112.121 96.688 112.266 96.5429 112.266 96.364V67.432C112.266 67.2531 112.121 67.108 111.942 67.108Z" fill="#454851"/>
<path d="M99.7023 100.679H79.8519L88.0815 90.1192C88.0812 90.0709 88.0905 90.023 88.1088 89.9783C88.1272 89.9336 88.1542 89.893 88.1884 89.8588C88.2225 89.8247 88.2631 89.7976 88.3078 89.7793C88.3525 89.761 88.4004 89.7517 88.4487 89.752H90.3831C90.4314 89.7517 90.4793 89.761 90.524 89.7793C90.5687 89.7976 90.6093 89.8247 90.6435 89.8588C90.6777 89.893 90.7047 89.9336 90.723 89.9783C90.7414 90.023 90.7506 90.0709 90.7503 90.1192L99.7023 100.679Z" fill="#E3EAF3"/>
<path d="M90.7503 90.1168C90.7507 90.0685 90.7414 90.0206 90.723 89.9759C90.7047 89.9312 90.6777 89.8906 90.6435 89.8564C90.6093 89.8223 90.5687 89.7952 90.524 89.7769C90.4793 89.7586 90.4314 89.7493 90.3831 89.7496H88.4487C88.4004 89.7493 88.3525 89.7586 88.3078 89.7769C88.2631 89.7952 88.2225 89.8223 88.1884 89.8564C88.1542 89.8906 88.1272 89.9312 88.1088 89.9759C88.0905 90.0206 88.0812 90.0685 88.0815 90.1168L87.4623 90.9088L95.7399 100.679H99.7023L90.7503 90.1168Z" fill="#ABBCCA"/>
<path d="M79.1199 100.679H99.6904C99.8196 100.679 99.9475 100.705 100.067 100.754C100.186 100.804 100.295 100.876 100.386 100.967C100.478 101.059 100.55 101.167 100.599 101.287C100.649 101.406 100.674 101.534 100.674 101.663V103.888H78.1479V101.663C78.1479 101.404 78.2499 101.156 78.4319 100.972C78.6138 100.787 78.8611 100.682 79.1199 100.679Z" fill="#9D9F9F"/>
<path d="M97.8616 100.679H100.314C100.412 100.679 100.506 100.718 100.576 100.787C100.645 100.857 100.684 100.951 100.684 101.049V103.888H97.4919V101.049C97.4919 100.951 97.5309 100.857 97.6002 100.787C97.6695 100.718 97.7635 100.679 97.8616 100.679Z" fill="#454851"/>
<path d="M90.4624 76.4296H86.9872C85.9586 76.4296 85.1248 77.2634 85.1248 78.292V81.0976C85.1248 82.1262 85.9586 82.96 86.9872 82.96H90.4624C91.4909 82.96 92.3248 82.1262 92.3248 81.0976V78.292C92.3248 77.2634 91.4909 76.4296 90.4624 76.4296Z" fill="#E3EAF3"/>
<path d="M91.9456 110.649H88.1056V180.978H91.9456V110.649Z" fill="#396E8E"/>
<path d="M187.946 108.729H61.7272V165.378H187.946V108.729Z" fill="#54A4CC"/>
<path d="M187.943 108.729H159.719V165.378H187.943V108.729Z" fill="#396E8E"/>
<path d="M138.431 126.976H81.7912V144.016H138.431V126.976Z" fill="#E3EAF3"/>
<path d="M63.6472 110.649H59.8072V181.098H63.6472V110.649Z" fill="#54A4CC"/>
<path d="M195.998 103.888H53.6752V110.649H195.998V103.888Z" fill="#895237"/>
<path d="M189.866 110.649H186.026V180.978H189.866V110.649Z" fill="#396E8E"/>
<path d="M161.639 110.649H157.799V181.098H161.639V110.649Z" fill="#54A4CC"/>
<path d="M195.998 103.888H53.6752V110.649H195.998V103.888Z" fill="#C9EFFB"/>
<path d="M195.995 103.888H151.799V110.649H195.995V103.888Z" fill="#87DBF6"/>
<path d="M25.8735 50.68C25.8735 50.68 23.3151 50.8072 23.1711 53.74C23.0271 56.6728 20.8215 55.8544 20.8215 55.8544C20.8215 55.8544 22.2975 58.1008 25.2543 55.768C28.2111 53.4352 28.5975 53.128 28.5975 53.128C28.5975 53.128 28.5855 50.7952 26.0655 50.6656" fill="#000001"/>
<path d="M24.712 56.8168C24.712 56.8168 25.312 64.0888 28.1872 67.2424C31.0624 70.396 28.24 56.5768 28.24 56.5768L24.712 56.8168Z" fill="#000001"/>
<path d="M33.9496 70.7752C33.7984 70.2424 34.4176 68.9488 34.8136 68.2024C32.2096 68.6008 29.1064 66.7624 27.4912 63.508C27.3944 63.5607 27.2899 63.598 27.1816 63.6184C27.1816 63.6184 26.9296 70.3912 25.4608 70.4728C23.7448 71.9464 18.1384 76.9288 19.2808 79.24C20.2408 81.1792 25.4152 80.1784 33.1336 78.688C33.8841 78.5714 34.5841 78.2377 35.1472 77.728C36.7648 76.1824 36.3232 73.408 36.1072 72.7816C35.8 71.9632 34.1656 71.5408 33.9496 70.7752Z" fill="#EA9D7D"/>
<path d="M28.3216 71.5456C27.2968 69.328 29.4472 68.8576 29.4472 68.8576L29.4328 68.8264C30.8536 69.7864 32.44 70.2016 33.8632 69.9232C33.9304 69.9112 33.9952 69.8944 34.0624 69.8776C34.2662 69.2933 34.5175 68.7266 34.8136 68.1832C32.2096 68.584 29.2552 66.5728 27.64 63.316C27.601 63.4041 27.5365 63.4785 27.4547 63.5294C27.373 63.5803 27.2778 63.6055 27.1816 63.6016C27.1816 63.6016 27.1336 64.8616 26.9632 66.2992C26.7376 68.2 26.296 70.4248 25.4584 70.4704C23.1328 72.4456 17.5168 77.4712 18.6448 79.6984C19.7728 81.9256 27.4792 81.1384 33.1312 78.6856C33.9904 78.3112 34.696 77.9464 35.2072 77.6632C31.6792 78.052 29.2408 73.5352 28.3216 71.5456Z" fill="#D18165"/>
<path d="M30.784 50.7328C27.808 51.3136 25.984 55.1032 26.4016 59.5024H26.38C25.5664 59.6608 25.0864 60.7024 25.3072 61.8472C25.528 62.992 26.368 63.7672 27.1816 63.616C27.2741 63.6126 27.3648 63.5894 27.4476 63.548C27.5304 63.5066 27.6034 63.448 27.6616 63.376C29.3152 66.7048 32.3488 68.6824 34.9888 68.176C38.2672 67.5376 39.4264 63.4936 38.4592 58.5424C37.492 53.5912 34.06 50.0944 30.784 50.7328Z" fill="#EA9D7D"/>
<path d="M34.024 64.6768C34.9345 64.7388 35.8397 64.8623 36.7336 65.0464C36.7336 65.0464 36.6448 63.76 35.5696 63.6064C34.4944 63.4528 34.024 64.6768 34.024 64.6768Z" fill="#BE3E5F"/>
<path d="M36.3231 58.2232C36.4311 58.7032 36.5247 59.1832 36.6567 59.6464C36.7164 59.8638 36.8018 60.0733 36.9111 60.2704C36.9567 60.352 37.0407 60.4624 37.1079 60.5656C37.1751 60.6688 37.2447 60.7792 37.3071 60.8944C37.4581 61.143 37.5355 61.4292 37.5303 61.72C37.5143 61.8961 37.434 62.0601 37.3047 62.1808C37.1904 62.2842 37.0516 62.3568 36.9015 62.392C36.3936 62.4891 35.8691 62.4519 35.3799 62.284C35.8546 62.2632 36.3247 62.1825 36.7791 62.044C36.8648 62.0089 36.9425 61.9567 37.0071 61.8904C37.031 61.8642 37.0494 61.8335 37.0614 61.8002C37.0733 61.7668 37.0785 61.7314 37.0767 61.696C37.0576 61.4949 36.9919 61.3009 36.8847 61.1296C36.8319 61.0288 36.7719 60.928 36.7071 60.8272C36.6423 60.7264 36.5799 60.6328 36.5151 60.496C36.4003 60.2554 36.3257 59.9976 36.2943 59.7328C36.2214 59.2314 36.2311 58.7215 36.3231 58.2232Z" fill="#D18165"/>
<path d="M31.9744 57.5776C32.457 57.5645 32.9382 57.518 33.4144 57.4384C33.6451 57.3981 33.8722 57.3396 34.0936 57.2632C34.3336 57.1936 34.5352 57.0856 34.7776 56.9872C34.6357 57.2079 34.4432 57.3914 34.216 57.5224C33.9907 57.6602 33.7416 57.7546 33.4816 57.8008C33.2247 57.846 32.9625 57.8516 32.704 57.8176C32.4471 57.7876 32.1989 57.7059 31.9744 57.5776Z" fill="#000001"/>
<path d="M38.0176 56.836C38.056 56.9512 38.0944 57.076 38.1304 57.1864H38.0944C37.8377 57.2327 37.5753 57.2384 37.3168 57.2032C37.0591 57.1735 36.8101 57.0918 36.5848 56.9632C37.0647 56.9528 37.5434 56.9103 38.0176 56.836Z" fill="#000001"/>
<path d="M37.8399 60.04C37.7926 60.0494 37.744 60.0493 37.6967 60.0398C37.6494 60.0303 37.6045 60.0114 37.5646 59.9844C37.5246 59.9574 37.4904 59.9228 37.4639 59.8825C37.4375 59.8422 37.4193 59.797 37.4103 59.7496L37.2039 58.6936C37.1911 58.6005 37.2144 58.5061 37.2691 58.4297C37.3238 58.3533 37.4057 58.3008 37.498 58.2829C37.5903 58.2651 37.6858 58.2833 37.7651 58.3338C37.8443 58.3843 37.9012 58.4633 37.9239 58.5544L38.1279 59.6104C38.1374 59.6575 38.1374 59.7061 38.128 59.7532C38.1186 59.8003 38.1 59.8452 38.0732 59.8851C38.0465 59.925 38.0121 59.9592 37.9721 59.9858C37.932 60.0124 37.8871 60.0308 37.8399 60.04Z" fill="#000001"/>
<path d="M34.1415 60.2632C34.0941 60.273 34.0451 60.2732 33.9976 60.2638C33.95 60.2544 33.9048 60.2357 33.8646 60.2086C33.8244 60.1816 33.79 60.1468 33.7633 60.1063C33.7367 60.0658 33.7184 60.0204 33.7095 59.9728L33.5031 58.9192C33.4916 58.8711 33.4899 58.8211 33.4982 58.7724C33.5065 58.7236 33.5245 58.677 33.5513 58.6353C33.578 58.5937 33.6129 58.5579 33.6538 58.5301C33.6947 58.5023 33.7408 58.483 33.7894 58.4735C33.8379 58.4639 33.8879 58.4643 33.9363 58.4745C33.9847 58.4848 34.0306 58.5047 34.0711 58.5331C34.1116 58.5615 34.1459 58.5978 34.1721 58.6398C34.1982 58.6818 34.2156 58.7287 34.2231 58.7776L34.4295 59.8336C34.4479 59.9287 34.4279 60.0272 34.374 60.1077C34.3201 60.1882 34.2365 60.2441 34.1415 60.2632Z" fill="#000001"/>
<path d="M26.3511 60.52C26.2722 60.9156 26.2665 61.3224 26.3343 61.72C26.374 61.9054 26.4344 62.0857 26.5143 62.2576C26.5479 62.3512 26.6055 62.4376 26.6511 62.5384C26.6967 62.6392 26.7591 62.7256 26.8047 62.8408C26.6909 62.8062 26.5814 62.7587 26.4783 62.6992C26.3782 62.6347 26.2863 62.5581 26.2047 62.4712C26.0319 62.2892 25.9138 62.0621 25.8639 61.816C25.8109 61.5702 25.8301 61.3143 25.9191 61.0792C26.0001 60.8517 26.1514 60.6558 26.3511 60.52Z" fill="#D18165"/>
<path d="M26.38 59.488C26.38 59.488 27.7864 64.4368 28.9432 66.0784C30.0136 67.5952 32.0152 69.0952 35.1328 68.7664C35.725 68.7083 36.2876 68.4799 36.7528 68.1088C37.6648 67.372 38.9704 65.8216 38.7208 63.0856C38.7208 63.0856 37.9264 62.1856 35.7856 62.2312C33.6448 62.2768 33.1048 62.8264 32.7376 63.2416C32.3704 63.6568 30.736 65.656 29.92 65.0296C29.104 64.4032 27.1336 60.376 28.0624 58.2064C28.9912 56.0368 30.0616 56.9344 28.9264 54.4624C28.9264 54.4624 30.5512 53.8672 33.3904 54.4912C33.9747 54.6265 34.5883 54.5464 35.1184 54.2656C35.5456 54.0256 35.9296 53.6848 35.8936 53.1976C36.6507 54.1409 37.2951 55.1695 37.8136 56.2624C37.8136 56.2624 39.1888 54.172 37.2688 52.4392C35.6344 50.9632 35.1232 50.08 34.576 49.8736C33.4912 49.4632 33.0376 50.1136 31.9696 50.3008C30.9016 50.488 30.6976 49.8088 29.4544 50.4712C28.2112 51.1336 27.6808 52.1344 27.256 53.0824C27.256 53.0824 26.0344 52.9144 24.9208 55.1056C24.4312 56.0776 24.256 61.0288 26.38 59.488ZM33.6832 63.2896C33.9736 63.0088 34.8136 62.5528 36.0328 62.7688C37.1968 62.9728 37.3528 63.7288 37.5328 64.3048C37.6232 64.58 37.6511 64.8719 37.6144 65.1592C37.5328 65.7352 37.2376 65.9464 36.7264 66.004C36.0928 66.0712 35.9536 65.1472 35.5 65.1976C35.0464 65.248 35.1112 66.028 33.988 66.076C32.8648 66.124 32.9344 64.0096 33.6832 63.2896Z" fill="#000001"/>
<path d="M45.7599 180.746C42.3999 181.226 39.1287 180.102 37.9287 179.118C36.7287 178.134 34.7775 178.523 34.7775 178.523L34.8352 180.863L31.3239 180.76C31.3239 180.76 31.1511 178.439 30.9927 176.351C30.9135 175.305 31.2543 174.724 31.3887 173.711C31.5231 172.698 32.248 171.071 32.248 171.071C34.144 171.134 39.0304 171.419 39.928 170.334C40.2726 171.035 40.7345 171.671 41.2936 172.216C41.4736 172.401 41.6679 172.583 41.8647 172.761C42.0615 172.938 42.2008 173.039 42.3736 173.176C42.5968 173.351 42.8223 173.524 43.0599 173.694C45.4599 175.389 48.4503 176.687 50.1039 177.892C52.6911 179.8 49.1199 180.263 45.7599 180.746Z" fill="#EA9D7D"/>
<path d="M12.2704 178.986C9.16478 177.614 6.99037 174.923 6.49597 173.452C6.00157 171.981 4.21358 170.985 4.21358 170.985L3.22957 172.554L0.301575 170.601C0.301575 170.601 1.10558 169.276 2.07998 167.421C2.55998 166.494 3.16718 166.182 3.81278 165.402C4.45838 164.622 5.93678 163.626 5.93678 163.626C7.51118 164.685 11.5 167.522 12.832 167.073C12.7512 167.849 12.8048 168.633 12.9904 169.391C13.0456 169.646 13.1128 169.902 13.1872 170.157C13.2544 170.368 13.324 170.572 13.396 170.781C13.492 171.047 13.5928 171.314 13.7056 171.582C14.8312 174.29 16.684 176.98 17.4448 178.878C18.64 181.864 15.376 180.359 12.2704 178.986Z" fill="#EA9D7D"/>
<path d="M32.248 171.086C32.248 171.086 30.8368 174.261 30.9952 176.351C31.0312 176.831 31.0648 177.244 31.096 177.58C32.3368 177.604 33.784 177.498 33.2152 176.824C32.2696 175.706 33.0304 171.107 33.0304 171.107L32.248 171.086Z" fill="#7C2F13"/>
<path d="M50.6296 178.36C50.4653 178.193 50.2871 178.04 50.0968 177.904C49.0048 177.107 47.3224 176.267 45.6184 175.302C44.2705 175.677 43.0653 176.446 42.1576 177.51C41.3728 178.47 41.3104 180.021 41.0992 180.285C41.968 181.158 50.8024 180.045 50.9704 179.171C50.9715 179.162 50.9715 179.152 50.9704 179.142C50.9535 178.849 50.8327 178.572 50.6296 178.36Z" fill="#7C2F13"/>
<path d="M45.76 180.746C48.4576 180.357 51.28 179.987 50.9536 178.874C42.6808 181.754 38.9968 178.763 38.2816 177.832C37.5664 176.901 36.0592 176.949 36.0592 176.949C33.3112 177.189 31.7584 176.469 30.9664 175.869C30.9664 176.032 30.9664 176.195 30.988 176.349C31.144 178.437 31.3192 180.758 31.3192 180.758L34.8376 180.861L34.78 178.521C34.78 178.521 36.6184 178.228 37.7512 179.769C38.5984 180.916 42.4 181.24 45.76 180.746Z" fill="#7C2F13"/>
<path d="M37.7584 171.086C38.062 171.74 38.4743 172.338 38.9776 172.854C39.4625 173.381 39.9934 173.863 40.564 174.294C41.1294 174.728 41.7254 175.12 42.3472 175.468C42.6568 175.641 42.976 175.799 43.3072 175.948C43.6384 176.097 43.9624 176.231 44.3032 176.344C44.0416 176.104 43.7656 175.864 43.492 175.648C43.2184 175.432 42.9472 175.204 42.6664 174.993C42.1216 174.556 41.56 174.143 41.0128 173.716C40.4656 173.289 39.9136 172.869 39.3712 172.437C38.8288 172.005 38.2816 171.575 37.7584 171.086Z" fill="#7C2F13"/>
<path d="M5.93919 163.626C5.93919 163.626 3.05919 165.568 2.08239 167.423C1.85439 167.858 1.66959 168.218 1.51599 168.52C2.55519 169.197 3.83919 169.876 3.71439 169C3.50559 167.56 6.59439 164.056 6.59439 164.056C6.33999 163.893 6.11679 163.746 5.93919 163.626Z" fill="#7C2F13"/>
<path d="M17.656 179.56C17.6073 179.332 17.5374 179.108 17.4472 178.893C16.9456 177.635 15.964 176.032 15.0328 174.309C13.6907 173.913 12.2613 173.926 10.9264 174.345C9.75515 174.741 8.87676 176.025 8.55756 176.135C8.83116 177.335 16.9072 181.084 17.5168 180.431L17.536 180.407C17.6787 180.149 17.7214 179.848 17.656 179.56Z" fill="#7C2F13"/>
<path d="M12.2728 178.986C14.7664 180.09 17.3584 181.274 17.6656 180.155C9.12878 178.204 7.58558 173.716 7.47998 172.547C7.37438 171.378 6.06398 170.627 6.06398 170.627C3.60638 169.377 2.67518 167.937 2.31998 167.008C2.23598 167.15 2.15438 167.291 2.07998 167.43C1.10558 169.286 0.301575 170.608 0.301575 170.608L3.22957 172.562L4.21118 170.992C4.21118 170.992 5.99917 171.99 6.49597 173.459C6.99277 174.928 9.16718 177.616 12.2728 178.986Z" fill="#7C2F13"/>
<path d="M10.6095 166.55C10.5205 167.265 10.5521 167.99 10.7031 168.695C10.8358 169.399 11.0301 170.09 11.284 170.759C11.5317 171.427 11.8285 172.076 12.172 172.701C12.3424 173.013 12.5296 173.315 12.7192 173.618C12.9088 173.92 13.1248 174.206 13.3528 174.482C13.2664 174.131 13.1488 173.795 13.0359 173.462C12.9232 173.128 12.7959 172.794 12.6831 172.468C12.4431 171.808 12.2031 171.16 11.9631 170.507C11.7231 169.854 11.4831 169.209 11.2431 168.554C11.0031 167.898 10.7943 167.241 10.6095 166.55Z" fill="#7C2F13"/>
<path d="M37.7608 100.989C37.7608 100.989 41.5096 134.236 41.6272 137.166C41.7448 140.097 40.0456 170.555 40.0456 170.555C40.0456 170.555 35.4856 172.391 32.2144 171.141C32.2144 171.141 29.6368 147.789 30.028 141.861L29.1688 130.6C29.1688 130.6 28.4656 139.972 27.7624 141.066C27.0592 142.161 13.3912 167.858 13.3912 167.858C13.3912 167.858 5.5816 164.342 5.5816 163.326C5.5816 163.326 10.1104 144.58 15.8896 139.348L15.9688 117.597C14.673 114.321 14.1904 110.78 14.5624 107.277C14.8103 105.053 15.403 102.881 16.3192 100.84C16.3192 100.84 33.076 103.334 37.7608 100.989Z" fill="#FFC065"/>
<path d="M29.44 126.974C30.0664 119.774 31.36 112.869 31.7824 112.914C32.1064 112.948 31.7823 116.531 31.6647 124.746C31.5783 131.45 31.7103 135.95 31.9047 142.322C32.2719 154.754 32.7688 156.885 33.304 158.606C34.7004 163.013 36.9969 167.082 40.048 170.555C38.512 171.249 36.0207 172.043 33.2391 171.429C32.8929 171.353 32.5514 171.257 32.2168 171.141C32.2168 171.141 29.6391 147.789 30.0303 141.861L29.2 130.967C29.2288 129.88 29.2936 128.68 29.44 126.974Z" fill="#FFAA39"/>
<path d="M11.392 155.97C12.352 150.82 15.2656 149.807 17.6632 143.781C19.1032 140.152 19.2712 135.988 19.6048 127.66C20.116 114.887 18.7696 113.91 20.452 110.805C24.8848 102.628 37.9432 102.357 37.7608 100.989C32.7016 102.726 18.6544 101.145 16.5784 100.881L16.4104 100.859H16.3288C15.4089 102.898 14.8121 105.068 14.56 107.291C14.188 110.794 14.6706 114.335 15.9664 117.611L15.8872 139.362C10.108 144.594 5.57916 163.341 5.57916 163.341C5.75916 163.581 5.95356 163.804 6.16236 164.03C7.73196 165.246 12.0184 167.243 13.1224 167.75H13.144H13.1656L13.2232 167.774L13.2568 167.79H13.2784L13.312 167.805H13.324L13.3864 167.834C12.0016 165.009 10.4992 160.72 11.392 155.97Z" fill="#FFAA39"/>
<path d="M26.824 104.44C26.824 104.44 23.224 109.72 19.384 110.2" stroke="white" stroke-width="3" stroke-miterlimit="10" stroke-linecap="round"/>
<path d="M23.104 108.436C23.104 108.436 22.624 133.85 20.944 139.13C19.264 144.41 13.6672 145.677 8.54559 165.563" stroke="white" stroke-width="3" stroke-miterlimit="10"/>
<path d="M43.6192 85.6768L46.7728 94.2088C46.8763 94.4885 47.0533 94.7351 47.2852 94.9226C47.5171 95.1101 47.7952 95.2317 48.0904 95.2744L59.92 96.9832C60.3646 97.0483 60.818 97.0166 61.2492 96.8903C61.6804 96.7639 62.0792 96.5459 62.4184 96.2512C63.7288 95.116 65.8336 93.352 66.2752 93.352C66.9256 93.352 68.0848 93.7552 65.4064 96.088C65.4064 96.088 65.8096 96.4288 67.0864 96.4288C68.3632 96.4288 73.2928 96.2848 73.4008 96.6832C73.5088 97.0816 74.74 97.9144 68.044 98.0584C68.044 98.0584 67.7536 98.6728 68.3344 98.6728C68.9152 98.6728 74.416 98.6368 73.8712 99.3616C73.3264 100.086 72.532 99.94 68.152 100.014C68.152 100.014 67.8256 100.494 68.044 100.557C68.2624 100.619 73.4752 100.773 73.4752 101.207C73.4752 101.642 74.416 102.186 66.9568 101.824C66.9568 101.824 66.8488 102.064 67.6096 102.304C68.3704 102.544 71.6896 103.353 70.8304 103.744C69.9712 104.135 69.8536 103.962 65.98 102.911L62.6032 102.369C62.0274 102.275 61.4408 102.268 60.8632 102.35C57.3304 102.846 44.0992 103.974 40.8136 100.562C37.7344 97.3648 36.0784 85.9336 36.0784 85.9336L43.6192 85.6768Z" fill="#EA9D7D"/>
<path d="M73.4872 101.207C73.4872 100.773 68.272 100.629 68.056 100.557C67.84 100.485 68.164 100.014 68.164 100.014C71.5072 99.9592 72.7624 100.029 73.4104 99.7432C71.8192 99.2512 68.8312 99.8344 63.6496 100.377C54.2368 101.363 51.4864 100.766 50.4016 100.492C47.4184 99.7408 44.572 98.9344 42.7984 96.46C40.6384 93.4456 41.5432 89.932 41.6224 85.744L36.0904 85.9312C36.0904 85.9312 37.7464 97.3624 40.8256 100.559C44.1088 103.97 57.3136 102.846 60.8632 102.347C61.4449 102.266 62.0354 102.272 62.6152 102.366L65.992 102.909C69.8656 103.96 69.9736 104.14 70.8424 103.742C71.7112 103.343 68.3824 102.51 67.6216 102.302C66.8608 102.093 66.9688 101.822 66.9688 101.822C74.428 102.186 73.4872 101.642 73.4872 101.207Z" fill="#D18165"/>
<path d="M65.4136 96.088C65.4136 96.088 65.2504 100.103 61.5568 99.832" stroke="#2F170B" stroke-width="2" stroke-miterlimit="10"/>
<path d="M59.5984 96.9352V102.258" stroke="#2F170B" stroke-width="6" stroke-linecap="round" stroke-linejoin="round"/>
<path d="M48.3352 94.276C48.0637 94.1879 47.8172 94.0364 47.616 93.8339C47.4148 93.6315 47.2648 93.384 47.1784 93.112L42.0376 77.212C41.4801 75.4127 40.3927 73.8234 38.9176 72.652C38.5419 72.3512 38.1348 72.0921 37.7032 71.8792C37.6658 71.8608 37.6243 71.8525 37.5828 71.8551C37.5412 71.8576 37.501 71.8709 37.4662 71.8936C37.4313 71.9164 37.403 71.9478 37.3839 71.9849C37.3649 72.0219 37.3558 72.0632 37.3576 72.1048L37.816 86.2168L38.1952 96.3568C38.2623 98.1755 39.0321 99.8972 40.3427 101.16C41.6533 102.423 43.4025 103.128 45.2224 103.127H58.7584L58.4128 96.3304C58.6936 96.3376 51.0736 95.152 48.3352 94.276Z" fill="#25BEEF"/>
<path d="M58.6504 100.792C48.1576 101.932 44.4136 99.7744 42.9712 97.5184C41.332 94.9552 41.392 90.2752 41.4592 85.1632C41.4592 85.1632 41.5168 80.8312 39.9184 77.2216C39.6328 76.576 38.8432 74.8216 37.96 74.86C37.7718 74.8782 37.5963 74.9634 37.4656 75.1L37.8256 86.2192L38.2048 96.3592C38.2719 98.1779 39.0417 99.8996 40.3523 101.162C41.6629 102.425 43.4121 103.13 45.232 103.13H58.768L58.6504 100.792Z" fill="#1A87C4"/>
<path d="M37.4344 102.582H16.1272C16.032 102.582 15.938 102.561 15.8519 102.521C15.7657 102.48 15.6896 102.421 15.6289 102.348C15.5682 102.274 15.5244 102.189 15.5006 102.096C15.4768 102.004 15.4736 101.908 15.4912 101.814L21.2224 71.284L25.744 70.2832C27.3592 73.708 32.3344 73.864 33.9232 70.4272L37.3552 71.7328C37.9473 71.8764 38.4705 72.2225 38.8342 72.7112C39.198 73.1999 39.3795 73.8004 39.3472 74.4088L39.3112 75.4912C39.028 84.192 38.7432 92.892 38.4568 101.591C38.4544 101.663 38.4352 102.014 37.4344 102.582Z" fill="#25BEEF"/>
<path d="M2.79997 118.463C2.90982 118.031 2.96862 117.587 2.97517 117.141C3.03037 113.406 3.38797 99.1528 5.53837 92.6608C6.22477 90.5896 12.5152 80.0512 12.5152 80.0512L21.4984 81.952L13.5784 95.1016C13.2275 95.6846 12.9692 96.3186 12.8128 96.9808L7.98637 117.537C7.92071 117.819 7.91874 118.112 7.9806 118.394C8.04247 118.677 8.1666 118.943 8.34397 119.171C9.35917 120.474 11.3704 123.124 11.3392 123.609C11.2936 124.259 10.8136 125.387 8.66557 122.56C8.66557 122.56 8.29837 122.939 8.21437 124.218C8.13037 125.498 7.94317 130.42 7.53997 130.502C7.13677 130.583 6.22237 131.757 6.52477 125.066C6.52477 125.066 5.92957 124.734 5.89117 125.306C5.85277 125.877 5.52157 131.378 4.83517 130.787C4.14877 130.197 4.35517 129.412 4.56637 125.027C4.56637 125.027 4.11757 124.67 4.03117 124.881C3.94477 125.092 3.45277 130.286 3.01837 130.257C2.58397 130.228 1.98157 131.13 2.84077 123.714C2.84077 123.714 2.60077 123.587 2.32717 124.331C2.05357 125.075 1.00717 128.344 0.666372 127.451C0.325572 126.558 0.515172 126.46 1.82077 122.666L2.79997 118.463Z" fill="#EA9D7D"/>
<path d="M21.4912 81.9496L19.372 81.5008C17.788 83.512 15.82 84.9712 13.2568 88.7248C11.2576 91.6504 9.96399 94.6264 9.39039 95.884C7.81599 99.3304 8.13518 101.09 7.08638 109.593C6.45518 114.7 6.14078 117.254 5.80958 118.588C5.80958 118.588 3.43838 128.152 4.59518 130.521C4.64936 130.631 4.73227 130.725 4.83518 130.792C5.52158 131.382 5.85278 125.889 5.89118 125.31C5.92958 124.732 6.52478 125.07 6.52478 125.07C6.22238 131.762 7.13438 130.59 7.53998 130.506C7.94558 130.422 8.12798 125.524 8.21198 124.233C8.29598 122.954 8.66318 122.574 8.66318 122.574C10.8112 125.402 11.2912 124.274 11.3368 123.623C11.368 123.143 9.35678 120.489 8.34158 119.186C8.16421 118.957 8.04008 118.692 7.97822 118.409C7.91636 118.126 7.91833 117.833 7.98399 117.551L12.8104 96.9952C12.9669 96.333 13.2251 95.6991 13.576 95.116L21.4912 81.9496Z" fill="#D18165"/>
<path d="M2.9968 116.958C2.84648 116.959 2.70152 116.903 2.59172 116.8C2.48192 116.697 2.4156 116.556 2.4064 116.406C2.224 113.526 2.6464 100.204 4.276 93.544C5.476 88.6792 14.0608 76.0768 14.0608 76.0768C14.0608 76.0768 18.0112 71.9416 21.2224 71.2768L23.0512 80.8144L13.8112 96.0808C13.7224 96.2176 10.0384 112.902 9.1576 116.339C9.11229 116.515 9.00986 116.67 8.86645 116.781C8.72305 116.892 8.54683 116.952 8.3656 116.951L2.9968 116.958Z" fill="#25BEEF"/>
<path d="M16.5808 90.652L23.0056 80.8888L22.9912 80.7952C22.964 80.6174 22.891 80.4497 22.7796 80.3085C22.6681 80.1673 22.5218 80.0574 22.3552 79.9897C22.1885 79.922 22.0071 79.8987 21.8287 79.9221C21.6504 79.9455 21.4811 80.0148 21.3376 80.1232C20.1112 81.0544 18.544 82.6624 17.1088 84.1336C15.6112 85.6696 14.0032 87.3184 13.2568 88.7248L16.1368 90.7384C16.2073 90.7854 16.2934 90.8026 16.3765 90.7865C16.4597 90.7703 16.533 90.722 16.5808 90.652Z" fill="#1A87C4"/>
<path d="M38.4568 101.591C37.0456 101.094 33.3783 101.075 27.8223 99.3256C22.6095 97.684 21.5583 96.3496 21.0831 95.3944C19.9671 93.148 20.6968 90.3016 20.9968 89.1304C21.5344 87.028 21.6879 86.224 22.7679 83.5576C23.1303 82.6624 23.2479 80.4952 22.7679 80.3176C22.2087 80.1112 20.008 82.6312 18.3904 85.984L15.5199 101.8C15.4991 101.895 15.4998 101.993 15.522 102.087C15.5441 102.182 15.5872 102.27 15.648 102.346C15.7088 102.421 15.7858 102.482 15.8733 102.524C15.9608 102.566 16.0566 102.587 16.1535 102.587H37.4343C37.7 102.587 37.9551 102.483 38.1458 102.298C38.3366 102.113 38.448 101.862 38.4568 101.596V101.591Z" fill="#1A87C4"/>
<path d="M8.36556 116.958C8.54679 116.959 8.723 116.899 8.86641 116.788C9.00982 116.677 9.11225 116.522 9.15756 116.346C10.0384 112.91 13.7176 96.2248 13.8112 96.088L19.8112 86.1592L20.4376 83.1304L13.2376 88.7248C13.2376 88.7248 10.336 92.2912 9.55836 96.9352C8.78076 101.579 6.10476 116.942 6.10236 116.958H8.36556Z" fill="#1A87C4"/>
</svg>
