<svg width="284" height="213" viewBox="0 0 284 213" fill="none" xmlns="http://www.w3.org/2000/svg">
<path d="M66.4702 171.787C60.6813 167.335 35.1521 146.615 32.5156 116.629C28.8165 74.55 73.175 48.28 85.3444 41.0759C113.24 24.5494 180.3 -0.371557 222.817 36.8585C256.869 66.6785 254.192 121.524 233.138 152.901C198.445 204.608 112.388 207.083 66.4702 171.787Z" fill="#FFF3F7"/>
<path d="M231.716 107.979H217.305C217.044 107.979 216.832 108.191 216.832 108.453V114.353C216.832 114.614 217.044 114.826 217.305 114.826H231.716C231.977 114.826 232.189 114.614 232.189 114.353V108.453C232.189 108.191 231.977 107.979 231.716 107.979Z" stroke="#FC7E85" stroke-width="2" stroke-linecap="round" stroke-linejoin="round"/>
<path d="M231.716 121.647H217.305C217.044 121.647 216.832 121.859 216.832 122.12V128.02C216.832 128.282 217.044 128.493 217.305 128.493H231.716C231.977 128.493 232.189 128.282 232.189 128.02V122.12C232.189 121.859 231.977 121.647 231.716 121.647Z" stroke="#FC7E85" stroke-width="2" stroke-linecap="round" stroke-linejoin="round"/>
<path d="M239.393 114.826H224.982C224.721 114.826 224.509 115.038 224.509 115.299V121.199C224.509 121.461 224.721 121.673 224.982 121.673H239.393C239.654 121.673 239.866 121.461 239.866 121.199V115.299C239.866 115.038 239.654 114.826 239.393 114.826Z" stroke="#FC7E85" stroke-width="2" stroke-linecap="round" stroke-linejoin="round"/>
<path d="M224.036 114.826H209.625C209.364 114.826 209.152 115.038 209.152 115.299V121.199C209.152 121.461 209.364 121.673 209.625 121.673H224.036C224.297 121.673 224.509 121.461 224.509 121.199V115.299C224.509 115.038 224.297 114.826 224.036 114.826Z" stroke="#FC7E85" stroke-width="2" stroke-linecap="round" stroke-linejoin="round"/>
<path d="M63.261 141.82H48.8504C48.5889 141.82 48.377 142.032 48.377 142.293V148.194C48.377 148.455 48.5889 148.667 48.8504 148.667H63.261C63.5224 148.667 63.7343 148.455 63.7343 148.194V142.293C63.7343 142.032 63.5224 141.82 63.261 141.82Z" stroke="#FC7E85" stroke-width="2" stroke-linecap="round" stroke-linejoin="round"/>
<path d="M70.9385 155.488H56.5278C56.2664 155.488 56.0545 155.7 56.0545 155.961V161.861C56.0545 162.122 56.2664 162.334 56.5278 162.334H70.9385C71.1999 162.334 71.4118 162.122 71.4118 161.861V155.961C71.4118 155.7 71.1999 155.488 70.9385 155.488Z" stroke="#FC7E85" stroke-width="2" stroke-linecap="round" stroke-linejoin="round"/>
<path d="M74.1287 148.667H59.7181C59.4567 148.667 59.2448 148.879 59.2448 149.14V155.04C59.2448 155.302 59.4567 155.514 59.7181 155.514H74.1287C74.3901 155.514 74.6021 155.302 74.6021 155.04V149.14C74.6021 148.879 74.3901 148.667 74.1287 148.667Z" stroke="#FC7E85" stroke-width="2" stroke-linecap="round" stroke-linejoin="round"/>
<path d="M58.7738 148.667H44.3632C44.1018 148.667 43.8898 148.879 43.8898 149.14V155.04C43.8898 155.302 44.1018 155.514 44.3632 155.514H58.7738C59.0352 155.514 59.2471 155.302 59.2471 155.04V149.14C59.2471 148.879 59.0352 148.667 58.7738 148.667Z" stroke="#FC7E85" stroke-width="2" stroke-linecap="round" stroke-linejoin="round"/>
<path d="M152.577 50.5993H138.166C137.905 50.5993 137.693 50.8113 137.693 51.0727V56.9728C137.693 57.2342 137.905 57.4461 138.166 57.4461H152.577C152.838 57.4461 153.05 57.2342 153.05 56.9728V51.0727C153.05 50.8113 152.838 50.5993 152.577 50.5993Z" stroke="#FC7E85" stroke-width="2" stroke-linecap="round" stroke-linejoin="round"/>
<path d="M157.764 64.2929H143.354C143.092 64.2929 142.88 64.5048 142.88 64.7662V70.6663C142.88 70.9277 143.092 71.1396 143.354 71.1396H157.764C158.026 71.1396 158.238 70.9277 158.238 70.6663V64.7662C158.238 64.5048 158.026 64.2929 157.764 64.2929Z" stroke="#FC7E85" stroke-width="2" stroke-linecap="round" stroke-linejoin="round"/>
<path d="M163.447 57.4461H149.036C148.775 57.4461 148.563 57.658 148.563 57.9194V63.8195C148.563 64.081 148.775 64.2929 149.036 64.2929H163.447C163.708 64.2929 163.92 64.081 163.92 63.8195V57.9194C163.92 57.658 163.708 57.4461 163.447 57.4461Z" stroke="#FC7E85" stroke-width="2" stroke-linecap="round" stroke-linejoin="round"/>
<path d="M148.089 57.4461H133.679C133.417 57.4461 133.205 57.658 133.205 57.9194V63.8195C133.205 64.081 133.417 64.2929 133.679 64.2929H148.089C148.351 64.2929 148.563 64.081 148.563 63.8195V57.9194C148.563 57.658 148.351 57.4461 148.089 57.4461Z" stroke="#FC7E85" stroke-width="2" stroke-linecap="round" stroke-linejoin="round"/>
<path d="M52.7767 157.722C51.856 153.592 50.4431 149.708 47.499 150.044C44.5549 150.38 42.2119 154.411 42.1267 158.934C42.0415 163.165 45.3785 166.27 48.325 165.941C51.2715 165.612 53.9458 162.921 52.7767 157.722Z" fill="#7BCE34"/>
<path d="M49.8988 160.271C46.9547 160.604 43.6177 157.495 43.7029 153.263C43.7029 153.166 43.7029 153.069 43.7029 152.974C42.6864 154.797 42.1444 156.846 42.1267 158.934C42.0415 163.165 45.3785 166.27 48.325 165.941C51.0514 165.631 53.5529 163.302 52.9826 158.827C52.1449 159.639 51.0592 160.148 49.8988 160.271Z" fill="#3C8F2D"/>
<path d="M60.7902 169.782C60.5535 165.558 58.175 164.339 55.2309 164.673C52.2868 165.006 49.9367 169.042 49.8444 173.564C49.7615 177.793 51.3235 179.434 54.2677 179.1C57.2118 178.766 61.105 175.479 60.7902 169.782Z" fill="#7BCE34"/>
<path d="M58.9158 175.292C55.9717 175.628 54.4191 173.988 54.4925 169.756C54.5198 167.989 54.9114 166.246 55.6427 164.637L55.2309 164.673C52.2868 165.009 49.9343 169.042 49.8444 173.564C49.7615 177.793 51.3235 179.434 54.2677 179.1C56.1066 178.889 58.3123 177.531 59.6353 175.155C59.3991 175.218 59.1586 175.264 58.9158 175.292Z" fill="#3C8F2D"/>
<path d="M42.7349 164.94C40.3682 163.047 37.675 162.831 36.4893 164.067C35.3036 165.302 36.1366 167.546 38.2193 170.026C40.1647 172.345 42.5811 173.604 44.3229 172.379C45.7216 171.394 45.7051 167.338 42.7349 164.94Z" fill="#7BCE34"/>
<path d="M43.3502 165.506C43.3834 166.668 43.0449 167.636 42.4509 168.057C40.7114 169.281 38.295 168.022 36.3473 165.69C36.2147 165.532 36.0846 165.371 35.9615 165.217C35.8242 166.478 36.6715 168.182 38.2193 170.017C40.1647 172.336 42.5811 173.595 44.3229 172.369C45.6175 171.467 45.698 167.929 43.3502 165.506Z" fill="#3C8F2D"/>
<path d="M39.3719 165.584C40.0157 165.974 40.619 166.428 41.1729 166.938C41.2396 167.004 41.2991 167.077 41.3504 167.155C41.4048 167.231 41.464 167.302 41.5232 167.375C41.6368 167.522 41.7598 167.664 41.8687 167.818C42.0841 168.123 42.316 168.417 42.5172 168.732C43.3548 169.97 44.054 171.297 44.6022 172.689C45.1571 174.075 45.554 175.52 45.7855 176.996L45.8778 177.55C45.892 177.642 45.9133 177.734 45.9228 177.827L45.9465 178.106C45.9749 178.477 46.0127 178.849 46.0388 179.221C46.0193 179.596 45.9774 179.97 45.9133 180.34C45.8565 180.709 45.7903 181.078 45.7216 181.443C45.653 181.071 45.5891 180.704 45.5323 180.342C45.4884 179.979 45.4252 179.618 45.343 179.261C45.3075 178.901 45.2838 178.551 45.253 178.182L45.2294 177.912C45.2294 177.822 45.201 177.734 45.1868 177.644L45.0968 177.11C44.8702 175.683 44.4827 174.288 43.9419 172.949C43.4126 171.604 42.7373 170.322 41.9279 169.124C41.7338 168.819 41.509 168.537 41.3007 168.242C41.0924 167.946 40.8534 167.676 40.6262 167.397C40.2333 166.784 39.8239 166.18 39.3719 165.584Z" fill="#2E6821"/>
<path d="M47.7167 151.467C47.9203 152.704 48.0741 153.945 48.2256 155.185L48.3439 158.919C48.418 161.409 48.4685 163.9 48.4954 166.391C48.5167 168.883 48.5143 171.375 48.4457 173.872C48.4102 175.119 48.3557 176.366 48.2587 177.618C48.1569 178.238 48.0433 178.858 47.9013 179.471C47.7723 180.09 47.5747 180.691 47.312 181.265L47.4067 180.809L47.4588 180.335C47.4895 180.028 47.5108 179.72 47.5227 179.41C47.5463 178.792 47.5582 178.172 47.5511 177.552C47.6457 176.321 47.7002 175.081 47.7357 173.841C47.8043 171.361 47.8067 168.871 47.7854 166.389C47.7641 163.906 47.7073 161.419 47.6363 158.929C47.5984 157.686 47.5629 156.444 47.5108 155.201C47.57 153.961 47.6268 152.714 47.7167 151.467Z" fill="#2E6821"/>
<path d="M49.8373 180.977C50.1449 180.392 50.3982 179.793 50.6514 179.202C50.9993 178.667 51.3188 178.111 51.6407 177.545C52.2797 176.428 52.8832 175.29 53.4772 174.146C54.0712 173.003 54.644 171.846 55.2096 170.684L56.0474 168.94C56.4213 168.403 56.7905 167.863 57.1952 167.34C57.0485 167.984 56.8686 168.613 56.6888 169.233L55.8462 170.985C55.2814 172.149 54.7023 173.307 54.1091 174.459C53.5103 175.609 52.9045 176.757 52.2584 177.886L51.7661 178.728C51.5933 179.005 51.4348 179.287 51.2573 179.564C50.8343 180.083 50.3584 180.556 49.8373 180.977Z" fill="#2E6821"/>
<path d="M54.2748 195.468H43.4236C42.7467 195.468 42.0922 195.225 41.5792 194.783C41.0663 194.342 40.7289 193.73 40.6286 193.061L38.7163 180.326C38.5838 179.441 45.0755 180.141 49.0492 180.089C52.7956 180.054 58.9158 179.703 58.8495 180.146L57.0698 193.049C56.972 193.721 56.6358 194.335 56.1226 194.779C55.6094 195.223 54.9535 195.467 54.2748 195.468Z" fill="#ABBCCA"/>
<path d="M48.7817 180.103C44.8081 180.141 38.5838 179.438 38.7163 180.323L40.6286 193.058C40.7289 193.728 41.0663 194.339 41.5792 194.781C42.0922 195.223 42.7467 195.465 43.4236 195.465H47.7167C46.5905 194.221 45.9612 192.607 45.9488 190.928C45.9488 190.581 45.9914 188.346 47.6055 186.564C48.5735 185.499 50.1473 184.953 53.2855 183.864C54.7954 183.341 56.0048 183.076 57.3088 181.971C57.8583 181.53 58.3561 181.028 58.7927 180.475L58.8377 180.158C58.9158 179.715 52.5258 180.068 48.7817 180.103Z" fill="#91A6B5"/>
<path d="M107.227 24.8713H106.043V104.318H107.227V24.8713Z" fill="#89DBF6"/>
<path d="M72.4413 24.8713H71.258V104.318H72.4413V24.8713Z" fill="#89DBF6"/>
<path d="M140.772 81.4417H37.7105V82.6251H140.772V81.4417Z" fill="#89DBF6"/>
<path d="M140.772 46.6541H37.7105V47.8374H140.772V46.6541Z" fill="#89DBF6"/>
<path d="M143.657 21.7023H34.8326C34.6542 21.7023 34.4776 21.7375 34.3127 21.8057C34.1479 21.874 33.9982 21.9741 33.872 22.1002C33.7459 22.2264 33.6458 22.3761 33.5775 22.5409C33.5093 22.7058 33.4741 22.8824 33.4741 23.0608V106.221C33.4741 106.399 33.5093 106.576 33.5775 106.741C33.6458 106.905 33.7459 107.055 33.872 107.181C33.9982 107.307 34.1479 107.408 34.3127 107.476C34.4776 107.544 34.6542 107.579 34.8326 107.579H143.657C144.017 107.579 144.362 107.436 144.617 107.181C144.872 106.927 145.015 106.581 145.015 106.221V23.0608C145.015 22.7005 144.872 22.355 144.617 22.1002C144.362 21.8455 144.017 21.7023 143.657 21.7023ZM140.772 103.061C140.772 103.395 140.639 103.714 140.404 103.95C140.168 104.186 139.848 104.318 139.515 104.318H38.9648C38.7999 104.318 38.6366 104.285 38.4842 104.222C38.3319 104.159 38.1935 104.066 38.077 103.95C37.9605 103.833 37.8682 103.694 37.8053 103.542C37.7424 103.39 37.7102 103.226 37.7105 103.061V26.2179C37.7105 25.8853 37.8426 25.5662 38.0779 25.331C38.3131 25.0958 38.6321 24.9636 38.9648 24.9636H139.515C139.68 24.9633 139.843 24.9955 139.996 25.0584C140.148 25.1213 140.287 25.2136 140.403 25.3301C140.52 25.4467 140.613 25.585 140.676 25.7374C140.739 25.8897 140.772 26.053 140.772 26.2179V103.061Z" fill="#87DBF6"/>
<path d="M179.088 149.327L193.354 194.216L162.169 149.327L149.162 194.216L179.088 149.327Z" stroke="#59A4CE" stroke-width="4" stroke-linecap="round" stroke-linejoin="round"/>
<path d="M191.956 195.468H194.755C195.076 195.468 195.335 195.208 195.335 194.888V194.171C195.335 193.851 195.076 193.591 194.755 193.591H191.956C191.635 193.591 191.376 193.851 191.376 194.171V194.888C191.376 195.208 191.635 195.468 191.956 195.468Z" fill="#80CBE8"/>
<path d="M147.763 195.468H150.563C150.883 195.468 151.142 195.208 151.142 194.888V194.171C151.142 193.851 150.883 193.591 150.563 193.591H147.763C147.443 193.591 147.183 193.851 147.183 194.171V194.888C147.183 195.208 147.443 195.468 147.763 195.468Z" fill="#80CBE8"/>
<path d="M156.803 162.649H184.775C185.167 162.649 185.485 162.331 185.485 161.939V161.101C185.485 160.709 185.167 160.391 184.775 160.391H156.803C156.411 160.391 156.093 160.709 156.093 161.101V161.939C156.093 162.331 156.411 162.649 156.803 162.649Z" fill="#80CBE8"/>
<path d="M201.692 108.095C201.673 107.702 201.543 106.039 200.547 105.177C198.343 103.284 192.543 105.87 188.95 108.727C188.043 109.451 180.172 115.929 180.43 125C180.51 127.767 181.545 137.802 181.024 138.204C180.882 138.315 180.733 138.419 180.733 138.419C179.55 139.25 178.002 139.955 170.729 140.4C162.093 140.928 158.006 140.317 151.133 141.858C148.239 142.506 145.391 143.235 144.36 145.505C143.929 146.452 143.624 148.066 144.36 149.259C145.943 151.826 150.811 149.919 159.679 150.092C161.416 150.127 160.24 150.179 176.669 151.552C178.766 151.727 181.578 151.933 184.903 150.821C185.651 150.584 188.69 149.559 190.843 147.382C193.847 144.357 192.973 141.311 194.282 133.104C195.827 123.512 196.859 117.086 199.806 113.195C200.232 112.653 201.822 110.651 201.692 108.095Z" fill="#C9EFFB"/>
<path d="M165.004 148.537C168.952 148.835 172.277 149.405 177.095 148.326C179.519 147.787 183.559 146.882 186.799 143.95C188.531 142.376 189.93 140.31 192.739 129.04C195.456 118.142 195.664 113.983 199.616 110.28C200.274 109.641 200.972 109.047 201.706 108.5C201.659 110.867 200.22 112.679 199.813 113.198C196.866 117.088 195.835 123.514 194.289 133.106C192.969 141.314 193.854 144.36 190.85 147.384C188.69 149.562 185.658 150.574 184.91 150.823C181.585 151.935 178.773 151.729 176.676 151.554C160.247 150.182 161.423 150.134 159.686 150.094C151.275 149.928 146.468 151.63 144.644 149.621C148.844 148.312 158.037 148.009 165.004 148.537Z" fill="#80CBE8"/>
<path d="M187.807 130.661C187.807 130.661 192.862 140.907 183.436 145.825C174.009 150.742 168.135 152.517 167.863 154.567C167.591 156.617 169.366 159.348 168.547 167.543C167.728 175.739 166.36 185.44 166.36 185.44C166.36 185.44 159.12 186.534 158.027 185.44C156.934 184.347 158.299 170.625 157.08 158.292C157.08 158.292 154.759 152.375 157.831 148.693L161.144 145.051C161.144 145.051 137.065 149.784 140.492 146.019C144.442 141.688 156.233 137.439 166.086 132.495L166.599 130.661H187.807Z" fill="#25BEEF"/>
<path d="M187.807 130.661C187.807 130.661 192.862 140.907 183.436 145.825C174.009 150.742 168.135 152.517 167.863 154.567C167.591 156.617 169.366 159.348 168.547 167.543C167.728 175.739 166.36 185.44 166.36 185.44C166.36 185.44 159.12 186.534 158.027 185.44C156.934 184.347 158.299 170.625 157.08 158.292C157.08 158.292 154.759 152.375 157.831 148.693L160.434 146.234L166.613 130.661H187.807Z" fill="#25BEEF"/>
<path d="M149.479 193.222C151.663 191.265 156.856 188.806 158.039 185.435C158.948 186.344 164.095 185.743 165.811 185.514C165.811 185.514 166.644 188.169 166.689 190.081C166.734 191.993 166.689 192.54 166.689 192.54L163.504 192.95V192.128C163.504 192.128 161.636 192.221 160.635 193.222C159.634 194.223 156.763 195.543 153.668 195.409C150.572 195.274 147.292 195.181 149.479 193.222Z" fill="#D18165"/>
<path d="M153.67 195.409C156.766 195.543 159.634 194.225 160.635 193.222C161.636 192.218 163.504 192.128 163.504 192.128V192.95L166.691 192.54C166.691 192.54 166.736 191.993 166.691 190.081C166.638 189.069 166.486 188.065 166.237 187.083C166.019 186.179 165.811 185.516 165.811 185.516C164.098 185.753 158.948 186.342 158.041 185.435C157.79 186.103 157.428 186.723 156.969 187.27C156.822 187.454 156.664 187.636 156.496 187.814C156.328 187.991 156.214 188.1 156.07 188.24C155.883 188.417 155.694 188.597 155.492 188.772C153.474 190.529 150.868 191.977 149.474 193.222C147.294 195.181 150.572 195.271 153.67 195.409Z" fill="#FFC065"/>
<path d="M153.668 195.409C151.18 195.297 148.582 195.217 148.783 194.176C156.555 196.04 159.632 192.992 160.197 192.083C160.763 191.175 162.136 191.082 162.136 191.082C164.654 191.054 166 190.254 166.665 189.639C166.665 189.79 166.687 189.937 166.689 190.081C166.736 191.993 166.689 192.54 166.689 192.54L163.504 192.95V192.128C163.504 192.128 161.636 192.221 160.635 193.222C159.634 194.223 156.763 195.543 153.668 195.409Z" fill="#7C2F13"/>
<path d="M156.501 187.814C156.647 187.913 156.804 188.008 156.96 188.096C157.169 188.219 157.389 188.326 157.615 188.415C157.863 188.52 158.123 188.59 158.389 188.623C158.294 188.359 158.146 188.118 157.954 187.913C157.773 187.719 157.564 187.554 157.334 187.423C157.217 187.359 157.095 187.303 156.969 187.258C156.822 187.454 156.673 187.636 156.501 187.814Z" fill="#7C2F13"/>
<path d="M155.49 188.772C155.597 188.836 155.703 188.9 155.814 188.962C156.026 189.081 156.245 189.187 156.47 189.279C156.717 189.385 156.977 189.456 157.244 189.49C157.149 189.229 157.001 188.991 156.808 188.791C156.628 188.597 156.419 188.432 156.188 188.301C156.149 188.278 156.109 188.258 156.067 188.24C155.888 188.417 155.698 188.597 155.49 188.772Z" fill="#7C2F13"/>
<path d="M166.36 185.44L165.804 185.518L164.945 185.627H164.928L164.081 185.722L163.809 185.748C163.418 185.788 163.033 185.816 162.647 185.847L162.152 185.878H162.062L161.589 185.902L161.078 185.916C160.91 185.916 160.744 185.916 160.581 185.916C160.004 185.922 159.428 185.874 158.86 185.772C162.157 182.766 163.617 179.876 164.337 177.848C166.732 171.103 165.354 161.629 165.021 159.338C164.658 156.848 164.254 155.23 165.101 153.289C166.211 150.752 168.414 149.867 172.532 147.865C176.284 146.04 179.632 144.409 182.11 142.473C183.817 141.136 184.477 138.8 183.568 136.831C182.984 135.558 181.822 134.512 179.613 134.349C175.819 134.022 172.167 132.751 168.989 130.652H187.835V130.673V130.69L187.854 130.732V130.747L187.887 130.822C187.892 130.831 187.896 130.839 187.899 130.848L187.93 130.919L187.944 130.955C187.958 130.983 187.97 131.014 187.984 131.047V131.073L188.039 131.21L188.053 131.248C188.07 131.284 188.084 131.324 188.098 131.364L188.119 131.419C188.135 131.46 188.152 131.502 188.169 131.546C188.169 131.563 188.181 131.577 188.186 131.594C188.209 131.653 188.23 131.717 188.254 131.783L188.268 131.821L188.325 131.987C188.325 132.008 188.339 132.032 188.349 132.055C188.358 132.079 188.382 132.162 188.401 132.216L188.422 132.282C188.446 132.358 188.47 132.437 188.493 132.519C188.495 132.53 188.495 132.541 188.493 132.552L188.557 132.765L188.578 132.848C188.597 132.91 188.614 132.974 188.63 133.037L188.652 133.118C188.675 133.208 188.699 133.3 188.72 133.392C188.744 133.485 188.765 133.579 188.787 133.676C188.787 133.705 188.798 133.736 188.806 133.764C188.822 133.835 188.836 133.908 188.851 133.979C188.851 134.013 188.851 134.043 188.869 134.076C188.887 134.162 188.903 134.249 188.919 134.339V134.386C188.938 134.488 188.955 134.595 188.969 134.699L188.983 134.791C188.995 134.869 189.004 134.95 189.016 135.028C189.016 135.063 189.016 135.099 189.028 135.134C189.028 135.222 189.049 135.309 189.059 135.397V135.473L189.087 135.811C189.087 135.84 189.087 135.87 189.087 135.899L189.101 136.161C189.101 136.199 189.101 136.237 189.101 136.275C189.101 136.363 189.101 136.453 189.101 136.54C189.101 136.571 189.101 136.604 189.101 136.635C189.101 136.753 189.101 136.871 189.101 136.99C189.101 137.016 189.101 137.042 189.101 137.068C189.101 137.163 189.101 137.26 189.101 137.357V137.473C189.101 137.563 189.094 137.652 189.08 137.742C189.08 137.778 189.08 137.813 189.08 137.849C189.08 137.97 189.054 138.086 189.038 138.216V138.27C189.023 138.377 189.007 138.484 188.988 138.59L188.967 138.706C188.95 138.796 188.933 138.885 188.914 138.975C188.914 139.016 188.898 139.054 188.891 139.091C188.862 139.214 188.834 139.328 188.801 139.461C188.615 140.167 188.347 140.848 188.001 141.491C187.939 141.607 187.873 141.728 187.804 141.839L187.731 141.965C187.646 142.099 187.556 142.234 187.464 142.367C187.443 142.4 187.419 142.433 187.393 142.466C187.199 142.74 186.99 143.002 186.766 143.252L186.678 143.349C186.562 143.477 186.441 143.605 186.313 143.73C185.576 144.445 184.747 145.06 183.85 145.559L183.419 145.796C182.535 146.258 181.683 146.692 180.863 147.098C180.316 147.37 179.786 147.633 179.268 147.884L178.506 148.253L177.048 148.949L175.685 149.59C173.058 150.823 171.02 151.765 169.681 152.593C169.378 152.777 169.086 152.979 168.807 153.197C168.655 153.317 168.511 153.446 168.377 153.585C168.104 153.836 167.918 154.168 167.846 154.532C167.813 154.8 167.808 155.071 167.83 155.341C167.877 155.975 168.036 156.709 168.206 157.639C168.23 157.76 168.253 157.876 168.275 158.013C168.296 158.15 168.315 158.25 168.334 158.356C168.353 158.463 168.374 158.593 168.393 158.716C168.697 160.684 168.808 162.676 168.724 164.666C168.724 164.886 168.708 165.113 168.696 165.345C168.66 166.02 168.604 166.741 168.53 167.508C168.5 167.816 168.466 168.123 168.436 168.433V168.521C168.372 169.141 168.303 169.768 168.234 170.398V170.473L168.128 171.42C168.085 171.813 168.04 172.206 167.995 172.603C167.951 172.982 167.906 173.358 167.863 173.735V173.791C167.804 174.3 167.742 174.802 167.683 175.297C167.655 175.533 167.624 175.77 167.596 176.007V176.073C167.569 176.293 167.543 176.513 167.515 176.728V176.814C167.458 177.27 167.401 177.718 167.347 178.151V178.231C167.29 178.676 167.235 179.109 167.181 179.528C166.959 181.251 166.762 182.721 166.623 183.757C166.623 183.824 166.604 183.885 166.597 183.947C166.59 184.008 166.58 184.07 166.571 184.127C166.493 184.699 166.438 185.097 166.412 185.284C166.377 185.398 166.36 185.44 166.36 185.44Z" fill="#1A87C4"/>
<path d="M166.105 143.15C156.678 148.066 150.804 149.843 150.532 151.893C150.26 153.942 152.035 156.673 151.216 164.869C150.397 173.065 149.029 182.766 149.029 182.766C149.029 182.766 141.789 183.857 140.696 182.766C139.603 181.675 140.968 167.951 139.749 155.618C139.749 155.618 137.428 149.701 140.5 146.019L143.796 143.382" fill="#25BEEF"/>
<path d="M132.148 190.547C134.332 188.59 139.524 186.131 140.708 182.761C141.617 183.67 146.764 183.069 148.48 182.839C148.48 182.839 149.313 185.492 149.358 187.405C149.403 189.317 149.358 189.863 149.358 189.863L146.172 190.28V189.459C146.172 189.459 144.305 189.551 143.304 190.552C142.303 191.553 139.432 192.874 136.337 192.739C133.241 192.604 129.961 192.505 132.148 190.547Z" fill="#D18165"/>
<path d="M136.337 192.734C139.435 192.869 142.303 191.551 143.304 190.547C144.305 189.544 146.172 189.454 146.172 189.454V190.28L149.36 189.868C149.36 189.868 149.405 189.322 149.36 187.409C149.307 186.398 149.155 185.395 148.906 184.413C148.688 183.509 148.48 182.846 148.48 182.846C146.764 183.083 141.617 183.672 140.71 182.766C140.458 183.434 140.094 184.054 139.633 184.6C139.487 184.787 139.328 184.969 139.16 185.147C138.992 185.324 138.878 185.431 138.734 185.573C138.547 185.75 138.358 185.928 138.157 186.103C136.138 187.861 133.532 189.31 132.138 190.555C129.963 192.505 133.243 192.597 136.337 192.734Z" fill="#FFC065"/>
<path d="M136.337 192.734C133.849 192.623 131.251 192.543 131.452 191.501C139.224 193.366 142.301 190.318 142.866 189.409C143.432 188.5 144.804 188.408 144.804 188.408C147.323 188.38 148.669 187.58 149.334 186.964C149.334 187.116 149.356 187.263 149.358 187.405C149.405 189.317 149.358 189.863 149.358 189.863L146.172 190.28V189.459C146.172 189.459 144.305 189.551 143.304 190.552C142.303 191.553 139.432 192.869 136.337 192.734Z" fill="#7C2F13"/>
<path d="M139.16 185.14C139.307 185.239 139.463 185.334 139.619 185.421C139.829 185.545 140.048 185.652 140.275 185.741C140.522 185.845 140.782 185.915 141.049 185.949C140.954 185.685 140.805 185.443 140.613 185.239C140.433 185.045 140.223 184.88 139.993 184.749C139.877 184.691 139.757 184.641 139.633 184.6C139.491 184.78 139.333 184.962 139.16 185.14Z" fill="#7C2F13"/>
<path d="M138.166 186.096C138.273 186.162 138.379 186.226 138.49 186.285C138.701 186.406 138.92 186.513 139.146 186.605C139.393 186.71 139.653 186.78 139.92 186.813C139.825 186.548 139.677 186.307 139.484 186.103C139.303 185.91 139.094 185.744 138.864 185.613C138.826 185.592 138.786 185.573 138.743 185.554C138.557 185.743 138.367 185.921 138.166 186.096Z" fill="#7C2F13"/>
<path d="M166.104 143.15C165.221 143.609 164.369 144.043 163.549 144.452C163.002 144.724 162.472 144.987 161.953 145.238L161.191 145.607L159.733 146.303L158.37 146.944C155.743 148.177 153.706 149.117 152.366 149.947C152.063 150.13 151.771 150.332 151.493 150.551C151.341 150.671 151.197 150.8 151.062 150.939C150.789 151.19 150.603 151.522 150.532 151.886C150.499 152.154 150.493 152.425 150.515 152.695C150.563 153.329 150.721 154.061 150.892 154.993C150.915 155.114 150.939 155.23 150.96 155.367C150.982 155.504 151 155.604 151.019 155.71C151.038 155.817 151.06 155.947 151.079 156.067C151.382 158.036 151.493 160.03 151.41 162.02C151.41 162.24 151.393 162.467 151.381 162.697C151.346 163.373 151.292 164.093 151.216 164.862C151.185 165.17 151.152 165.477 151.121 165.787V165.873C151.057 166.495 150.989 167.122 150.92 167.749V167.827L150.813 168.774C150.771 169.167 150.726 169.56 150.681 169.957C150.636 170.338 150.591 170.715 150.548 171.091V171.148C150.489 171.654 150.428 172.158 150.369 172.651C150.34 172.887 150.309 173.124 150.281 173.361V173.427C150.255 173.647 150.229 173.867 150.201 174.083V174.168C150.144 174.624 150.088 175.069 150.032 175.505V175.585C149.976 176.03 149.92 176.463 149.867 176.882C149.644 178.605 149.448 180.075 149.308 181.112C149.308 181.175 149.289 181.239 149.282 181.301C149.275 181.362 149.266 181.422 149.256 181.481C149.178 182.051 149.124 182.451 149.098 182.636C149.098 182.714 149.081 182.754 149.081 182.754C148.896 182.782 148.71 182.808 148.525 182.832L147.666 182.939H147.649L146.802 183.031L146.53 183.059C146.139 183.097 145.754 183.128 145.368 183.159L144.873 183.189H144.783L144.31 183.213L143.799 183.227C143.631 183.227 143.465 183.227 143.302 183.227C142.725 183.234 142.149 183.187 141.581 183.085C144.8 180.103 146.26 177.211 146.97 175.183C149.365 168.438 147.988 158.964 147.654 156.673C147.292 154.181 146.887 152.565 147.734 150.624C148.428 149.038 149.547 148.099 151.296 147.126C153.526 145.9 155.938 145.042 158.441 144.584L166.104 143.15Z" fill="#1A87C4"/>
<path d="M158.834 185.854L159.826 184.839L159.885 184.896L158.834 185.854Z" fill="white"/>
<path d="M161.577 182.707C162.115 181.964 162.599 181.184 163.025 180.373L163.324 180.536C162.857 181.341 162.333 182.111 161.755 182.839L161.577 182.707Z" fill="white"/>
<path d="M164.09 177.857C164.377 176.993 164.606 176.111 164.774 175.216L165.316 175.33C165.115 176.241 164.851 177.137 164.526 178.011L164.09 177.857Z" fill="white"/>
<path d="M165.153 172.504C165.24 171.595 165.293 170.682 165.312 169.766L166.022 169.789C165.979 170.72 165.908 171.647 165.785 172.573L165.153 172.504Z" fill="white"/>
<path d="M165.29 167.02L165.129 164.277L165.946 164.216L166.06 167.001L165.29 167.02Z" fill="white"/>
<path d="M164.845 161.542C164.713 160.635 164.609 159.724 164.453 158.818L165.335 158.683C165.473 159.599 165.572 160.522 165.695 161.442L164.845 161.542Z" fill="white"/>
<path d="M164.117 156.013C164.103 155.519 164.141 155.025 164.23 154.539C164.324 154.05 164.474 153.573 164.677 153.119L165.525 153.497C165.349 153.885 165.218 154.292 165.134 154.709C165.055 155.131 165.021 155.56 165.032 155.989L164.117 156.013Z" fill="white"/>
<path d="M166.455 150.757C167.199 150.154 168.007 149.635 168.864 149.209L169.304 150.04C168.51 150.441 167.759 150.922 167.063 151.476L166.455 150.757Z" fill="white"/>
<path d="M171.361 147.983L173.851 146.781L174.253 147.602L171.763 148.821L171.361 147.983Z" fill="white"/>
<path d="M176.319 145.555L178.74 144.258L179.171 145.001L176.731 146.35L176.319 145.555Z" fill="white"/>
<path d="M181.05 142.809L181.599 142.409C181.777 142.284 181.948 142.149 182.11 142.005C182.425 141.719 182.699 141.391 182.924 141.03L183.585 141.43C183.332 141.859 183.018 142.251 182.655 142.592C182.476 142.761 182.287 142.919 182.089 143.065L181.526 143.491L181.05 142.809Z" fill="white"/>
<path d="M183.592 138.602C183.565 137.745 183.272 136.918 182.754 136.235L183.256 135.835C183.882 136.616 184.247 137.575 184.297 138.575L183.592 138.602Z" fill="white"/>
<path d="M180.626 134.872C180.413 134.816 180.198 134.771 179.98 134.737C179.76 134.704 179.54 134.689 179.306 134.654L177.917 134.469L177.988 134.01L179.348 134.145C179.571 134.171 179.822 134.181 180.058 134.209C180.297 134.237 180.534 134.279 180.768 134.334L180.626 134.872Z" fill="white"/>
<path d="M175.204 133.8C174.318 133.52 173.449 133.19 172.601 132.81L172.689 132.604C173.539 132.943 174.408 133.232 175.292 133.471L175.204 133.8Z" fill="white"/>
<path d="M170.147 131.52C169.742 131.272 169.344 131.014 168.963 130.732C169.359 130.993 169.77 131.225 170.187 131.442L170.147 131.52Z" fill="white"/>
<path d="M180.2 86.3833C180.2 86.3833 179.609 93.5543 176.771 96.6641C173.933 99.7739 176.721 86.1443 176.721 86.1443L180.2 86.3833Z" fill="black"/>
<path d="M171.091 100.141C171.24 99.6177 170.618 98.3397 170.239 97.6037C172.807 97.9989 175.865 96.1837 177.457 92.9745C177.554 93.0269 177.657 93.0644 177.765 93.0857C177.765 93.0857 178.002 99.7621 179.462 99.8449C181.152 101.298 186.683 106.211 185.556 108.49C184.609 110.403 179.507 109.416 171.896 107.946C171.156 107.831 170.465 107.502 169.91 106.999C168.315 105.475 168.75 102.739 168.975 102.122C169.266 101.315 170.873 100.898 171.091 100.141Z" fill="#EA9D7D"/>
<path d="M176.641 100.9C177.649 98.7137 175.531 98.2522 175.531 98.2522L175.545 98.2214C174.144 99.1681 172.58 99.5775 171.176 99.303C171.11 99.303 171.044 99.2746 170.98 99.258C170.778 98.682 170.531 98.1233 170.239 97.5871C172.807 97.9824 175.72 95.9967 177.313 92.7875C177.351 92.8744 177.415 92.9477 177.496 92.998C177.576 93.0482 177.67 93.073 177.765 93.0692C177.765 93.0692 177.812 94.3093 177.98 95.7293C178.203 97.6037 178.638 99.7952 179.464 99.8426C181.758 101.79 187.296 106.744 186.183 108.942C185.071 111.141 177.472 110.362 171.898 107.944C171.051 107.574 170.355 107.212 169.851 106.933C173.33 107.317 175.734 102.865 176.641 100.9Z" fill="#D18165"/>
<path d="M174.213 80.3791C177.147 80.9518 178.946 84.6888 178.532 89.0269H178.556C179.358 89.1831 179.831 90.2102 179.613 91.3391C179.396 92.468 178.567 93.2325 177.765 93.0834C177.674 93.0788 177.585 93.0555 177.504 93.0147C177.422 92.974 177.35 92.9168 177.292 92.8467C175.661 96.1293 172.67 98.0794 170.066 97.58C166.833 96.9505 165.69 92.9627 166.642 88.0802C167.593 83.1978 170.982 79.7567 174.213 80.3791Z" fill="#EA9D7D"/>
<path d="M178.584 90.0233C178.782 90.1585 178.931 90.3534 179.01 90.5794C179.098 90.8113 179.117 91.0636 179.064 91.306C179.015 91.5485 178.898 91.7723 178.728 91.9521C178.648 92.0419 178.556 92.1214 178.456 92.1888C178.355 92.2468 178.248 92.2937 178.137 92.3284C178.182 92.2148 178.241 92.1225 178.288 92.0278C178.335 91.9332 178.388 91.8456 178.423 91.7533C178.502 91.5838 178.561 91.406 178.601 91.2232C178.669 90.8256 178.664 90.4187 178.584 90.0233Z" fill="#D18165"/>
<path d="M171.077 93.9141C170.214 94.1716 169.371 94.4879 168.552 94.8607C168.552 94.8607 168.358 93.604 169.354 93.2183C170.35 92.8325 171.077 93.9141 171.077 93.9141Z" fill="#BE3E5F"/>
<path d="M168.755 87.7749C168.844 88.2641 168.854 88.7643 168.784 89.2565C168.752 89.5173 168.678 89.7714 168.566 90.0091C168.5 90.144 168.436 90.2268 168.374 90.3333C168.313 90.4398 168.253 90.5321 168.201 90.6315C168.096 90.8014 168.031 90.9934 168.012 91.1924C168.01 91.2274 168.015 91.2624 168.026 91.2954C168.038 91.3284 168.057 91.3586 168.081 91.3841C168.144 91.4494 168.219 91.501 168.303 91.5356C168.752 91.671 169.217 91.7505 169.685 91.7722C169.203 91.9366 168.686 91.9733 168.185 91.8787C168.037 91.843 167.901 91.7715 167.787 91.6705C167.66 91.5515 167.581 91.3897 167.565 91.2161C167.564 90.9297 167.644 90.649 167.797 90.4067C167.858 90.2931 167.924 90.1842 167.993 90.0801C168.062 89.9759 168.14 89.8694 168.187 89.7913C168.29 89.5961 168.369 89.3896 168.424 89.176C168.554 88.7287 168.649 88.2554 168.755 87.7749Z" fill="#D18165"/>
<path d="M172.795 87.0365C172.326 87.1182 171.851 87.168 171.375 87.1856C171.144 87.1927 170.913 87.1808 170.684 87.1501C170.447 87.1288 170.225 87.0673 169.974 87.02C170.155 87.2041 170.376 87.3435 170.62 87.427C170.866 87.513 171.125 87.5539 171.385 87.5477C171.642 87.5423 171.896 87.4968 172.139 87.4128C172.381 87.3323 172.604 87.2044 172.795 87.0365Z" fill="black"/>
<path d="M166.902 87.1123C166.966 87.1336 167.032 87.1501 167.098 87.1667C167.222 87.1941 167.348 87.2123 167.475 87.2211C167.605 87.2318 167.735 87.2318 167.865 87.2211C168.121 87.2024 168.37 87.1332 168.599 87.0176C168.249 86.9821 167.917 86.9514 167.598 86.8969C167.456 86.8756 167.319 86.8472 167.181 86.8141C167.12 86.8022 167.061 86.7881 167.001 86.7715C166.966 86.8827 166.933 86.9963 166.902 87.1123Z" fill="black"/>
<path d="M167.257 89.5641C167.351 89.5822 167.449 89.5623 167.529 89.5087C167.609 89.455 167.664 89.372 167.683 89.2778L167.887 88.2364C167.899 88.1887 167.901 88.139 167.893 88.0905C167.885 88.0419 167.867 87.9955 167.841 87.954C167.814 87.9125 167.78 87.8769 167.739 87.8492C167.698 87.8215 167.652 87.8025 167.604 87.7931C167.556 87.7838 167.506 87.7844 167.458 87.7949C167.41 87.8054 167.365 87.8256 167.325 87.8542C167.285 87.8829 167.251 87.9193 167.225 87.9615C167.2 88.0036 167.183 88.0504 167.177 88.0992L166.973 89.1381C166.954 89.2323 166.974 89.33 167.027 89.4099C167.08 89.4898 167.163 89.5453 167.257 89.5641Z" fill="black"/>
<path d="M170.906 89.7866C171.001 89.8047 171.099 89.7848 171.178 89.7311C171.258 89.6775 171.314 89.5945 171.332 89.5002L171.534 88.4589C171.546 88.3671 171.523 88.274 171.469 88.1986C171.415 88.1233 171.335 88.0715 171.244 88.0539C171.153 88.0363 171.058 88.0543 170.98 88.1041C170.902 88.1539 170.846 88.2317 170.824 88.3216L170.62 89.3606C170.611 89.4074 170.611 89.4556 170.62 89.5023C170.63 89.5491 170.648 89.5935 170.675 89.6331C170.701 89.6727 170.736 89.7066 170.775 89.733C170.815 89.7593 170.86 89.7775 170.906 89.7866Z" fill="black"/>
<path d="M173.522 90.6126C173.522 90.6126 167.683 90.2434 166.334 90.6126C166.334 90.6126 165.842 96.6452 169.702 97.5043C173.562 98.3634 175.815 95.3743 175.815 95.3743L173.522 90.6126Z" fill="#25BEEF"/>
<path d="M177.784 93.1047C177.482 93.2823 177.197 93.4867 176.932 93.7153C176.667 93.9389 176.413 94.1758 176.172 94.4253C175.936 94.6619 175.699 94.9317 175.486 95.2015C175.264 95.4738 175.067 95.7653 174.897 96.0725C175.199 95.8938 175.485 95.6887 175.751 95.4595C176.017 95.2366 176.27 94.9996 176.511 94.7495C176.752 94.5026 176.98 94.2435 177.195 93.9732C177.416 93.7014 177.613 93.4108 177.784 93.1047Z" fill="#25BEEF"/>
<path d="M177.651 89.2233C177.163 89.3104 176.681 89.4282 176.208 89.576C175.734 89.718 175.27 89.8757 174.814 90.0493C174.352 90.2244 173.9 90.4161 173.453 90.6244C173.001 90.8285 172.563 91.0617 172.142 91.3226C172.63 91.2358 173.112 91.118 173.586 90.9699C174.059 90.8256 174.532 90.6694 174.982 90.4966C175.432 90.3238 175.893 90.1298 176.34 89.9215C176.792 89.717 177.23 89.4838 177.651 89.2233Z" fill="#25BEEF"/>
<path d="M170.258 91.3226C169.991 91.1611 169.702 91.0413 169.399 90.9676C169.101 90.8867 168.794 90.8399 168.485 90.8279C168.171 90.8117 167.857 90.8396 167.551 90.9108C167.238 90.976 166.947 91.1175 166.703 91.3226C167.02 91.2918 167.307 91.2823 167.596 91.2776C167.884 91.2729 168.175 91.2918 168.466 91.2989C169.049 91.3178 169.633 91.3533 170.258 91.3226Z" fill="white"/>
<path d="M169.702 97.5067C169.052 97.3661 168.456 97.0435 167.984 96.5766C168.952 96.3115 170.454 96.2121 171.602 94.9033C172.199 94.2349 172.584 93.4048 172.71 92.5177C172.781 91.8543 172.7 91.1833 172.473 90.5558C173.112 90.5865 173.533 90.6149 173.533 90.6149L175.815 95.3767C175.815 95.3767 173.562 98.3658 169.702 97.5067Z" fill="#1A87C4"/>
<path d="M167.38 85.5858C167.38 85.5858 169.273 83.3871 175.427 84.5302C175.427 84.5302 174.454 86.5656 175.339 87.0294C176.224 87.4933 176.43 87.6187 176.049 88.8352C175.668 90.0517 174.961 91.3084 175.981 90.9273C177.001 90.5463 178.721 87.6519 179.263 89.8623C179.791 91.9923 178.553 92.7023 178.671 93.0147C178.688 93.0444 178.715 93.0671 178.747 93.0786C179.142 93.1993 180.702 90.7498 181.074 88.4376C181.575 85.3136 180.063 81.5009 177.188 79.9768C176.389 79.5729 175.522 79.3224 174.632 79.2384C169.55 78.552 163.828 81.5009 164.01 83.4416C164.079 84.0687 164.777 84.8403 167.38 85.5858Z" fill="black"/>
<path d="M156.437 145.787C156.617 145.386 156.844 145.007 157.111 144.658C159.359 141.737 166.005 132.936 168.322 126.6C169.06 124.579 170.658 112.582 170.658 112.582L162.543 108.545L160.602 123.554C160.514 124.22 160.325 124.868 160.041 125.476L152.986 141.884C152.865 142.143 152.687 142.371 152.466 142.553C152.245 142.734 151.986 142.863 151.708 142.93C150.125 143.316 146.949 144.13 146.677 144.525C146.312 145.053 145.993 146.22 149.384 145.351C149.384 145.351 149.436 145.869 148.717 146.911C147.997 147.952 145.126 151.867 145.389 152.177C145.652 152.487 145.626 153.952 149.505 148.596C149.505 148.596 150.167 148.707 149.843 149.176C149.519 149.644 146.409 154.096 147.299 154.07C148.189 154.044 148.52 153.306 151.031 149.791C151.031 149.791 151.594 149.791 151.533 150.006C151.471 150.222 148.669 154.536 149.022 154.78C149.375 155.024 149.289 156.091 153.168 149.834C153.168 149.834 153.436 149.888 153.187 150.627C152.939 151.365 151.748 154.536 152.558 154.053C153.367 153.571 153.282 153.381 154.598 149.649L156.437 145.787Z" fill="#EA9D7D"/>
<path d="M162.543 108.547L162.043 112.417L163.764 113.148C163.764 113.148 162.893 125.218 162.278 127.279C160.346 133.745 154.392 143.037 152.338 146.085C152.092 146.45 151.889 146.842 151.734 147.254L150.269 150.877L151.043 149.789C151.043 149.789 151.606 149.789 151.545 150.004C151.502 150.151 150.21 152.167 149.486 153.535C149.318 154.132 149.199 154.534 149.088 154.823C149.389 155.116 149.512 155.748 153.18 149.831C153.18 149.831 153.448 149.886 153.199 150.624C152.951 151.363 151.76 154.534 152.57 154.051C153.379 153.568 153.294 153.379 154.61 149.647L156.437 145.787C156.617 145.386 156.844 145.007 157.111 144.658C159.359 141.737 166.005 132.936 168.322 126.6C169.06 124.579 170.658 112.582 170.658 112.582L162.543 108.547Z" fill="#D18165"/>
<path d="M160.299 115.493L163.698 104.843C163.704 104.821 163.714 104.8 163.728 104.782C163.922 104.5 165.503 102.278 167.397 101.367C167.434 101.349 167.474 101.34 167.515 101.343C167.556 101.345 167.596 101.359 167.63 101.381C167.665 101.403 167.693 101.434 167.712 101.471C167.73 101.507 167.739 101.548 167.737 101.589L167.285 115.493H160.299Z" fill="#EF3E3B"/>
<path d="M160.299 115.493L163.698 104.843C163.704 104.821 163.714 104.8 163.728 104.782C163.922 104.5 165.503 102.278 167.397 101.367C167.434 101.349 167.474 101.34 167.515 101.343C167.556 101.345 167.596 101.359 167.63 101.381C167.665 101.403 167.693 101.434 167.712 101.471C167.73 101.507 167.739 101.548 167.737 101.589L167.285 115.493H160.299Z" fill="#25BEEF"/>
<path d="M167.64 104.529L167.285 115.493H163.553C163.466 112.831 163.664 109.887 165.21 106.616C166.27 104.387 166.883 104.273 167.141 104.287C167.332 104.303 167.51 104.389 167.64 104.529Z" fill="#1A87C4"/>
<path d="M201.832 147.287C201.722 146.861 201.664 146.423 201.659 145.983C201.604 142.301 201.252 128.233 199.131 121.843C198.454 119.801 192.251 109.409 192.251 109.409L183.391 111.283L191.201 124.248C191.546 124.823 191.8 125.449 191.953 126.103L196.713 146.371C196.779 146.649 196.781 146.939 196.72 147.218C196.659 147.498 196.536 147.76 196.36 147.985C195.359 149.27 193.378 151.881 193.409 152.361C193.451 153.003 193.925 154.115 196.045 151.327C196.045 151.327 196.405 151.701 196.49 152.962C196.575 154.224 196.758 159.078 197.155 159.158C197.553 159.239 198.454 160.396 198.156 153.795C198.156 153.795 198.743 153.471 198.781 154.032C198.819 154.593 199.146 160.017 199.822 159.435C200.499 158.853 200.296 158.079 200.087 153.755C200.087 153.755 200.528 153.405 200.613 153.613C200.698 153.822 201.186 158.941 201.612 158.912C202.038 158.884 202.636 159.776 201.789 152.461C201.789 152.461 202.026 152.338 202.296 153.071C202.565 153.805 203.597 157.028 203.931 156.148C204.265 155.268 204.082 155.173 202.793 151.431L201.846 147.273L201.832 147.287Z" fill="#EA9D7D"/>
<path d="M183.391 111.281L185.483 110.838C187.042 112.819 188.985 114.26 191.513 117.962C193.482 120.844 194.758 123.779 195.326 125.022C196.878 128.42 196.563 130.152 197.598 138.54C198.218 143.574 198.53 146.092 198.857 147.41C198.857 147.41 201.195 156.841 200.054 159.177C200.001 159.286 199.919 159.377 199.818 159.442C199.141 160.025 198.814 154.61 198.776 154.039C198.738 153.469 198.152 153.803 198.152 153.803C198.45 160.403 197.55 159.246 197.15 159.165C196.75 159.085 196.571 154.252 196.485 152.979C196.4 151.718 196.04 151.344 196.04 151.344C193.91 154.132 193.437 153.019 193.404 152.378C193.373 151.905 195.354 149.287 196.355 148.002C196.531 147.776 196.654 147.514 196.715 147.235C196.776 146.956 196.774 146.666 196.708 146.388L191.948 126.12C191.795 125.466 191.541 124.84 191.196 124.264L183.391 111.281Z" fill="#D18165"/>
<path d="M160.777 113.995H167.054V114.942H160.477L160.777 113.995Z" fill="white"/>
<path d="M163.537 113.995H167.049V114.942H163.537C163.537 114.63 163.537 114.31 163.537 113.995Z" fill="#E3EAF3"/>
<path d="M161.471 111.816H166.938V112.762H161.17L161.471 111.816Z" fill="white"/>
<path d="M163.695 111.816H166.938V112.762H163.601C163.624 112.45 163.655 112.135 163.695 111.816Z" fill="#E3EAF3"/>
<path d="M167.671 131.625H186.02C186.307 131.625 186.591 131.563 186.852 131.443C187.113 131.323 187.345 131.149 187.533 130.931C187.72 130.713 187.858 130.457 187.937 130.181C188.016 129.905 188.035 129.615 187.991 129.331L183.653 100.763L179.192 99.7763C177.599 103.154 172.696 103.307 171.129 99.9159L167.745 101.203C167.161 101.346 166.645 101.687 166.286 102.17C165.927 102.652 165.748 103.244 165.78 103.845L165.813 104.91L166.663 130.64C166.665 130.72 166.684 131.066 167.671 131.625Z" fill="#25BEEF"/>
<path d="M195.631 115.07C195.736 114.999 195.827 114.907 195.896 114.8C195.965 114.694 196.012 114.574 196.034 114.449C196.056 114.324 196.053 114.195 196.024 114.071C195.996 113.948 195.942 113.831 195.868 113.728L189.191 104.46C189.191 104.46 186.825 101.412 183.668 100.763L181.855 110.168L188.245 119.872C188.268 119.907 188.299 119.938 188.335 119.961C188.371 119.985 188.411 120.001 188.453 120.009C188.495 120.017 188.538 120.017 188.58 120.008C188.622 119.999 188.662 119.981 188.697 119.957L195.631 115.07Z" fill="#25BEEF"/>
<path d="M188.233 119.862L181.897 110.235L181.911 110.142C181.939 109.967 182.011 109.802 182.121 109.662C182.231 109.523 182.376 109.415 182.54 109.348C182.705 109.282 182.884 109.259 183.06 109.282C183.236 109.305 183.403 109.373 183.544 109.48C184.754 110.398 186.299 111.981 187.715 113.434C189.191 114.949 190.777 116.575 191.513 117.962L188.673 119.947C188.603 119.993 188.518 120.01 188.436 119.994C188.353 119.978 188.281 119.931 188.233 119.862Z" fill="#1A87C4"/>
<path d="M195.221 112.836L187.281 118.441L187.827 119.215L195.767 113.609L195.221 112.836Z" fill="white"/>
<path d="M190.342 116.277C190.55 116.53 190.744 116.781 190.921 117.027L187.826 119.211L187.554 118.826L187.293 118.43L190.342 116.277Z" fill="#E3EAF3"/>
<path d="M193.923 110.993L185.875 116.264L186.394 117.056L194.442 111.785L193.923 110.993Z" fill="white"/>
<path d="M189.345 115.138L186.396 117.07L186.148 116.689L185.878 116.277L188.687 114.438C188.91 114.672 189.13 114.904 189.345 115.138Z" fill="#E3EAF3"/>
<path d="M166.663 130.64C168.052 130.148 171.671 130.131 177.15 128.406C182.29 126.785 183.327 125.471 183.795 124.529C184.896 122.314 184.176 119.507 183.881 118.352C183.348 116.277 183.199 115.486 182.134 112.857C181.777 111.974 181.661 109.837 182.134 109.662C182.685 109.458 184.245 111.837 185.84 115.143L187.987 129.322C188.03 129.606 188.011 129.896 187.932 130.172C187.853 130.448 187.715 130.704 187.528 130.921C187.341 131.139 187.109 131.314 186.847 131.434C186.586 131.553 186.302 131.615 186.015 131.615H167.671C167.409 131.615 167.158 131.514 166.97 131.332C166.782 131.15 166.672 130.902 166.663 130.64Z" fill="#1A87C4"/>
<path d="M130.877 195.404C127.563 195.877 124.338 194.77 123.154 193.799C121.971 192.829 120.047 193.212 120.047 193.212L120.104 195.52L116.634 195.418C116.634 195.418 116.464 193.129 116.307 191.07C116.229 190.039 116.565 189.466 116.698 188.467C116.83 187.468 117.545 185.864 117.545 185.864C119.415 185.925 124.233 186.207 125.119 185.135C125.457 185.826 125.913 186.454 126.465 186.99C126.643 187.175 126.834 187.355 127.028 187.528C127.223 187.7 127.36 187.804 127.53 187.939C127.75 188.112 127.973 188.283 128.207 188.448C130.574 190.121 133.523 191.402 135.153 192.59C137.714 194.478 134.19 194.926 130.877 195.404Z" fill="#454851"/>
<path d="M97.8546 193.669C94.7921 192.315 92.6479 189.662 92.1604 188.212C91.6728 186.761 89.9097 185.783 89.9097 185.783L88.9393 187.331L86.052 185.407C86.052 185.407 86.8448 184.101 87.8057 182.271C88.279 181.358 88.8778 181.048 89.5144 180.281C90.1511 179.514 91.6113 178.53 91.6113 178.53C93.1615 179.573 97.0949 182.371 98.4084 181.928C98.3287 182.693 98.3816 183.467 98.5646 184.214C98.619 184.465 98.6853 184.718 98.7586 184.969C98.8249 185.175 98.8935 185.379 98.9645 185.585C99.0592 185.847 99.1586 186.11 99.2698 186.375C100.38 189.045 102.207 191.698 102.959 193.57C104.133 196.507 100.917 195.013 97.8546 193.669Z" fill="#454851"/>
<path d="M122.993 116.755C122.993 116.755 126.69 149.54 126.804 152.43C126.917 155.32 125.244 185.355 125.244 185.355C125.244 185.355 120.747 187.165 117.524 185.932C117.524 185.932 114.982 162.905 115.368 157.059L114.521 145.969C114.521 145.969 113.827 155.199 113.134 156.29C112.44 157.381 98.9622 182.707 98.9622 182.707C98.9622 182.707 91.2587 179.242 91.2587 178.241C91.2587 178.241 95.7269 159.755 101.435 154.595L101.513 133.144C100.23 129.916 99.7482 126.425 100.11 122.97C100.351 120.774 100.936 118.63 101.842 116.615C101.842 116.615 118.374 119.065 122.993 116.755Z" fill="#25BEEF"/>
<path d="M114.783 142.379C115.399 135.267 116.677 128.47 117.093 128.515C117.413 128.548 117.081 132.081 116.977 140.182C116.892 146.793 117.022 151.23 117.214 157.511C117.576 169.773 118.066 171.874 118.591 173.571C119.969 177.917 122.234 181.929 125.242 185.355C123.727 186.037 121.273 186.822 118.53 186.216C118.189 186.141 117.852 186.046 117.522 185.932C117.522 185.932 114.98 162.905 115.366 157.059L114.547 146.314C114.58 145.238 114.644 144.052 114.783 142.379Z" fill="#1A87C4"/>
<path d="M96.9907 170.973C97.9374 165.894 100.811 164.893 103.172 158.952C104.592 155.374 104.76 151.268 105.089 143.056C105.594 130.46 104.266 129.495 105.925 126.434C110.296 118.369 123.173 118.101 122.993 116.755C118.004 118.468 104.15 116.909 102.105 116.648L101.939 116.627H101.859C100.948 118.637 100.358 120.777 100.11 122.97C99.7445 126.42 100.22 129.908 101.497 133.134L101.419 154.586C95.7198 159.745 91.2421 178.231 91.2421 178.231C91.422 178.468 91.6137 178.688 91.8172 178.911C93.3674 180.11 97.5942 182.08 98.6805 182.579H98.7042H98.7255L98.7799 182.605L98.8131 182.621H98.8367L98.8675 182.636H98.8817L98.9432 182.662C97.5919 179.883 96.1103 175.656 96.9907 170.973Z" fill="#1A87C4"/>
<path d="M101.121 118.464C101.121 118.464 113.299 121.54 123.185 118.464" stroke="white" stroke-width="3" stroke-miterlimit="10"/>
<path d="M110.741 66.5223C110.741 66.5223 108.218 66.6477 108.076 69.5398C107.934 72.4319 105.759 71.6225 105.759 71.6225C105.759 71.6225 107.215 73.8377 110.13 71.5373C113.046 69.2369 113.427 68.9339 113.427 68.9339C113.427 68.9339 113.427 66.6359 110.93 66.5081" fill="black"/>
<path d="M109.596 72.5857C109.596 72.5857 110.187 79.7567 113.023 82.8665C115.858 85.9763 113.075 72.3466 113.075 72.3466L109.596 72.5857Z" fill="black"/>
<path d="M118.705 86.3478C118.556 85.8248 119.166 84.5468 119.557 83.8108C116.989 84.206 113.929 82.3908 112.336 79.1816C112.241 79.2343 112.138 79.2718 112.031 79.2928C112.031 79.2928 111.782 85.9692 110.334 86.052C108.642 87.5051 103.113 92.4183 104.24 94.6974C105.186 96.6097 110.289 95.6228 117.9 94.1531C118.64 94.0381 119.331 93.7091 119.886 93.2064C121.481 91.6823 121.046 88.9464 120.821 88.3287C120.53 87.5217 118.918 87.1052 118.705 86.3478Z" fill="#EA9D7D"/>
<path d="M113.155 87.1076C112.144 84.9208 114.265 84.4593 114.265 84.4593L114.251 84.4285C115.652 85.3752 117.216 85.7846 118.62 85.5101C118.686 85.4982 118.75 85.4817 118.816 85.4651C119.017 84.8889 119.265 84.3301 119.557 83.7942C116.989 84.1895 114.076 82.2062 112.483 78.9946C112.445 79.0815 112.381 79.1548 112.3 79.2051C112.22 79.2553 112.126 79.2801 112.031 79.2763C112.031 79.2763 111.984 80.5188 111.816 81.9364C111.593 83.8108 111.158 86.0023 110.332 86.0497C108.038 87.9974 102.5 92.9532 103.613 95.1495C104.725 97.3458 112.324 96.5695 117.898 94.1508C118.745 93.7816 119.441 93.4218 119.945 93.1426C116.466 93.5236 114.073 89.0719 113.155 87.1076Z" fill="#D18165"/>
<path d="M115.583 66.5862C112.649 67.1589 110.85 70.8959 111.262 75.234H111.233C110.431 75.3902 109.958 76.4173 110.175 77.5462C110.393 78.6751 111.221 79.4395 112.024 79.2904C112.115 79.2859 112.204 79.2625 112.285 79.2218C112.367 79.1811 112.439 79.1238 112.497 79.0538C114.128 82.3363 117.119 84.2865 119.723 83.7871C122.955 83.1576 124.099 79.1697 123.145 74.2873C122.191 69.4049 118.807 65.9566 115.583 66.5862Z" fill="#EA9D7D"/>
<path d="M118.778 80.3365C119.676 80.3972 120.569 80.5198 121.45 80.7033C121.45 80.7033 121.363 79.4348 120.302 79.2833C119.242 79.1319 118.778 80.3365 118.778 80.3365Z" fill="#BE3E5F"/>
<path d="M121.046 73.9726C121.152 74.4459 121.244 74.9192 121.374 75.376C121.434 75.5902 121.518 75.7967 121.625 75.9913C121.67 76.0694 121.753 76.1807 121.819 76.2801C121.886 76.3795 121.954 76.4931 122.016 76.6067C122.165 76.8518 122.241 77.1341 122.236 77.4208C122.22 77.5944 122.141 77.7562 122.013 77.8752C121.901 77.9771 121.764 78.0488 121.616 78.0835C121.115 78.1793 120.598 78.1425 120.115 77.977C120.583 77.9553 121.047 77.8758 121.495 77.7403C121.58 77.7057 121.656 77.6542 121.72 77.5888C121.744 77.563 121.762 77.5327 121.773 77.4998C121.785 77.4669 121.79 77.432 121.789 77.3971C121.77 77.1988 121.705 77.0075 121.599 76.8386C121.547 76.7392 121.488 76.6398 121.424 76.538C121.36 76.4363 121.299 76.3487 121.235 76.2138C121.122 75.9765 121.048 75.7223 121.017 75.4612C120.945 74.9668 120.955 74.4639 121.046 73.9726Z" fill="#D18165"/>
<path d="M116.757 73.3359C117.233 73.3218 117.707 73.276 118.177 73.1987C118.405 73.1589 118.629 73.1012 118.847 73.0259C119.084 72.9573 119.282 72.8508 119.521 72.7537C119.382 72.9713 119.192 73.1523 118.968 73.2815C118.745 73.4166 118.5 73.509 118.243 73.5537C117.99 73.6002 117.732 73.6065 117.477 73.5726C117.223 73.543 116.979 73.4625 116.757 73.3359Z" fill="black"/>
<path d="M122.716 72.6046C122.754 72.7182 122.792 72.8413 122.828 72.9501H122.792C122.539 72.9946 122.28 73.0002 122.025 72.9667C121.771 72.9374 121.526 72.8569 121.303 72.73C121.777 72.7198 122.249 72.6779 122.716 72.6046Z" fill="black"/>
<path d="M122.541 75.7618C122.447 75.7798 122.35 75.7598 122.27 75.7061C122.191 75.6525 122.136 75.5695 122.118 75.4754L121.914 74.4341C121.901 74.3423 121.924 74.2491 121.978 74.1738C122.032 74.0985 122.113 74.0467 122.204 74.0291C122.295 74.0115 122.389 74.0294 122.467 74.0792C122.546 74.1291 122.602 74.2069 122.624 74.2968L122.825 75.3381C122.835 75.3846 122.835 75.4325 122.825 75.4789C122.816 75.5254 122.798 75.5696 122.771 75.609C122.745 75.6483 122.711 75.6821 122.672 75.7083C122.632 75.7345 122.588 75.7527 122.541 75.7618Z" fill="black"/>
<path d="M118.894 75.9842C118.8 76.0023 118.702 75.9824 118.622 75.9287C118.542 75.8751 118.487 75.7921 118.468 75.6978L118.265 74.6565C118.252 74.5647 118.275 74.4716 118.329 74.3962C118.383 74.3209 118.464 74.2691 118.555 74.2515C118.646 74.2339 118.74 74.2519 118.818 74.3017C118.896 74.3515 118.952 74.4293 118.975 74.5192L119.178 75.5606C119.196 75.6544 119.177 75.7515 119.123 75.8309C119.07 75.9102 118.988 75.9653 118.894 75.9842Z" fill="black"/>
<path d="M111.212 76.2303C111.134 76.6205 111.129 77.0215 111.195 77.4137C111.235 77.5965 111.294 77.7743 111.373 77.9438C111.406 78.0361 111.463 78.1213 111.508 78.2183C111.553 78.3154 111.614 78.4053 111.659 78.5189C111.547 78.4838 111.44 78.437 111.337 78.3793C111.239 78.3149 111.149 78.2395 111.068 78.1544C110.898 77.9746 110.781 77.7508 110.732 77.5083C110.679 77.266 110.698 77.0136 110.786 76.7818C110.866 76.5574 111.015 76.3643 111.212 76.2303Z" fill="#D18165"/>
<path d="M111.233 75.2198C111.233 75.2198 112.62 80.0999 113.761 81.7163C114.816 83.212 116.79 84.6912 119.865 84.3693C120.448 84.311 121.003 84.0859 121.462 83.7209C122.361 82.9943 123.649 81.4654 123.403 78.7674C123.403 78.7674 122.619 77.8799 120.508 77.9249C118.397 77.9699 117.865 78.5095 117.503 78.9213C117.141 79.3331 115.529 81.2879 114.719 80.6844C113.91 80.0809 111.972 76.0955 112.888 73.956C113.804 71.8165 114.859 72.7017 113.74 70.264C113.74 70.264 115.342 69.6771 118.142 70.2924C118.718 70.4258 119.323 70.3468 119.846 70.0699C120.267 69.8333 120.646 69.4948 120.61 69.0168C121.357 69.947 121.992 70.9613 122.503 72.039C122.503 72.039 123.859 69.9776 121.966 68.2689C120.354 66.8134 119.85 65.9425 119.311 65.7389C118.241 65.3342 117.794 65.9756 116.741 66.1602C115.687 66.3448 115.486 65.675 114.26 66.3282C113.034 66.9814 112.511 67.966 112.092 68.9032C112.092 68.9032 110.888 68.7375 109.79 70.8983C109.319 71.8568 109.146 76.7392 111.233 75.2198ZM118.435 78.9686C118.721 78.6917 119.55 78.242 120.752 78.455C121.9 78.6562 122.054 79.4017 122.231 79.9673C122.32 80.2395 122.348 80.5281 122.312 80.8122C122.231 81.3802 121.94 81.5885 121.436 81.6429C120.811 81.7116 120.674 80.8004 120.227 80.8477C119.779 80.8951 119.843 81.669 118.736 81.7163C117.628 81.7636 117.704 79.6786 118.442 78.9686H118.435Z" fill="black"/>
<path d="M122.331 117.761H103.987C103.699 117.761 103.415 117.699 103.154 117.579C102.893 117.459 102.661 117.285 102.474 117.067C102.287 116.849 102.149 116.593 102.07 116.317C101.99 116.041 101.972 115.751 102.015 115.467L106.344 86.8993L110.805 85.91C112.398 89.2896 117.301 89.4434 118.868 86.052L122.253 87.3395C122.837 87.4819 123.353 87.8237 123.712 88.3059C124.071 88.788 124.25 89.3803 124.219 89.9807L124.184 91.0457L123.339 116.786C123.336 116.854 123.318 117.2 122.331 117.761Z" fill="#25BEEF"/>
<path d="M101.767 105.996L108.102 96.3683L108.088 96.2784C108.061 96.1026 107.99 95.9368 107.879 95.7972C107.769 95.6576 107.625 95.5491 107.46 95.4822C107.295 95.4154 107.116 95.3926 106.94 95.416C106.764 95.4394 106.597 95.5082 106.455 95.6157C105.246 96.534 103.7 98.1173 102.285 99.568C100.808 101.083 99.2225 102.711 98.4865 104.098L101.326 106.083C101.397 106.129 101.482 106.145 101.564 106.129C101.647 106.113 101.719 106.065 101.767 105.996Z" fill="#1A87C4"/>
<path d="M99.6603 102.413C99.4521 102.666 99.258 102.917 99.0805 103.163L102.176 105.347L102.448 104.962L102.711 104.566L99.6603 102.413Z" fill="#E3EAF3"/>
<path d="M100.657 101.274L103.606 103.206L103.856 102.825L104.124 102.413L101.315 100.583C101.092 100.806 100.872 101.04 100.657 101.274Z" fill="#E3EAF3"/>
<path d="M123.339 116.786C121.95 116.293 124.662 106.576 119.003 107.567C113.877 108.464 106.801 111.087 106.334 110.147C105.234 107.932 105.826 105.65 106.121 104.495C106.654 102.422 106.803 101.632 107.868 99C108.225 98.1173 108.341 95.9802 107.868 95.805C107.317 95.6039 105.757 97.9824 104.164 101.289L102.015 115.467C101.972 115.751 101.99 116.041 102.07 116.317C102.149 116.593 102.287 116.849 102.474 117.067C102.661 117.285 102.893 117.459 103.154 117.579C103.415 117.699 103.699 117.761 103.987 117.761H122.331C122.592 117.761 122.844 117.659 123.032 117.477C123.22 117.295 123.33 117.047 123.339 116.786Z" fill="#1A87C4"/>
<path d="M110.746 84.6817L111.82 111.662L120.04 108.372C120.169 108.32 120.308 108.297 120.448 108.306C120.587 108.315 120.722 108.355 120.844 108.423C120.966 108.491 121.071 108.586 121.151 108.7C121.231 108.814 121.285 108.944 121.308 109.082L122.12 114.073C122.153 114.265 122.125 114.463 122.04 114.638C121.955 114.813 121.818 114.958 121.647 115.051C119.784 116.035 113.969 119.124 110.422 121.114L108.195 150.094L94.4513 150.466C94.4513 150.466 95.1779 125.826 95.6725 121.853C96.1671 117.879 94.7471 94.0821 98.3492 89.9901C102.744 84.9988 110.746 84.6817 110.746 84.6817Z" fill="#E3EAF3"/>
<path d="M95.6725 121.853C95.9376 119.723 95.5684 111.872 95.7601 104.432C96.4701 116.054 97.6534 119.342 101.17 121.45C104.687 123.559 110.422 121.109 110.422 121.109C110.422 121.109 110.263 122.598 110.14 124.787L110.043 124.693C103.475 128.228 97.4996 128.806 95.2252 129.054C95.2252 129.054 95.5376 122.941 95.6725 121.853Z" fill="#ABBCCA"/>
<path d="M99.9349 88.6601C99.9349 88.6601 107.982 89.4837 106.64 102.448C106.532 103.349 106.616 104.263 106.886 105.129C107.156 105.995 107.606 106.795 108.206 107.475C109.11 108.501 110.361 109.157 111.719 109.316C111.794 110.997 111.82 111.666 111.82 111.666C110.589 111.93 109.344 112.123 108.09 112.244C107.037 112.975 104.893 114.532 104.015 115.635C104.506 114.022 105.378 112.55 106.557 111.345C106.538 111.306 106.521 111.267 106.507 111.226C105.512 107.945 105.226 104.49 105.667 101.09C105.667 101.09 106.408 90.3925 99.9349 88.6601Z" fill="#ABBCCA"/>
<path d="M144.076 116.218L144.232 115.47C144.232 115.47 148.255 114.904 149.249 114.35C150.243 113.796 152.326 112.417 152.671 112.533C153.017 112.649 153.561 113.302 152.733 113.993C151.905 114.684 150.286 116.09 150.667 116.289C151.048 116.487 156.652 117.417 156.924 117.673C157.196 117.929 157.816 118.856 157.04 119.351C156.625 119.638 156.144 119.815 155.641 119.865C155.641 119.865 156.136 121.578 154.2 120.96C154.2 120.96 154.004 122.44 152.572 121.73C152.572 121.73 152.082 123.057 150.835 122.603C149.588 122.148 142.592 120.946 142.592 120.946" fill="#EA9D7D"/>
<path d="M151.389 122.631C151.086 122.5 150.793 122.346 150.513 122.172C150.228 122.002 149.954 121.813 149.694 121.606C149.421 121.395 149.174 121.152 148.958 120.882C148.833 120.725 148.737 120.546 148.676 120.354C148.638 120.229 148.63 120.096 148.653 119.966C148.68 119.819 148.75 119.684 148.854 119.576L148.83 119.602C148.887 119.533 148.951 119.471 149.022 119.417C149.087 119.365 149.157 119.319 149.23 119.28C149.384 119.199 149.553 119.151 149.727 119.14C149.898 119.13 150.07 119.155 150.231 119.214C150.307 119.241 150.38 119.273 150.451 119.311C150.52 119.349 150.582 119.391 150.645 119.434L150.101 119.67C150.133 119.454 150.2 119.244 150.298 119.048C150.403 118.83 150.567 118.646 150.771 118.516C150.982 118.381 151.235 118.331 151.481 118.374C151.59 118.391 151.697 118.421 151.8 118.461C151.894 118.502 151.986 118.548 152.075 118.598L151.741 118.792C151.77 118.627 151.825 118.467 151.904 118.319C151.982 118.167 152.096 118.036 152.236 117.938C152.373 117.838 152.54 117.787 152.709 117.791C152.862 117.793 153.013 117.827 153.152 117.891C153.076 117.891 153.005 117.891 152.934 117.891C152.866 117.897 152.798 117.911 152.733 117.933C152.611 117.969 152.502 118.04 152.42 118.137C152.343 118.231 152.287 118.341 152.257 118.459C152.223 118.575 152.206 118.695 152.207 118.816L152.222 119.103L151.874 119.01C151.796 118.991 151.72 118.963 151.637 118.942C151.568 118.927 151.497 118.919 151.426 118.918C151.311 118.911 151.197 118.949 151.109 119.024C151.018 119.109 150.946 119.213 150.901 119.33C150.848 119.463 150.812 119.602 150.795 119.744L150.738 120.281L150.25 119.99C150.176 119.941 150.097 119.901 150.014 119.869C149.938 119.84 149.857 119.829 149.777 119.836C149.701 119.839 149.626 119.859 149.559 119.895C149.523 119.914 149.488 119.936 149.455 119.959C149.426 119.98 149.398 120.003 149.372 120.028L149.356 120.04V120.054C149.356 120.07 149.334 120.07 149.334 120.087C149.326 120.116 149.326 120.148 149.334 120.177C149.368 120.297 149.419 120.411 149.486 120.515C149.653 120.768 149.841 121.005 150.049 121.225C150.257 121.462 150.484 121.699 150.712 121.919L151.389 122.631Z" fill="#D18165"/>
<path d="M143.815 115.725V120.977" stroke="#2F170B" stroke-width="6" stroke-linecap="round" stroke-linejoin="round"/>
<path d="M129.693 101.632L126.297 90.9699C126.288 90.948 126.278 90.9266 126.266 90.906C126.07 90.6268 124.489 88.4045 122.596 87.4909C122.559 87.4734 122.518 87.4656 122.478 87.4684C122.437 87.4712 122.398 87.4844 122.364 87.5068C122.33 87.5291 122.302 87.5599 122.283 87.5961C122.265 87.6323 122.256 87.6727 122.257 87.7134L122.707 101.632H129.693Z" fill="#EF3E3B"/>
<path d="M129.693 101.632L126.297 90.9699C126.288 90.948 126.278 90.9266 126.266 90.906C126.07 90.6268 124.489 88.4045 122.596 87.4909C122.559 87.4734 122.518 87.4656 122.478 87.4684C122.437 87.4712 122.398 87.4844 122.364 87.5068C122.33 87.5291 122.302 87.5599 122.283 87.5961C122.265 87.6323 122.256 87.6727 122.257 87.7134L122.707 101.632H129.693Z" fill="#25BEEF"/>
<path d="M122.357 90.6646L122.712 101.632H126.444C126.531 98.9669 126.333 96.0251 124.787 92.752C123.727 90.5226 123.114 90.4114 122.856 90.4232C122.666 90.4397 122.488 90.5256 122.357 90.6646Z" fill="#1A87C4"/>
<path d="M129.225 100.129H122.948V101.076H129.525L129.225 100.129Z" fill="white"/>
<path d="M126.46 100.129H122.948V101.076H126.463C126.468 100.766 126.468 100.448 126.46 100.129Z" fill="#E3EAF3"/>
<path d="M128.531 97.9516H123.064V98.8983H128.832L128.531 97.9516Z" fill="white"/>
<path d="M126.307 97.9516H123.067V98.8983H126.404C126.38 98.5859 126.347 98.2711 126.307 97.9516Z" fill="#E3EAF3"/>
<path d="M119.003 84.6817V150.002H128.962L126.122 117.64C127.007 118.207 127.962 118.656 128.962 118.977C131.475 119.756 139.737 121.94 142.925 121.798C143.198 121.787 143.455 121.67 143.644 121.473C143.832 121.275 143.937 121.013 143.936 120.74V115.214C143.936 114.672 143.479 114.39 142.989 114.161C139.153 112.36 133.679 109.572 132.576 108.935C131.215 108.157 131.587 86.2437 119.003 84.6817Z" fill="#E3EAF3"/>
<path d="M124.863 98.3042C123.795 99.9249 123.216 101.819 123.194 103.759C123.206 106.891 124.304 117.574 124.352 121.178C124.399 124.783 125.199 132.727 124.543 139.148C124.091 143.583 123.057 147.635 121.843 150.002H128.962L126.122 117.64C126.122 117.64 124.487 102.841 124.863 98.3042Z" fill="#ABBCCA"/>
<path d="M143.945 115.607V120.856" stroke="#2F170B" stroke-width="6" stroke-linecap="round" stroke-linejoin="round"/>
<path d="M108.523 84.9633C108.523 84.9633 105.21 90.1251 107.212 102.11" stroke="#2F170B" stroke-width="5" stroke-linecap="round" stroke-linejoin="round"/>
<path d="M120.979 85.1219C120.979 85.1219 122.25 87.3489 121.569 94.4868" stroke="#2F170B" stroke-width="5" stroke-linecap="round" stroke-linejoin="round"/>
<path d="M123.403 105.887C125.296 106.441 126.072 102.903 126.072 102.903C126.072 98.4675 124.38 94.8702 122.286 94.8702H121.091C119.003 94.8702 117.304 98.4675 117.304 102.903C117.304 102.903 118.026 106.441 119.907 105.887" stroke="#2F170B" stroke-width="3" stroke-linecap="round" stroke-linejoin="round"/>
<path d="M120.078 106.696C120.373 106.696 120.612 106.315 120.612 105.844C120.612 105.374 120.373 104.992 120.078 104.992C119.782 104.992 119.543 105.374 119.543 105.844C119.543 106.315 119.782 106.696 120.078 106.696Z" fill="#2F170B"/>
<path d="M123.078 106.696C123.374 106.696 123.613 106.315 123.613 105.844C123.613 105.374 123.374 104.992 123.078 104.992C122.783 104.992 122.544 105.374 122.544 105.844C122.544 106.315 122.783 106.696 123.078 106.696Z" fill="#2F170B"/>
<path d="M107.333 104.401C108.504 104.401 109.454 103.451 109.454 102.28C109.454 101.109 108.504 100.16 107.333 100.16C106.162 100.16 105.213 101.109 105.213 102.28C105.213 103.451 106.162 104.401 107.333 104.401Z" fill="#2F170B"/>
<path d="M107.333 103.629C108.078 103.629 108.682 103.025 108.682 102.28C108.682 101.535 108.078 100.931 107.333 100.931C106.588 100.931 105.984 101.535 105.984 102.28C105.984 103.025 106.588 103.629 107.333 103.629Z" fill="#ABBCCA"/>
<path d="M107.333 102.905C107.678 102.905 107.958 102.625 107.958 102.28C107.958 101.935 107.678 101.655 107.333 101.655C106.988 101.655 106.708 101.935 106.708 102.28C106.708 102.625 106.988 102.905 107.333 102.905Z" fill="#2F170B"/>
<path d="M163.354 122.212L159.414 120.977L159.925 119.91L163.354 122.212Z" fill="black"/>
<path d="M160.718 120.338L160.231 121.353C160.209 121.398 160.171 121.432 160.124 121.449C160.078 121.465 160.026 121.463 159.981 121.441L158.87 120.908C158.774 120.862 158.7 120.779 158.664 120.678C158.629 120.578 158.635 120.467 158.681 120.371L158.982 119.744C159.028 119.647 159.111 119.573 159.211 119.538C159.312 119.503 159.423 119.509 159.519 119.555L160.63 120.088C160.675 120.11 160.71 120.148 160.726 120.195C160.742 120.242 160.74 120.293 160.718 120.338Z" fill="#1A87C4"/>
<path d="M150.866 117.068L151.515 115.715L149.872 114.927L149.223 116.28L150.866 117.068Z" fill="#1A87C4"/>
<path d="M160.213 119.281L159.087 121.628C159.059 121.685 159.011 121.728 158.952 121.749C158.892 121.77 158.827 121.767 158.771 121.739L150.566 117.803L151.894 115.036L160.107 118.976C160.164 119.003 160.207 119.052 160.228 119.111C160.249 119.17 160.245 119.235 160.218 119.292L160.213 119.281Z" fill="#E3EAF3"/>
<path d="M155.585 120.205C155.845 119.826 155.963 119.367 155.918 118.908C155.864 118.551 155.716 118.214 155.49 117.931C154.884 117.065 154.307 117.188 153.798 116.438C153.665 116.242 153.559 116.031 153.481 115.808L151.904 115.053L150.584 117.808L155.585 120.205Z" fill="#25BEEF"/>
<path d="M150.384 118.207L152.1 114.63C152.196 114.43 152.111 114.19 151.911 114.094C151.711 113.997 151.47 114.082 151.374 114.282L149.658 117.859C149.562 118.059 149.647 118.299 149.847 118.395C150.047 118.491 150.288 118.407 150.384 118.207Z" fill="#EF3E3B"/>
<path d="M148.975 116.791L150.117 114.412C150.213 114.212 150.128 113.971 149.928 113.875C149.728 113.779 149.487 113.864 149.391 114.064L148.25 116.443C148.154 116.644 148.238 116.884 148.439 116.98C148.639 117.076 148.879 116.992 148.975 116.791Z" fill="#EF3E3B"/>
<path d="M157.885 120.447L157.549 121.147" stroke="black" stroke-width="3" stroke-miterlimit="10"/>
<path d="M157.014 120.028L156.678 120.728" stroke="black" stroke-width="3" stroke-miterlimit="10"/>
<path d="M156.146 119.611L155.809 120.312" stroke="black" stroke-width="3" stroke-miterlimit="10"/>
<path d="M155.275 119.195L154.939 119.895" stroke="black" stroke-width="3" stroke-miterlimit="10"/>
<path d="M154.404 118.776L154.068 119.476" stroke="black" stroke-width="3" stroke-miterlimit="10"/>
<path d="M153.535 118.359L153.199 119.06" stroke="black" stroke-width="3" stroke-miterlimit="10"/>
<path d="M152.664 117.943L152.328 118.643" stroke="black" stroke-width="3" stroke-miterlimit="10"/>
<path d="M151.793 117.524L151.457 118.224" stroke="black" stroke-width="3" stroke-miterlimit="10"/>
<path d="M124.773 104.427C125.405 104.304 126.6 104.479 124.442 107.236L124.468 107.25C124.574 107.295 125.059 107.461 126.139 107.25C127.379 107.014 131.565 106.24 132.292 106.32C132.69 106.363 133.783 107.245 127.625 108.592C127.576 108.602 127.53 108.622 127.49 108.651C127.45 108.68 127.417 108.717 127.393 108.761C127.369 108.804 127.355 108.852 127.352 108.901C127.349 108.951 127.356 109 127.374 109.047C127.424 109.155 127.53 109.233 127.755 109.191C128.318 109.082 133.108 107.944 133.246 108.826C133.347 109.47 132.062 109.636 127.828 110.521C127.828 110.521 127.208 110.862 127.828 111.068C128.041 111.139 132.881 110.372 133.208 110.687C133.534 111.001 134.301 111.458 127.012 112.497C127.012 112.497 126.903 112.601 127.613 112.802C128.368 113.018 130.439 113.039 131.118 113.633C131.797 114.227 130.214 114.026 126.269 113.73L122.009 113.858H121.808C121.888 113.623 121.928 113.377 121.926 113.129C121.925 112.526 121.845 111.925 121.689 111.342C121.491 110.608 121.177 109.909 120.759 109.274L120.728 109.051C120.728 109.051 121.14 108.509 121.701 107.799C122.757 106.46 124.361 104.505 124.773 104.427Z" fill="#EA9D7D"/>
<path d="M184.548 43.4946V71.3148C184.548 71.6286 184.673 71.9296 184.895 72.1515C185.116 72.3734 185.417 72.4981 185.731 72.4981H215.973C216.286 72.4981 216.587 72.3734 216.809 72.1515C217.031 71.9296 217.156 71.6286 217.156 71.3148V43.4946C217.156 43.1808 217.031 42.8798 216.809 42.6579C216.587 42.436 216.286 42.3113 215.973 42.3113H185.731C185.417 42.3113 185.116 42.436 184.895 42.6579C184.673 42.8798 184.548 43.1808 184.548 43.4946ZM213.324 70.0533H188.387C188.073 70.0533 187.772 69.9287 187.55 69.7068C187.328 69.4848 187.203 69.1839 187.203 68.87V45.9441C187.203 45.6303 187.328 45.3293 187.55 45.1074C187.772 44.8855 188.073 44.7608 188.387 44.7608H213.331C213.645 44.7608 213.946 44.8855 214.168 45.1074C214.39 45.3293 214.515 45.6303 214.515 45.9441V68.87C214.515 69.026 214.484 69.1805 214.424 69.3245C214.364 69.4685 214.276 69.5993 214.166 69.7093C214.055 69.8192 213.924 69.9063 213.779 69.9653C213.635 70.0244 213.48 70.0543 213.324 70.0533Z" fill="#A04833"/>
<path d="M213.324 44.7608H188.38C187.726 44.7608 187.196 45.2906 187.196 45.9441V68.8605C187.196 69.5141 187.726 70.0439 188.38 70.0439H213.324C213.978 70.0439 214.508 69.5141 214.508 68.8605V45.9441C214.508 45.2906 213.978 44.7608 213.324 44.7608Z" fill="#E3EAF3"/>
<path d="M210.12 55.9882C209.813 55.7946 209.452 55.7054 209.091 55.734C208.73 55.7626 208.387 55.9074 208.115 56.1468H206.572C206.42 55.457 206.144 54.8003 205.758 54.2085L206.518 53.1979C206.582 53.2079 206.647 53.2142 206.712 53.2169C207.043 53.2164 207.366 53.1179 207.641 52.9337C207.916 52.7496 208.13 52.4881 208.256 52.1823C208.382 51.8765 208.415 51.5402 208.35 51.2158C208.285 50.8913 208.126 50.5934 207.892 50.3596C207.658 50.1259 207.359 49.9667 207.035 49.9024C206.71 49.838 206.374 49.8713 206.069 49.998C205.763 50.1247 205.502 50.3392 205.318 50.6143C205.134 50.8894 205.036 51.2128 205.036 51.5436C205.038 51.6088 205.046 51.6736 205.057 51.7377L204.045 52.495C203.454 52.1085 202.798 51.8334 202.109 51.6833V50.1402C202.322 49.8984 202.461 49.6001 202.509 49.2812C202.557 48.9623 202.512 48.6364 202.379 48.3425C202.246 48.0486 202.032 47.7992 201.761 47.6243C201.49 47.4493 201.174 47.3563 200.852 47.3563C200.529 47.3563 200.214 47.4493 199.943 47.6243C199.672 47.7992 199.457 48.0486 199.325 48.3425C199.192 48.6364 199.147 48.9623 199.195 49.2812C199.243 49.6001 199.382 49.8984 199.595 50.1402V51.6833C198.906 51.8334 198.25 52.1085 197.659 52.495L196.646 51.7377C196.658 51.6736 196.665 51.6087 196.668 51.5436C196.668 51.2121 196.57 50.8879 196.386 50.6121C196.203 50.3362 195.941 50.1211 195.635 49.9939C195.329 49.8667 194.992 49.8332 194.667 49.8976C194.341 49.962 194.043 50.1214 193.808 50.3556C193.573 50.5898 193.414 50.8884 193.349 51.2135C193.284 51.5386 193.317 51.8756 193.444 52.1819C193.571 52.4883 193.785 52.7501 194.061 52.9343C194.336 53.1185 194.661 53.2169 194.992 53.2169C195.057 53.2142 195.122 53.2079 195.186 53.1979L195.946 54.2085C195.56 54.8003 195.284 55.457 195.132 56.1468H193.593C193.39 55.9668 193.146 55.8389 192.883 55.7741C192.619 55.7092 192.344 55.7094 192.08 55.7745C191.817 55.8396 191.573 55.9677 191.37 56.1479C191.167 56.328 191.011 56.5548 190.915 56.8086C190.819 57.0625 190.786 57.3359 190.819 57.6053C190.852 57.8747 190.95 58.132 191.105 58.3551C191.259 58.5782 191.466 58.7605 191.706 58.8862C191.947 59.0119 192.214 59.0773 192.486 59.0767C192.894 59.0783 193.288 58.9292 193.593 58.6578H195.136C195.288 59.3478 195.564 60.0045 195.951 60.5961L195.191 61.6067C195.127 61.5968 195.062 61.5904 194.997 61.5878C194.665 61.5878 194.341 61.686 194.066 61.8702C193.79 62.0543 193.576 62.316 193.449 62.6221C193.322 62.9283 193.289 63.2652 193.353 63.5903C193.418 63.9153 193.578 64.2139 193.812 64.4482C194.046 64.6825 194.345 64.8421 194.67 64.9068C194.995 64.9714 195.332 64.9382 195.638 64.8114C195.944 64.6846 196.206 64.4698 196.39 64.1943C196.574 63.9187 196.672 63.5948 196.672 63.2634C196.67 63.1982 196.663 63.1334 196.651 63.0693L197.664 62.3096C198.255 62.6962 198.911 62.9721 199.6 63.1237V64.6668C199.387 64.9086 199.248 65.2069 199.2 65.5258C199.152 65.8447 199.197 66.1706 199.329 66.4645C199.462 66.7584 199.677 67.0078 199.948 67.1827C200.219 67.3577 200.534 67.4507 200.857 67.4507C201.179 67.4507 201.495 67.3577 201.766 67.1827C202.037 67.0078 202.251 66.7584 202.384 66.4645C202.517 66.1706 202.562 65.8447 202.514 65.5258C202.466 65.2069 202.327 64.9086 202.113 64.6668V63.1237C202.803 62.9717 203.46 62.6958 204.052 62.3096L205.062 63.0693C205.05 63.1334 205.043 63.1982 205.041 63.2634C205.041 63.5948 205.139 63.9187 205.323 64.1943C205.507 64.4698 205.769 64.6846 206.075 64.8114C206.381 64.9382 206.718 64.9714 207.043 64.9068C207.368 64.8421 207.667 64.6825 207.901 64.4482C208.136 64.2139 208.295 63.9153 208.36 63.5903C208.425 63.2652 208.391 62.9283 208.265 62.6221C208.138 62.316 207.923 62.0543 207.647 61.8702C207.372 61.686 207.048 61.5878 206.717 61.5878C206.652 61.5904 206.587 61.5968 206.522 61.6067L205.758 60.5867C206.144 59.9951 206.42 59.3384 206.572 58.6484H208.115C208.42 58.9197 208.815 59.0689 209.223 59.0673C209.586 59.0682 209.939 58.951 210.23 58.7334C210.521 58.5157 210.733 58.2094 210.834 57.8607C210.935 57.512 210.92 57.1398 210.792 56.8003C210.663 56.4608 210.427 56.1725 210.12 55.9788V55.9882ZM206.712 50.7058C206.877 50.7058 207.039 50.755 207.177 50.847C207.315 50.9391 207.422 51.0699 207.486 51.223C207.549 51.3761 207.566 51.5446 207.533 51.7071C207.501 51.8696 207.421 52.0189 207.304 52.136C207.187 52.2532 207.038 52.333 206.875 52.3653C206.713 52.3977 206.544 52.3811 206.391 52.3177C206.238 52.2542 206.107 52.1469 206.015 52.0091C205.923 51.8713 205.874 51.7093 205.874 51.5436C205.874 51.3214 205.962 51.1083 206.119 50.9512C206.276 50.7941 206.49 50.7058 206.712 50.7058ZM194.168 51.5436C194.168 51.3777 194.217 51.2154 194.309 51.0773C194.401 50.9392 194.531 50.8314 194.685 50.7677C194.838 50.704 195.006 50.6872 195.169 50.7195C195.332 50.7517 195.481 50.8315 195.599 50.9489C195.716 51.0662 195.796 51.2157 195.828 51.3784C195.86 51.5411 195.844 51.7098 195.78 51.863C195.716 52.0162 195.608 52.147 195.47 52.2389C195.332 52.3307 195.17 52.3795 195.004 52.3791C194.893 52.3806 194.783 52.3602 194.681 52.3189C194.578 52.2776 194.484 52.2163 194.405 52.1386C194.327 52.0609 194.264 51.9682 194.221 51.8661C194.179 51.764 194.157 51.6543 194.157 51.5436H194.168ZM195.004 64.087C194.838 64.087 194.676 64.0378 194.538 63.9456C194.4 63.8534 194.293 63.7225 194.23 63.5692C194.166 63.416 194.15 63.2474 194.182 63.0848C194.215 62.9223 194.295 62.773 194.412 62.6559C194.53 62.5388 194.679 62.4592 194.842 62.4272C195.005 62.3951 195.173 62.412 195.326 62.4758C195.479 62.5396 195.61 62.6473 195.702 62.7854C195.793 62.9235 195.842 63.0857 195.842 63.2515C195.843 63.3634 195.822 63.4745 195.78 63.5782C195.738 63.6819 195.675 63.776 195.596 63.8551C195.517 63.9341 195.423 63.9964 195.319 64.0383C195.215 64.0801 195.104 64.1007 194.992 64.0988L195.004 64.087ZM207.557 63.2634C207.557 63.4292 207.507 63.5912 207.415 63.7291C207.323 63.8669 207.192 63.9743 207.039 64.0376C206.886 64.101 206.717 64.1174 206.555 64.0849C206.392 64.0524 206.243 63.9723 206.126 63.8549C206.009 63.7375 205.929 63.588 205.897 63.4254C205.865 63.2627 205.882 63.0942 205.946 62.9411C206.009 62.7881 206.117 62.6574 206.255 62.5656C206.393 62.4738 206.555 62.4251 206.721 62.4256C206.831 62.4256 206.94 62.4473 207.041 62.4894C207.143 62.5315 207.235 62.5933 207.313 62.6711C207.39 62.7489 207.452 62.8413 207.494 62.9429C207.536 63.0446 207.557 63.1535 207.557 63.2634Z" fill="#37D6BA"/>
<path d="M210.12 55.9882C209.813 55.7946 209.452 55.7054 209.091 55.734C208.73 55.7626 208.387 55.9074 208.115 56.1468H206.572C206.42 55.457 206.144 54.8003 205.758 54.2085L206.518 53.1979C206.582 53.2079 206.647 53.2142 206.712 53.2169C207.043 53.2164 207.366 53.1179 207.641 52.9337C207.916 52.7496 208.13 52.4881 208.256 52.1823C208.382 51.8765 208.415 51.5402 208.35 51.2158C208.285 50.8913 208.126 50.5934 207.892 50.3596C207.658 50.1259 207.359 49.9667 207.035 49.9024C206.71 49.838 206.374 49.8713 206.069 49.998C205.763 50.1247 205.502 50.3392 205.318 50.6143C205.134 50.8894 205.036 51.2128 205.036 51.5436C205.038 51.6088 205.046 51.6736 205.057 51.7377L204.045 52.495C203.454 52.1085 202.798 51.8334 202.109 51.6833V50.1402C202.322 49.8984 202.461 49.6001 202.509 49.2812C202.557 48.9623 202.512 48.6364 202.379 48.3425C202.246 48.0486 202.032 47.7992 201.761 47.6243C201.49 47.4493 201.174 47.3563 200.852 47.3563C200.529 47.3563 200.214 47.4493 199.943 47.6243C199.672 47.7992 199.457 48.0486 199.325 48.3425C199.192 48.6364 199.147 48.9623 199.195 49.2812C199.243 49.6001 199.382 49.8984 199.595 50.1402V51.6833C198.906 51.8334 198.25 52.1085 197.659 52.495L196.646 51.7377C196.658 51.6736 196.665 51.6087 196.668 51.5436C196.668 51.2121 196.57 50.8879 196.386 50.6121C196.203 50.3362 195.941 50.1211 195.635 49.9939C195.329 49.8667 194.992 49.8332 194.667 49.8976C194.341 49.962 194.043 50.1214 193.808 50.3556C193.573 50.5898 193.414 50.8884 193.349 51.2135C193.284 51.5386 193.317 51.8756 193.444 52.1819C193.571 52.4883 193.785 52.7501 194.061 52.9343C194.336 53.1185 194.661 53.2169 194.992 53.2169C195.057 53.2142 195.122 53.2079 195.186 53.1979L195.946 54.2085C195.56 54.8003 195.284 55.457 195.132 56.1468H193.593C193.39 55.9668 193.146 55.8389 192.883 55.7741C192.619 55.7092 192.344 55.7094 192.08 55.7745C191.817 55.8396 191.573 55.9677 191.37 56.1479C191.167 56.328 191.011 56.5548 190.915 56.8086C190.819 57.0625 190.786 57.3359 190.819 57.6053C190.852 57.8747 190.95 58.132 191.105 58.3551C191.259 58.5782 191.466 58.7605 191.706 58.8862C191.947 59.0119 192.214 59.0773 192.486 59.0767C192.894 59.0783 193.288 58.9292 193.593 58.6578H195.136C195.288 59.3478 195.564 60.0045 195.951 60.5961L195.191 61.6067C195.127 61.5968 195.062 61.5904 194.997 61.5878C194.665 61.5878 194.341 61.686 194.066 61.8702C193.79 62.0543 193.576 62.316 193.449 62.6221C193.322 62.9283 193.289 63.2652 193.353 63.5903C193.418 63.9153 193.578 64.2139 193.812 64.4482C194.046 64.6825 194.345 64.8421 194.67 64.9068C194.995 64.9714 195.332 64.9382 195.638 64.8114C195.944 64.6846 196.206 64.4698 196.39 64.1943C196.574 63.9187 196.672 63.5948 196.672 63.2634C196.67 63.1982 196.663 63.1334 196.651 63.0693L197.664 62.3096C198.255 62.6962 198.911 62.9721 199.6 63.1237V64.6668C199.387 64.9086 199.248 65.2069 199.2 65.5258C199.152 65.8447 199.197 66.1706 199.329 66.4645C199.462 66.7584 199.677 67.0078 199.948 67.1827C200.219 67.3577 200.534 67.4507 200.857 67.4507C201.179 67.4507 201.495 67.3577 201.766 67.1827C202.037 67.0078 202.251 66.7584 202.384 66.4645C202.517 66.1706 202.562 65.8447 202.514 65.5258C202.466 65.2069 202.327 64.9086 202.113 64.6668V63.1237C202.803 62.9717 203.46 62.6958 204.052 62.3096L205.062 63.0693C205.05 63.1334 205.043 63.1982 205.041 63.2634C205.041 63.5948 205.139 63.9187 205.323 64.1943C205.507 64.4698 205.769 64.6846 206.075 64.8114C206.381 64.9382 206.718 64.9714 207.043 64.9068C207.368 64.8421 207.667 64.6825 207.901 64.4482C208.136 64.2139 208.295 63.9153 208.36 63.5903C208.425 63.2652 208.391 62.9283 208.265 62.6221C208.138 62.316 207.923 62.0543 207.647 61.8702C207.372 61.686 207.048 61.5878 206.717 61.5878C206.652 61.5904 206.587 61.5968 206.522 61.6067L205.758 60.5867C206.144 59.9951 206.42 59.3384 206.572 58.6484H208.115C208.42 58.9197 208.815 59.0689 209.223 59.0673C209.586 59.0682 209.939 58.951 210.23 58.7334C210.521 58.5157 210.733 58.2094 210.834 57.8607C210.935 57.512 210.92 57.1398 210.792 56.8003C210.663 56.4608 210.427 56.1725 210.12 55.9788V55.9882ZM206.712 50.7058C206.877 50.7058 207.039 50.755 207.177 50.847C207.315 50.9391 207.422 51.0699 207.486 51.223C207.549 51.3761 207.566 51.5446 207.533 51.7071C207.501 51.8696 207.421 52.0189 207.304 52.136C207.187 52.2532 207.038 52.333 206.875 52.3653C206.713 52.3977 206.544 52.3811 206.391 52.3177C206.238 52.2542 206.107 52.1469 206.015 52.0091C205.923 51.8713 205.874 51.7093 205.874 51.5436C205.874 51.3214 205.962 51.1083 206.119 50.9512C206.276 50.7941 206.49 50.7058 206.712 50.7058ZM200.289 49.6503C200.202 49.5723 200.133 49.4771 200.086 49.3706C200.038 49.2642 200.014 49.149 200.014 49.0326C200.014 48.8104 200.102 48.5973 200.259 48.4402C200.417 48.2831 200.63 48.1948 200.852 48.1948C201.074 48.1948 201.287 48.2831 201.444 48.4402C201.601 48.5973 201.69 48.8104 201.69 49.0326C201.69 49.149 201.665 49.2642 201.618 49.3706C201.571 49.4771 201.502 49.5723 201.415 49.6503C201.37 49.6891 201.333 49.7374 201.308 49.7918C201.283 49.8461 201.271 49.9053 201.271 49.9651V51.5602C200.992 51.5389 200.712 51.5389 200.433 51.5602V49.9651C200.433 49.9053 200.42 49.8461 200.396 49.7918C200.371 49.7374 200.334 49.6891 200.289 49.6503ZM194.157 51.5436C194.156 51.3777 194.205 51.2154 194.297 51.0773C194.389 50.9392 194.52 50.8314 194.673 50.7677C194.826 50.704 194.995 50.6872 195.157 50.7195C195.32 50.7517 195.47 50.8315 195.587 50.9489C195.704 51.0662 195.784 51.2157 195.816 51.3784C195.848 51.5411 195.832 51.7098 195.768 51.863C195.704 52.0162 195.597 52.147 195.458 52.2389C195.32 52.3307 195.158 52.3795 194.992 52.3791C194.77 52.3791 194.558 52.291 194.401 52.1344C194.245 51.9777 194.157 51.7652 194.157 51.5436ZM193.416 57.8224C193.356 57.822 193.297 57.8345 193.242 57.859C193.187 57.8835 193.138 57.9194 193.099 57.9644C193.022 58.052 192.926 58.1219 192.82 58.1692C192.713 58.2166 192.598 58.2404 192.481 58.2389C192.367 58.245 192.254 58.2278 192.147 58.1885C192.04 58.1492 191.943 58.0885 191.86 58.0103C191.777 57.932 191.712 57.8377 191.667 57.7332C191.622 57.6287 191.599 57.5161 191.599 57.4023C191.599 57.2885 191.622 57.176 191.667 57.0714C191.712 56.9669 191.777 56.8727 191.86 56.7944C191.943 56.7161 192.04 56.6554 192.147 56.6161C192.254 56.5768 192.367 56.5597 192.481 56.5657C192.598 56.5642 192.713 56.588 192.82 56.6354C192.926 56.6828 193.022 56.7527 193.099 56.8402C193.138 56.8859 193.187 56.9225 193.241 56.9474C193.296 56.9723 193.356 56.985 193.416 56.9846H195.013C194.994 57.2635 194.994 57.5435 195.013 57.8224H193.416ZM194.992 64.0988C194.826 64.0988 194.664 64.0496 194.526 63.9574C194.389 63.8653 194.281 63.7343 194.218 63.5811C194.154 63.4278 194.138 63.2593 194.171 63.0967C194.203 62.9341 194.283 62.7848 194.4 62.6677C194.518 62.5507 194.667 62.4711 194.83 62.439C194.993 62.407 195.161 62.4239 195.314 62.4877C195.467 62.5514 195.598 62.6592 195.69 62.7973C195.782 62.9354 195.83 63.0976 195.83 63.2634C195.83 63.3733 195.808 63.4821 195.766 63.5836C195.724 63.6851 195.662 63.7773 195.584 63.8549C195.506 63.9326 195.414 63.994 195.312 64.0359C195.211 64.0777 195.102 64.0991 194.992 64.0988ZM201.415 65.1543C201.54 65.268 201.628 65.417 201.667 65.5816C201.706 65.7462 201.694 65.9187 201.633 66.0764C201.572 66.2342 201.465 66.3698 201.326 66.4655C201.186 66.5611 201.021 66.6123 200.852 66.6123C200.683 66.6123 200.518 66.5611 200.378 66.4655C200.239 66.3698 200.131 66.2342 200.07 66.0764C200.009 65.9187 199.998 65.7462 200.037 65.5816C200.076 65.417 200.163 65.268 200.289 65.1543C200.334 65.1155 200.371 65.0672 200.396 65.0129C200.42 64.9585 200.433 64.8994 200.433 64.8396V63.2468C200.573 63.2468 200.712 63.2634 200.852 63.2634C200.992 63.2634 201.131 63.2634 201.271 63.2468V64.8467C201.272 64.9053 201.285 64.963 201.31 65.0161C201.335 65.0691 201.371 65.1163 201.415 65.1543ZM207.547 63.261C207.547 63.4268 207.498 63.5889 207.406 63.7267C207.314 63.8645 207.183 63.9719 207.029 64.0352C206.876 64.0986 206.708 64.115 206.545 64.0825C206.383 64.05 206.233 63.97 206.116 63.8526C205.999 63.7352 205.919 63.5857 205.887 63.423C205.855 63.2603 205.872 63.0918 205.936 62.9387C206 62.7857 206.108 62.655 206.246 62.5632C206.384 62.4715 206.546 62.4227 206.712 62.4232C206.823 62.4219 206.933 62.4428 207.035 62.4845C207.138 62.5262 207.232 62.588 207.31 62.6662C207.389 62.7444 207.451 62.8375 207.494 62.94C207.536 63.0425 207.557 63.1525 207.557 63.2634L207.547 63.261ZM205.377 62.2575L204.033 61.2493C203.841 61.4327 203.627 61.5917 203.396 61.7227C202.625 62.1758 201.746 62.4148 200.852 62.4148C199.957 62.4148 199.079 62.1758 198.308 61.7227C198.069 61.6041 197.853 61.4438 197.671 61.2493L196.327 62.2575C196.232 62.1322 196.121 62.0207 195.996 61.9262L197.001 60.5867C196.81 60.4011 196.65 60.1852 196.528 59.9477C196.074 59.1772 195.834 58.2991 195.834 57.4047C195.834 56.5102 196.074 55.6321 196.528 54.8617C196.708 54.6416 196.845 54.4097 197.001 54.2227L195.993 52.8784C196.12 52.7846 196.232 52.673 196.327 52.5471L197.671 53.5553C197.908 53.4062 198.125 53.1932 198.312 53.082C199.075 52.6173 199.947 52.3649 200.84 52.3507C201.732 52.3366 202.612 52.5612 203.389 53.0015C203.655 53.1192 203.879 53.3137 204.033 53.56L205.377 52.5518C205.471 52.6784 205.582 52.7908 205.708 52.8855L204.702 54.2274C204.852 54.36 204.87 54.3789 205.176 54.8664C205.63 55.6369 205.87 56.515 205.87 57.4094C205.87 58.3039 205.63 59.182 205.176 59.9524C205.073 60.2013 204.911 60.4209 204.702 60.5914L205.708 61.9357C205.583 62.028 205.472 62.1371 205.377 62.2599V62.2575ZM209.223 58.2342C209.106 58.2357 208.991 58.2119 208.884 58.1645C208.777 58.1171 208.682 58.0472 208.605 57.9597C208.566 57.915 208.517 57.8792 208.463 57.8547C208.409 57.8302 208.35 57.8176 208.29 57.8177H206.695C206.714 57.5387 206.714 57.2588 206.695 56.9799H208.29C208.35 56.9801 208.409 56.9673 208.464 56.9424C208.518 56.9174 208.566 56.881 208.605 56.8355C208.681 56.7496 208.775 56.6808 208.88 56.6339C208.985 56.587 209.098 56.5629 209.213 56.5633C209.327 56.5573 209.441 56.5744 209.547 56.6138C209.654 56.6531 209.752 56.7137 209.834 56.792C209.917 56.8703 209.983 56.9646 210.028 57.0691C210.072 57.1736 210.096 57.2862 210.096 57.4C210.096 57.5137 210.072 57.6263 210.028 57.7308C209.983 57.8353 209.917 57.9296 209.834 58.0079C209.752 58.0862 209.654 58.1468 209.547 58.1861C209.441 58.2255 209.327 58.2426 209.213 58.2366L209.223 58.2342Z" fill="#0AA68B"/>
<path d="M198.779 55.8794C199.248 55.8794 199.628 55.499 199.628 55.0298C199.628 54.5605 199.248 54.1801 198.779 54.1801C198.309 54.1801 197.929 54.5605 197.929 55.0298C197.929 55.499 198.309 55.8794 198.779 55.8794Z" fill="#0AA68B"/>
<path d="M203.124 59.543C203.483 59.543 203.775 59.2516 203.775 58.8921C203.775 58.5327 203.483 58.2413 203.124 58.2413C202.764 58.2413 202.473 58.5327 202.473 58.8921C202.473 59.2516 202.764 59.543 203.124 59.543Z" fill="#0AA68B"/>
<path d="M202.473 55.6806C202.833 55.6806 203.124 55.3892 203.124 55.0297C203.124 54.6703 202.833 54.3789 202.473 54.3789C202.114 54.3789 201.822 54.6703 201.822 55.0297C201.822 55.3892 202.114 55.6806 202.473 55.6806Z" fill="#0AA68B"/>
<path d="M199.065 60.7145C199.968 60.7145 200.7 59.9823 200.7 59.0791C200.7 58.1759 199.968 57.4438 199.065 57.4438C198.162 57.4438 197.43 58.1759 197.43 59.0791C197.43 59.9823 198.162 60.7145 199.065 60.7145Z" fill="#0AA68B"/>
<path d="M212.673 129.487C212.673 129.224 212.778 128.971 212.965 128.785C213.151 128.598 213.404 128.493 213.667 128.493H243.293V195.532H213.667C213.404 195.531 213.151 195.426 212.964 195.239C212.778 195.052 212.673 194.799 212.673 194.535V129.487Z" fill="#9D9F9F"/>
<path d="M243.293 128.493V195.532H250.713C250.977 195.531 251.229 195.426 251.416 195.239C251.602 195.052 251.707 194.799 251.707 194.535V129.487C251.707 129.224 251.602 128.971 251.416 128.785C251.229 128.598 250.976 128.493 250.713 128.493H243.293Z" fill="#454851"/>
<path d="M237.308 132.138H216.207C215.683 132.138 215.258 132.563 215.258 133.087V140.5C215.258 141.024 215.683 141.449 216.207 141.449H237.308C237.832 141.449 238.257 141.024 238.257 140.5V133.087C238.257 132.563 237.832 132.138 237.308 132.138Z" fill="#E3EAF3"/>
<path d="M239.798 132.138H237.351C237.476 132.143 237.599 132.173 237.712 132.226C237.826 132.279 237.928 132.354 238.012 132.447C238.096 132.54 238.161 132.648 238.203 132.766C238.246 132.884 238.264 133.009 238.257 133.134V140.455C238.263 140.58 238.245 140.704 238.203 140.822C238.161 140.94 238.095 141.048 238.011 141.141C237.927 141.233 237.825 141.308 237.712 141.361C237.598 141.414 237.476 141.443 237.351 141.449H239.798C239.923 141.443 240.045 141.414 240.159 141.361C240.272 141.308 240.374 141.233 240.458 141.141C240.543 141.048 240.608 140.94 240.65 140.822C240.692 140.704 240.711 140.58 240.704 140.455V133.134C240.711 133.009 240.693 132.884 240.651 132.766C240.609 132.648 240.543 132.54 240.459 132.447C240.375 132.354 240.273 132.279 240.159 132.226C240.046 132.173 239.923 132.143 239.798 132.138Z" fill="#ABBCCA"/>
<path d="M226.757 138.386C227.559 138.386 228.208 137.673 228.208 136.793C228.208 135.914 227.559 135.201 226.757 135.201C225.956 135.201 225.307 135.914 225.307 136.793C225.307 137.673 225.956 138.386 226.757 138.386Z" fill="#9D9F9F"/>
<path d="M237.308 144.748H216.207C215.683 144.748 215.258 145.173 215.258 145.697V153.109C215.258 153.633 215.683 154.058 216.207 154.058H237.308C237.832 154.058 238.257 153.633 238.257 153.109V145.697C238.257 145.173 237.832 144.748 237.308 144.748Z" fill="#E3EAF3"/>
<path d="M239.798 144.748H237.351C237.476 144.753 237.599 144.783 237.712 144.836C237.826 144.889 237.928 144.964 238.012 145.057C238.096 145.149 238.161 145.258 238.203 145.376C238.246 145.494 238.264 145.619 238.257 145.744V153.064C238.263 153.189 238.245 153.314 238.203 153.432C238.161 153.55 238.095 153.658 238.011 153.75C237.927 153.843 237.825 153.917 237.712 153.97C237.598 154.023 237.476 154.053 237.351 154.058H239.798C239.923 154.053 240.045 154.023 240.159 153.97C240.272 153.917 240.374 153.843 240.458 153.75C240.543 153.658 240.608 153.55 240.65 153.432C240.692 153.314 240.711 153.189 240.704 153.064V145.744C240.711 145.619 240.693 145.494 240.651 145.376C240.609 145.258 240.543 145.149 240.459 145.057C240.375 144.964 240.273 144.889 240.159 144.836C240.046 144.783 239.923 144.753 239.798 144.748Z" fill="#ABBCCA"/>
<path d="M226.757 150.996C227.559 150.996 228.208 150.283 228.208 149.403C228.208 148.523 227.559 147.81 226.757 147.81C225.956 147.81 225.307 148.523 225.307 149.403C225.307 150.283 225.956 150.996 226.757 150.996Z" fill="#9D9F9F"/>
<path d="M237.308 157.357H216.207C215.683 157.357 215.258 157.782 215.258 158.306V165.719C215.258 166.243 215.683 166.668 216.207 166.668H237.308C237.832 166.668 238.257 166.243 238.257 165.719V158.306C238.257 157.782 237.832 157.357 237.308 157.357Z" fill="#E3EAF3"/>
<path d="M239.798 157.357H237.351C237.476 157.362 237.599 157.392 237.712 157.445C237.826 157.498 237.928 157.573 238.012 157.666C238.096 157.759 238.161 157.867 238.203 157.985C238.246 158.103 238.264 158.229 238.257 158.354V165.667C238.263 165.792 238.245 165.917 238.203 166.034C238.161 166.152 238.095 166.26 238.011 166.353C237.927 166.445 237.825 166.52 237.712 166.573C237.598 166.626 237.476 166.656 237.351 166.661H239.798C239.923 166.656 240.045 166.626 240.159 166.573C240.272 166.52 240.374 166.445 240.458 166.353C240.543 166.26 240.608 166.152 240.65 166.034C240.692 165.917 240.711 165.792 240.704 165.667V158.354C240.711 158.229 240.693 158.103 240.651 157.985C240.609 157.867 240.543 157.759 240.459 157.666C240.375 157.573 240.273 157.498 240.159 157.445C240.046 157.392 239.923 157.362 239.798 157.357Z" fill="#ABBCCA"/>
<path d="M226.757 163.605C227.559 163.605 228.208 162.892 228.208 162.013C228.208 161.133 227.559 160.42 226.757 160.42C225.956 160.42 225.307 161.133 225.307 162.013C225.307 162.892 225.956 163.605 226.757 163.605Z" fill="#9D9F9F"/>
<path d="M237.308 169.967H216.207C215.683 169.967 215.258 170.392 215.258 170.916V178.328C215.258 178.852 215.683 179.277 216.207 179.277H237.308C237.832 179.277 238.257 178.852 238.257 178.328V170.916C238.257 170.392 237.832 169.967 237.308 169.967Z" fill="#E3EAF3"/>
<path d="M239.798 169.967H237.351C237.476 169.972 237.599 170.002 237.712 170.055C237.826 170.108 237.928 170.183 238.012 170.276C238.096 170.368 238.161 170.477 238.203 170.595C238.246 170.713 238.264 170.838 238.257 170.963V178.283C238.263 178.408 238.245 178.533 238.203 178.651C238.161 178.769 238.095 178.877 238.011 178.969C237.927 179.062 237.825 179.137 237.712 179.189C237.598 179.242 237.476 179.272 237.351 179.277H239.798C239.923 179.272 240.045 179.242 240.159 179.189C240.272 179.137 240.374 179.062 240.458 178.969C240.543 178.877 240.608 178.769 240.65 178.651C240.692 178.533 240.711 178.408 240.704 178.283V170.963C240.711 170.838 240.693 170.713 240.651 170.595C240.609 170.477 240.543 170.368 240.459 170.276C240.375 170.183 240.273 170.108 240.159 170.055C240.046 170.002 239.923 169.972 239.798 169.967Z" fill="#ABBCCA"/>
<path d="M226.757 176.215C227.559 176.215 228.208 175.502 228.208 174.622C228.208 173.742 227.559 173.029 226.757 173.029C225.956 173.029 225.307 173.742 225.307 174.622C225.307 175.502 225.956 176.215 226.757 176.215Z" fill="#9D9F9F"/>
<path d="M237.308 182.577H216.207C215.683 182.577 215.258 183.001 215.258 183.526V190.938C215.258 191.462 215.683 191.887 216.207 191.887H237.308C237.832 191.887 238.257 191.462 238.257 190.938V183.526C238.257 183.001 237.832 182.577 237.308 182.577Z" fill="#E3EAF3"/>
<path d="M239.798 182.577H237.351C237.476 182.582 237.599 182.612 237.712 182.665C237.826 182.718 237.928 182.793 238.012 182.885C238.096 182.978 238.161 183.087 238.203 183.205C238.246 183.323 238.264 183.448 238.257 183.573V190.893C238.263 191.018 238.245 191.143 238.203 191.261C238.161 191.378 238.095 191.487 238.011 191.579C237.927 191.671 237.825 191.746 237.712 191.799C237.598 191.852 237.476 191.882 237.351 191.887H239.798C239.923 191.882 240.045 191.852 240.159 191.799C240.272 191.746 240.374 191.671 240.458 191.579C240.543 191.487 240.608 191.378 240.65 191.261C240.692 191.143 240.711 191.018 240.704 190.893V183.573C240.711 183.448 240.693 183.323 240.651 183.205C240.609 183.087 240.543 182.978 240.459 182.885C240.375 182.793 240.273 182.718 240.159 182.665C240.046 182.612 239.923 182.582 239.798 182.577Z" fill="#ABBCCA"/>
<path d="M226.757 188.825C227.559 188.825 228.208 188.111 228.208 187.232C228.208 186.352 227.559 185.639 226.757 185.639C225.956 185.639 225.307 186.352 225.307 187.232C225.307 188.111 225.956 188.825 226.757 188.825Z" fill="#9D9F9F"/>
</svg>
